G04 ================== begin FILE IDENTIFICATION RECORD ==================*
G04 Layout Name:  Popcorn Popstick Rev1p1_Release.brd*
G04 Film Name:    ADB*
G04 File Format:  Gerber RS274X*
G04 File Origin:  Cadence Allegro 17.2-S053*
G04 Origin Date:  Thu Jun 30 17:47:12 2022*
G04 *
G04 Layer:  REF DES/ASSEMBLY_BOTTOM*
G04 Layer:  PACKAGE GEOMETRY/ASSEMBLY_BOTTOM*
G04 Layer:  BOARD GEOMETRY/OUTLINE*
G04 Layer:  BOARD GEOMETRY/SILKSCREEN_BOTTOM*
G04 *
G04 Offset:    (0.0000 0.0000)*
G04 Mirror:    No*
G04 Mode:      Positive*
G04 Rotation:  0*
G04 FullContactRelief:  No*
G04 UndefLineWidth:     0.1270*
G04 ================== end FILE IDENTIFICATION RECORD ====================*
%FSLAX55Y55*MOMM*%
%IR0*IPPOS*OFA0.00000B0.00000*MIA0B0*SFA1.00000B1.00000*%
%ADD10C,.1001*%
%ADD11C,.127*%
%ADD12C,.1524*%
G75*
%LPD*%
G75*
G36*
G01X3668500Y1219200D02*
G03I-28400J0D01*
G37*
G54D10*
G01X1345090Y1380100D02*
G03I-32390J0D01*
G54D11*
G01X0Y0D02*
X4500000D01*
Y1900000D01*
X0D01*
Y0D01*
G01X798400Y495500D02*
X138400D01*
Y225500D01*
X798400D01*
Y495500D01*
G01X285700Y1598700D02*
X31800D01*
Y1728700D01*
X323800D01*
Y1636800D01*
X285700Y1598700D01*
G01X641300D02*
X387400D01*
Y1728700D01*
X679400D01*
Y1636800D01*
X641300Y1598700D01*
G01X996900D02*
X743000D01*
Y1728700D01*
X1035000D01*
Y1636800D01*
X996900Y1598700D01*
G01X2614600Y1230000D02*
X1182700D01*
X1144600Y1191900D01*
Y-170000D01*
X2614600D01*
Y1230000D01*
G01X2003240Y1521400D02*
G03I-14140J0D01*
G01X4105200Y1841800D02*
X3505200D01*
Y1454900D01*
X3543300Y1416800D01*
X4105200D01*
Y1839300D01*
G01X153670Y1407160D02*
X405130D01*
Y1285240D01*
X153670D01*
Y1407160D01*
G01X684530Y1285240D02*
X433070D01*
Y1407160D01*
X684530D01*
Y1285240D01*
G01X737870Y1000760D02*
X989330D01*
Y878840D01*
X737870D01*
Y1000760D01*
G01X739140Y1191260D02*
X990600D01*
Y1069340D01*
X739140D01*
Y1191260D01*
G01X725170Y1407160D02*
X976630D01*
Y1285240D01*
X725170D01*
Y1407160D01*
G01X782780Y2147620D02*
X862160Y2401620D01*
X941540Y2147620D01*
G01X912960Y2236520D02*
X811360D01*
G01X1049480Y2181480D02*
X1074890Y2160320D01*
X1103460Y2147620D01*
X1128860D01*
X1154260Y2160320D01*
X1173310Y2181480D01*
X1182840Y2211120D01*
X1176490Y2240750D01*
X1160610Y2266150D01*
X1132030Y2283090D01*
X1093940Y2291550D01*
X1071710Y2308480D01*
X1062180Y2338120D01*
X1068540Y2367750D01*
X1084410Y2388910D01*
X1106630Y2401620D01*
X1128860D01*
X1151090Y2393160D01*
X1170140Y2371990D01*
G01X1395560Y2283090D02*
X1408260Y2295790D01*
X1417780Y2316950D01*
X1424140Y2346590D01*
X1417780Y2371990D01*
X1405090Y2388910D01*
X1382860Y2401620D01*
X1297140D01*
Y2147620D01*
X1401910D01*
X1424140Y2164550D01*
X1436840Y2189950D01*
X1443180Y2219590D01*
X1436840Y2249210D01*
X1417780Y2274620D01*
X1395560Y2283090D01*
X1297140D01*
G01X1814660Y2401620D02*
Y2147620D01*
X1941660D01*
G01X2052780D02*
X2132160Y2401620D01*
X2211540Y2147620D01*
G01X2182960Y2236520D02*
X2081360D01*
G01X2386160Y2147620D02*
Y2261920D01*
X2322660Y2401620D01*
G01X2449660D02*
X2386160Y2261920D01*
G01X2703660Y2147620D02*
X2576660D01*
Y2401620D01*
X2703660D01*
G01X2652860Y2278860D02*
X2576660D01*
G01X2830660Y2147620D02*
Y2401620D01*
X2910030D01*
X2935430Y2388910D01*
X2951310Y2371990D01*
X2957660Y2338120D01*
X2951310Y2304250D01*
X2932260Y2283090D01*
X2910030Y2270380D01*
X2830660D01*
G01X2910030D02*
X2957660Y2147620D01*
G01X1786790Y1459510D02*
X1108410D01*
G02X1077800Y1494510I4703J34998D01*
G01Y1984500D01*
X1817800D01*
Y1488590D01*
G02X1786790Y1459510I-30996J1979D01*
G01X2040890Y1832610D02*
X2353310D01*
Y1520190D01*
X2040890D01*
Y1832610D01*
G01X2186940Y1508760D02*
X2438400D01*
Y1386840D01*
X2186940D01*
Y1508760D01*
G01X2566670Y1597660D02*
X2818130D01*
Y1475740D01*
X2566670D01*
Y1597660D01*
G01X2529840Y1626870D02*
Y1878330D01*
X2651760D01*
Y1626870D01*
X2529840D01*
G01X2821940Y623570D02*
Y875030D01*
X2943860D01*
Y623570D01*
X2821940D01*
G01Y890270D02*
Y1141730D01*
X2943860D01*
Y890270D01*
X2821940D01*
G01X2943860Y1408430D02*
Y1156970D01*
X2821940D01*
Y1408430D01*
X2943860D01*
G01X2656840Y1626870D02*
Y1878330D01*
X2778760D01*
Y1626870D01*
X2656840D01*
G01X2974340Y623570D02*
Y875030D01*
X3096260D01*
Y623570D01*
X2974340D01*
G01X3300730Y1094740D02*
X3049270D01*
Y1216660D01*
X3300730D01*
Y1094740D01*
G01X3413760Y1800860D02*
Y1549400D01*
X3291840D01*
Y1800860D01*
X3413760D01*
G54D12*
G01X376340Y1308100D02*
Y1386840D01*
X352000D01*
X344210Y1382900D01*
X339340Y1377650D01*
X337400Y1367150D01*
X339340Y1356660D01*
X345190Y1350100D01*
X352000Y1346160D01*
X376340D01*
G01X352000D02*
X337400Y1308100D01*
G01X296630Y1373720D02*
X290790Y1381590D01*
X283970Y1385530D01*
X276180Y1386840D01*
X266450Y1384220D01*
X259630Y1377650D01*
X257680Y1369780D01*
X258660Y1361900D01*
X262550Y1355340D01*
X282020Y1342220D01*
X290790Y1333030D01*
X296630Y1319910D01*
X298580Y1308100D01*
X257680D01*
G01X199390Y1386840D02*
X207180Y1384220D01*
X213020Y1377650D01*
X216920Y1369780D01*
X219840Y1359280D01*
X220810Y1347470D01*
X219840Y1335660D01*
X216920Y1325160D01*
X213020Y1317280D01*
X207180Y1310720D01*
X199390Y1308100D01*
X191600Y1310720D01*
X185760Y1317280D01*
X181860Y1325160D01*
X178940Y1335660D01*
X177970Y1347470D01*
X178940Y1359280D01*
X181860Y1369780D01*
X185760Y1377650D01*
X191600Y1384220D01*
X199390Y1386840D01*
G01X199790Y1627600D02*
X207580Y1628910D01*
X214390Y1634160D01*
X220240Y1642030D01*
X224130Y1651220D01*
X226080Y1661720D01*
Y1672220D01*
X224130Y1682720D01*
X220240Y1691910D01*
X214390Y1699780D01*
X207580Y1705030D01*
X199790Y1706340D01*
X192000Y1705030D01*
X185190Y1699780D01*
X179340Y1691910D01*
X175450Y1682720D01*
X173500Y1672220D01*
Y1661720D01*
X175450Y1651220D01*
X179340Y1642030D01*
X185190Y1634160D01*
X192000Y1628910D01*
X199790Y1627600D01*
G01X192000Y1648600D02*
X180320Y1627600D01*
G01X142470Y1643350D02*
X136630Y1634160D01*
X128840Y1628910D01*
X120080Y1627600D01*
X112290Y1628910D01*
X104500Y1635470D01*
X99630Y1643350D01*
X98660Y1651220D01*
X100600Y1660410D01*
X107420Y1666970D01*
X114230Y1669600D01*
X123000D01*
G01X114230D02*
X108390Y1673530D01*
X103520Y1680090D01*
X101580Y1687970D01*
X103520Y1695840D01*
X108390Y1702400D01*
X117160Y1706340D01*
X125920Y1705030D01*
X134680Y1699780D01*
G01X562740Y340700D02*
X554950Y334140D01*
X546180Y330200D01*
X538400D01*
X530610Y334140D01*
X524760Y340700D01*
X521840Y349890D01*
X523790Y359070D01*
X528660Y366940D01*
X537420Y372200D01*
X549110Y374820D01*
X555920Y380070D01*
X558840Y389250D01*
X556890Y398440D01*
X552030Y405000D01*
X545210Y408940D01*
X538400D01*
X531580Y406320D01*
X525740Y399750D01*
G01X492760Y408940D02*
X479130Y330200D01*
X463550Y408940D01*
X447970Y330200D01*
X434340Y408940D01*
G01X406230Y345950D02*
X400390Y336760D01*
X392600Y331510D01*
X383840Y330200D01*
X376050Y331510D01*
X368260Y338070D01*
X363390Y345950D01*
X362420Y353820D01*
X364360Y363010D01*
X371180Y369570D01*
X377990Y372200D01*
X386760D01*
G01X377990D02*
X372150Y376130D01*
X367280Y382690D01*
X365340Y390570D01*
X367280Y398440D01*
X372150Y405000D01*
X380920Y408940D01*
X389680Y407630D01*
X398440Y402380D01*
G01X653280Y1315210D02*
Y1393950D01*
X628940D01*
X621150Y1390010D01*
X616280Y1384760D01*
X614340Y1374260D01*
X616280Y1363770D01*
X622130Y1357210D01*
X628940Y1353270D01*
X653280D01*
G01X628940D02*
X614340Y1315210D01*
G01X573570Y1380830D02*
X567730Y1388700D01*
X560910Y1392640D01*
X553120Y1393950D01*
X543390Y1391330D01*
X536570Y1384760D01*
X534620Y1376890D01*
X535600Y1369010D01*
X539490Y1362450D01*
X558960Y1349330D01*
X567730Y1340140D01*
X573570Y1327020D01*
X575520Y1315210D01*
X534620D01*
G01X476330D02*
Y1393950D01*
X488010Y1378200D01*
G01Y1315210D02*
X464650D01*
G01X555390Y1627600D02*
X563180Y1628910D01*
X569990Y1634160D01*
X575840Y1642030D01*
X579730Y1651220D01*
X581680Y1661720D01*
Y1672220D01*
X579730Y1682720D01*
X575840Y1691910D01*
X569990Y1699780D01*
X563180Y1705030D01*
X555390Y1706340D01*
X547600Y1705030D01*
X540790Y1699780D01*
X534940Y1691910D01*
X531050Y1682720D01*
X529100Y1672220D01*
Y1661720D01*
X531050Y1651220D01*
X534940Y1642030D01*
X540790Y1634160D01*
X547600Y1628910D01*
X555390Y1627600D01*
G01X547600Y1648600D02*
X535920Y1627600D01*
G01X495150Y1693220D02*
X489310Y1701090D01*
X482490Y1705030D01*
X474700Y1706340D01*
X464970Y1703720D01*
X458150Y1697150D01*
X456200Y1689280D01*
X457180Y1681400D01*
X461070Y1674840D01*
X480540Y1661720D01*
X489310Y1652530D01*
X495150Y1639410D01*
X497100Y1627600D01*
X456200D01*
G01X961810Y900430D02*
Y979170D01*
X937470D01*
X929680Y975230D01*
X924810Y969980D01*
X922870Y959480D01*
X924810Y948990D01*
X930660Y942430D01*
X937470Y938490D01*
X961810D01*
G01X937470D02*
X922870Y900430D01*
G01X863600D02*
Y979170D01*
X875280Y963420D01*
G01Y900430D02*
X851920D01*
G01X784860Y979170D02*
X792650Y976550D01*
X798490Y969980D01*
X802390Y962110D01*
X805310Y951610D01*
X806280Y939800D01*
X805310Y927990D01*
X802390Y917490D01*
X798490Y909610D01*
X792650Y903050D01*
X784860Y900430D01*
X777070Y903050D01*
X771230Y909610D01*
X767330Y917490D01*
X764410Y927990D01*
X763440Y939800D01*
X764410Y951610D01*
X767330Y962110D01*
X771230Y969980D01*
X777070Y976550D01*
X784860Y979170D01*
G01X961810Y1092200D02*
Y1170940D01*
X937470D01*
X929680Y1167000D01*
X924810Y1161750D01*
X922870Y1151250D01*
X924810Y1140760D01*
X930660Y1134200D01*
X937470Y1130260D01*
X961810D01*
G01X937470D02*
X922870Y1092200D01*
G01X863600D02*
Y1170940D01*
X875280Y1155190D01*
G01Y1092200D02*
X851920D01*
G01X803360Y1125010D02*
X796540Y1134200D01*
X790700Y1139440D01*
X782910Y1142070D01*
X776100Y1139440D01*
X771230Y1134200D01*
X767330Y1126320D01*
X766360Y1117130D01*
X767330Y1109260D01*
X771230Y1101380D01*
X777070Y1094820D01*
X783890Y1092200D01*
X791680Y1094820D01*
X798490Y1102700D01*
X802390Y1114510D01*
X803360Y1127630D01*
X801410Y1144690D01*
X798490Y1153880D01*
X793620Y1163070D01*
X786810Y1169630D01*
X779990Y1170940D01*
X773180Y1168320D01*
X768310Y1161750D01*
G01X923710Y1306830D02*
Y1385570D01*
X899370D01*
X891580Y1381630D01*
X886710Y1376380D01*
X884770Y1365880D01*
X886710Y1355390D01*
X892560Y1348830D01*
X899370Y1344890D01*
X923710D01*
G01X899370D02*
X884770Y1306830D01*
G01X825500D02*
Y1385570D01*
X837180Y1369820D01*
G01Y1306830D02*
X813820D01*
G01X746760D02*
Y1385570D01*
X758440Y1369820D01*
G01Y1306830D02*
X735080D01*
G01X910990Y1627600D02*
X918780Y1628910D01*
X925590Y1634160D01*
X931440Y1642030D01*
X935330Y1651220D01*
X937280Y1661720D01*
Y1672220D01*
X935330Y1682720D01*
X931440Y1691910D01*
X925590Y1699780D01*
X918780Y1705030D01*
X910990Y1706340D01*
X903200Y1705030D01*
X896390Y1699780D01*
X890540Y1691910D01*
X886650Y1682720D01*
X884700Y1672220D01*
Y1661720D01*
X886650Y1651220D01*
X890540Y1642030D01*
X896390Y1634160D01*
X903200Y1628910D01*
X910990Y1627600D01*
G01X903200Y1648600D02*
X891520Y1627600D01*
G01X832250D02*
Y1706340D01*
X843930Y1690590D01*
G01Y1627600D02*
X820570D01*
G01X1444120Y1612900D02*
X1403220Y1691640D01*
G01X1444120D02*
X1403220Y1612900D01*
G01X1366350Y1628650D02*
X1360510Y1619460D01*
X1352720Y1614210D01*
X1343960Y1612900D01*
X1336170Y1614210D01*
X1328380Y1620770D01*
X1323510Y1628650D01*
X1322540Y1636520D01*
X1324480Y1645710D01*
X1331300Y1652270D01*
X1338110Y1654900D01*
X1346880D01*
G01X1338110D02*
X1332270Y1658830D01*
X1327400Y1665390D01*
X1325460Y1673270D01*
X1327400Y1681140D01*
X1332270Y1687700D01*
X1341040Y1691640D01*
X1349800Y1690330D01*
X1358560Y1685080D01*
G01X1718440Y903100D02*
X1677540Y981840D01*
G01X1718440D02*
X1677540Y903100D01*
G01X1607570D02*
Y981840D01*
X1643590Y925410D01*
X1594910D01*
G01X2193210Y1764740D02*
Y1708310D01*
X2189320Y1696500D01*
X2181530Y1688620D01*
X2171790Y1686000D01*
X2162050Y1688620D01*
X2154260Y1696500D01*
X2150370Y1708310D01*
Y1764740D01*
G01X2111550Y1751620D02*
X2105710Y1759490D01*
X2098890Y1763430D01*
X2091100Y1764740D01*
X2081370Y1762120D01*
X2074550Y1755550D01*
X2072600Y1747680D01*
X2073580Y1739800D01*
X2077470Y1733240D01*
X2096940Y1720120D01*
X2105710Y1710930D01*
X2111550Y1697810D01*
X2113500Y1686000D01*
X2072600D01*
G01X2409610Y1409700D02*
Y1488440D01*
X2385270D01*
X2377480Y1484500D01*
X2372610Y1479250D01*
X2370670Y1468750D01*
X2372610Y1458260D01*
X2378460Y1451700D01*
X2385270Y1447760D01*
X2409610D01*
G01X2385270D02*
X2370670Y1409700D01*
G01X2311400D02*
Y1488440D01*
X2323080Y1472690D01*
G01Y1409700D02*
X2299720D01*
G01X2254080Y1421510D02*
X2248240Y1414950D01*
X2241420Y1411010D01*
X2232660Y1409700D01*
X2223900Y1412320D01*
X2217080Y1417570D01*
X2212210Y1426760D01*
X2211240Y1437260D01*
X2213190Y1447760D01*
X2218060Y1454320D01*
X2224870Y1459570D01*
X2231690Y1460880D01*
X2238500Y1459570D01*
X2247260Y1454320D01*
X2244340Y1488440D01*
X2218060D01*
G01X2631990Y1699010D02*
X2635930Y1693170D01*
X2638550Y1686350D01*
Y1678560D01*
X2634610Y1669800D01*
X2628050Y1662990D01*
X2620180Y1658120D01*
X2607050Y1654220D01*
X2595240Y1653250D01*
X2583430Y1655200D01*
X2575560Y1658120D01*
X2567680Y1663960D01*
X2562430Y1670770D01*
X2559810Y1677590D01*
Y1684410D01*
X2562430Y1691220D01*
X2566370Y1697060D01*
X2571620Y1701930D01*
G01X2625430Y1737830D02*
X2633300Y1743670D01*
X2637240Y1750490D01*
X2638550Y1758280D01*
X2635930Y1768010D01*
X2629360Y1774830D01*
X2621490Y1776780D01*
X2613610Y1775800D01*
X2607050Y1771910D01*
X2593930Y1752440D01*
X2584740Y1743670D01*
X2571620Y1737830D01*
X2559810Y1735880D01*
Y1776780D01*
G01Y1835070D02*
X2561120Y1841890D01*
X2565060Y1849670D01*
X2571620Y1854540D01*
X2580810Y1856490D01*
X2589990Y1854540D01*
X2597870Y1848700D01*
X2601810Y1839940D01*
Y1830200D01*
X2604430Y1824360D01*
X2610990Y1819490D01*
X2620180Y1817540D01*
X2629360Y1820470D01*
X2635930Y1827280D01*
X2638550Y1835070D01*
X2635930Y1842860D01*
X2629360Y1849670D01*
X2620180Y1852600D01*
X2610990Y1850650D01*
X2604430Y1845780D01*
X2601810Y1839940D01*
Y1830200D01*
X2597870Y1821440D01*
X2589990Y1815600D01*
X2580810Y1813650D01*
X2571620Y1815600D01*
X2565060Y1820470D01*
X2561120Y1828250D01*
X2559810Y1835070D01*
G01X2916710Y694280D02*
X2920650Y688440D01*
X2923270Y681620D01*
Y673830D01*
X2919330Y665070D01*
X2912770Y658260D01*
X2904900Y653390D01*
X2891770Y649490D01*
X2879960Y648520D01*
X2868150Y650470D01*
X2860280Y653390D01*
X2852400Y659230D01*
X2847150Y666040D01*
X2844530Y672860D01*
Y679680D01*
X2847150Y686490D01*
X2851090Y692330D01*
X2856340Y697200D01*
G01X2844530Y751600D02*
X2923270D01*
X2907520Y739920D01*
G01X2844530D02*
Y763280D01*
G01X2923270Y830340D02*
X2920650Y822550D01*
X2914080Y816710D01*
X2906210Y812810D01*
X2895710Y809890D01*
X2883900Y808920D01*
X2872090Y809890D01*
X2861590Y812810D01*
X2853710Y816710D01*
X2847150Y822550D01*
X2844530Y830340D01*
X2847150Y838130D01*
X2853710Y843970D01*
X2861590Y847870D01*
X2872090Y850790D01*
X2883900Y851760D01*
X2895710Y850790D01*
X2906210Y847870D01*
X2914080Y843970D01*
X2920650Y838130D01*
X2923270Y830340D01*
G01X2915710Y971280D02*
X2919650Y965440D01*
X2922270Y958620D01*
Y950830D01*
X2918330Y942070D01*
X2911770Y935260D01*
X2903900Y930390D01*
X2890770Y926490D01*
X2878960Y925520D01*
X2867150Y927470D01*
X2859280Y930390D01*
X2851400Y936230D01*
X2846150Y943040D01*
X2843530Y949860D01*
Y956680D01*
X2846150Y963490D01*
X2850090Y969330D01*
X2855340Y974200D01*
G01X2909150Y1010100D02*
X2917020Y1015940D01*
X2920960Y1022760D01*
X2922270Y1030550D01*
X2919650Y1040280D01*
X2913080Y1047100D01*
X2905210Y1049050D01*
X2897330Y1048070D01*
X2890770Y1044180D01*
X2877650Y1024710D01*
X2868460Y1015940D01*
X2855340Y1010100D01*
X2843530Y1008150D01*
Y1049050D01*
G01Y1105390D02*
X2860590Y1107340D01*
X2875020Y1110260D01*
X2888150Y1114160D01*
X2902580Y1119020D01*
X2922270Y1126810D01*
Y1087870D01*
G01X2914090Y1235910D02*
X2918030Y1230070D01*
X2920650Y1223250D01*
Y1215460D01*
X2916710Y1206700D01*
X2910150Y1199890D01*
X2902280Y1195020D01*
X2889150Y1191120D01*
X2877340Y1190150D01*
X2865530Y1192100D01*
X2857660Y1195020D01*
X2849780Y1200860D01*
X2844530Y1207670D01*
X2841910Y1214490D01*
Y1221310D01*
X2844530Y1228120D01*
X2848470Y1233960D01*
X2853720Y1238830D01*
G01X2841910Y1293230D02*
X2920650D01*
X2904900Y1281550D01*
G01X2841910D02*
Y1304910D01*
G01Y1371970D02*
X2920650D01*
X2904900Y1360290D01*
G01X2841910D02*
Y1383650D01*
G01X2710350Y1570780D02*
X2716190Y1574720D01*
X2723010Y1577340D01*
X2730800D01*
X2739560Y1573400D01*
X2746370Y1566840D01*
X2751240Y1558970D01*
X2755140Y1545840D01*
X2756110Y1534030D01*
X2754160Y1522220D01*
X2751240Y1514350D01*
X2745400Y1506470D01*
X2738590Y1501220D01*
X2731770Y1498600D01*
X2724950D01*
X2718140Y1501220D01*
X2712300Y1505160D01*
X2707430Y1510410D01*
G01X2674450Y1514350D02*
X2668610Y1505160D01*
X2660820Y1499910D01*
X2652060Y1498600D01*
X2644270Y1499910D01*
X2636480Y1506470D01*
X2631610Y1514350D01*
X2630640Y1522220D01*
X2632580Y1531410D01*
X2639400Y1537970D01*
X2646210Y1540600D01*
X2654980D01*
G01X2646210D02*
X2640370Y1544530D01*
X2635500Y1551090D01*
X2633560Y1558970D01*
X2635500Y1566840D01*
X2640370Y1573400D01*
X2649140Y1577340D01*
X2657900Y1576030D01*
X2666660Y1570780D01*
G01X2758990Y1738380D02*
X2762930Y1732540D01*
X2765550Y1725720D01*
Y1717930D01*
X2761610Y1709170D01*
X2755050Y1702360D01*
X2747180Y1697490D01*
X2734050Y1693590D01*
X2722240Y1692620D01*
X2710430Y1694570D01*
X2702560Y1697490D01*
X2694680Y1703330D01*
X2689430Y1710140D01*
X2686810Y1716960D01*
Y1723780D01*
X2689430Y1730590D01*
X2693370Y1736430D01*
X2698620Y1741300D01*
G01X2752430Y1777200D02*
X2760300Y1783040D01*
X2764240Y1789860D01*
X2765550Y1797650D01*
X2762930Y1807380D01*
X2756360Y1814200D01*
X2748490Y1816150D01*
X2740610Y1815170D01*
X2734050Y1811280D01*
X2720930Y1791810D01*
X2711740Y1783040D01*
X2698620Y1777200D01*
X2686810Y1775250D01*
Y1816150D01*
G01X3069810Y733050D02*
X3073750Y727210D01*
X3076370Y720390D01*
Y712600D01*
X3072430Y703840D01*
X3065870Y697030D01*
X3058000Y692160D01*
X3044870Y688260D01*
X3033060Y687290D01*
X3021250Y689240D01*
X3013380Y692160D01*
X3005500Y698000D01*
X3000250Y704810D01*
X2997630Y711630D01*
Y718450D01*
X3000250Y725260D01*
X3004190Y731100D01*
X3009440Y735970D01*
G01X3006810Y773820D02*
X3000250Y780630D01*
X2997630Y788420D01*
X3000250Y796210D01*
X3008130Y803030D01*
X3019940Y807900D01*
X3031750Y809840D01*
X3046190D01*
X3058000Y807900D01*
X3068500Y803030D01*
X3073750Y797190D01*
X3076370Y790370D01*
X3073750Y782580D01*
X3068500Y776740D01*
X3060620Y772840D01*
X3050120Y770900D01*
X3040940Y772840D01*
X3031750Y777710D01*
X3026500Y783550D01*
X3025190Y790370D01*
X3027810Y798160D01*
X3034370Y804000D01*
X3046190Y809840D01*
G01X3245020Y1188510D02*
X3250860Y1192450D01*
X3257680Y1195070D01*
X3265470D01*
X3274230Y1191130D01*
X3281040Y1184570D01*
X3285910Y1176700D01*
X3289810Y1163570D01*
X3290780Y1151760D01*
X3288830Y1139950D01*
X3285910Y1132080D01*
X3280070Y1124200D01*
X3273260Y1118950D01*
X3266440Y1116330D01*
X3259620D01*
X3252810Y1118950D01*
X3246970Y1122890D01*
X3242100Y1128140D01*
G01X3187700Y1116330D02*
Y1195070D01*
X3199380Y1179320D01*
G01Y1116330D02*
X3176020D01*
G01X3130380Y1132080D02*
X3124540Y1122890D01*
X3116750Y1117640D01*
X3107990Y1116330D01*
X3100200Y1117640D01*
X3092410Y1124200D01*
X3087540Y1132080D01*
X3086570Y1139950D01*
X3088510Y1149140D01*
X3095330Y1155700D01*
X3102140Y1158330D01*
X3110910D01*
G01X3102140D02*
X3096300Y1162260D01*
X3091430Y1168820D01*
X3089490Y1176700D01*
X3091430Y1184570D01*
X3096300Y1191130D01*
X3105070Y1195070D01*
X3113830Y1193760D01*
X3122590Y1188510D01*
G01X3386880Y1671150D02*
X3390820Y1665310D01*
X3393440Y1658490D01*
Y1650700D01*
X3389500Y1641940D01*
X3382940Y1635130D01*
X3375070Y1630260D01*
X3361940Y1626360D01*
X3350130Y1625390D01*
X3338320Y1627340D01*
X3330450Y1630260D01*
X3322570Y1636100D01*
X3317320Y1642910D01*
X3314700Y1649730D01*
Y1656550D01*
X3317320Y1663360D01*
X3321260Y1669200D01*
X3326510Y1674070D01*
G01X3347510Y1709970D02*
X3356700Y1716790D01*
X3361940Y1722630D01*
X3364570Y1730420D01*
X3361940Y1737230D01*
X3356700Y1742100D01*
X3348820Y1746000D01*
X3339630Y1746970D01*
X3331760Y1746000D01*
X3323880Y1742100D01*
X3317320Y1736260D01*
X3314700Y1729440D01*
X3317320Y1721650D01*
X3325200Y1714840D01*
X3337010Y1710940D01*
X3350130Y1709970D01*
X3367190Y1711920D01*
X3376380Y1714840D01*
X3385570Y1719710D01*
X3392130Y1726520D01*
X3393440Y1733340D01*
X3390820Y1740150D01*
X3384250Y1745020D01*
G01X3826640Y1587500D02*
X3785740Y1666240D01*
G01X3826640D02*
X3785740Y1587500D01*
G01X3745950Y1653120D02*
X3740110Y1660990D01*
X3733290Y1664930D01*
X3725500Y1666240D01*
X3715770Y1663620D01*
X3708950Y1657050D01*
X3707000Y1649180D01*
X3707980Y1641300D01*
X3711870Y1634740D01*
X3731340Y1621620D01*
X3740110Y1612430D01*
X3745950Y1599310D01*
X3747900Y1587500D01*
X3707000D01*
M02*
