G04 ================== begin FILE IDENTIFICATION RECORD ==================*
G04 Layout Name:  Popcorn Popstick Rev1p1_Release.brd*
G04 Film Name:    ADT*
G04 File Format:  Gerber RS274X*
G04 File Origin:  Cadence Allegro 17.2-S053*
G04 Origin Date:  Thu Jun 30 17:26:54 2022*
G04 *
G04 Layer:  REF DES/ASSEMBLY_TOP*
G04 Layer:  PACKAGE GEOMETRY/ASSEMBLY_TOP*
G04 Layer:  BOARD GEOMETRY/OUTLINE*
G04 *
G04 Offset:    (0.0000 0.0000)*
G04 Mirror:    No*
G04 Mode:      Positive*
G04 Rotation:  0*
G04 FullContactRelief:  No*
G04 UndefLineWidth:     0.1270*
G04 ================== end FILE IDENTIFICATION RECORD ====================*
%FSLAX55Y55*MOMM*%
%IR0*IPPOS*OFA0.00000B0.00000*MIA0B0*SFA1.00000B1.00000*%
%ADD10C,.127*%
%ADD11C,.1524*%
G75*
%LPD*%
G75*
G36*
G01X422850Y1144500D02*
G03I-25400J0D01*
G37*
G36*
G01X1336500Y1276350D02*
G03I-28400J0D01*
G37*
G36*
G01X1971500Y76200D02*
G03I-28400J0D01*
G37*
G36*
G01X2864000Y1763500D02*
G03I-28400J0D01*
G37*
G36*
G01X3591250Y143400D02*
G03I-28400J0D01*
G37*
G36*
G01X3584400Y749300D02*
G03I-28400J0D01*
G37*
G36*
G01X3588050Y1475200D02*
G03I-28400J0D01*
G37*
G36*
G01X4169150Y1299900D02*
G03I-25400J0D01*
G37*
G54D10*
G01X0Y0D02*
X4500000D01*
Y1900000D01*
X0D01*
Y0D01*
G01X298450Y1267500D02*
X44450D01*
Y632500D01*
X336550D01*
Y1267500D01*
X298450D01*
G01X1417600Y342950D02*
X817600D01*
Y1142950D01*
X1354100D01*
X1417600Y1079450D01*
Y342950D01*
G01X1355300Y1334700D02*
X1159300D01*
Y1484700D01*
X1355300D01*
Y1334700D01*
G01X1890100Y444800D02*
X2250100D01*
Y164800D01*
X1928200D01*
X1890100Y202900D01*
Y444800D01*
G01X2917800Y1579500D02*
Y643000D01*
X1917800D01*
Y1643000D01*
X2854300D01*
X2917800Y1579500D01*
G01X3518450Y380900D02*
Y502800D01*
X3810450D01*
Y342800D01*
X3556550D01*
X3518450Y380900D01*
G01X3511600Y986800D02*
Y1108700D01*
X3803600D01*
Y948700D01*
X3549700D01*
X3511600Y986800D01*
G01X3505250Y1583700D02*
Y1705600D01*
X3797250D01*
Y1545600D01*
X3543350D01*
X3505250Y1583700D01*
G01X4024700Y1025100D02*
Y829100D01*
X3874700D01*
Y1025100D01*
X4024700D01*
G01X6142050Y1550000D02*
Y350000D01*
X4267050D01*
Y1511900D01*
X4305150Y1550000D01*
X6142050D01*
G01X10490Y1880210D02*
X370510D01*
Y1320190D01*
X10490D01*
Y1880210D01*
G01X404190D02*
X764210D01*
Y1320190D01*
X404190D01*
Y1880210D01*
G01X447040Y1094740D02*
X698500D01*
Y1216660D01*
X447040D01*
Y1094740D01*
G01X777240Y1586230D02*
Y1334770D01*
X899160D01*
Y1586230D01*
X777240D01*
G01Y1878330D02*
Y1626870D01*
X899160D01*
Y1878330D01*
X777240D01*
G01X1026160Y1626870D02*
Y1878330D01*
X904240D01*
Y1626870D01*
X1026160D01*
G01X955040Y264160D02*
Y12700D01*
X1076960D01*
Y264160D01*
X955040D01*
G01X1242060Y15240D02*
Y266700D01*
X1120140D01*
Y15240D01*
X1242060D01*
G01X941030Y2165150D02*
X1020410Y2419150D01*
X1099790Y2165150D01*
G01X1071210Y2254050D02*
X969610D01*
G01X1207730Y2199010D02*
X1233140Y2177850D01*
X1261710Y2165150D01*
X1287110D01*
X1312510Y2177850D01*
X1331560Y2199010D01*
X1341090Y2228650D01*
X1334740Y2258280D01*
X1318860Y2283680D01*
X1290280Y2300620D01*
X1252190Y2309080D01*
X1229960Y2326010D01*
X1220430Y2355650D01*
X1226790Y2385280D01*
X1242660Y2406440D01*
X1264880Y2419150D01*
X1287110D01*
X1309340Y2410690D01*
X1328390Y2389520D01*
G01X1528410Y2419150D02*
Y2165150D01*
G01X1455390Y2419150D02*
X1601430D01*
G01X1972910D02*
Y2165150D01*
X2099910D01*
G01X2211030D02*
X2290410Y2419150D01*
X2369790Y2165150D01*
G01X2341210Y2254050D02*
X2239610D01*
G01X2544410Y2165150D02*
Y2279450D01*
X2480910Y2419150D01*
G01X2607910D02*
X2544410Y2279450D01*
G01X2861910Y2165150D02*
X2734910D01*
Y2419150D01*
X2861910D01*
G01X2811110Y2296390D02*
X2734910D01*
G01X2988910Y2165150D02*
Y2419150D01*
X3068280D01*
X3093680Y2406440D01*
X3109560Y2389520D01*
X3115910Y2355650D01*
X3109560Y2321780D01*
X3090510Y2300620D01*
X3068280Y2287910D01*
X2988910D01*
G01X3068280D02*
X3115910Y2165150D01*
G01X1234440Y1878330D02*
Y1626870D01*
X1356360D01*
Y1878330D01*
X1234440D01*
G01X1751330Y645160D02*
X1499870D01*
Y523240D01*
X1751330D01*
Y645160D01*
G01Y835660D02*
X1499870D01*
Y713740D01*
X1751330D01*
Y835660D01*
G01Y962660D02*
X1499870D01*
Y840740D01*
X1751330D01*
Y962660D01*
G01X1499870Y967740D02*
X1751330D01*
Y1089660D01*
X1499870D01*
Y967740D01*
G01X1602740Y1497330D02*
Y1245870D01*
X1724660D01*
Y1497330D01*
X1602740D01*
G01X1751330Y1216660D02*
X1499870D01*
Y1094740D01*
X1751330D01*
Y1216660D01*
G01X1597660Y1247140D02*
Y1498600D01*
X1475740D01*
Y1247140D01*
X1597660D01*
G01X1838960Y217170D02*
Y468630D01*
X1717040D01*
Y217170D01*
X1838960D01*
G01X1729740Y1497330D02*
Y1245870D01*
X1851660D01*
Y1497330D01*
X1729740D01*
G01X1829270Y1729040D02*
X2080730D01*
Y1850960D01*
X1829270D01*
Y1729040D01*
G01X2325370Y307340D02*
X2576830D01*
Y429260D01*
X2325370D01*
Y307340D01*
G01X2435730Y1855960D02*
X2184270D01*
Y1734040D01*
X2435730D01*
Y1855960D01*
G01X2593340Y468630D02*
Y217170D01*
X2715260D01*
Y468630D01*
X2593340D01*
G01X2541270Y1717040D02*
X2792730D01*
Y1838960D01*
X2541270D01*
Y1717040D01*
G01X3012940Y599330D02*
Y347870D01*
X3134860D01*
Y599330D01*
X3012940D01*
G01X3050540Y1216660D02*
Y965200D01*
X3172460D01*
Y1216660D01*
X3050540D01*
G01Y1488440D02*
X3302000D01*
Y1610360D01*
X3050540D01*
Y1488440D01*
G01X3299460Y1750060D02*
X3048000D01*
Y1628140D01*
X3299460D01*
Y1750060D01*
G01X3292340Y599330D02*
Y347870D01*
X3414260D01*
Y599330D01*
X3292340D01*
G01X3152640D02*
Y347870D01*
X3274560D01*
Y599330D01*
X3152640D01*
G01X3304540Y1216660D02*
Y965200D01*
X3426460D01*
Y1216660D01*
X3304540D01*
G01X3177540D02*
Y965200D01*
X3299460D01*
Y1216660D01*
X3177540D01*
G01X3317240Y1751330D02*
Y1499870D01*
X3439160D01*
Y1751330D01*
X3317240D01*
G01X4036060Y1132840D02*
Y1384300D01*
X3914140D01*
Y1132840D01*
X4036060D01*
G01X4088130Y1813560D02*
X3836670D01*
Y1691640D01*
X4088130D01*
Y1813560D01*
G54D11*
G01X225000Y868430D02*
X136100Y921770D01*
G01Y868430D02*
X225000Y921770D01*
G01X211670Y963680D02*
X219070Y971300D01*
X223520Y980190D01*
X225000Y991620D01*
X222040Y1003050D01*
X216110Y1011940D01*
X205740Y1018290D01*
X193890Y1019560D01*
X182030Y1017020D01*
X174620Y1010670D01*
X168700Y1001780D01*
X167220Y992890D01*
X168700Y984000D01*
X174620Y972570D01*
X136100Y976380D01*
Y1010670D01*
G01X123060Y1585300D02*
X130850Y1578740D01*
X139620Y1574800D01*
X147400D01*
X155190Y1578740D01*
X161040Y1585300D01*
X163960Y1594490D01*
X162010Y1603670D01*
X157140Y1611540D01*
X148380Y1616800D01*
X136690Y1619420D01*
X129880Y1624670D01*
X126960Y1633850D01*
X128910Y1643040D01*
X133770Y1649600D01*
X140590Y1653540D01*
X147400D01*
X154220Y1650920D01*
X160060Y1644350D01*
G01X193040Y1653540D02*
X206670Y1574800D01*
X222250Y1653540D01*
X237830Y1574800D01*
X251460Y1653540D01*
G01X282490Y1640420D02*
X288330Y1648290D01*
X295150Y1652230D01*
X302940Y1653540D01*
X312670Y1650920D01*
X319490Y1644350D01*
X321440Y1636480D01*
X320460Y1628600D01*
X316570Y1622040D01*
X297100Y1608920D01*
X288330Y1599730D01*
X282490Y1586610D01*
X280540Y1574800D01*
X321440D01*
G01X519180Y1196890D02*
X513340Y1200830D01*
X506520Y1203450D01*
X498730D01*
X489970Y1199510D01*
X483160Y1192950D01*
X478290Y1185080D01*
X474390Y1171950D01*
X473420Y1160140D01*
X475370Y1148330D01*
X478290Y1140460D01*
X484130Y1132580D01*
X490940Y1127330D01*
X497760Y1124710D01*
X504580D01*
X511390Y1127330D01*
X517230Y1131270D01*
X522100Y1136520D01*
G01X555080Y1140460D02*
X560920Y1131270D01*
X568710Y1126020D01*
X577470Y1124710D01*
X585260Y1126020D01*
X593050Y1132580D01*
X597920Y1140460D01*
X598890Y1148330D01*
X596950Y1157520D01*
X590130Y1164080D01*
X583320Y1166710D01*
X574550D01*
G01X583320D02*
X589160Y1170640D01*
X594030Y1177200D01*
X595970Y1185080D01*
X594030Y1192950D01*
X589160Y1199510D01*
X580390Y1203450D01*
X571630Y1202140D01*
X562870Y1196890D01*
G01X655240Y1203450D02*
X647450Y1200830D01*
X641610Y1194260D01*
X637710Y1186390D01*
X634790Y1175890D01*
X633820Y1164080D01*
X634790Y1152270D01*
X637710Y1141770D01*
X641610Y1133890D01*
X647450Y1127330D01*
X655240Y1124710D01*
X663030Y1127330D01*
X668870Y1133890D01*
X672770Y1141770D01*
X675690Y1152270D01*
X676660Y1164080D01*
X675690Y1175890D01*
X672770Y1186390D01*
X668870Y1194260D01*
X663030Y1200830D01*
X655240Y1203450D01*
G01X477810Y1572130D02*
X485600Y1565570D01*
X494370Y1561630D01*
X502150D01*
X509940Y1565570D01*
X515790Y1572130D01*
X518710Y1581320D01*
X516760Y1590500D01*
X511890Y1598370D01*
X503130Y1603630D01*
X491440Y1606250D01*
X484630Y1611500D01*
X481710Y1620680D01*
X483660Y1629870D01*
X488520Y1636430D01*
X495340Y1640370D01*
X502150D01*
X508970Y1637750D01*
X514810Y1631180D01*
G01X547790Y1640370D02*
X561420Y1561630D01*
X577000Y1640370D01*
X592580Y1561630D01*
X606210Y1640370D01*
G01X655740Y1561630D02*
Y1640370D01*
X644060Y1624620D01*
G01Y1561630D02*
X667420D01*
G01X879370Y1429210D02*
X800630D01*
Y1448680D01*
X804570Y1456470D01*
X809820Y1462310D01*
X817690Y1467180D01*
X826880Y1471080D01*
X840000Y1472050D01*
X853120Y1471080D01*
X862310Y1467180D01*
X870190Y1462310D01*
X875430Y1456470D01*
X879370Y1448680D01*
Y1429210D01*
G01Y1541050D02*
X800630D01*
X857060Y1505030D01*
Y1553710D01*
G01X873630Y1699530D02*
X794890D01*
Y1723870D01*
X798830Y1731660D01*
X804080Y1736530D01*
X814580Y1738470D01*
X825070Y1736530D01*
X831630Y1730680D01*
X835570Y1723870D01*
Y1699530D01*
G01Y1723870D02*
X873630Y1738470D01*
G01Y1795790D02*
X856570Y1797740D01*
X842140Y1800660D01*
X829010Y1804560D01*
X814580Y1809420D01*
X794890Y1817210D01*
Y1778270D01*
G01X996190Y1695540D02*
X917450D01*
Y1715010D01*
X921390Y1722800D01*
X926640Y1728640D01*
X934510Y1733510D01*
X943700Y1737410D01*
X956820Y1738380D01*
X969940Y1737410D01*
X979130Y1733510D01*
X987010Y1728640D01*
X992250Y1722800D01*
X996190Y1715010D01*
Y1695540D01*
G01X980440Y1774280D02*
X989630Y1780120D01*
X994880Y1787910D01*
X996190Y1796670D01*
X994880Y1804460D01*
X988320Y1812250D01*
X980440Y1817120D01*
X972570Y1818090D01*
X963380Y1816150D01*
X956820Y1809330D01*
X954190Y1802520D01*
Y1793750D01*
G01Y1802520D02*
X950260Y1808360D01*
X943700Y1813230D01*
X935820Y1815170D01*
X927950Y1813230D01*
X921390Y1808360D01*
X917450Y1799590D01*
X918760Y1790830D01*
X924010Y1782070D01*
G01X1049370Y41790D02*
X970630D01*
Y66130D01*
X974570Y73920D01*
X979820Y78790D01*
X990320Y80730D01*
X1000810Y78790D01*
X1007370Y72940D01*
X1011310Y66130D01*
Y41790D01*
G01Y66130D02*
X1049370Y80730D01*
G01Y140000D02*
X970630D01*
X986380Y128320D01*
G01X1049370D02*
Y151680D01*
G01Y218740D02*
X1048060Y225560D01*
X1044120Y233340D01*
X1037560Y238210D01*
X1028370Y240160D01*
X1019190Y238210D01*
X1011310Y232370D01*
X1007370Y223610D01*
Y213870D01*
X1004750Y208030D01*
X998190Y203160D01*
X989000Y201210D01*
X979820Y204140D01*
X973250Y210950D01*
X970630Y218740D01*
X973250Y226530D01*
X979820Y233340D01*
X989000Y236270D01*
X998190Y234320D01*
X1004750Y229450D01*
X1007370Y223610D01*
Y213870D01*
X1011310Y205110D01*
X1019190Y199270D01*
X1028370Y197320D01*
X1037560Y199270D01*
X1044120Y204140D01*
X1048060Y211920D01*
X1049370Y218740D01*
G01X1212090Y46490D02*
X1133350D01*
Y70830D01*
X1137290Y78620D01*
X1142540Y83490D01*
X1153040Y85430D01*
X1163530Y83490D01*
X1170090Y77640D01*
X1174030Y70830D01*
Y46490D01*
G01Y70830D02*
X1212090Y85430D01*
G01Y144700D02*
X1133350D01*
X1149100Y133020D01*
G01X1212090D02*
Y156380D01*
G01Y221490D02*
X1195030Y223440D01*
X1180600Y226360D01*
X1167470Y230260D01*
X1153040Y235120D01*
X1133350Y242910D01*
Y203970D01*
G01X1063510Y790720D02*
Y734290D01*
X1067400Y722480D01*
X1075190Y714600D01*
X1084930Y711980D01*
X1094670Y714600D01*
X1102460Y722480D01*
X1106350Y734290D01*
Y790720D01*
G01X1142250Y727730D02*
X1148090Y718540D01*
X1155880Y713290D01*
X1164640Y711980D01*
X1172430Y713290D01*
X1180220Y719850D01*
X1185090Y727730D01*
X1186060Y735600D01*
X1184120Y744790D01*
X1177300Y751350D01*
X1170490Y753980D01*
X1161720D01*
G01X1170490D02*
X1176330Y757910D01*
X1181200Y764470D01*
X1183140Y772350D01*
X1181200Y780220D01*
X1176330Y786780D01*
X1167560Y790720D01*
X1158800Y789410D01*
X1150040Y784160D01*
G01X1198790Y1378000D02*
Y1456740D01*
X1218260D01*
X1226050Y1452800D01*
X1231890Y1447550D01*
X1236760Y1439680D01*
X1240660Y1430490D01*
X1241630Y1417370D01*
X1240660Y1404250D01*
X1236760Y1395060D01*
X1231890Y1387180D01*
X1226050Y1381940D01*
X1218260Y1378000D01*
X1198790D01*
G01X1298950D02*
Y1456740D01*
X1287270Y1440990D01*
G01Y1378000D02*
X1310630D01*
G01X1435840Y1455000D02*
Y1366100D01*
G01X1387580D02*
X1435840Y1420920D01*
G01X1379960Y1455000D02*
X1414250Y1395740D01*
G01X1339370Y1656790D02*
X1260630D01*
Y1681130D01*
X1264570Y1688920D01*
X1269820Y1693790D01*
X1280320Y1695730D01*
X1290810Y1693790D01*
X1297370Y1687940D01*
X1301310Y1681130D01*
Y1656790D01*
G01Y1681130D02*
X1339370Y1695730D01*
G01Y1755000D02*
X1260630D01*
X1276380Y1743320D01*
G01X1339370D02*
Y1766680D01*
G01X1330190Y1817190D02*
X1336750Y1824000D01*
X1339370Y1831790D01*
X1336750Y1839580D01*
X1328870Y1846400D01*
X1317060Y1851270D01*
X1305250Y1853210D01*
X1290810D01*
X1279000Y1851270D01*
X1268500Y1846400D01*
X1263250Y1840560D01*
X1260630Y1833740D01*
X1263250Y1825950D01*
X1268500Y1820110D01*
X1276380Y1816210D01*
X1286880Y1814270D01*
X1296060Y1816210D01*
X1305250Y1821080D01*
X1310500Y1826920D01*
X1311810Y1833740D01*
X1309190Y1841530D01*
X1302630Y1847370D01*
X1290810Y1853210D01*
G01X1527660Y544450D02*
Y623190D01*
X1552000D01*
X1559790Y619250D01*
X1564660Y614000D01*
X1566600Y603500D01*
X1564660Y593010D01*
X1558810Y586450D01*
X1552000Y582510D01*
X1527660D01*
G01X1552000D02*
X1566600Y544450D01*
G01X1625870D02*
Y623190D01*
X1614190Y607440D01*
G01Y544450D02*
X1637550D01*
G01X1683190Y560200D02*
X1689030Y551010D01*
X1696820Y545760D01*
X1705580Y544450D01*
X1713370Y545760D01*
X1721160Y552320D01*
X1726030Y560200D01*
X1727000Y568070D01*
X1725060Y577260D01*
X1718240Y583820D01*
X1711430Y586450D01*
X1702660D01*
G01X1711430D02*
X1717270Y590380D01*
X1722140Y596940D01*
X1724080Y604820D01*
X1722140Y612690D01*
X1717270Y619250D01*
X1708500Y623190D01*
X1699740Y621880D01*
X1690980Y616630D01*
G01X1527660Y734950D02*
Y813690D01*
X1552000D01*
X1559790Y809750D01*
X1564660Y804500D01*
X1566600Y794000D01*
X1564660Y783510D01*
X1558810Y776950D01*
X1552000Y773010D01*
X1527660D01*
G01X1552000D02*
X1566600Y734950D01*
G01X1625870D02*
Y813690D01*
X1614190Y797940D01*
G01Y734950D02*
X1637550D01*
G01X1716290D02*
Y813690D01*
X1680270Y757260D01*
X1728950D01*
G01X1538460Y867830D02*
Y946570D01*
X1562800D01*
X1570590Y942630D01*
X1575460Y937380D01*
X1577400Y926880D01*
X1575460Y916390D01*
X1569610Y909830D01*
X1562800Y905890D01*
X1538460D01*
G01X1562800D02*
X1577400Y867830D01*
G01X1636670D02*
X1643490Y869140D01*
X1651270Y873080D01*
X1656140Y879640D01*
X1658090Y888830D01*
X1656140Y898010D01*
X1650300Y905890D01*
X1641540Y909830D01*
X1631800D01*
X1625960Y912450D01*
X1621090Y919010D01*
X1619140Y928200D01*
X1622070Y937380D01*
X1628880Y943950D01*
X1636670Y946570D01*
X1644460Y943950D01*
X1651270Y937380D01*
X1654200Y928200D01*
X1652250Y919010D01*
X1647380Y912450D01*
X1641540Y909830D01*
X1631800D01*
X1623040Y905890D01*
X1617200Y898010D01*
X1615250Y888830D01*
X1617200Y879640D01*
X1622070Y873080D01*
X1629850Y869140D01*
X1636670Y867830D01*
G01X1572010Y1069890D02*
X1566170Y1073830D01*
X1559350Y1076450D01*
X1551560D01*
X1542800Y1072510D01*
X1535990Y1065950D01*
X1531120Y1058080D01*
X1527220Y1044950D01*
X1526250Y1033140D01*
X1528200Y1021330D01*
X1531120Y1013460D01*
X1536960Y1005580D01*
X1543770Y1000330D01*
X1550590Y997710D01*
X1557410D01*
X1564220Y1000330D01*
X1570060Y1004270D01*
X1574930Y1009520D01*
G01X1610830Y1063330D02*
X1616670Y1071200D01*
X1623490Y1075140D01*
X1631280Y1076450D01*
X1641010Y1073830D01*
X1647830Y1067260D01*
X1649780Y1059390D01*
X1648800Y1051510D01*
X1644910Y1044950D01*
X1625440Y1031830D01*
X1616670Y1022640D01*
X1610830Y1009520D01*
X1608880Y997710D01*
X1649780D01*
G01X1689570Y1030520D02*
X1696390Y1039710D01*
X1702230Y1044950D01*
X1710020Y1047580D01*
X1716830Y1044950D01*
X1721700Y1039710D01*
X1725600Y1031830D01*
X1726570Y1022640D01*
X1725600Y1014770D01*
X1721700Y1006890D01*
X1715860Y1000330D01*
X1709040Y997710D01*
X1701250Y1000330D01*
X1694440Y1008210D01*
X1690540Y1020020D01*
X1689570Y1033140D01*
X1691520Y1050200D01*
X1694440Y1059390D01*
X1699310Y1068580D01*
X1706120Y1075140D01*
X1712940Y1076450D01*
X1719750Y1073830D01*
X1724620Y1067260D01*
G01X1629620Y1301580D02*
X1625680Y1295740D01*
X1623060Y1288920D01*
Y1281130D01*
X1627000Y1272370D01*
X1633560Y1265560D01*
X1641430Y1260690D01*
X1654560Y1256790D01*
X1666370Y1255820D01*
X1678180Y1257770D01*
X1686050Y1260690D01*
X1693930Y1266530D01*
X1699180Y1273340D01*
X1701800Y1280160D01*
Y1286980D01*
X1699180Y1293790D01*
X1695240Y1299630D01*
X1689990Y1304500D01*
G01X1636180Y1340400D02*
X1628310Y1346240D01*
X1624370Y1353060D01*
X1623060Y1360850D01*
X1625680Y1370580D01*
X1632250Y1377400D01*
X1640120Y1379350D01*
X1648000Y1378370D01*
X1654560Y1374480D01*
X1667680Y1355010D01*
X1676870Y1346240D01*
X1689990Y1340400D01*
X1701800Y1338450D01*
Y1379350D01*
G01X1623060Y1437640D02*
X1625680Y1429850D01*
X1632250Y1424010D01*
X1640120Y1420110D01*
X1650620Y1417190D01*
X1662430Y1416220D01*
X1674240Y1417190D01*
X1684740Y1420110D01*
X1692620Y1424010D01*
X1699180Y1429850D01*
X1701800Y1437640D01*
X1699180Y1445430D01*
X1692620Y1451270D01*
X1684740Y1455170D01*
X1674240Y1458090D01*
X1662430Y1459060D01*
X1650620Y1458090D01*
X1640120Y1455170D01*
X1632250Y1451270D01*
X1625680Y1445430D01*
X1623060Y1437640D01*
G01X1536460Y1118830D02*
Y1197570D01*
X1560800D01*
X1568590Y1193630D01*
X1573460Y1188380D01*
X1575400Y1177880D01*
X1573460Y1167390D01*
X1567610Y1160830D01*
X1560800Y1156890D01*
X1536460D01*
G01X1560800D02*
X1575400Y1118830D01*
G01X1618120Y1128010D02*
X1624930Y1121450D01*
X1632720Y1118830D01*
X1640510Y1121450D01*
X1647330Y1129330D01*
X1652200Y1141140D01*
X1654140Y1152950D01*
Y1167390D01*
X1652200Y1179200D01*
X1647330Y1189700D01*
X1641490Y1194950D01*
X1634670Y1197570D01*
X1626880Y1194950D01*
X1621040Y1189700D01*
X1617140Y1181820D01*
X1615200Y1171320D01*
X1617140Y1162140D01*
X1622010Y1152950D01*
X1627850Y1147700D01*
X1634670Y1146390D01*
X1642460Y1149010D01*
X1648300Y1155570D01*
X1654140Y1167390D01*
G01X1495510Y1319280D02*
X1491570Y1313440D01*
X1488950Y1306620D01*
Y1298830D01*
X1492890Y1290070D01*
X1499450Y1283260D01*
X1507320Y1278390D01*
X1520450Y1274490D01*
X1532260Y1273520D01*
X1544070Y1275470D01*
X1551940Y1278390D01*
X1559820Y1284230D01*
X1565070Y1291040D01*
X1567690Y1297860D01*
Y1304680D01*
X1565070Y1311490D01*
X1561130Y1317330D01*
X1555880Y1322200D01*
G01X1502070Y1358100D02*
X1494200Y1363940D01*
X1490260Y1370760D01*
X1488950Y1378550D01*
X1491570Y1388280D01*
X1498140Y1395100D01*
X1506010Y1397050D01*
X1513890Y1396070D01*
X1520450Y1392180D01*
X1533570Y1372710D01*
X1542760Y1363940D01*
X1555880Y1358100D01*
X1567690Y1356150D01*
Y1397050D01*
G01X1558510Y1438790D02*
X1565070Y1445600D01*
X1567690Y1453390D01*
X1565070Y1461180D01*
X1557190Y1468000D01*
X1545380Y1472870D01*
X1533570Y1474810D01*
X1519130D01*
X1507320Y1472870D01*
X1496820Y1468000D01*
X1491570Y1462160D01*
X1488950Y1455340D01*
X1491570Y1447550D01*
X1496820Y1441710D01*
X1504700Y1437810D01*
X1515200Y1435870D01*
X1524380Y1437810D01*
X1533570Y1442680D01*
X1538820Y1448520D01*
X1540130Y1455340D01*
X1537510Y1463130D01*
X1530950Y1468970D01*
X1519130Y1474810D01*
G01X1740690Y285080D02*
X1736750Y279240D01*
X1734130Y272420D01*
Y264630D01*
X1738070Y255870D01*
X1744630Y249060D01*
X1752500Y244190D01*
X1765630Y240290D01*
X1777440Y239320D01*
X1789250Y241270D01*
X1797120Y244190D01*
X1805000Y250030D01*
X1810250Y256840D01*
X1812870Y263660D01*
Y270480D01*
X1810250Y277290D01*
X1806310Y283130D01*
X1801060Y288000D01*
G01X1747250Y323900D02*
X1739380Y329740D01*
X1735440Y336560D01*
X1734130Y344350D01*
X1736750Y354080D01*
X1743320Y360900D01*
X1751190Y362850D01*
X1759070Y361870D01*
X1765630Y357980D01*
X1778750Y338510D01*
X1787940Y329740D01*
X1801060Y323900D01*
X1812870Y321950D01*
Y362850D01*
G01X1801060Y399720D02*
X1807620Y405560D01*
X1811560Y412380D01*
X1812870Y421140D01*
X1810250Y429900D01*
X1805000Y436720D01*
X1795810Y441590D01*
X1785310Y442560D01*
X1774810Y440610D01*
X1768250Y435740D01*
X1763000Y428930D01*
X1761690Y422110D01*
X1763000Y415300D01*
X1768250Y406540D01*
X1734130Y409460D01*
Y435740D01*
G01X1769320Y1301580D02*
X1765380Y1295740D01*
X1762760Y1288920D01*
Y1281130D01*
X1766700Y1272370D01*
X1773260Y1265560D01*
X1781130Y1260690D01*
X1794260Y1256790D01*
X1806070Y1255820D01*
X1817880Y1257770D01*
X1825750Y1260690D01*
X1833630Y1266530D01*
X1838880Y1273340D01*
X1841500Y1280160D01*
Y1286980D01*
X1838880Y1293790D01*
X1834940Y1299630D01*
X1829690Y1304500D01*
G01X1775880Y1340400D02*
X1768010Y1346240D01*
X1764070Y1353060D01*
X1762760Y1360850D01*
X1765380Y1370580D01*
X1771950Y1377400D01*
X1779820Y1379350D01*
X1787700Y1378370D01*
X1794260Y1374480D01*
X1807380Y1355010D01*
X1816570Y1346240D01*
X1829690Y1340400D01*
X1841500Y1338450D01*
Y1379350D01*
G01X1825750Y1416220D02*
X1834940Y1422060D01*
X1840190Y1429850D01*
X1841500Y1438610D01*
X1840190Y1446400D01*
X1833630Y1454190D01*
X1825750Y1459060D01*
X1817880Y1460030D01*
X1808690Y1458090D01*
X1802130Y1451270D01*
X1799500Y1444460D01*
Y1435690D01*
G01Y1444460D02*
X1795570Y1450300D01*
X1789010Y1455170D01*
X1781130Y1457110D01*
X1773260Y1455170D01*
X1766700Y1450300D01*
X1762760Y1441530D01*
X1764070Y1432770D01*
X1769320Y1424010D01*
G01X1901410Y1831190D02*
X1895570Y1835130D01*
X1888750Y1837750D01*
X1880960D01*
X1872200Y1833810D01*
X1865390Y1827250D01*
X1860520Y1819380D01*
X1856620Y1806250D01*
X1855650Y1794440D01*
X1857600Y1782630D01*
X1860520Y1774760D01*
X1866360Y1766880D01*
X1873170Y1761630D01*
X1879990Y1759010D01*
X1886810D01*
X1893620Y1761630D01*
X1899460Y1765570D01*
X1904330Y1770820D01*
G01X1958730Y1759010D02*
Y1837750D01*
X1947050Y1822000D01*
G01Y1759010D02*
X1970410D01*
G01X2035520D02*
X2037470Y1776070D01*
X2040390Y1790500D01*
X2044290Y1803630D01*
X2049150Y1818060D01*
X2056940Y1837750D01*
X2018000D01*
G01X1901060Y266700D02*
X1941960Y345440D01*
G01X1901060D02*
X1941960Y266700D01*
G01X2000250Y345440D02*
Y266700D01*
G01X1977860Y345440D02*
X2022640D01*
G01X2054650Y266700D02*
X2078990Y345440D01*
X2103330Y266700D01*
G01X2094570Y294260D02*
X2063410D01*
G01X2138260Y345440D02*
Y266700D01*
X2177200D01*
G01X2236470D02*
Y345440D01*
X2224790Y329690D01*
G01Y266700D02*
X2248150D01*
G01X2393780Y388410D02*
X2387940Y392350D01*
X2381120Y394970D01*
X2373330D01*
X2364570Y391030D01*
X2357760Y384470D01*
X2352890Y376600D01*
X2348990Y363470D01*
X2348020Y351660D01*
X2349970Y339850D01*
X2352890Y331980D01*
X2358730Y324100D01*
X2365540Y318850D01*
X2372360Y316230D01*
X2379180D01*
X2385990Y318850D01*
X2391830Y322790D01*
X2396700Y328040D01*
G01X2432600Y381850D02*
X2438440Y389720D01*
X2445260Y393660D01*
X2453050Y394970D01*
X2462780Y392350D01*
X2469600Y385780D01*
X2471550Y377910D01*
X2470570Y370030D01*
X2466680Y363470D01*
X2447210Y350350D01*
X2438440Y341160D01*
X2432600Y328040D01*
X2430650Y316230D01*
X2471550D01*
G01X2541520D02*
Y394970D01*
X2505500Y338540D01*
X2554180D01*
G01X2296790Y1175740D02*
Y1119310D01*
X2300680Y1107500D01*
X2308470Y1099620D01*
X2318210Y1097000D01*
X2327950Y1099620D01*
X2335740Y1107500D01*
X2339630Y1119310D01*
Y1175740D01*
G01X2396950Y1097000D02*
Y1175740D01*
X2385270Y1159990D01*
G01Y1097000D02*
X2408630D01*
G01X2290320Y1830430D02*
X2284480Y1834370D01*
X2277660Y1836990D01*
X2269870D01*
X2261110Y1833050D01*
X2254300Y1826490D01*
X2249430Y1818620D01*
X2245530Y1805490D01*
X2244560Y1793680D01*
X2246510Y1781870D01*
X2249430Y1774000D01*
X2255270Y1766120D01*
X2262080Y1760870D01*
X2268900Y1758250D01*
X2275720D01*
X2282530Y1760870D01*
X2288370Y1764810D01*
X2293240Y1770060D01*
G01X2345690Y1758250D02*
X2347640Y1775310D01*
X2350560Y1789740D01*
X2354460Y1802870D01*
X2359320Y1817300D01*
X2367110Y1836990D01*
X2328170D01*
G01X2691050Y234960D02*
X2612310D01*
Y259300D01*
X2616250Y267090D01*
X2621500Y271960D01*
X2632000Y273900D01*
X2642490Y271960D01*
X2649050Y266110D01*
X2652990Y259300D01*
Y234960D01*
G01Y259300D02*
X2691050Y273900D01*
G01Y333170D02*
X2612310D01*
X2628060Y321490D01*
G01X2691050D02*
Y344850D01*
G01X2625430Y393410D02*
X2617560Y399250D01*
X2613620Y406070D01*
X2612310Y413860D01*
X2614930Y423590D01*
X2621500Y430410D01*
X2629370Y432360D01*
X2637250Y431380D01*
X2643810Y427490D01*
X2656930Y408020D01*
X2666120Y399250D01*
X2679240Y393410D01*
X2691050Y391460D01*
Y432360D01*
G01X2661750Y1810810D02*
X2655910Y1814750D01*
X2649090Y1817370D01*
X2641300D01*
X2632540Y1813430D01*
X2625730Y1806870D01*
X2620860Y1799000D01*
X2616960Y1785870D01*
X2615990Y1774060D01*
X2617940Y1762250D01*
X2620860Y1754380D01*
X2626700Y1746500D01*
X2633510Y1741250D01*
X2640330Y1738630D01*
X2647150D01*
X2653960Y1741250D01*
X2659800Y1745190D01*
X2664670Y1750440D01*
G01X2719070Y1738630D02*
X2725890Y1739940D01*
X2733670Y1743880D01*
X2738540Y1750440D01*
X2740490Y1759630D01*
X2738540Y1768810D01*
X2732700Y1776690D01*
X2723940Y1780630D01*
X2714200D01*
X2708360Y1783250D01*
X2703490Y1789810D01*
X2701540Y1799000D01*
X2704470Y1808180D01*
X2711280Y1814750D01*
X2719070Y1817370D01*
X2726860Y1814750D01*
X2733670Y1808180D01*
X2736600Y1799000D01*
X2734650Y1789810D01*
X2729780Y1783250D01*
X2723940Y1780630D01*
X2714200D01*
X2705440Y1776690D01*
X2699600Y1768810D01*
X2697650Y1759630D01*
X2699600Y1750440D01*
X2704470Y1743880D01*
X2712250Y1739940D01*
X2719070Y1738630D01*
G01X3028470Y414550D02*
X3024530Y408710D01*
X3021910Y401890D01*
Y394100D01*
X3025850Y385340D01*
X3032410Y378530D01*
X3040280Y373660D01*
X3053410Y369760D01*
X3065220Y368790D01*
X3077030Y370740D01*
X3084900Y373660D01*
X3092780Y379500D01*
X3098030Y386310D01*
X3100650Y393130D01*
Y399950D01*
X3098030Y406760D01*
X3094090Y412600D01*
X3088840Y417470D01*
G01X3100650Y471870D02*
X3021910D01*
X3037660Y460190D01*
G01X3100650D02*
Y483550D01*
G01X3088840Y529190D02*
X3095400Y535030D01*
X3099340Y541850D01*
X3100650Y550610D01*
X3098030Y559370D01*
X3092780Y566190D01*
X3083590Y571060D01*
X3073090Y572030D01*
X3062590Y570080D01*
X3056030Y565210D01*
X3050780Y558400D01*
X3049470Y551580D01*
X3050780Y544770D01*
X3056030Y536010D01*
X3021910Y538930D01*
Y565210D01*
G01X3076070Y1031880D02*
X3072130Y1026040D01*
X3069510Y1019220D01*
Y1011430D01*
X3073450Y1002670D01*
X3080010Y995860D01*
X3087880Y990990D01*
X3101010Y987090D01*
X3112820Y986120D01*
X3124630Y988070D01*
X3132500Y990990D01*
X3140380Y996830D01*
X3145630Y1003640D01*
X3148250Y1010460D01*
Y1017280D01*
X3145630Y1024090D01*
X3141690Y1029930D01*
X3136440Y1034800D01*
G01X3148250Y1089200D02*
X3069510D01*
X3085260Y1077520D01*
G01X3148250D02*
Y1100880D01*
G01X3115440Y1149440D02*
X3106250Y1156260D01*
X3101010Y1162100D01*
X3098380Y1169890D01*
X3101010Y1176700D01*
X3106250Y1181570D01*
X3114130Y1185470D01*
X3123320Y1186440D01*
X3131190Y1185470D01*
X3139070Y1181570D01*
X3145630Y1175730D01*
X3148250Y1168910D01*
X3145630Y1161120D01*
X3137750Y1154310D01*
X3125940Y1150410D01*
X3112820Y1149440D01*
X3095760Y1151390D01*
X3086570Y1154310D01*
X3077380Y1159180D01*
X3070820Y1165990D01*
X3069510Y1172810D01*
X3072130Y1179620D01*
X3078700Y1184490D01*
G01X3117680Y1570780D02*
X3111840Y1574720D01*
X3105020Y1577340D01*
X3097230D01*
X3088470Y1573400D01*
X3081660Y1566840D01*
X3076790Y1558970D01*
X3072890Y1545840D01*
X3071920Y1534030D01*
X3073870Y1522220D01*
X3076790Y1514350D01*
X3082630Y1506470D01*
X3089440Y1501220D01*
X3096260Y1498600D01*
X3103080D01*
X3109890Y1501220D01*
X3115730Y1505160D01*
X3120600Y1510410D01*
G01X3175000Y1498600D02*
Y1577340D01*
X3163320Y1561590D01*
G01Y1498600D02*
X3186680D01*
G01X3265420D02*
Y1577340D01*
X3229400Y1520910D01*
X3278080D01*
G01X3380050Y413030D02*
X3301310D01*
Y437370D01*
X3305250Y445160D01*
X3310500Y450030D01*
X3321000Y451970D01*
X3331490Y450030D01*
X3338050Y444180D01*
X3341990Y437370D01*
Y413030D01*
G01Y437370D02*
X3380050Y451970D01*
G01X3314430Y492740D02*
X3306560Y498580D01*
X3302620Y505400D01*
X3301310Y513190D01*
X3303930Y522920D01*
X3310500Y529740D01*
X3318370Y531690D01*
X3326250Y530710D01*
X3332810Y526820D01*
X3345930Y507350D01*
X3355120Y498580D01*
X3368240Y492740D01*
X3380050Y490790D01*
Y531690D01*
G01X3240350Y413030D02*
X3161610D01*
Y437370D01*
X3165550Y445160D01*
X3170800Y450030D01*
X3181300Y451970D01*
X3191790Y450030D01*
X3198350Y444180D01*
X3202290Y437370D01*
Y413030D01*
G01Y437370D02*
X3240350Y451970D01*
G01X3228540Y489820D02*
X3235100Y495660D01*
X3239040Y502480D01*
X3240350Y511240D01*
X3237730Y520000D01*
X3232480Y526820D01*
X3223290Y531690D01*
X3212790Y532660D01*
X3202290Y530710D01*
X3195730Y525840D01*
X3190480Y519030D01*
X3189170Y512210D01*
X3190480Y505400D01*
X3195730Y496640D01*
X3161610Y499560D01*
Y525840D01*
G01X3402250Y1030360D02*
X3323510D01*
Y1054700D01*
X3327450Y1062490D01*
X3332700Y1067360D01*
X3343200Y1069300D01*
X3353690Y1067360D01*
X3360250Y1061510D01*
X3364190Y1054700D01*
Y1030360D01*
G01Y1054700D02*
X3402250Y1069300D01*
G01X3386500Y1107150D02*
X3395690Y1112990D01*
X3400940Y1120780D01*
X3402250Y1129540D01*
X3400940Y1137330D01*
X3394380Y1145120D01*
X3386500Y1149990D01*
X3378630Y1150960D01*
X3369440Y1149020D01*
X3362880Y1142200D01*
X3360250Y1135390D01*
Y1126620D01*
G01Y1135390D02*
X3356320Y1141230D01*
X3349760Y1146100D01*
X3341880Y1148040D01*
X3334010Y1146100D01*
X3327450Y1141230D01*
X3323510Y1132460D01*
X3324820Y1123700D01*
X3330070Y1114940D01*
G01X3275250Y1030360D02*
X3196510D01*
Y1054700D01*
X3200450Y1062490D01*
X3205700Y1067360D01*
X3216200Y1069300D01*
X3226690Y1067360D01*
X3233250Y1061510D01*
X3237190Y1054700D01*
Y1030360D01*
G01Y1054700D02*
X3275250Y1069300D01*
G01X3242440Y1110070D02*
X3233250Y1116890D01*
X3228010Y1122730D01*
X3225380Y1130520D01*
X3228010Y1137330D01*
X3233250Y1142200D01*
X3241130Y1146100D01*
X3250320Y1147070D01*
X3258190Y1146100D01*
X3266070Y1142200D01*
X3272630Y1136360D01*
X3275250Y1129540D01*
X3272630Y1121750D01*
X3264750Y1114940D01*
X3252940Y1111040D01*
X3239820Y1110070D01*
X3222760Y1112020D01*
X3213570Y1114940D01*
X3204380Y1119810D01*
X3197820Y1126620D01*
X3196510Y1133440D01*
X3199130Y1140250D01*
X3205700Y1145120D01*
G01X3109160Y1654350D02*
Y1733090D01*
X3133500D01*
X3141290Y1729150D01*
X3146160Y1723900D01*
X3148100Y1713400D01*
X3146160Y1702910D01*
X3140310Y1696350D01*
X3133500Y1692410D01*
X3109160D01*
G01X3133500D02*
X3148100Y1654350D01*
G01X3207370D02*
Y1733090D01*
X3195690Y1717340D01*
G01Y1654350D02*
X3219050D01*
G01X3848100Y31750D02*
X3441700D01*
G01D02*
Y222250D01*
G01D02*
X3848100D01*
G01X3855720Y628650D02*
X3449320D01*
G01D02*
Y819150D01*
G01D02*
X3855720D01*
G01X3835400Y1225550D02*
X3429000D01*
G01D02*
Y1416050D01*
G01D02*
X3835400D01*
G01X3412950Y1561030D02*
X3334210D01*
Y1585370D01*
X3338150Y1593160D01*
X3343400Y1598030D01*
X3353900Y1599970D01*
X3364390Y1598030D01*
X3370950Y1592180D01*
X3374890Y1585370D01*
Y1561030D01*
G01Y1585370D02*
X3412950Y1599970D01*
G01Y1670920D02*
X3334210D01*
X3390640Y1634900D01*
Y1683580D01*
G01X3629240Y180340D02*
Y101600D01*
X3668180D01*
G01X3708950Y167220D02*
X3714790Y175090D01*
X3721610Y179030D01*
X3729400Y180340D01*
X3739130Y177720D01*
X3745950Y171150D01*
X3747900Y163280D01*
X3746920Y155400D01*
X3743030Y148840D01*
X3723560Y135720D01*
X3714790Y126530D01*
X3708950Y113410D01*
X3707000Y101600D01*
X3747900D01*
G01X3623630Y369010D02*
X3680060D01*
X3691870Y372900D01*
X3699750Y380690D01*
X3702370Y390430D01*
X3699750Y400170D01*
X3691870Y407960D01*
X3680060Y411850D01*
X3623630D01*
G01X3690560Y447750D02*
X3697120Y453590D01*
X3701060Y460410D01*
X3702370Y469170D01*
X3699750Y477930D01*
X3694500Y484750D01*
X3685310Y489620D01*
X3674810Y490590D01*
X3664310Y488640D01*
X3657750Y483770D01*
X3652500Y476960D01*
X3651190Y470140D01*
X3652500Y463330D01*
X3657750Y454570D01*
X3623630Y457490D01*
Y483770D01*
G01X3649560Y750570D02*
Y671830D01*
X3688500D01*
G01X3726350Y687580D02*
X3732190Y678390D01*
X3739980Y673140D01*
X3748740Y671830D01*
X3756530Y673140D01*
X3764320Y679700D01*
X3769190Y687580D01*
X3770160Y695450D01*
X3768220Y704640D01*
X3761400Y711200D01*
X3754590Y713830D01*
X3745820D01*
G01X3754590D02*
X3760430Y717760D01*
X3765300Y724320D01*
X3767240Y732200D01*
X3765300Y740070D01*
X3760430Y746630D01*
X3751660Y750570D01*
X3742900Y749260D01*
X3734140Y744010D01*
G01X3624330Y969210D02*
X3680760D01*
X3692570Y973100D01*
X3700450Y980890D01*
X3703070Y990630D01*
X3700450Y1000370D01*
X3692570Y1008160D01*
X3680760Y1012050D01*
X3624330D01*
G01X3670260Y1050870D02*
X3661070Y1057690D01*
X3655830Y1063530D01*
X3653200Y1071320D01*
X3655830Y1078130D01*
X3661070Y1083000D01*
X3668950Y1086900D01*
X3678140Y1087870D01*
X3686010Y1086900D01*
X3693890Y1083000D01*
X3700450Y1077160D01*
X3703070Y1070340D01*
X3700450Y1062550D01*
X3692570Y1055740D01*
X3680760Y1051840D01*
X3667640Y1050870D01*
X3650580Y1052820D01*
X3641390Y1055740D01*
X3632200Y1060610D01*
X3625640Y1067420D01*
X3624330Y1074240D01*
X3626950Y1081050D01*
X3633520Y1085920D01*
G01X3624160Y1360170D02*
Y1281430D01*
X3663100D01*
G01X3722370D02*
Y1360170D01*
X3710690Y1344420D01*
G01Y1281430D02*
X3734050D01*
G01X3622580Y1567010D02*
X3679010D01*
X3690820Y1570900D01*
X3698700Y1578690D01*
X3701320Y1588430D01*
X3698700Y1598170D01*
X3690820Y1605960D01*
X3679010Y1609850D01*
X3622580D01*
G01X3701320Y1678850D02*
X3622580D01*
X3679010Y1642830D01*
Y1691510D01*
G01X3848100Y222250D02*
Y31750D01*
G01X3855720Y819150D02*
Y628650D01*
G01X4000500Y884090D02*
X3921760D01*
Y903560D01*
X3925700Y911350D01*
X3930950Y917190D01*
X3938820Y922060D01*
X3948010Y925960D01*
X3961130Y926930D01*
X3974250Y925960D01*
X3983440Y922060D01*
X3991320Y917190D01*
X3996560Y911350D01*
X4000500Y903560D01*
Y884090D01*
G01X3934880Y965750D02*
X3927010Y971590D01*
X3923070Y978410D01*
X3921760Y986200D01*
X3924380Y995930D01*
X3930950Y1002750D01*
X3938820Y1004700D01*
X3946700Y1003720D01*
X3953260Y999830D01*
X3966380Y980360D01*
X3975570Y971590D01*
X3988690Y965750D01*
X4000500Y963800D01*
Y1004700D01*
G01X4014000Y1162130D02*
X3935260D01*
Y1199130D01*
G01X3973320Y1185500D02*
Y1162130D01*
G01X4014000Y1259370D02*
X3935260D01*
X3951010Y1247690D01*
G01X4014000D02*
Y1271050D01*
G01X3835400Y1416050D02*
Y1225550D01*
G01X3897000Y1107840D02*
X3985900D01*
G01Y1059580D02*
X3931080Y1107840D01*
G01X3897000Y1051960D02*
X3956260Y1086250D01*
G01X3957150Y1772710D02*
X3951310Y1776650D01*
X3944490Y1779270D01*
X3936700D01*
X3927940Y1775330D01*
X3921130Y1768770D01*
X3916260Y1760900D01*
X3912360Y1747770D01*
X3911390Y1735960D01*
X3913340Y1724150D01*
X3916260Y1716280D01*
X3922100Y1708400D01*
X3928910Y1703150D01*
X3935730Y1700530D01*
X3942550D01*
X3949360Y1703150D01*
X3955200Y1707090D01*
X3960070Y1712340D01*
G01X3993050D02*
X3998890Y1705780D01*
X4005710Y1701840D01*
X4014470Y1700530D01*
X4023230Y1703150D01*
X4030050Y1708400D01*
X4034920Y1717590D01*
X4035890Y1728090D01*
X4033940Y1738590D01*
X4029070Y1745150D01*
X4022260Y1750400D01*
X4015440Y1751710D01*
X4008630Y1750400D01*
X3999870Y1745150D01*
X4002790Y1779270D01*
X4029070D01*
G01X4406900Y925830D02*
X4318000Y979170D01*
G01Y925830D02*
X4406900Y979170D01*
G01Y1049020D02*
X4318000D01*
X4335780Y1033780D01*
G01X4406900D02*
Y1064260D01*
M02*
