G04 ================== begin FILE IDENTIFICATION RECORD ==================*
G04 Layout Name:  Popcorn Popstick Rev1p1_Release.brd*
G04 Film Name:    PMB*
G04 File Format:  Gerber RS274X*
G04 File Origin:  Cadence Allegro 17.2-S053*
G04 Origin Date:  Thu Jun 30 17:26:53 2022*
G04 *
G04 Layer:  VIA CLASS/PASTEMASK_BOTTOM*
G04 Layer:  PIN/PASTEMASK_BOTTOM*
G04 Layer:  PACKAGE GEOMETRY/PASTEMASK_BOTTOM*
G04 Layer:  DRC ERROR CLASS/PASTEMASK_BOTTOM*
G04 Layer:  BOARD GEOMETRY/OUTLINE*
G04 *
G04 Offset:    (0.0000 0.0000)*
G04 Mirror:    No*
G04 Mode:      Positive*
G04 Rotation:  0*
G04 FullContactRelief:  No*
G04 UndefLineWidth:     0.1270*
G04 ================== end FILE IDENTIFICATION RECORD ====================*
%FSLAX55Y55*MOMM*%
%IR0*IPPOS*OFA0.00000B0.00000*MIA0B0*SFA1.00000B1.00000*%
%ADD19R,1.8999X1.8999*%
%ADD18R,.4X1.4*%
%ADD21R,1.6X.3*%
%ADD12O,1.5X.8*%
%ADD20R,.7X1.6*%
%ADD26R,.6X1.55*%
%ADD10R,.9X1.25*%
%ADD14R,1.X1.4*%
%ADD17R,1.5001X1.*%
%ADD15R,1.2X2.2*%
%ADD23R,1.2X1.4*%
%ADD25R,1.2X1.8*%
%ADD16R,1.6X1.4*%
%ADD11R,.8X.9*%
%ADD22R,1.57X1.88*%
%ADD24R,.8992X.8001*%
%ADD13R,.8001X.8992*%
%ADD27C,.127*%
G75*
%LPD*%
G75*
G54D10*
X243400Y153000D03*
X693400D03*
X543400D03*
G54D11*
X88400Y250500D03*
Y470500D03*
X848400Y250500D03*
Y470500D03*
G54D20*
X1654600Y1280000D03*
X1764600D03*
X1874600D03*
X1984600D03*
X2094600D03*
X2204600D03*
X2314600D03*
X2424600D03*
X2534600D03*
G54D12*
X223450Y759500D03*
Y886500D03*
Y1013500D03*
Y1140500D03*
G54D21*
X1987100Y1576400D03*
Y1626400D03*
Y1676400D03*
Y1726400D03*
Y1776400D03*
X2407100Y1726400D03*
Y1676400D03*
Y1626400D03*
Y1576400D03*
Y1776400D03*
G54D13*
X208130Y1346200D03*
X348130D03*
X630070D03*
X490070D03*
X792330Y939800D03*
X932330D03*
X793600Y1130300D03*
X933600D03*
X779630Y1346200D03*
X919630D03*
X2241400Y1447800D03*
X2381400D03*
X2621130Y1536700D03*
X2761130D03*
X3106270Y1155700D03*
X3246270D03*
G54D22*
X2197100Y1676400D03*
G54D23*
X2654600Y1230000D03*
G54D14*
X82800Y1553700D03*
X177800Y1773700D03*
X438400Y1553700D03*
X272800D03*
X628400D03*
X533400Y1773700D03*
X794000Y1553700D03*
X889000Y1773700D03*
X984000Y1553700D03*
G54D24*
X2590800Y1681330D03*
Y1821330D03*
X2882900Y678030D03*
Y818030D03*
Y944730D03*
Y1084730D03*
Y1213970D03*
Y1353970D03*
X2717800Y1681330D03*
Y1821330D03*
X3035300Y678030D03*
Y818030D03*
X3352800Y1746400D03*
Y1606400D03*
G54D15*
X1104600Y270000D03*
X2654600D03*
G54D16*
X1194600Y1230000D03*
G54D25*
X3525200Y1771800D03*
X4085200D03*
G54D17*
X1127810Y1544500D03*
X1767790D03*
G54D26*
X3755200Y1384300D03*
X3655200D03*
X3955200D03*
X3855200D03*
G54D27*
G01X0Y0D02*
X4500000D01*
Y1900000D01*
X0D01*
Y0D01*
G01X992210Y2164900D02*
Y2418900D01*
X1068410D01*
X1093810Y2406190D01*
X1112860Y2376570D01*
X1119210Y2342700D01*
X1112860Y2308830D01*
X1096980Y2283430D01*
X1068410Y2270730D01*
X992210D01*
G01X1227160Y2164900D02*
Y2418900D01*
X1309710Y2207230D01*
X1392260Y2418900D01*
Y2164900D01*
G01X1589110Y2300370D02*
X1601810Y2313070D01*
X1611330Y2334230D01*
X1617690Y2363870D01*
X1611330Y2389270D01*
X1598640Y2406190D01*
X1576410Y2418900D01*
X1490690D01*
Y2164900D01*
X1595460D01*
X1617690Y2181830D01*
X1630390Y2207230D01*
X1636730Y2236870D01*
X1630390Y2266490D01*
X1611330Y2291900D01*
X1589110Y2300370D01*
X1490690D01*
G01X2008210Y2418900D02*
Y2164900D01*
X2135210D01*
G01X2246330D02*
X2325710Y2418900D01*
X2405090Y2164900D01*
G01X2376510Y2253800D02*
X2274910D01*
G01X2579710Y2164900D02*
Y2279200D01*
X2516210Y2418900D01*
G01X2643210D02*
X2579710Y2279200D01*
G01X2897210Y2164900D02*
X2770210D01*
Y2418900D01*
X2897210D01*
G01X2846410Y2296140D02*
X2770210D01*
G01X3024210Y2164900D02*
Y2418900D01*
X3103580D01*
X3128980Y2406190D01*
X3144860Y2389270D01*
X3151210Y2355400D01*
X3144860Y2321530D01*
X3125810Y2300370D01*
X3103580Y2287660D01*
X3024210D01*
G01X3103580D02*
X3151210Y2164900D01*
G54D18*
X1382800Y1509490D03*
X1317800D03*
X1577800D03*
X1512800D03*
X1447800D03*
G54D19*
X1327810Y1769490D03*
X1567790D03*
M02*
