G04 ================== begin FILE IDENTIFICATION RECORD ==================*
G04 Layout Name:  Popcorn Popstick Rev1p1_Release.brd*
G04 Film Name:    PMT*
G04 File Format:  Gerber RS274X*
G04 File Origin:  Cadence Allegro 17.2-S053*
G04 Origin Date:  Thu Jun 30 17:26:53 2022*
G04 *
G04 Layer:  VIA CLASS/PASTEMASK_TOP*
G04 Layer:  PIN/PASTEMASK_TOP*
G04 Layer:  PACKAGE GEOMETRY/PASTEMASK_TOP*
G04 Layer:  DRC ERROR CLASS/PASTEMASK_TOP*
G04 Layer:  BOARD GEOMETRY/OUTLINE*
G04 *
G04 Offset:    (0.0000 0.0000)*
G04 Mirror:    No*
G04 Mode:      Positive*
G04 Rotation:  0*
G04 FullContactRelief:  No*
G04 UndefLineWidth:     0.1270*
G04 ================== end FILE IDENTIFICATION RECORD ====================*
%FSLAX55Y55*MOMM*%
%IR0*IPPOS*OFA0.00000B0.00000*MIA0B0*SFA1.00000B1.00000*%
%ADD10O,1.5X.8*%
%ADD17R,1.1X.47*%
%ADD24R,.47X1.1*%
%ADD23R,.68X1.21*%
%ADD11R,1.7X.8999*%
%ADD12R,1.8001X.8999*%
%ADD19R,1.4X1.2*%
%ADD15R,4.3X3.4*%
%ADD18R,.86X.22*%
%ADD20R,.22X.86*%
%ADD14R,.44X.94*%
%ADD22R,1.27X1.27*%
%ADD21R,6.74X6.74*%
%ADD16R,.8992X.8001*%
%ADD13R,.8001X.8992*%
%ADD25C,.127*%
G75*
%LPD*%
G75*
G54D10*
X223450Y759500D03*
Y1013500D03*
Y886500D03*
Y1140500D03*
G54D20*
X1997800Y649500D03*
X2037800D03*
X2077800D03*
X2117800D03*
Y1636500D03*
X2077800D03*
X2037800D03*
X1997800D03*
X2157800Y649500D03*
X2197800D03*
X2237800D03*
X2277800D03*
X2317800D03*
X2357800D03*
Y1636500D03*
X2317800D03*
X2277800D03*
X2237800D03*
X2197800D03*
X2157800D03*
X2397800Y649500D03*
X2437800D03*
X2477800D03*
X2517800D03*
X2557800D03*
X2597800D03*
Y1636500D03*
X2557800D03*
X2517800D03*
X2477800D03*
X2437800D03*
X2397800D03*
X2637800Y649500D03*
X2677800D03*
X2717800D03*
X2757800D03*
X2797800D03*
X2837800D03*
Y1636500D03*
X2797800D03*
X2757800D03*
X2717800D03*
X2677800D03*
X2637800D03*
G54D11*
X190500Y1395200D03*
X584200D03*
G54D21*
X2417800Y1143000D03*
G54D12*
X190500Y1805200D03*
X584200D03*
G54D13*
X501500Y1155700D03*
X641500D03*
X1556870Y584200D03*
Y774700D03*
Y901700D03*
X1554330Y1028700D03*
X1556870Y1155700D03*
X1696870Y584200D03*
Y774700D03*
Y901700D03*
X1694330Y1028700D03*
X1696870Y1155700D03*
X1883730Y1790000D03*
X2023730D03*
X2379830Y368300D03*
X2381270Y1795000D03*
X2241270D03*
X2519830Y368300D03*
X2595730Y1778000D03*
X2735730D03*
X3105000Y1549400D03*
Y1689100D03*
X3245000Y1549400D03*
Y1689100D03*
X4033670Y1752600D03*
X3893670D03*
G54D22*
X3538220Y127000D03*
X3545840Y723900D03*
X3525520Y1320800D03*
X3751580Y127000D03*
X3759200Y723900D03*
X3738880Y1320800D03*
G54D14*
X927100Y353450D03*
Y1132450D03*
X1054100Y353450D03*
X1181100D03*
Y1132450D03*
X1054100D03*
X1308100Y353450D03*
Y1132450D03*
G54D23*
X3569450Y297300D03*
Y548300D03*
X3562600Y903200D03*
Y1154200D03*
X3556250Y1500100D03*
Y1751100D03*
X3759450Y297300D03*
X3664450D03*
X3759450Y548300D03*
X3752600Y903200D03*
X3657600D03*
X3752600Y1154200D03*
X3746250Y1500100D03*
X3651250D03*
X3746250Y1751100D03*
G54D15*
X1117600Y742950D03*
G54D24*
X3949700Y803600D03*
Y1050600D03*
G54D25*
G01X0Y0D02*
X4500000D01*
Y1900000D01*
X0D01*
Y0D01*
G01X851240Y2147370D02*
Y2401370D01*
X927440D01*
X952840Y2388660D01*
X971890Y2359040D01*
X978240Y2325170D01*
X971890Y2291300D01*
X956010Y2265900D01*
X927440Y2253200D01*
X851240D01*
G01X1086190Y2147370D02*
Y2401370D01*
X1168740Y2189700D01*
X1251290Y2401370D01*
Y2147370D01*
G01X1422740Y2401370D02*
Y2147370D01*
G01X1349720Y2401370D02*
X1495760D01*
G01X1867240D02*
Y2147370D01*
X1994240D01*
G01X2105360D02*
X2184740Y2401370D01*
X2264120Y2147370D01*
G01X2235540Y2236270D02*
X2133940D01*
G01X2438740Y2147370D02*
Y2261670D01*
X2375240Y2401370D01*
G01X2502240D02*
X2438740Y2261670D01*
G01X2756240Y2147370D02*
X2629240D01*
Y2401370D01*
X2756240D01*
G01X2705440Y2278610D02*
X2629240D01*
G01X2883240Y2147370D02*
Y2401370D01*
X2962610D01*
X2988010Y2388660D01*
X3003890Y2371740D01*
X3010240Y2337870D01*
X3003890Y2304000D01*
X2984840Y2282840D01*
X2962610Y2270130D01*
X2883240D01*
G01X2962610D02*
X3010240Y2147370D01*
G54D16*
X838200Y1531770D03*
Y1391770D03*
Y1683870D03*
X965200Y1681330D03*
X838200Y1823870D03*
X965200Y1821330D03*
X1016000Y69700D03*
X1181100D03*
X1016000Y209700D03*
X1181100D03*
X1295400Y1683870D03*
Y1823870D03*
X1663700Y1442870D03*
Y1302870D03*
X1536700Y1301600D03*
Y1441600D03*
X1778000Y271630D03*
Y411630D03*
X1790700Y1442870D03*
Y1302870D03*
X2654300Y274170D03*
Y414170D03*
X3073900Y544870D03*
Y404870D03*
X3111500Y1022200D03*
Y1162200D03*
X3353300Y544870D03*
Y404870D03*
X3213600Y544870D03*
Y404870D03*
X3365500Y1022200D03*
X3238500D03*
X3365500Y1162200D03*
X3238500D03*
X3378200Y1696870D03*
Y1556870D03*
X3975100Y1187300D03*
Y1327300D03*
G54D17*
X1133800Y1409700D03*
X1380800D03*
G54D18*
X1924300Y763000D03*
Y723000D03*
Y1003000D03*
Y963000D03*
Y923000D03*
Y883000D03*
Y843000D03*
Y803000D03*
Y1243000D03*
Y1203000D03*
Y1163000D03*
Y1123000D03*
Y1083000D03*
Y1043000D03*
Y1483000D03*
Y1443000D03*
Y1403000D03*
Y1363000D03*
Y1323000D03*
Y1283000D03*
Y1563000D03*
Y1523000D03*
X2911300Y723000D03*
Y763000D03*
Y803000D03*
Y843000D03*
Y883000D03*
Y923000D03*
Y963000D03*
Y1003000D03*
Y1043000D03*
Y1083000D03*
Y1123000D03*
Y1163000D03*
Y1203000D03*
Y1243000D03*
Y1283000D03*
Y1323000D03*
Y1363000D03*
Y1403000D03*
Y1443000D03*
Y1483000D03*
Y1523000D03*
Y1563000D03*
G54D19*
X2180100Y224800D03*
X1960100D03*
X2180100Y384800D03*
X1960100D03*
M02*
