G04 ================== begin FILE IDENTIFICATION RECORD ==================*
G04 Layout Name:  Popcorn Popstick Rev1p1_Release.brd*
G04 Film Name:    BOT*
G04 File Format:  Gerber RS274X*
G04 File Origin:  Cadence Allegro 17.2-S053*
G04 Origin Date:  Thu Jun 30 17:26:53 2022*
G04 *
G04 Layer:  VIA CLASS/BOTTOM*
G04 Layer:  PIN/BOTTOM*
G04 Layer:  ETCH/BOTTOM*
G04 Layer:  BOARD GEOMETRY/OUTLINE*
G04 *
G04 Offset:    (0.0000 0.0000)*
G04 Mirror:    No*
G04 Mode:      Positive*
G04 Rotation:  0*
G04 FullContactRelief:  No*
G04 UndefLineWidth:     0.1270*
G04 ================== end FILE IDENTIFICATION RECORD ====================*
%FSLAX55Y55*MOMM*%
%IR0*IPPOS*OFA0.00000B0.00000*MIA0B0*SFA1.00000B1.00000*%
%ADD24R,1.8999X1.8999*%
%ADD22R,.4X1.4*%
%ADD27R,1.6X.3*%
%ADD13O,1.5X.8*%
%ADD26R,.7X1.6*%
%ADD21O,.95X2.1001*%
%ADD32R,.6X1.55*%
%ADD10R,.9X1.25*%
%ADD12C,.7*%
%ADD17C,.9*%
%ADD14C,.6096*%
%ADD23C,.5999*%
%ADD20R,1.4X1.*%
%ADD16R,1.X1.4*%
%ADD18R,1.2X2.2*%
%ADD29R,1.2X1.4*%
%ADD31R,1.2X1.8*%
%ADD19R,1.6X1.4*%
%ADD25C,1.*%
%ADD11R,.8X.9*%
%ADD33C,1.508*%
%ADD34R,2.708X1.308*%
%ADD28R,1.57X1.88*%
%ADD35R,1.508X1.508*%
%ADD30R,.8992X.8001*%
%ADD15R,.8001X.8992*%
%ADD36C,.2032*%
%ADD37C,.127*%
%ADD38C,.254*%
%ADD39C,.1524*%
%ADD40C,.381*%
%ADD41C,.508*%
%ADD42C,.3048*%
%ADD43C,1.0164*%
%ADD44C,1.4068*%
G75*
%LPD*%
G75*
G36*
G01X3335120Y1016000D02*
X3429000D01*
Y847830D01*
G03X3422960Y831280I43998J-25434D01*
G02X3409290Y823580I-10004J1776D01*
G03X3390950Y827010I-18353J-47388D01*
G03X3340130Y776190I0J-50820D01*
G03X3360640Y735400I50816J0D01*
G02Y719080I-6055J-8160D01*
G03X3340130Y678290I30306J-40790D01*
G03X3390950Y627470I50820J0D01*
G03X3414190Y633100I-9J50818D01*
G02X3429000Y624060I4649J-9035D01*
G01Y419120D01*
X3427580D01*
Y63500D01*
X3022600D01*
Y215220D01*
X3035990Y228620D01*
G03X3043440Y246590I-17967J17978D01*
G01Y379100D01*
X3200590Y536260D01*
G03X3208040Y554230I-17967J17978D01*
G01Y797190D01*
X3238000Y827150D01*
X3240690Y826580D01*
G03X3251200Y825480I10516J49719D01*
G03X3302020Y876300I0J50820D01*
G03X3265460Y925080I-50822J0D01*
G02X3261130Y942010I2856J9749D01*
G01X3335120Y1016000D01*
G37*
G36*
G01X4165540Y1841500D02*
X4457700D01*
Y1615740D01*
X4221650D01*
G03X4201310Y1595400I0J-20340D01*
G01Y1464600D01*
G03X4221650Y1444260I20340J0D01*
G01X4457700D01*
Y455740D01*
X4221650D01*
G03X4201310Y435400I0J-20340D01*
G01Y304600D01*
G03X4221650Y284260I20340J0D01*
G01X4457700D01*
Y50800D01*
X3453000D01*
Y140460D01*
X3453130Y141020D01*
G03X3454420Y152400I-49530J11378D01*
G03X3453130Y163780I-50820J2D01*
G01X3453000Y164340D01*
Y393700D01*
X3521000D01*
Y588840D01*
G03Y661960I-35302J36560D01*
G01Y689120D01*
X4071480D01*
G02X4078250Y671390I-2J-10158D01*
G03X4046310Y600000I63813J-71390D01*
G03X4237790I95740J0D01*
G03X4205850Y671390I-95753J0D01*
G02X4212620Y689120I6772J7572D01*
G01X4229890D01*
G03X4246070Y695820I0J22887D01*
G01X4270290Y720040D01*
G02X4287510Y714390I7179J-7186D01*
G03X4357050Y654660I69540J10616D01*
G03Y795340I0J70340D01*
G03X4345230Y794340I-1J-70340D01*
G02X4333360Y804350I-1710J10015D01*
G01Y923520D01*
G03X4326660Y939700I-22887J0D01*
G01X4284940Y981420D01*
G03X4268760Y988120I-16180J-16187D01*
G01X4236290D01*
X4224020Y1000390D01*
X4225870Y1003730D01*
G03X4237790Y1050000I-83821J46264D01*
G03X4046310I-95740J0D01*
G03X4110540Y959590I95745J0D01*
G02Y940410I-3343J-9590D01*
G03X4046310Y850000I31515J-90410D01*
G03X4073990Y782670I95728J0D01*
G02X4066770Y765360I-7220J-7149D01*
G01X4042200D01*
X4036080Y771480D01*
Y800100D01*
G03X4029380Y816280I-22887J0D01*
G01X4016680Y828980D01*
G03X4000500Y835680I-16180J-16187D01*
G01X3975100D01*
G03X3958920Y828980I0J-22887D01*
G01X3946220Y816280D01*
G03X3939520Y800100I16187J-16180D01*
G01Y767200D01*
X3937680Y765360D01*
X3692540D01*
G02X3686710Y783850I-8J10162D01*
G03X3708420Y825500I-29097J41650D01*
G03X3606780I-50820J0D01*
G03X3628490Y783850I50807J0D01*
G02X3622660Y765360I-5822J-8328D01*
G01X3521000D01*
Y805690D01*
X3521260Y806460D01*
G03X3523820Y822400I-48262J15927D01*
G03X3521260Y838340I-50822J13D01*
G01X3521000Y839110D01*
Y1130280D01*
X3826960D01*
G03X3844930Y1137730I-8J25417D01*
G01X3973170Y1265970D01*
G03X3980530Y1281810I-17967J17978D01*
G02X3985510Y1286460I5061J-429D01*
G03X4005540Y1306800I-312J20340D01*
G01Y1461800D01*
G03X3985200Y1482140I-20340J0D01*
G01X3850280D01*
G02X3846680Y1490810I-5J5080D01*
G01X3854460Y1498590D01*
X3856570Y1498580D01*
X3856750D01*
G03X3805930Y1549400I0J50820D01*
G01Y1549220D01*
X3805940Y1547110D01*
X3740970Y1482140D01*
X3695860D01*
Y1498240D01*
G03X3695900Y1499940I-40618J1806D01*
G01Y1512080D01*
X3715430Y1531610D01*
X3716610Y1531980D01*
G03X3733100Y1542000I-12266J38766D01*
G01X3760010Y1568910D01*
X3761600Y1569190D01*
G03X3803670Y1619250I-8749J50060D01*
G03X3752850Y1670070I-50820J0D01*
G03X3702790Y1628000I0J-50819D01*
G01X3702510Y1626410D01*
X3685990Y1609890D01*
X3684810Y1609520D01*
G03X3668320Y1599500I12266J-38766D01*
G01X3626490Y1557670D01*
G03X3614580Y1528920I28745J-28750D01*
G01Y1501600D01*
G03X3614540Y1499900I40618J-1806D01*
G01Y1479120D01*
G03X3604860Y1461800I10655J-17320D01*
G01Y1358900D01*
X3302000D01*
Y1414170D01*
G03Y1481430I-38097J33630D01*
G01Y1651000D01*
X3606800D01*
Y1841500D01*
X4004860D01*
Y1681800D01*
G03X4005330Y1677470I20338J17D01*
G03X3975080Y1631000I20569J-46470D01*
G03X4076720I50820J0D01*
G03X4073820Y1647920I-50810J0D01*
G02X4083400Y1661460I9581J3380D01*
G01X4145200D01*
G03X4165540Y1681800I0J20340D01*
G01Y1841500D01*
G37*
%LPC*%
G75*
G36*
G01X4046310Y1261760D02*
Y1375400D01*
G02X4066650Y1395740I20340J0D01*
G01X4217450D01*
G02X4237790Y1375400I0J-20340D01*
G01Y1224600D01*
G02X4217450Y1204260I-20340J0D01*
G01X4103810D01*
X4090000Y1190450D01*
G02X4061250Y1178540I-28750J28745D01*
G01X4050360D01*
X4023380Y1151560D01*
Y999230D01*
G02X4015800Y975590I-40653J0D01*
G01Y932270D01*
G02X4025960Y901780I-40670J-30490D01*
G02X3924320I-50820J0D01*
G02X3934480Y932270I50830J0D01*
G01Y969830D01*
G03X3921670Y979640I-10160J1D01*
G02X3908420Y977880I-13258J49059D01*
G02Y1079520I0J50820D01*
G02X3927990Y1075600I0J-50810D01*
G03X3942060Y1084980I3910J9377D01*
G01Y1168400D01*
G02X3953970Y1197150I40655J0D01*
G01X4004770Y1247950D01*
G02X4033520Y1259860I28750J-28745D01*
G01X4044410D01*
X4046310Y1261760D01*
G37*
G54D43*
X3353300Y329700D03*
X3664450Y400980D03*
X3378200Y1460500D03*
G54D44*
X4357050Y1175000D03*
%LPD*%
G75*
G54D10*
X243400Y153000D03*
X693400D03*
X543400D03*
G54D11*
X88400Y250500D03*
Y470500D03*
X848400Y250500D03*
Y470500D03*
G54D20*
X1127810Y1544500D03*
X1767790D03*
G54D30*
X2590800Y1681330D03*
Y1821330D03*
X2882900Y678030D03*
Y818030D03*
Y944730D03*
Y1084730D03*
Y1213970D03*
Y1353970D03*
X2717800Y1681330D03*
Y1821330D03*
X3035300Y678030D03*
Y818030D03*
X3352800Y1746400D03*
Y1606400D03*
G54D12*
X107950Y696000D03*
Y823000D03*
Y950000D03*
Y1204000D03*
Y1077000D03*
G54D21*
X1164310Y1769490D03*
X1731290D03*
G54D40*
G01X243400Y153000D02*
Y258680D01*
G01X1257300Y1371600D02*
X1317800Y1432100D01*
Y1509490D01*
G01X2241400Y1447800D02*
Y1529400D01*
X2243000Y1531000D01*
G01X2407100Y1576400D02*
X2499160D01*
X2537560Y1538000D01*
X2542000D01*
G01X2621130Y1536700D02*
X2543300D01*
X2542000Y1538000D01*
G01X2590800Y1681330D02*
X2717800D01*
G01X2590800Y1821330D02*
X2566330D01*
X2537000Y1792000D01*
Y1788000D01*
X2539000Y1786000D01*
G01X2590800Y1821330D02*
X2717800D01*
G01X2761130Y1536700D02*
X2761230D01*
G01X2983710Y1674500D02*
X2957680Y1700530D01*
X2952110D01*
X2940680Y1711960D01*
X2874000D01*
X2843370Y1681330D01*
X2717800D01*
G01X3755200Y1384300D02*
Y1447850D01*
X3856750Y1549400D01*
G54D31*
X3525200Y1771800D03*
X4085200D03*
G54D13*
X223450Y759500D03*
Y886500D03*
Y1013500D03*
Y1140500D03*
G54D22*
X1382800Y1509490D03*
X1317800D03*
X1577800D03*
X1512800D03*
X1447800D03*
G54D41*
G01X223450Y759500D02*
X310500D01*
X361000Y709000D01*
G01X82800Y1553700D02*
Y1450600D01*
X54700Y1422500D01*
G01X208130Y1346200D02*
Y1303170D01*
X247500Y1263800D01*
G01X490070Y1346200D02*
Y1268730D01*
X501500Y1257300D01*
G01X793600Y1130300D02*
Y1041760D01*
X787400Y1035560D01*
G01X932330Y939800D02*
Y934850D01*
X850900Y853420D01*
Y825500D01*
G01X794000Y1553700D02*
Y1499270D01*
X736600Y1441870D01*
G01X779630Y1346200D02*
X827960Y1297870D01*
X828930D01*
G01X1164310Y1769490D02*
X1127810Y1732990D01*
Y1544500D01*
G01X1327810Y1769490D02*
X1164310D01*
G01X1370080Y1054100D02*
X1279730Y963750D01*
X1219200D01*
G01X1567790Y1769490D02*
X1731290D01*
G01X1767790Y1544500D02*
X1711630Y1600660D01*
Y1672520D01*
X1731290Y1692180D01*
Y1769490D01*
G01X1984600Y1280000D02*
Y1347600D01*
X2017000Y1380000D01*
Y1389000D01*
X2019000Y1391000D01*
G01X2204600Y1280000D02*
Y1107000D01*
G01X2654600Y1230000D02*
Y1227520D01*
X2600000Y1172920D01*
Y1100000D01*
G01X2882900Y944730D02*
X2797980D01*
G01X2805600Y818030D02*
X2882900D01*
G01X2761230Y1536700D02*
X2808300D01*
X2828000Y1517000D01*
G01X3035300Y678030D02*
Y614170D01*
X2966000Y544870D01*
G01X2882900Y678030D02*
Y587080D01*
X2885780Y584200D01*
G01X2882900Y818030D02*
X3035300D01*
G01X2882900Y1213970D02*
X3001030D01*
X3007000Y1208000D01*
G01X3066880Y1262970D02*
X3106270Y1223580D01*
Y1155700D01*
G01X2882900Y1084730D02*
X2994980D01*
X3005100Y1094850D01*
G01X2882900Y1353970D02*
X3006900D01*
X3009290Y1356360D01*
X3077870D01*
G01X3251200Y1270000D02*
X3246270Y1265070D01*
Y1155700D01*
G01X3352800Y1606400D02*
X3379800Y1608000D01*
X3533000D01*
G01X3352800Y1746400D02*
Y1816100D01*
G01X3655200Y1384300D02*
Y1499900D01*
X3655240Y1499940D01*
Y1528920D01*
X3697070Y1570750D01*
X3704350D01*
X3752850Y1619250D01*
G01X3975140Y901780D02*
Y991650D01*
X3982720Y999230D01*
Y1168400D01*
X4033520Y1219200D01*
X4061250D01*
X4142050Y1300000D01*
G54D23*
X1247800Y1554500D03*
X1647800D03*
G54D14*
X223450Y584200D03*
X54700Y1422500D03*
X50800Y1308100D03*
X70010Y1716300D03*
X243400Y258680D03*
X361000Y709000D03*
X355600Y1140500D03*
X247500Y1263800D03*
X406400Y1805200D03*
X543400Y258680D03*
X662000Y790000D03*
X671680Y570080D03*
X571500Y939800D03*
X501500Y1257300D03*
X609600Y1244600D03*
X660400Y1676400D03*
X923270Y152400D03*
X812800Y711200D03*
X787400Y1035560D03*
X850900Y825500D03*
X723900Y1231900D03*
X736600Y1441870D03*
X828930Y1297870D03*
X736600Y1816100D03*
X1041400Y977900D03*
X980040Y1242370D03*
X1041400Y1828800D03*
X1308100Y165100D03*
Y254000D03*
X1409700D03*
X1219200Y963750D03*
X1370080Y1054100D03*
X1257300Y1371600D03*
X1452880Y330000D03*
X1556870Y496060D03*
X1485900Y774700D03*
X1474000Y999200D03*
X1483000Y1152000D03*
X1618920Y1631310D03*
X1689860Y411630D03*
X1866620Y489850D03*
X1834000Y688000D03*
X1788500Y574500D03*
X1788270Y1056530D03*
X1805000Y1646000D03*
X1930400Y546100D03*
X2027000Y805000D03*
X2019300Y1143000D03*
X2019000Y1391000D03*
X2110000Y1820470D03*
X2274220Y239260D03*
X2377520Y521360D03*
X2298700Y501480D03*
X2154000Y745000D03*
X2358000Y744000D03*
X2300000Y950000D03*
X2298700Y1092200D03*
X2204600Y1107000D03*
X2243000Y1531000D03*
X2519830Y273170D03*
X2514600Y101600D03*
X2466000Y518000D03*
X2542060Y546670D03*
X2477800Y744200D03*
X2562000Y744000D03*
X2600000Y950000D03*
X2450000D03*
X2449000Y1070000D03*
X2600000Y1100000D03*
X2542000Y1538000D03*
X2539000Y1786000D03*
X2781300Y292100D03*
X2824480Y210820D03*
X2763170Y414170D03*
X2781300Y571500D03*
X2755900Y723900D03*
X2797980Y944730D03*
X2805600Y818030D03*
X2828000Y1517000D03*
X2813580Y1760780D03*
X2863850Y1797050D03*
X2946400Y254000D03*
X2966000Y544870D03*
X3073900Y330700D03*
X2908300Y330200D03*
X2885780Y584200D03*
X3000000Y963000D03*
X3102000Y923000D03*
X3007000Y1208000D03*
X3066880Y1262970D03*
X3005100Y1094850D03*
X2997480Y1432900D03*
X3077870Y1356360D03*
X2983710Y1674500D03*
X2978950Y1765300D03*
X3213600Y330700D03*
X3251200Y876300D03*
X3149600Y1282700D03*
X3251200Y1270000D03*
X3263900Y1447800D03*
X3238500Y1784860D03*
X3492270Y266700D03*
X3403600Y152400D03*
X3492270Y355600D03*
X3353300Y329700D03*
X3390950Y776190D03*
Y678290D03*
X3485700Y625400D03*
X3368380Y929670D03*
X3473000Y822400D03*
X3454400Y1092200D03*
X3378200Y1460500D03*
X3533000Y1608000D03*
X3352800Y1816100D03*
X3759450Y457450D03*
X3664450Y400980D03*
X3657600Y825500D03*
X3752850Y1619250D03*
X3822700Y1778000D03*
X3848100Y457200D03*
X3908420Y1028700D03*
X3975140Y901780D03*
X3827500Y1704800D03*
X3937000Y1524000D03*
X4000500D03*
X4025900Y1631000D03*
X3856750Y1549400D03*
G54D32*
X3755200Y1384300D03*
X3655200D03*
X3955200D03*
X3855200D03*
G54D42*
G01X1577800Y1509490D02*
Y1590500D01*
X1618610Y1631310D01*
X1618920D01*
G54D15*
X208130Y1346200D03*
X348130D03*
X630070D03*
X490070D03*
X792330Y939800D03*
X932330D03*
X793600Y1130300D03*
X933600D03*
X779630Y1346200D03*
X919630D03*
X2241400Y1447800D03*
X2381400D03*
X2621130Y1536700D03*
X2761130D03*
X3106270Y1155700D03*
X3246270D03*
G54D33*
X4142050Y600000D03*
Y850000D03*
Y1050000D03*
G54D24*
X1327810Y1769490D03*
X1567790D03*
G54D34*
X4357050Y370000D03*
Y1530000D03*
G54D25*
X1574600Y230000D03*
X2374600D03*
X4357050Y725000D03*
Y1175000D03*
G54D16*
X82800Y1553700D03*
X177800Y1773700D03*
X438400Y1553700D03*
X272800D03*
X628400D03*
X533400Y1773700D03*
X794000Y1553700D03*
X889000Y1773700D03*
X984000Y1553700D03*
G54D35*
X4142050Y1300000D03*
G54D17*
X318400Y360500D03*
X618400D03*
G54D26*
X1654600Y1280000D03*
X1764600D03*
X1874600D03*
X1984600D03*
X2094600D03*
X2204600D03*
X2314600D03*
X2424600D03*
X2534600D03*
G54D36*
G01X50800Y1308100D02*
X111470D01*
X213670Y1205900D01*
X281330D01*
X281930Y1206500D01*
X381000D01*
X571500Y1016000D01*
Y939800D01*
G01X177800Y1773700D02*
Y1753700D01*
X266710Y1664790D01*
X420170D01*
X438400Y1646560D01*
Y1553700D01*
G01X923270Y152400D02*
Y315420D01*
X857690Y381000D01*
X781730D01*
X615800Y546930D01*
Y556010D01*
X370840Y800970D01*
Y836970D01*
X321310Y886500D01*
X223450D01*
G01X3251200Y876300D02*
X3182620Y807720D01*
Y554230D01*
X3018020Y389630D01*
Y246590D01*
X2817150Y45720D01*
X855980D01*
X774700Y127000D01*
Y310950D01*
X501450Y584200D01*
X223450D01*
G01Y1013500D02*
X321310D01*
X406400Y928410D01*
Y815700D01*
X594660Y627440D01*
X614320D01*
X671680Y570080D01*
G01X223450Y1140500D02*
X258450D01*
X444500Y954450D01*
Y827890D01*
X609390Y663000D01*
X657790D01*
X774690Y546100D01*
X1418080D01*
X1524000Y440180D01*
X1639380D01*
X1666710Y467510D01*
X1844280D01*
X1866620Y489850D01*
G01X355600Y1140500D02*
X393700Y1102400D01*
Y1077050D01*
X495300Y975450D01*
Y827380D01*
X624120Y698560D01*
X672520D01*
X774180Y596900D01*
X1536700D01*
X1629600Y504000D01*
X1801740D01*
X1843840Y546100D01*
X1930400D01*
G01X348130Y1346200D02*
Y1341250D01*
X412750Y1276630D01*
Y1238260D01*
X633070Y1017940D01*
Y912460D01*
X606120Y885510D01*
Y766850D01*
X638850Y734120D01*
X687250D01*
X786900Y635000D01*
X1728000D01*
X1788500Y574500D01*
G01X272800Y1553700D02*
Y1426480D01*
X348130Y1351150D01*
Y1346200D01*
G01X543400Y153000D02*
Y258680D01*
G01X662000Y790000D02*
X673100Y801100D01*
Y1054100D01*
X609600Y1117600D01*
Y1244600D01*
G01X662000Y790000D02*
X751900D01*
X787400Y825500D01*
Y892450D01*
X792330Y897380D01*
Y939800D01*
G01X723900Y1231900D02*
X630070Y1325730D01*
Y1346200D01*
G01X628400Y1553700D02*
Y1460840D01*
X630070Y1459170D01*
Y1346200D01*
G01X533400Y1773700D02*
X616440D01*
X660400Y1729740D01*
Y1676400D01*
G01X923270Y152400D02*
X976610Y99060D01*
X2436730D01*
X2439270Y101600D01*
X2514600D01*
G01X812800Y711200D02*
X850520Y673480D01*
X1769490D01*
X1810850Y632120D01*
X1969430D01*
X2160550Y441000D01*
X2468030D01*
X2542060Y515030D01*
Y546670D01*
G01X1834000Y688000D02*
X1805440Y716560D01*
X1381770D01*
X1089200Y1009130D01*
Y1239500D01*
X982500Y1346200D01*
X919630D01*
G01X984000Y1553700D02*
Y1539000D01*
X919630Y1474630D01*
Y1346200D01*
G01X889000Y1773700D02*
X779000D01*
X736600Y1816100D01*
G01X1041400Y977900D02*
Y1085370D01*
X996470Y1130300D01*
X933600D01*
G01X2824480Y210820D02*
X2748260Y134600D01*
X2584070D01*
X2561190Y157480D01*
X2418080D01*
X2395220Y134620D01*
X1529080D01*
X1409700Y254000D01*
G01X1452880Y330000D02*
X1506220D01*
X1506800Y330580D01*
X2509250D01*
X2584070Y405400D01*
X2588690D01*
X2597460Y414170D01*
X2763170D01*
G01X2407100Y1676400D02*
X2489200D01*
X2512500Y1653100D01*
Y1625930D01*
X2522610Y1615820D01*
X2808210D01*
X2883880Y1540150D01*
Y1493850D01*
X2782000Y1391970D01*
Y1052970D01*
X2691440Y962410D01*
Y563060D01*
X2494520Y366140D01*
X1990330D01*
X1866620Y489850D01*
G01X1654600Y1280000D02*
Y1177140D01*
X1653540Y1176080D01*
Y998300D01*
X2004140Y647700D01*
X2152480D01*
X2298700Y501480D01*
G01X1874600Y1280000D02*
Y877820D01*
X2026820Y725600D01*
X2055570D01*
X2130850Y800880D01*
X2196310D01*
X2266560Y730630D01*
Y706120D01*
X2320120Y652560D01*
X2331440D01*
X2466000Y518000D01*
G01X1764600Y1280000D02*
Y1235000D01*
X1689100Y1159500D01*
Y1013030D01*
X2016330Y685800D01*
X2213080D01*
X2377520Y521360D01*
G01X1987100Y1676400D02*
X1906980D01*
X1897380Y1666800D01*
X1896570D01*
X1881700Y1651930D01*
Y1565550D01*
X1860650Y1544500D01*
X1767790D01*
G01X1805000Y1646000D02*
Y1759990D01*
X1880010Y1835000D01*
X2045500D01*
X2086850Y1876350D01*
X2242150D01*
X2342100Y1776400D01*
X2407100D01*
G01Y1626400D02*
X2316570D01*
X2301700Y1611530D01*
Y1550870D01*
X2321770Y1530800D01*
X2438200D01*
X2632000Y1337000D01*
X2713530D01*
X2740000Y1310530D01*
Y1061260D01*
X2655880Y977140D01*
Y577790D01*
X2479790Y401700D01*
X2074800D01*
X1930400Y546100D01*
G01X2094600Y1280000D02*
Y1007400D01*
X2358000Y744000D01*
G01X2534600Y1280000D02*
Y1117430D01*
X2544120Y1107910D01*
Y840910D01*
X2617880Y767150D01*
Y720850D01*
X2585150Y688120D01*
X2334850D01*
X2302120Y720850D01*
Y745360D01*
X2204760Y842720D01*
X2064720D01*
X2027000Y805000D01*
G01X2314600Y1280000D02*
Y1177140D01*
X2359000Y1132740D01*
Y863000D01*
X2477800Y744200D01*
G01X2424600Y1280000D02*
Y1177140D01*
X2508560Y1093180D01*
Y797440D01*
X2562000Y744000D01*
G01X2381400Y1447800D02*
X2469660D01*
X2534600Y1382860D01*
Y1280000D01*
G01X3955200Y1384300D02*
Y1283940D01*
X3826960Y1155700D01*
X3438870D01*
X3193440Y910270D01*
Y885120D01*
X3147060Y838740D01*
Y594880D01*
X2971800Y419620D01*
Y279400D01*
X2946400Y254000D01*
G01X3855200Y1384300D02*
Y1277100D01*
X3771900Y1193800D01*
X3416290D01*
X3157880Y935390D01*
Y899850D01*
X3111500Y853470D01*
Y609610D01*
X2908300Y406410D01*
Y330200D01*
G54D18*
X1104600Y270000D03*
X2654600D03*
G54D27*
X1987100Y1576400D03*
Y1626400D03*
Y1676400D03*
Y1726400D03*
Y1776400D03*
X2407100Y1726400D03*
Y1676400D03*
Y1626400D03*
Y1576400D03*
Y1776400D03*
G54D37*
G01X0Y0D02*
X4500000D01*
Y1900000D01*
X0D01*
Y0D01*
G01X913980Y2256680D02*
X926680Y2269380D01*
X936200Y2290540D01*
X942560Y2320180D01*
X936200Y2345580D01*
X923510Y2362500D01*
X901280Y2375210D01*
X815560D01*
Y2121210D01*
X920330D01*
X942560Y2138140D01*
X955260Y2163540D01*
X961600Y2193180D01*
X955260Y2222800D01*
X936200Y2248210D01*
X913980Y2256680D01*
X815560D01*
G01X1142580Y2121210D02*
X1117180Y2125440D01*
X1094960Y2142370D01*
X1075900Y2167770D01*
X1063200Y2197410D01*
X1056850Y2231280D01*
Y2265140D01*
X1063200Y2299010D01*
X1075900Y2328650D01*
X1094960Y2354040D01*
X1117180Y2370980D01*
X1142580Y2375210D01*
X1167980Y2370980D01*
X1190200Y2354040D01*
X1209260Y2328650D01*
X1221960Y2299010D01*
X1228310Y2265140D01*
Y2231280D01*
X1221960Y2197410D01*
X1209260Y2167770D01*
X1190200Y2142370D01*
X1167980Y2125440D01*
X1142580Y2121210D01*
G01X1396580Y2375210D02*
Y2121210D01*
G01X1323560Y2375210D02*
X1469600D01*
G01X1650580D02*
Y2121210D01*
G01X1577560Y2375210D02*
X1723600D01*
G01X1904580Y2121210D02*
X1879180Y2125440D01*
X1856960Y2142370D01*
X1837900Y2167770D01*
X1825200Y2197410D01*
X1818850Y2231280D01*
Y2265140D01*
X1825200Y2299010D01*
X1837900Y2328650D01*
X1856960Y2354040D01*
X1879180Y2370980D01*
X1904580Y2375210D01*
X1929980Y2370980D01*
X1952200Y2354040D01*
X1971260Y2328650D01*
X1983960Y2299010D01*
X1990310Y2265140D01*
Y2231280D01*
X1983960Y2197410D01*
X1971260Y2167770D01*
X1952200Y2142370D01*
X1929980Y2125440D01*
X1904580Y2121210D01*
G01X2076030D02*
Y2375210D01*
X2158580Y2163540D01*
X2241130Y2375210D01*
Y2121210D01*
G01X2603080Y2375210D02*
Y2121210D01*
X2730080D01*
G01X2841200D02*
X2920580Y2375210D01*
X2999960Y2121210D01*
G01X2971380Y2210110D02*
X2869780D01*
G01X3174580Y2121210D02*
Y2235510D01*
X3111080Y2375210D01*
G01X3238080D02*
X3174580Y2235510D01*
G01X3492080Y2121210D02*
X3365080D01*
Y2375210D01*
X3492080D01*
G01X3441280Y2252450D02*
X3365080D01*
G01X3619080Y2121210D02*
Y2375210D01*
X3698450D01*
X3723850Y2362500D01*
X3739730Y2345580D01*
X3746080Y2311710D01*
X3739730Y2277840D01*
X3720680Y2256680D01*
X3698450Y2243970D01*
X3619080D01*
G01X3698450D02*
X3746080Y2121210D01*
G54D28*
X2197100Y1676400D03*
G54D19*
X1194600Y1230000D03*
G54D38*
G01X2407100Y1726400D02*
X2545730D01*
X2590800Y1681330D01*
G54D29*
X2654600Y1230000D03*
G54D39*
G01X1987100Y1626400D02*
X2064430D01*
X2089960Y1600870D01*
Y1491980D01*
X2052130Y1454150D01*
X1878260D01*
X1806970Y1382860D01*
X1610130D01*
X1566360Y1339090D01*
X1433150D01*
X1400060Y1372180D01*
Y1406370D01*
X1382800Y1423630D01*
Y1509490D01*
G01X1987100Y1576400D02*
X2043100D01*
X2059480Y1560020D01*
Y1504610D01*
X2039500Y1484630D01*
X2020570D01*
X2006600Y1498600D01*
Y1524000D01*
X1994030Y1536570D01*
X1978780D01*
X1968000Y1525790D01*
Y1497000D01*
X1956000Y1485000D01*
Y1484630D01*
X1938630D01*
X1929630Y1493630D01*
Y1500000D01*
X1929500D01*
Y1525000D01*
X1916500Y1538000D01*
X1903440D01*
X1891000Y1525560D01*
Y1492000D01*
X1883630Y1484630D01*
X1865630D01*
X1794340Y1413340D01*
X1597500D01*
X1553730Y1369570D01*
X1445780D01*
X1430540Y1384810D01*
Y1406370D01*
X1447800Y1423630D01*
Y1509490D01*
G01X3390950Y776190D02*
X3424660Y742480D01*
X3947160D01*
X3962400Y757720D01*
Y800100D01*
X3975100Y812800D01*
X4000500D01*
X4013200Y800100D01*
Y762000D01*
X4032720Y742480D01*
X4217260D01*
X4280000Y805220D01*
Y910890D01*
X4256130Y934760D01*
X4226810D01*
X4142050Y850000D01*
G01Y1050000D02*
X4226810Y965240D01*
X4268760D01*
X4310480Y923520D01*
Y792590D01*
X4229890Y712000D01*
X3424660D01*
X3390950Y678290D01*
M02*
