G04 ================== begin FILE IDENTIFICATION RECORD ==================*
G04 Layout Name:  Popcorn Popstick Rev1p1_Release.brd*
G04 Film Name:    GND*
G04 File Format:  Gerber RS274X*
G04 File Origin:  Cadence Allegro 17.2-S053*
G04 Origin Date:  Thu Jun 30 17:26:53 2022*
G04 *
G04 Layer:  VIA CLASS/GND*
G04 Layer:  PIN/GND*
G04 Layer:  ETCH/GND*
G04 Layer:  BOARD GEOMETRY/OUTLINE*
G04 *
G04 Offset:    (0.0000 0.0000)*
G04 Mirror:    No*
G04 Mode:      Positive*
G04 Rotation:  0*
G04 FullContactRelief:  No*
G04 UndefLineWidth:     0.1270*
G04 ================== end FILE IDENTIFICATION RECORD ====================*
%FSLAX55Y55*MOMM*%
%IR0*IPPOS*OFA0.00000B0.00000*MIA0B0*SFA1.00000B1.00000*%
%ADD11O,.95X2.1001*%
%ADD10C,.6096*%
%ADD12C,1.508*%
%ADD13R,2.708X1.308*%
%ADD14C,.127*%
%ADD15C,.254*%
%ADD18C,1.0164*%
%ADD20C,1.0068*%
%ADD16C,1.1068*%
%ADD21C,1.3068*%
%ADD17C,1.4068*%
%ADD19C,1.7624*%
G75*
%LPD*%
G75*
G36*
G01X2159020Y1866900D02*
X4457700D01*
Y1608120D01*
X4221650D01*
G03X4208930Y1595400I0J-12720D01*
G01Y1464600D01*
G03X4221650Y1451880I12720J0D01*
G01X4457700D01*
Y448120D01*
X4221650D01*
G03X4208930Y435400I0J-12720D01*
G01Y304600D01*
G03X4221650Y291880I12720J0D01*
G01X4457700D01*
Y38100D01*
X38100D01*
Y1247170D01*
G02X48680Y1257320I10158J0D01*
G03X50800Y1257280I2019J50782D01*
G03Y1358920I0J50820D01*
G03X48680Y1358880I-101J-50822D01*
G02X38100Y1369030I-422J10150D01*
G01Y1866900D01*
X691140D01*
G02X698710Y1849970I-4J-10159D01*
G03X685780Y1816100I37896J-33870D01*
G03X787420I50820J0D01*
G03X774490Y1849970I-50826J0D01*
G02X782060Y1866900I7574J6771D01*
G01X987200D01*
G02X996230Y1852090I-2J-10159D01*
G03X990580Y1828800I45177J-23290D01*
G03X1092220I50820J0D01*
G03X1086570Y1852090I-50827J0D01*
G02X1095600Y1866900I9032J4651D01*
G01X1100530D01*
G02X1109730Y1852450I-7J-10158D01*
G03X1104090Y1827010I54581J-25446D01*
G01Y1711980D01*
G03X1224530I60220J5D01*
G01Y1827010D01*
G03X1218890Y1852450I-60221J-6D01*
G02X1228090Y1866900I9207J4292D01*
G01X1667510D01*
G02X1676710Y1852450I-7J-10158D01*
G03X1671070Y1827010I54581J-25446D01*
G01Y1711980D01*
G03X1742260Y1652770I60221J3D01*
G02X1754250Y1643320I1846J-9990D01*
G03X1805000Y1595180I50750J2681D01*
G03Y1696820I0J50820D01*
G03X1802070Y1696740I-78J-50822D01*
G02X1791350Y1707620I-588J10142D01*
G03X1791510Y1711980I-60059J4387D01*
G01Y1827010D01*
G03X1785870Y1852450I-60221J-6D01*
G02X1795070Y1866900I9207J4292D01*
G01X2060980D01*
G02X2069150Y1850700I0J-10160D01*
G03X2059180Y1820470I40845J-30230D01*
G03X2160820I50820J0D01*
G03X2150850Y1850700I-50815J0D01*
G02X2159020Y1866900I8170J6040D01*
G37*
%LPC*%
G75*
G36*
G01X4110540Y959590D02*
G02X4046310Y1050000I31515J90410D01*
G02X4237790I95740J0D01*
G02X4173560Y959590I-95745J0D01*
G03Y940410I3343J-9590D01*
G02X4237790Y850000I-31515J-90410D01*
G02X4046310I-95740J0D01*
G02X4110540Y940410I95745J0D01*
G03Y959590I-3343J9590D01*
G37*
G36*
G01X3034350Y925550D02*
G02X3000000Y912180I-34350J37441D01*
G02Y1013820I0J50820D01*
G02X3050650Y967110I0J-50816D01*
G03X3067650Y960450I10128J826D01*
G02X3102000Y973820I34350J-37441D01*
G02Y872180I0J-50820D01*
G02X3051350Y918890I0J50816D01*
G03X3034350Y925550I-10128J-826D01*
G37*
G36*
G01X3409290Y823580D02*
G03X3422960Y831280I3666J9476D01*
G02X3473000Y873220I50040J-8882D01*
G02Y771580I0J-50820D01*
G02X3454660Y775010I13J50818D01*
G03X3440990Y767310I-3666J-9476D01*
G02X3421260Y735400I-50038J8884D01*
G03Y719080I6055J-8160D01*
G02X3441770Y678290I-30306J-40790D01*
G02X3441740Y676510I-50821J-34D01*
G03X3457520Y667690I10153J-361D01*
G02X3485700Y676220I28180J-42283D01*
G02X3434880Y625400I0J-50820D01*
G02X3434910Y627180I50821J34D01*
G03X3419130Y636000I-10153J361D01*
G02X3390950Y627470I-28180J42283D01*
G02X3340130Y678290I0J50820D01*
G02X3360640Y719080I50816J0D01*
G03Y735400I-6055J8160D01*
G02X3340130Y776190I30306J40790D01*
G02X3390950Y827010I50820J0D01*
G02X3409290Y823580I-13J-50818D01*
G37*
G36*
G01X2815150Y1811580D02*
G02X2863850Y1847870I48700J-14532D01*
G02Y1746230I0J-50820D01*
G02X2862280Y1746250I-138J50822D01*
G02X2813580Y1709960I-48700J14532D01*
G02Y1811600I0J50820D01*
G02X2815150Y1811580I138J-50822D01*
G37*
G36*
G01X3787050Y1735560D02*
G03X3786610Y1742220I-4043J3077D01*
G02X3771880Y1778000I36091J35780D01*
G02X3873520I50820J0D01*
G02X3863150Y1747240I-50806J0D01*
G03X3863590Y1740580I4043J-3077D01*
G02X3878320Y1704800I-36091J-35780D01*
G02X3776680I-50820J0D01*
G02X3787050Y1735560I50806J0D01*
G37*
G36*
G01X3892460Y1499520D02*
G03X3879090Y1503750I-8902J-4892D01*
G02X3856750Y1498580I-22333J45652D01*
G02Y1600220I0J50820D01*
G02X3901290Y1573880I0J-50828D01*
G03X3914660Y1569650I8902J4892D01*
G02X3937000Y1574820I22333J-45652D01*
G02X3968750Y1563680I0J-50815D01*
G02X4000500Y1574820I31750J-39675D01*
G02Y1473180I0J-50820D01*
G02X3968750Y1484320I0J50815D01*
G02X3937000Y1473180I-31750J39675D01*
G02X3892460Y1499520I0J50828D01*
G37*
G36*
G01X3006330Y1258820D02*
G03X3016310Y1267970I-129J10159D01*
G02X3066880Y1313790I50570J-4996D01*
G02X3117700Y1262970I0J-50820D01*
G02X3067550Y1212150I-50824J0D01*
G03X3057570Y1203000I129J-10159D01*
G02X3007000Y1157180I-50570J4996D01*
G02X2956180Y1208000I0J50820D01*
G02X3006330Y1258820I50824J0D01*
G37*
G36*
G01X2526830Y707320D02*
G03X2512800Y707350I-7031J-7334D01*
G02X2477800Y693380I-35000J36859D01*
G02Y795020I0J50820D01*
G02X2512970Y780880I0J-50809D01*
G03X2527000Y780850I7031J7334D01*
G02X2562000Y794820I35000J-36859D01*
G02Y693180I0J-50820D01*
G02X2526830Y707320I0J50809D01*
G37*
G36*
G01X2415720Y554880D02*
G03X2430460Y554320I7635J6704D01*
G02X2466000Y568820I35545J-36318D01*
G02X2484330Y565400I0J-50831D01*
G03X2497000Y570180I3662J9475D01*
G02X2542060Y597490I45060J-23518D01*
G02Y495850I0J-50820D01*
G02X2523730Y499270I0J50831D01*
G03X2511060Y494490I-3662J-9475D01*
G02X2466000Y467180I-45060J23518D01*
G02X2427800Y484480I0J50825D01*
G03X2413060Y485040I-7635J-6704D01*
G02X2377520Y470540I-35545J36318D01*
G02X2353940Y476340I0J50832D01*
G03X2340810Y473030I-4713J-9000D01*
G02X2298700Y450660I-42110J28450D01*
G02Y552300I0J50820D01*
G02X2322280Y546500I0J-50832D01*
G03X2335410Y549810I4713J9000D01*
G02X2377520Y572180I42110J-28450D01*
G02X2415720Y554880I0J-50825D01*
G37*
G36*
G01X1869100Y540610D02*
G03X1879730Y549980I500J10148D01*
G02X1930400Y596920I50670J-3878D01*
G02Y495280I0J-50820D01*
G02X1927920Y495340I-11J50820D01*
G03X1917290Y485970I-500J-10148D01*
G02X1866620Y439030I-50670J3878D01*
G02Y540670I0J50820D01*
G02X1869100Y540610I11J-50820D01*
G37*
G36*
G01X3811060Y422400D02*
G03X3796290Y422440I-7404J-6955D01*
G02X3759450Y406630I-36840J35017D01*
G02Y508270I0J50820D01*
G02X3796490Y492250I0J-50830D01*
G03X3811260Y492210I7404J6955D01*
G02X3848100Y508020I36840J-35017D01*
G02Y406380I0J-50820D01*
G02X3811060Y422400I0J50830D01*
G37*
G36*
G01X3457480Y303740D02*
G03Y318560I-6956J7410D01*
G02X3441450Y355600I34779J37040D01*
G02X3543090I50820J0D01*
G02X3527060Y318560I-50809J0D01*
G03Y303740I6956J-7410D01*
G02X3543090Y266700I-34779J-37040D01*
G02X3441450I-50820J0D01*
G02X3457480Y303740I50809J0D01*
G37*
G36*
G01X2898000Y269490D02*
G03X2891650Y282180I-9677J3091D01*
G02X2857480Y330200I16657J48020D01*
G02X2959120I50820J0D01*
G02X2956700Y314710I-50819J5D01*
G03X2963050Y302020I9677J-3091D01*
G02X2997220Y254000I-16657J-48020D01*
G02X2895580I-50820J0D01*
G02X2898000Y269490I50819J-5D01*
G37*
G36*
G01X1396880Y303180D02*
G03X1404070Y315840I-2565J9829D01*
G02X1402060Y330000I48811J14151D01*
G02X1503700I50820J0D01*
G02X1465700Y280820I-50825J0D01*
G03X1458510Y268160I2565J-9829D01*
G02X1460520Y254000I-48811J-14151D01*
G02X1409700Y203180I-50820J0D01*
G02X1367360Y225890I0J50824D01*
G03X1350440I-8460J-5623D01*
G02X1342890Y216960I-42325J28128D01*
G03Y202140I6956J-7410D01*
G02X1358920Y165100I-34779J-37040D01*
G02X1257280I-50820J0D01*
G02X1273310Y202140I50809J0D01*
G03Y216960I-6956J7410D01*
G02X1257280Y254000I34779J37040D01*
G02X1308100Y304820I50820J0D01*
G02X1350440Y282110I0J-50824D01*
G03X1367360I8460J5623D01*
G02X1396880Y303180I42341J-28108D01*
G37*
G36*
G01X2777040Y229050D02*
G03X2769850Y242590I-9485J3642D01*
G02X2730480Y292100I11446J49510D01*
G02X2832120I50820J0D01*
G02X2828740Y273870I-50821J-6D01*
G03X2835930Y260330I9485J-3642D01*
G02X2875300Y210820I-11446J-49510D01*
G02X2773660I-50820J0D01*
G02X2777040Y229050I50821J6D01*
G37*
G36*
G01X4046310Y1224600D02*
Y1375400D01*
G02X4066650Y1395740I20340J0D01*
G01X4217450D01*
G02X4237790Y1375400I0J-20340D01*
G01Y1224600D01*
G02X4217450Y1204260I-20340J0D01*
G01X4066650D01*
G02X4046310Y1224600I0J20340D01*
G37*
G54D18*
X3908420Y1028700D03*
X3368380Y929670D03*
X850900Y825500D03*
X723900Y1231900D03*
X660400Y1676400D03*
X247500Y1263800D03*
X543400Y258680D03*
X1788500Y574500D03*
X2983710Y1674500D03*
X1834000Y688000D03*
X2542000Y1538000D03*
X2027000Y805000D03*
X571500Y939800D03*
X2243000Y1531000D03*
X3975140Y901780D03*
X1370080Y1054100D03*
X1219200Y963750D03*
X1257300Y1371600D03*
X3263900Y1447800D03*
X2019000Y1391000D03*
X671680Y570080D03*
X223450Y584200D03*
X2763170Y414170D03*
X609600Y1244600D03*
X923270Y152400D03*
X2358000Y744000D03*
X662000Y790000D03*
X2019300Y1143000D03*
X828930Y1297870D03*
X787400Y1035560D03*
X3005100Y1094850D03*
X355600Y1140500D03*
X3378200Y1460500D03*
X812800Y711200D03*
X1041400Y977900D03*
X2154000Y745000D03*
X3251200Y876300D03*
X3533000Y1608000D03*
X1556870Y496060D03*
X1788270Y1056530D03*
X1485900Y774700D03*
X2514600Y101600D03*
X3403600Y152400D03*
X3213600Y330700D03*
X2805600Y818030D03*
X3073900Y330700D03*
G54D20*
X1647800Y1554500D03*
X1247800D03*
G54D16*
X107950Y950000D03*
Y1077000D03*
Y823000D03*
Y696000D03*
Y1204000D03*
G54D21*
X618400Y360500D03*
X318400D03*
G54D17*
X1574600Y230000D03*
X2374600D03*
X4357050Y725000D03*
Y1175000D03*
G54D19*
X4142050Y600000D03*
%LPD*%
G75*
G54D10*
X54700Y1422500D03*
X70010Y1716300D03*
X243400Y258680D03*
X361000Y709000D03*
X406400Y1805200D03*
X501500Y1257300D03*
X736600Y1441870D03*
X980040Y1242370D03*
X1474000Y999200D03*
X1483000Y1152000D03*
X1618920Y1631310D03*
X1689860Y411630D03*
X2274220Y239260D03*
X2300000Y950000D03*
X2298700Y1092200D03*
X2204600Y1107000D03*
X2519830Y273170D03*
X2600000Y950000D03*
X2450000D03*
X2449000Y1070000D03*
X2600000Y1100000D03*
X2539000Y1786000D03*
X2781300Y571500D03*
X2755900Y723900D03*
X2797980Y944730D03*
X2828000Y1517000D03*
X2966000Y544870D03*
X2885780Y584200D03*
X2997480Y1432900D03*
X3077870Y1356360D03*
X2978950Y1765300D03*
X3149600Y1282700D03*
X3251200Y1270000D03*
X3238500Y1784860D03*
X3353300Y329700D03*
X3454400Y1092200D03*
X3352800Y1816100D03*
X3664450Y400980D03*
X3657600Y825500D03*
X3752850Y1619250D03*
X4025900Y1631000D03*
G54D11*
X1164310Y1769490D03*
X1731290D03*
G54D12*
X4142050Y600000D03*
G54D13*
X4357050Y370000D03*
Y1530000D03*
G54D14*
G01X0Y0D02*
X4500000D01*
Y1900000D01*
X0D01*
Y0D01*
G01X882650Y2273300D02*
X946150D01*
Y2197100D01*
X927100Y2171690D01*
X904870Y2154760D01*
X873130Y2146300D01*
X841380Y2154760D01*
X819150Y2171690D01*
X800100Y2197100D01*
X787400Y2226730D01*
X781050Y2260600D01*
Y2290230D01*
X787400Y2315630D01*
X800100Y2345270D01*
X819150Y2370670D01*
X838200Y2387590D01*
X863600Y2400300D01*
X885820D01*
X911220Y2391840D01*
X930280Y2374900D01*
G01X1044580Y2146300D02*
Y2400300D01*
X1190620Y2146300D01*
Y2400300D01*
G01X1301750Y2146300D02*
Y2400300D01*
X1365250D01*
X1390650Y2387590D01*
X1409700Y2370670D01*
X1425580Y2345270D01*
X1438280Y2315630D01*
X1441450Y2273300D01*
X1438280Y2230960D01*
X1425580Y2201330D01*
X1409700Y2175930D01*
X1390650Y2159000D01*
X1365250Y2146300D01*
X1301750D01*
G01X1816100Y2400300D02*
Y2146300D01*
X1943100D01*
G01X2054220D02*
X2133600Y2400300D01*
X2212980Y2146300D01*
G01X2184400Y2235200D02*
X2082800D01*
G01X2387600Y2146300D02*
Y2260600D01*
X2324100Y2400300D01*
G01X2451100D02*
X2387600Y2260600D01*
G01X2705100Y2146300D02*
X2578100D01*
Y2400300D01*
X2705100D01*
G01X2654300Y2277540D02*
X2578100D01*
G01X2832100Y2146300D02*
Y2400300D01*
X2911470D01*
X2936870Y2387590D01*
X2952750Y2370670D01*
X2959100Y2336800D01*
X2952750Y2302930D01*
X2933700Y2281770D01*
X2911470Y2269060D01*
X2832100D01*
G01X2911470D02*
X2959100Y2146300D01*
G54D15*
G01X1164310Y1646680D02*
Y1769490D01*
G01X1099010D02*
X1164310D01*
G01D02*
X1229610D01*
G01X1731290Y1646680D02*
Y1769490D01*
G01X1665990D02*
X1731290D01*
G01D02*
X1796590D01*
G01X4142050Y506800D02*
Y600000D01*
G01X4203850Y370000D02*
X4357050D01*
G01X4142050Y600000D02*
Y693200D01*
G01X4048850Y600000D02*
X4142050D01*
G01D02*
X4235250D01*
G01X4203850Y1530000D02*
X4357050D01*
G01Y286800D02*
Y370000D01*
G01D02*
Y453200D01*
G01Y1446800D02*
Y1530000D01*
G01D02*
Y1613200D01*
M02*
