G04 ================== begin FILE IDENTIFICATION RECORD ==================*
G04 Layout Name:  Popcorn Popstick Rev1p1_Release.brd*
G04 Film Name:    SMB*
G04 File Format:  Gerber RS274X*
G04 File Origin:  Cadence Allegro 17.2-S053*
G04 Origin Date:  Thu Jun 30 17:26:53 2022*
G04 *
G04 Layer:  VIA CLASS/SOLDERMASK_BOTTOM*
G04 Layer:  PIN/SOLDERMASK_BOTTOM*
G04 Layer:  PACKAGE GEOMETRY/SOLDERMASK_BOTTOM*
G04 Layer:  DRC ERROR CLASS/SOLDERMASK_BOTTOM*
G04 Layer:  BOARD GEOMETRY/OUTLINE*
G04 Layer:  BOARD GEOMETRY/SOLDERMASK_BOTTOM*
G04 *
G04 Offset:    (0.0000 0.0000)*
G04 Mirror:    No*
G04 Mode:      Positive*
G04 Rotation:  0*
G04 FullContactRelief:  No*
G04 UndefLineWidth:     0.1270*
G04 ================== end FILE IDENTIFICATION RECORD ====================*
%FSLAX55Y55*MOMM*%
%IR0*IPPOS*OFA0.00000B0.00000*MIA0B0*SFA1.00000B1.00000*%
%ADD13O,1.5X.8*%
%ADD12C,.7*%
%ADD29R,1.0262X.9271*%
%ADD21R,.527X1.527*%
%ADD14R,.9271X1.0262*%
%ADD11R,.9524X1.0524*%
%ADD31R,.7524X1.7024*%
%ADD26R,1.7524X.4524*%
%ADD22C,.9555*%
%ADD25R,.8524X1.7524*%
%ADD10R,1.0524X1.4024*%
%ADD19R,1.527X1.127*%
%ADD16C,1.0524*%
%ADD27R,1.7224X2.0324*%
%ADD24C,1.1524*%
%ADD32C,1.6604*%
%ADD15R,1.1524X1.5524*%
%ADD17R,1.3524X2.3524*%
%ADD28R,1.3524X1.5524*%
%ADD33R,2.8604X1.4604*%
%ADD20O,1.077X2.3269*%
%ADD30R,1.3524X1.9524*%
%ADD18R,1.7524X1.5524*%
%ADD34R,1.6604X1.6604*%
%ADD23R,2.0269X2.0269*%
%ADD35C,.127*%
G75*
%LPD*%
G75*
G54D10*
X243400Y153000D03*
X693400D03*
X543400D03*
G54D20*
X1164310Y1769490D03*
X1731290D03*
G54D11*
X88400Y250500D03*
Y470500D03*
X848400Y250500D03*
Y470500D03*
G54D30*
X3525200Y1771800D03*
X4085200D03*
G54D21*
X1382800Y1509490D03*
X1317800D03*
X1577800D03*
X1512800D03*
X1447800D03*
G54D12*
X107950Y696000D03*
Y823000D03*
Y950000D03*
Y1204000D03*
Y1077000D03*
G54D22*
X1247800Y1554500D03*
X1647800D03*
G54D31*
X3755200Y1384300D03*
X3655200D03*
X3955200D03*
X3855200D03*
G54D13*
X223450Y759500D03*
Y886500D03*
Y1013500D03*
Y1140500D03*
G54D23*
X1327810Y1769490D03*
X1567790D03*
G54D32*
X4142050Y600000D03*
Y850000D03*
Y1050000D03*
G54D14*
X208130Y1346200D03*
X348130D03*
X630070D03*
X490070D03*
X792330Y939800D03*
X932330D03*
X793600Y1130300D03*
X933600D03*
X779630Y1346200D03*
X919630D03*
X2241400Y1447800D03*
X2381400D03*
X2621130Y1536700D03*
X2761130D03*
X3106270Y1155700D03*
X3246270D03*
G54D33*
X4357050Y370000D03*
Y1530000D03*
G54D15*
X82800Y1553700D03*
X177800Y1773700D03*
X438400Y1553700D03*
X272800D03*
X628400D03*
X533400Y1773700D03*
X794000Y1553700D03*
X889000Y1773700D03*
X984000Y1553700D03*
G54D24*
X1574600Y230000D03*
X2374600D03*
X4357050Y725000D03*
Y1175000D03*
G54D34*
X4142050Y1300000D03*
G54D16*
X318400Y360500D03*
X618400D03*
G54D25*
X1654600Y1280000D03*
X1764600D03*
X1874600D03*
X1984600D03*
X2094600D03*
X2204600D03*
X2314600D03*
X2424600D03*
X2534600D03*
G54D35*
G01X0Y0D02*
X4500000D01*
Y1900000D01*
X0D01*
Y0D01*
G01X971250Y2181480D02*
X996660Y2160320D01*
X1025230Y2147620D01*
X1050630D01*
X1076030Y2160320D01*
X1095080Y2181480D01*
X1104610Y2211120D01*
X1098260Y2240750D01*
X1082380Y2266150D01*
X1053800Y2283090D01*
X1015710Y2291550D01*
X993480Y2308480D01*
X983950Y2338120D01*
X990310Y2367750D01*
X1006180Y2388910D01*
X1028400Y2401620D01*
X1050630D01*
X1072860Y2393160D01*
X1091910Y2371990D01*
G01X1209380Y2147620D02*
Y2401620D01*
X1291930Y2189950D01*
X1374480Y2401620D01*
Y2147620D01*
G01X1571330Y2283090D02*
X1584030Y2295790D01*
X1593550Y2316950D01*
X1599910Y2346590D01*
X1593550Y2371990D01*
X1580860Y2388910D01*
X1558630Y2401620D01*
X1472910D01*
Y2147620D01*
X1577680D01*
X1599910Y2164550D01*
X1612610Y2189950D01*
X1618950Y2219590D01*
X1612610Y2249210D01*
X1593550Y2274620D01*
X1571330Y2283090D01*
X1472910D01*
G01X1990430Y2401620D02*
Y2147620D01*
X2117430D01*
G01X2228550D02*
X2307930Y2401620D01*
X2387310Y2147620D01*
G01X2358730Y2236520D02*
X2257130D01*
G01X2561930Y2147620D02*
Y2261920D01*
X2498430Y2401620D01*
G01X2625430D02*
X2561930Y2261920D01*
G01X2879430Y2147620D02*
X2752430D01*
Y2401620D01*
X2879430D01*
G01X2828630Y2278860D02*
X2752430D01*
G01X3006430Y2147620D02*
Y2401620D01*
X3085800D01*
X3111200Y2388910D01*
X3127080Y2371990D01*
X3133430Y2338120D01*
X3127080Y2304250D01*
X3108030Y2283090D01*
X3085800Y2270380D01*
X3006430D01*
G01X3085800D02*
X3133430Y2147620D01*
G54D17*
X1104600Y270000D03*
X2654600D03*
G54D26*
X1987100Y1576400D03*
Y1626400D03*
Y1676400D03*
Y1726400D03*
Y1776400D03*
X2407100Y1726400D03*
Y1676400D03*
Y1626400D03*
Y1576400D03*
Y1776400D03*
G54D18*
X1194600Y1230000D03*
G54D27*
X2197100Y1676400D03*
G54D28*
X2654600Y1230000D03*
G54D19*
X1127810Y1544500D03*
X1767790D03*
G54D29*
X2590800Y1681330D03*
Y1821330D03*
X2882900Y678030D03*
Y818030D03*
Y944730D03*
Y1084730D03*
Y1213970D03*
Y1353970D03*
X2717800Y1681330D03*
Y1821330D03*
X3035300Y678030D03*
Y818030D03*
X3352800Y1746400D03*
Y1606400D03*
M02*
