G04 ================== begin FILE IDENTIFICATION RECORD ==================*
G04 Layout Name:  Popcorn Popstick Rev1p1_Release.brd*
G04 Film Name:    SSB*
G04 File Format:  Gerber RS274X*
G04 File Origin:  Cadence Allegro 17.2-S053*
G04 Origin Date:  Thu Jun 30 17:26:54 2022*
G04 *
G04 Layer:  REF DES/SILKSCREEN_BOTTOM*
G04 Layer:  PACKAGE GEOMETRY/SILKSCREEN_BOTTOM*
G04 Layer:  BOARD GEOMETRY/OUTLINE*
G04 Layer:  BOARD GEOMETRY/SILKSCREEN_BOTTOM*
G04 *
G04 Offset:    (0.0000 0.0000)*
G04 Mirror:    No*
G04 Mode:      Positive*
G04 Rotation:  0*
G04 FullContactRelief:  No*
G04 UndefLineWidth:     0.1270*
G04 ================== end FILE IDENTIFICATION RECORD ====================*
%FSLAX55Y55*MOMM*%
%IR0*IPPOS*OFA0.00000B0.00000*MIA0B0*SFA1.00000B1.00000*%
%ADD10C,.1001*%
%ADD11C,.127*%
%ADD12C,.664*%
G75*
%LPD*%
G75*
G36*
G01X1817800Y1984500D02*
Y1603500D01*
X1689810D01*
Y1484500D01*
X1604800D01*
Y1581500D01*
X1288800D01*
Y1484500D01*
X1206800D01*
Y1604490D01*
X1077800D01*
Y1984500D01*
X1817800D01*
G37*
G36*
G01X3668500Y1219200D02*
G03I-28400J0D01*
G37*
%LPC*%
G75*
G36*
G01X1672790Y1653510D02*
X1787800D01*
Y1892500D01*
X1672790D01*
Y1870500D01*
X1464790D01*
Y1666490D01*
X1672790D01*
Y1653510D01*
G37*
G36*
G01X1106800Y1650010D02*
X1221790D01*
Y1667510D01*
X1427810D01*
Y1870500D01*
X1221790D01*
Y1889000D01*
X1106800D01*
Y1650010D01*
G37*
G54D12*
X1247800Y1554500D03*
X1647800D03*
%LPD*%
G75*
G54D10*
G01X153140Y1298190D02*
Y1397200D01*
X162130Y1406190D01*
G01D02*
X397130D01*
G01Y1285190D02*
X165130D01*
X153140Y1297200D01*
G01X400130Y1406190D02*
X405130Y1400200D01*
Y1293190D01*
X397130Y1285190D01*
G01X676070Y1286210D02*
X441070D01*
G01X438070D02*
X433070Y1292200D01*
Y1399210D01*
X441070Y1407210D01*
G01D02*
X673070D01*
X685060Y1395200D01*
G01Y1394210D02*
Y1295200D01*
X676070Y1286210D01*
G01X737340Y891790D02*
Y990800D01*
X746330Y999790D01*
G01D02*
X981330D01*
G01Y878790D02*
X749330D01*
X737340Y890800D01*
G01X738610Y1082290D02*
Y1181300D01*
X747600Y1190290D01*
G01D02*
X982600D01*
G01Y1069290D02*
X750600D01*
X738610Y1081300D01*
G01X724640Y1298190D02*
Y1397200D01*
X733630Y1406190D01*
G01D02*
X968630D01*
G01Y1285190D02*
X736630D01*
X724640Y1297200D01*
G01X984330Y999790D02*
X989330Y993800D01*
Y886790D01*
X981330Y878790D01*
G01X985600Y1190290D02*
X990600Y1184300D01*
Y1077290D01*
X982600Y1069290D01*
G01X971630Y1406190D02*
X976630Y1400200D01*
Y1293190D01*
X968630Y1285190D01*
G01X1077800Y1486510D02*
Y1484500D01*
G01X1197790Y1459510D02*
X1107800D01*
G01X1136800Y1484500D02*
G02X1109500I-13650J6256D01*
G01X1197790D02*
X1122710D01*
G01X1107800Y1459510D02*
G02X1077800Y1489500I14J30014D01*
G01Y1484500D02*
X1177800D01*
G01X1197790Y1459510D02*
X1107800D01*
G01X1136800Y1484500D02*
G02X1109500I-13650J6256D01*
G01X1197790D02*
X1122710D01*
G01X1107800Y1459510D02*
G02X1077800Y1489500I14J30014D01*
G01Y1484500D02*
X1177800D01*
G01X1077800Y1984500D02*
Y1717010D01*
G01Y1984500D02*
Y1717010D01*
G01Y1724510D02*
Y1602510D01*
G01Y1984500D02*
X1447290D01*
G01X1077800D02*
X1447290D01*
G01X1197790Y1459510D02*
Y1484500D01*
G01Y1459510D02*
Y1484500D01*
G01X1208810Y1494510D02*
X1272790D01*
G01X1270000Y1447800D02*
G03I-20800J-4200D01*
G01X1242800Y1634490D02*
X1227810Y1619500D01*
G01Y1582490D02*
Y1619500D01*
G01X1447290Y1634490D02*
X1242800D01*
G01D02*
X1227810Y1619500D01*
G01Y1582490D02*
Y1619500D01*
G01X1204800Y1582490D02*
X1227810D01*
G01X1447290Y1634490D02*
X1242800D01*
G01X1622810Y1494510D02*
X1688800D01*
G01X1447290Y1634490D02*
X1448310D01*
G01X1652800D02*
X1448310D01*
G01X1447290D02*
X1448310D01*
G01X1652800D02*
X1448310D01*
G01X1447290Y1984500D02*
X1448310D01*
G01D02*
X1817800D01*
G01X1447290D02*
X1448310D01*
G01D02*
X1817800D01*
G01Y1489500D02*
Y1484500D01*
G01X1697810Y1459510D02*
X1787800D01*
G01X1786200Y1484500D02*
G02X1758900I-13650J6256D01*
G01X1697810Y1459510D02*
Y1484500D01*
G01D02*
X1772890D01*
G01X1817800Y1489500D02*
G02X1787800Y1459510I-29995J5D01*
G01X1717800Y1484500D02*
X1817800D01*
G01X1697810Y1459510D02*
X1787800D01*
G01X1786200Y1484500D02*
G02X1758900I-13650J6256D01*
G01X1697810Y1459510D02*
Y1484500D01*
G01D02*
X1772890D01*
G01X1817800Y1489500D02*
G02X1787800Y1459510I-29995J5D01*
G01X1717800Y1484500D02*
X1817800D01*
G01Y1984500D02*
Y1717010D01*
G01X1667790Y1619500D02*
X1652800Y1634490D01*
G01X1667790Y1619500D02*
Y1582490D01*
G01X1817800Y1984500D02*
Y1717010D01*
G01X1667790Y1619500D02*
X1652800Y1634490D01*
G01X1667790Y1619500D02*
Y1582490D01*
G01D02*
X1689810D01*
G01X1817800Y1724510D02*
Y1599510D01*
G01X2186410Y1399790D02*
Y1498800D01*
X2195400Y1507790D01*
G01X2430400Y1386790D02*
X2198400D01*
X2186410Y1398800D01*
G01X2195400Y1507790D02*
X2430400D01*
G01X2566140Y1488690D02*
Y1587700D01*
X2575130Y1596690D01*
G01X2810130Y1475690D02*
X2578130D01*
X2566140Y1487700D01*
G01X2433400Y1507790D02*
X2438400Y1501800D01*
Y1394790D01*
X2430400Y1386790D01*
G01X2575130Y1596690D02*
X2810130D01*
G01X2638810Y1626340D02*
X2539800D01*
X2530810Y1635330D01*
G01D02*
Y1870330D01*
G01Y1873330D02*
X2536800Y1878330D01*
X2643810D01*
X2651810Y1870330D01*
G01X2930910Y623040D02*
X2831900D01*
X2822910Y632030D01*
G01D02*
Y867030D01*
G01X2930910Y889740D02*
X2831900D01*
X2822910Y898730D01*
G01D02*
Y1133730D01*
G01Y870030D02*
X2828900Y875030D01*
X2935910D01*
X2943910Y867030D01*
G01X2822910Y1136730D02*
X2828900Y1141730D01*
X2935910D01*
X2943910Y1133730D01*
G01X2942890Y1161970D02*
X2936900Y1156970D01*
X2829890D01*
X2821890Y1164970D01*
G01D02*
Y1396970D01*
X2833900Y1408960D01*
G01X2834890D02*
X2933900D01*
X2942890Y1399970D01*
G01X2813130Y1596690D02*
X2818130Y1590700D01*
Y1483690D01*
X2810130Y1475690D01*
G01X2765810Y1626340D02*
X2666800D01*
X2657810Y1635330D01*
G01D02*
Y1870330D01*
G01X2778810D02*
Y1638330D01*
X2766800Y1626340D01*
G01X2651810Y1870330D02*
Y1638330D01*
X2639800Y1626340D01*
G01X2657810Y1873330D02*
X2663800Y1878330D01*
X2770810D01*
X2778810Y1870330D01*
G01X3083310Y623040D02*
X2984300D01*
X2975310Y632030D01*
G01D02*
Y867030D01*
G01X2943910D02*
Y635030D01*
X2931900Y623040D01*
G01X2975310Y870030D02*
X2981300Y875030D01*
X3088310D01*
X3096310Y867030D01*
G01X2943910Y1133730D02*
Y901730D01*
X2931900Y889740D01*
G01X3292270Y1095710D02*
X3057270D01*
G01X3054270D02*
X3049270Y1101700D01*
Y1208710D01*
X3057270Y1216710D01*
G01D02*
X3289270D01*
X3301260Y1204700D01*
G01X2942890Y1399970D02*
Y1164970D01*
G01X3096310Y867030D02*
Y635030D01*
X3084300Y623040D01*
G01X3301260Y1203710D02*
Y1104700D01*
X3292270Y1095710D01*
G01X3412790Y1554400D02*
X3406800Y1549400D01*
X3299790D01*
X3291790Y1557400D01*
G01D02*
Y1789400D01*
X3303800Y1801390D01*
G01X3304790D02*
X3403800D01*
X3412790Y1792400D01*
G01D02*
Y1557400D01*
G54D11*
G01X0Y0D02*
X4500000D01*
Y1900000D01*
X0D01*
Y0D01*
G01X11200Y500200D02*
Y43000D01*
X925600D01*
Y563700D01*
X11200D01*
Y500200D01*
G01X819150Y654050D02*
X809670Y590550D01*
X798830Y654050D01*
X787990Y590550D01*
X778510Y654050D01*
G01X760050Y590550D02*
Y632880D01*
G01Y624420D02*
X756670Y628650D01*
X753280Y631820D01*
X748540Y632880D01*
X745150Y631820D01*
X741090Y628650D01*
G01X702310Y632880D02*
Y590550D01*
G01Y649820D02*
X703660Y650870D01*
Y652990D01*
X702310Y654050D01*
X700960Y652990D01*
Y650870D01*
X702310Y649820D01*
G01X654050Y654050D02*
Y590550D01*
G01X663530Y632880D02*
X644570D01*
G01X615950Y619120D02*
X594270D01*
X596310Y626530D01*
X599690Y630770D01*
X604440Y632880D01*
X609180Y631820D01*
X613240Y628650D01*
X615950Y621240D01*
X617310Y614890D01*
Y608540D01*
X615950Y602190D01*
X612560Y595840D01*
X608500Y591610D01*
X603760Y590550D01*
X599020Y592670D01*
X594270Y599010D01*
G01X522820Y590550D02*
Y654050D01*
X506560D01*
X501140Y650870D01*
X497080Y643470D01*
X495720Y635000D01*
X497080Y626530D01*
X500460Y620180D01*
X506560Y617010D01*
X522820D01*
G01X470490Y590550D02*
Y632880D01*
G01Y624420D02*
X467110Y628650D01*
X463720Y631820D01*
X458980Y632880D01*
X455590Y631820D01*
X451530Y628650D01*
G01X412750Y590550D02*
X416810Y591610D01*
X420880Y595840D01*
X423590Y603250D01*
X424940Y611720D01*
X423590Y620180D01*
X420880Y627590D01*
X416810Y631820D01*
X412750Y632880D01*
X408690Y631820D01*
X404620Y627590D01*
X401910Y620180D01*
X401230Y611720D01*
X401910Y603250D01*
X404620Y595840D01*
X408690Y591610D01*
X412750Y590550D01*
G01X364490Y654050D02*
Y590550D01*
G01X373970Y632880D02*
X355010D01*
G01X326390Y619120D02*
X304710D01*
X306750Y626530D01*
X310130Y630770D01*
X314880Y632880D01*
X319620Y631820D01*
X323680Y628650D01*
X326390Y621240D01*
X327750Y614890D01*
Y608540D01*
X326390Y602190D01*
X323000Y595840D01*
X318940Y591610D01*
X314200Y590550D01*
X309460Y592670D01*
X304710Y599010D01*
G01X257130Y627590D02*
X261870Y631820D01*
X265940Y632880D01*
X271360Y630770D01*
X275420Y626530D01*
X278130Y619120D01*
X278810Y611720D01*
X278130Y604310D01*
X275420Y597960D01*
X271360Y592670D01*
X265940Y590550D01*
X261200Y592670D01*
X257130Y596900D01*
G01X219710Y654050D02*
Y590550D01*
G01X229190Y632880D02*
X210230D01*
G01X165100Y1257300D02*
X0D01*
Y647700D01*
X165100D01*
Y698500D01*
X317500D01*
Y1206500D01*
X165100D01*
Y1257300D01*
G01X57150Y1284390D02*
X120650D01*
Y1301330D01*
X117470Y1306750D01*
X113240Y1310130D01*
X104770Y1311490D01*
X96310Y1310130D01*
X91020Y1306070D01*
X87840Y1301330D01*
Y1284390D01*
G01Y1301330D02*
X57150Y1311490D01*
G01X110070Y1333330D02*
X116420Y1337390D01*
X119590Y1342140D01*
X120650Y1347550D01*
X118530Y1354330D01*
X113240Y1359070D01*
X106890Y1360420D01*
X100540Y1359750D01*
X95250Y1357040D01*
X84670Y1343490D01*
X77260Y1337390D01*
X66670Y1333330D01*
X57150Y1331980D01*
Y1360420D01*
G01X120650Y1394460D02*
X118530Y1389040D01*
X113240Y1384980D01*
X106890Y1382270D01*
X98420Y1380240D01*
X88900Y1379560D01*
X79370Y1380240D01*
X70910Y1382270D01*
X64560Y1384980D01*
X59270Y1389040D01*
X57150Y1394460D01*
X59270Y1399880D01*
X64560Y1403940D01*
X70910Y1406650D01*
X79370Y1408680D01*
X88900Y1409360D01*
X98420Y1408680D01*
X106890Y1406650D01*
X113240Y1403940D01*
X118530Y1399880D01*
X120650Y1394460D01*
G01X330200Y1727200D02*
X254000D01*
Y1866900D01*
X101600D01*
Y1727200D01*
X12700D01*
Y1460500D01*
X342900D01*
Y1727200D01*
X330200D01*
G01X685800D02*
X609600D01*
Y1866900D01*
X457200D01*
Y1727200D01*
X368300D01*
Y1460500D01*
X698500D01*
Y1727200D01*
X685800D01*
G01X335280Y1797050D02*
X340700Y1798110D01*
X345440Y1802340D01*
X349500Y1808690D01*
X352210Y1816100D01*
X353570Y1824570D01*
Y1833030D01*
X352210Y1841500D01*
X349500Y1848910D01*
X345440Y1855260D01*
X340700Y1859490D01*
X335280Y1860550D01*
X329860Y1859490D01*
X325120Y1855260D01*
X321060Y1848910D01*
X318350Y1841500D01*
X316990Y1833030D01*
Y1824570D01*
X318350Y1816100D01*
X321060Y1808690D01*
X325120Y1802340D01*
X329860Y1798110D01*
X335280Y1797050D01*
G01X329860Y1813980D02*
X321730Y1797050D01*
G01X301920Y1809750D02*
X297860Y1802340D01*
X292440Y1798110D01*
X286340Y1797050D01*
X280920Y1798110D01*
X275500Y1803400D01*
X272120Y1809750D01*
X271440Y1816100D01*
X272800Y1823510D01*
X277540Y1828800D01*
X282280Y1830920D01*
X288370D01*
G01X282280D02*
X278210Y1834090D01*
X274830Y1839380D01*
X273470Y1845730D01*
X274830Y1852080D01*
X278210Y1857370D01*
X284310Y1860550D01*
X290410Y1859490D01*
X296500Y1855260D01*
G01X602350Y699910D02*
X596940Y694620D01*
X590840Y691450D01*
X585420D01*
X580000Y694620D01*
X575940Y699910D01*
X573910Y707330D01*
X575260Y714730D01*
X578650Y721080D01*
X584740Y725320D01*
X592870Y727430D01*
X597610Y731670D01*
X599650Y739070D01*
X598290Y746480D01*
X594900Y751770D01*
X590160Y754950D01*
X585420D01*
X580680Y752830D01*
X576610Y747540D01*
G01X560190Y754950D02*
X550710Y691450D01*
X539870Y754950D01*
X529030Y691450D01*
X519550Y754950D01*
G01X506510Y704150D02*
X502450Y696740D01*
X497030Y692510D01*
X490930Y691450D01*
X485510Y692510D01*
X480090Y697800D01*
X476710Y704150D01*
X476030Y710500D01*
X477390Y717910D01*
X482130Y723200D01*
X486870Y725320D01*
X492960D01*
G01X486870D02*
X482800Y728490D01*
X479420Y733780D01*
X478060Y740130D01*
X479420Y746480D01*
X482800Y751770D01*
X488900Y754950D01*
X495000Y753890D01*
X501090Y749660D01*
G01X696810Y908050D02*
Y971550D01*
X679870D01*
X674450Y968370D01*
X671070Y964140D01*
X669710Y955670D01*
X671070Y947210D01*
X675130Y941920D01*
X679870Y938740D01*
X696810D01*
G01X679870D02*
X669710Y908050D01*
G01X635000D02*
Y971550D01*
X643130Y958850D01*
G01Y908050D02*
X626870D01*
G01X586740Y971550D02*
X592160Y969430D01*
X596220Y964140D01*
X598930Y957790D01*
X600960Y949320D01*
X601640Y939800D01*
X600960Y930270D01*
X598930Y921810D01*
X596220Y915460D01*
X592160Y910170D01*
X586740Y908050D01*
X581320Y910170D01*
X577260Y915460D01*
X574550Y921810D01*
X572520Y930270D01*
X571840Y939800D01*
X572520Y949320D01*
X574550Y957790D01*
X577260Y964140D01*
X581320Y969430D01*
X586740Y971550D01*
G01X696810Y1035050D02*
Y1098550D01*
X679870D01*
X674450Y1095370D01*
X671070Y1091140D01*
X669710Y1082670D01*
X671070Y1074210D01*
X675130Y1068920D01*
X679870Y1065740D01*
X696810D01*
G01X679870D02*
X669710Y1035050D01*
G01X635000D02*
Y1098550D01*
X643130Y1085850D01*
G01Y1035050D02*
X626870D01*
G01X599610Y1061510D02*
X594870Y1068920D01*
X590800Y1073150D01*
X585390Y1075270D01*
X580640Y1073150D01*
X577260Y1068920D01*
X574550Y1062570D01*
X573870Y1055160D01*
X574550Y1048810D01*
X577260Y1042460D01*
X581320Y1037170D01*
X586060Y1035050D01*
X591480Y1037170D01*
X596220Y1043510D01*
X598930Y1053040D01*
X599610Y1063620D01*
X598260Y1077380D01*
X596220Y1084790D01*
X592840Y1092200D01*
X588090Y1097490D01*
X583350Y1098550D01*
X578610Y1096430D01*
X575220Y1091140D01*
G01X620610Y1200150D02*
Y1263650D01*
X603670D01*
X598250Y1260470D01*
X594870Y1256240D01*
X593510Y1247770D01*
X594870Y1239310D01*
X598930Y1234020D01*
X603670Y1230840D01*
X620610D01*
G01X603670D02*
X593510Y1200150D01*
G01X571670Y1253070D02*
X567610Y1259420D01*
X562860Y1262590D01*
X557450Y1263650D01*
X550670Y1261530D01*
X545930Y1256240D01*
X544580Y1249890D01*
X545250Y1243540D01*
X547960Y1238250D01*
X561510Y1227670D01*
X567610Y1220260D01*
X571670Y1209670D01*
X573020Y1200150D01*
X544580D01*
G01X510540D02*
Y1263650D01*
X518670Y1250950D01*
G01Y1200150D02*
X502410D01*
G01X690880Y1809750D02*
X696300Y1810810D01*
X701040Y1815040D01*
X705100Y1821390D01*
X707810Y1828800D01*
X709170Y1837270D01*
Y1845730D01*
X707810Y1854200D01*
X705100Y1861610D01*
X701040Y1867960D01*
X696300Y1872190D01*
X690880Y1873250D01*
X685460Y1872190D01*
X680720Y1867960D01*
X676660Y1861610D01*
X673950Y1854200D01*
X672590Y1845730D01*
Y1837270D01*
X673950Y1828800D01*
X676660Y1821390D01*
X680720Y1815040D01*
X685460Y1810810D01*
X690880Y1809750D01*
G01X685460Y1826680D02*
X677330Y1809750D01*
G01X655490Y1862670D02*
X651430Y1869020D01*
X646680Y1872190D01*
X641270Y1873250D01*
X634490Y1871130D01*
X629750Y1865840D01*
X628400Y1859490D01*
X629070Y1853140D01*
X631780Y1847850D01*
X645330Y1837270D01*
X651430Y1829860D01*
X655490Y1819270D01*
X656840Y1809750D01*
X628400D01*
G01X978150Y717550D02*
X949710Y781050D01*
G01X978150D02*
X949710Y717550D01*
G01X907540D02*
Y781050D01*
X932600Y735540D01*
X898740D01*
G01X849210Y1206500D02*
Y1270000D01*
X832270D01*
X826850Y1266820D01*
X823470Y1262590D01*
X822110Y1254120D01*
X823470Y1245660D01*
X827530Y1240370D01*
X832270Y1237190D01*
X849210D01*
G01X832270D02*
X822110Y1206500D01*
G01X787400D02*
Y1270000D01*
X795530Y1257300D01*
G01Y1206500D02*
X779270D01*
G01X739140D02*
Y1270000D01*
X747270Y1257300D01*
G01Y1206500D02*
X731010D01*
G01X1041400Y1727200D02*
X965200D01*
Y1866900D01*
X812800D01*
Y1727200D01*
X723900D01*
Y1460500D01*
X1054100D01*
Y1727200D01*
X1041400D01*
G01X1663700Y1398400D02*
X1041400D01*
X1003300Y1360300D01*
Y0D01*
G01X1046480Y1797050D02*
X1051900Y1798110D01*
X1056640Y1802340D01*
X1060700Y1808690D01*
X1063410Y1816100D01*
X1064770Y1824570D01*
Y1833030D01*
X1063410Y1841500D01*
X1060700Y1848910D01*
X1056640Y1855260D01*
X1051900Y1859490D01*
X1046480Y1860550D01*
X1041060Y1859490D01*
X1036320Y1855260D01*
X1032260Y1848910D01*
X1029550Y1841500D01*
X1028190Y1833030D01*
Y1824570D01*
X1029550Y1816100D01*
X1032260Y1808690D01*
X1036320Y1802340D01*
X1041060Y1798110D01*
X1046480Y1797050D01*
G01X1041060Y1813980D02*
X1032930Y1797050D01*
G01X998220D02*
Y1860550D01*
X1006350Y1847850D01*
G01Y1797050D02*
X990090D01*
G01X1930650Y1425700D02*
X1902210Y1489200D01*
G01X1930650D02*
X1902210Y1425700D01*
G01X1883070Y1438400D02*
X1879010Y1430990D01*
X1873590Y1426760D01*
X1867490Y1425700D01*
X1862070Y1426760D01*
X1856650Y1432050D01*
X1853270Y1438400D01*
X1852590Y1444750D01*
X1853950Y1452160D01*
X1858690Y1457450D01*
X1863430Y1459570D01*
X1869520D01*
G01X1863430D02*
X1859360Y1462740D01*
X1855980Y1468030D01*
X1854620Y1474380D01*
X1855980Y1480730D01*
X1859360Y1486020D01*
X1865460Y1489200D01*
X1871560Y1488140D01*
X1877650Y1483910D01*
G01X2755900Y0D02*
Y1398400D01*
X1663700D01*
G01X2007290Y1525600D02*
G03I-14140J0D01*
G01X2001180Y1879600D02*
Y1834090D01*
X1998470Y1824560D01*
X1993050Y1818220D01*
X1986280Y1816100D01*
X1979510Y1818220D01*
X1974090Y1824560D01*
X1971380Y1834090D01*
Y1879600D01*
G01X1950890Y1869020D02*
X1946830Y1875370D01*
X1942080Y1878540D01*
X1936670Y1879600D01*
X1929890Y1877480D01*
X1925150Y1872190D01*
X1923800Y1865840D01*
X1924470Y1859490D01*
X1927180Y1854200D01*
X1940730Y1843620D01*
X1946830Y1836210D01*
X1950890Y1825620D01*
X1952240Y1816100D01*
X1923800D01*
G01X2476500Y1411390D02*
X2540000D01*
Y1428330D01*
X2536820Y1433750D01*
X2532590Y1437130D01*
X2524120Y1438490D01*
X2515660Y1437130D01*
X2510370Y1433070D01*
X2507190Y1428330D01*
Y1411390D01*
G01Y1428330D02*
X2476500Y1438490D01*
G01Y1473200D02*
X2540000D01*
X2527300Y1465070D01*
G01X2476500D02*
Y1481330D01*
G01X2486020Y1506560D02*
X2480730Y1510620D01*
X2477560Y1515360D01*
X2476500Y1521460D01*
X2478620Y1527560D01*
X2482850Y1532300D01*
X2490260Y1535680D01*
X2498720Y1536360D01*
X2507190Y1535010D01*
X2512480Y1531620D01*
X2516720Y1526880D01*
X2517770Y1522140D01*
X2516720Y1517400D01*
X2512480Y1511300D01*
X2540000Y1513330D01*
Y1531620D01*
G01X2909360Y474640D02*
X2912530Y470580D01*
X2914650Y465840D01*
Y460420D01*
X2911470Y454320D01*
X2906180Y449580D01*
X2899830Y446190D01*
X2889250Y443480D01*
X2879720Y442810D01*
X2870200Y444160D01*
X2863850Y446190D01*
X2857500Y450260D01*
X2853270Y455000D01*
X2851150Y459740D01*
Y464480D01*
X2853270Y469220D01*
X2856440Y473290D01*
X2860670Y476670D01*
G01X2851150Y508000D02*
X2914650D01*
X2901950Y499870D01*
G01X2851150D02*
Y516130D01*
G01X2914650Y556260D02*
X2912530Y550840D01*
X2907240Y546780D01*
X2900890Y544070D01*
X2892420Y542040D01*
X2882900Y541360D01*
X2873370Y542040D01*
X2864910Y544070D01*
X2858560Y546780D01*
X2853270Y550840D01*
X2851150Y556260D01*
X2853270Y561680D01*
X2858560Y565740D01*
X2864910Y568450D01*
X2873370Y570480D01*
X2882900Y571160D01*
X2892420Y570480D01*
X2900890Y568450D01*
X2907240Y565740D01*
X2912530Y561680D01*
X2914650Y556260D01*
G01X2852210Y1770040D02*
X2855380Y1765980D01*
X2857500Y1761240D01*
Y1755820D01*
X2854320Y1749720D01*
X2849030Y1744980D01*
X2842680Y1741590D01*
X2832100Y1738880D01*
X2822570Y1738210D01*
X2813050Y1739560D01*
X2806700Y1741590D01*
X2800350Y1745660D01*
X2796120Y1750400D01*
X2794000Y1755140D01*
Y1759880D01*
X2796120Y1764620D01*
X2799290Y1768690D01*
X2803520Y1772070D01*
G01X2846920Y1790530D02*
X2853270Y1794590D01*
X2856440Y1799340D01*
X2857500Y1804750D01*
X2855380Y1811530D01*
X2850090Y1816270D01*
X2843740Y1817620D01*
X2837390Y1816950D01*
X2832100Y1814240D01*
X2821520Y1800690D01*
X2814110Y1794590D01*
X2803520Y1790530D01*
X2794000Y1789180D01*
Y1817620D01*
G01Y1851660D02*
X2795060Y1856400D01*
X2798230Y1861820D01*
X2803520Y1865210D01*
X2810930Y1866560D01*
X2818340Y1865210D01*
X2824690Y1861140D01*
X2827870Y1855050D01*
Y1848270D01*
X2829980Y1844210D01*
X2835270Y1840820D01*
X2842680Y1839470D01*
X2850090Y1841500D01*
X2855380Y1846240D01*
X2857500Y1851660D01*
X2855380Y1857080D01*
X2850090Y1861820D01*
X2842680Y1863850D01*
X2835270Y1862500D01*
X2829980Y1859110D01*
X2827870Y1855050D01*
Y1848270D01*
X2824690Y1842180D01*
X2818340Y1838110D01*
X2810930Y1836760D01*
X2803520Y1838110D01*
X2798230Y1841500D01*
X2795060Y1846920D01*
X2794000Y1851660D01*
G01X3061760Y524170D02*
X3064930Y520110D01*
X3067050Y515370D01*
Y509950D01*
X3063870Y503850D01*
X3058580Y499110D01*
X3052230Y495720D01*
X3041650Y493010D01*
X3032120Y492340D01*
X3022600Y493690D01*
X3016250Y495720D01*
X3009900Y499790D01*
X3005670Y504530D01*
X3003550Y509270D01*
Y514010D01*
X3005670Y518750D01*
X3008840Y522820D01*
X3013070Y526200D01*
G01X3010960Y546010D02*
X3005670Y550760D01*
X3003550Y556180D01*
X3005670Y561590D01*
X3012010Y566340D01*
X3021540Y569720D01*
X3031070Y571080D01*
X3042710D01*
X3052230Y569720D01*
X3060700Y566340D01*
X3064930Y562270D01*
X3067050Y557530D01*
X3064930Y552110D01*
X3060700Y548050D01*
X3054350Y545340D01*
X3045880Y543980D01*
X3038480Y545340D01*
X3031070Y548720D01*
X3026830Y552790D01*
X3025770Y557530D01*
X3027890Y562950D01*
X3033180Y567010D01*
X3042710Y571080D01*
G01X3023660Y957240D02*
X3026830Y953180D01*
X3028950Y948440D01*
Y943020D01*
X3025770Y936920D01*
X3020480Y932180D01*
X3014130Y928790D01*
X3003550Y926080D01*
X2994020Y925410D01*
X2984500Y926760D01*
X2978150Y928790D01*
X2971800Y932860D01*
X2967570Y937600D01*
X2965450Y942340D01*
Y947080D01*
X2967570Y951820D01*
X2970740Y955890D01*
X2974970Y959270D01*
G01X3018370Y977730D02*
X3024720Y981790D01*
X3027890Y986540D01*
X3028950Y991950D01*
X3026830Y998730D01*
X3021540Y1003470D01*
X3015190Y1004820D01*
X3008840Y1004150D01*
X3003550Y1001440D01*
X2992970Y987890D01*
X2985560Y981790D01*
X2974970Y977730D01*
X2965450Y976380D01*
Y1004820D01*
G01Y1037510D02*
X2979210Y1038860D01*
X2990850Y1040890D01*
X3001430Y1043600D01*
X3013070Y1046990D01*
X3028950Y1052410D01*
Y1025310D01*
G01X3023660Y1274740D02*
X3026830Y1270680D01*
X3028950Y1265940D01*
Y1260520D01*
X3025770Y1254420D01*
X3020480Y1249680D01*
X3014130Y1246290D01*
X3003550Y1243580D01*
X2994020Y1242910D01*
X2984500Y1244260D01*
X2978150Y1246290D01*
X2971800Y1250360D01*
X2967570Y1255100D01*
X2965450Y1259840D01*
Y1264580D01*
X2967570Y1269320D01*
X2970740Y1273390D01*
X2974970Y1276770D01*
G01X2965450Y1308100D02*
X3028950D01*
X3016250Y1299970D01*
G01X2965450D02*
Y1316230D01*
G01Y1356360D02*
X3028950D01*
X3016250Y1348230D01*
G01X2965450D02*
Y1364490D01*
G01X2904830Y1569510D02*
X2908890Y1572680D01*
X2913630Y1574800D01*
X2919050D01*
X2925150Y1571620D01*
X2929890Y1566330D01*
X2933280Y1559980D01*
X2935990Y1549400D01*
X2936660Y1539870D01*
X2935310Y1530350D01*
X2933280Y1524000D01*
X2929210Y1517650D01*
X2924470Y1513420D01*
X2919730Y1511300D01*
X2914990D01*
X2910250Y1513420D01*
X2906180Y1516590D01*
X2902800Y1520820D01*
G01X2886370Y1524000D02*
X2882310Y1516590D01*
X2876890Y1512360D01*
X2870790Y1511300D01*
X2865370Y1512360D01*
X2859950Y1517650D01*
X2856570Y1524000D01*
X2855890Y1530350D01*
X2857250Y1537760D01*
X2861990Y1543050D01*
X2866730Y1545170D01*
X2872820D01*
G01X2866730D02*
X2862660Y1548340D01*
X2859280Y1553630D01*
X2857920Y1559980D01*
X2859280Y1566330D01*
X2862660Y1571620D01*
X2868760Y1574800D01*
X2874860Y1573740D01*
X2880950Y1569510D01*
G01X2941110Y1768770D02*
X2944280Y1764710D01*
X2946400Y1759970D01*
Y1754550D01*
X2943220Y1748450D01*
X2937930Y1743710D01*
X2931580Y1740320D01*
X2921000Y1737610D01*
X2911470Y1736940D01*
X2901950Y1738290D01*
X2895600Y1740320D01*
X2889250Y1744390D01*
X2885020Y1749130D01*
X2882900Y1753870D01*
Y1758610D01*
X2885020Y1763350D01*
X2888190Y1767420D01*
X2892420Y1770800D01*
G01X2935820Y1789260D02*
X2942170Y1793320D01*
X2945340Y1798070D01*
X2946400Y1803480D01*
X2944280Y1810260D01*
X2938990Y1815000D01*
X2932640Y1816350D01*
X2926290Y1815680D01*
X2921000Y1812970D01*
X2910420Y1799420D01*
X2903010Y1793320D01*
X2892420Y1789260D01*
X2882900Y1787910D01*
Y1816350D01*
G01X3196630Y1072910D02*
X3200690Y1076080D01*
X3205430Y1078200D01*
X3210850D01*
X3216950Y1075020D01*
X3221690Y1069730D01*
X3225080Y1063380D01*
X3227790Y1052800D01*
X3228460Y1043270D01*
X3227110Y1033750D01*
X3225080Y1027400D01*
X3221010Y1021050D01*
X3216270Y1016820D01*
X3211530Y1014700D01*
X3206790D01*
X3202050Y1016820D01*
X3197980Y1019990D01*
X3194600Y1024220D01*
G01X3163270Y1014700D02*
Y1078200D01*
X3171400Y1065500D01*
G01Y1014700D02*
X3155140D01*
G01X3129910Y1027400D02*
X3125850Y1019990D01*
X3120430Y1015760D01*
X3114330Y1014700D01*
X3108910Y1015760D01*
X3103490Y1021050D01*
X3100110Y1027400D01*
X3099430Y1033750D01*
X3100790Y1041160D01*
X3105530Y1046450D01*
X3110270Y1048570D01*
X3116360D01*
G01X3110270D02*
X3106200Y1051740D01*
X3102820Y1057030D01*
X3101460Y1063380D01*
X3102820Y1069730D01*
X3106200Y1075020D01*
X3112300Y1078200D01*
X3118400Y1077140D01*
X3124490Y1072910D01*
G01X3258610Y1667170D02*
X3261780Y1663110D01*
X3263900Y1658370D01*
Y1652950D01*
X3260720Y1646850D01*
X3255430Y1642110D01*
X3249080Y1638720D01*
X3238500Y1636010D01*
X3228970Y1635340D01*
X3219450Y1636690D01*
X3213100Y1638720D01*
X3206750Y1642790D01*
X3202520Y1647530D01*
X3200400Y1652270D01*
Y1657010D01*
X3202520Y1661750D01*
X3205690Y1665820D01*
X3209920Y1669200D01*
G01X3226860Y1687660D02*
X3234270Y1692400D01*
X3238500Y1696470D01*
X3240620Y1701880D01*
X3238500Y1706630D01*
X3234270Y1710010D01*
X3227920Y1712720D01*
X3220510Y1713400D01*
X3214160Y1712720D01*
X3207810Y1710010D01*
X3202520Y1705950D01*
X3200400Y1701210D01*
X3202520Y1695790D01*
X3208860Y1691050D01*
X3218390Y1688340D01*
X3228970Y1687660D01*
X3242730Y1689010D01*
X3250140Y1691050D01*
X3257550Y1694430D01*
X3262840Y1699180D01*
X3263900Y1703920D01*
X3261780Y1708660D01*
X3256490Y1712050D01*
G01X3957600Y1270000D02*
X4021100D01*
Y1397000D01*
X4186200D01*
Y1905000D01*
X3424200D01*
Y1397000D01*
X3589300D01*
Y1308100D01*
X3627400Y1270000D01*
X3957600D01*
G01X4299200Y1739900D02*
X4270760Y1803400D01*
G01X4299200D02*
X4270760Y1739900D01*
G01X4249590Y1792820D02*
X4245530Y1799170D01*
X4240780Y1802340D01*
X4235370Y1803400D01*
X4228590Y1801280D01*
X4223850Y1795990D01*
X4222500Y1789640D01*
X4223170Y1783290D01*
X4225880Y1778000D01*
X4239430Y1767420D01*
X4245530Y1760010D01*
X4249590Y1749420D01*
X4250940Y1739900D01*
X4222500D01*
G01X707350Y2181230D02*
X732760Y2160070D01*
X761330Y2147370D01*
X786730D01*
X812130Y2160070D01*
X831180Y2181230D01*
X840710Y2210870D01*
X834360Y2240500D01*
X818480Y2265900D01*
X789900Y2282840D01*
X751810Y2291300D01*
X729580Y2308230D01*
X720050Y2337870D01*
X726410Y2367500D01*
X742280Y2388660D01*
X764500Y2401370D01*
X786730D01*
X808960Y2392910D01*
X828010Y2371740D01*
G01X961350Y2181230D02*
X986760Y2160070D01*
X1015330Y2147370D01*
X1040730D01*
X1066130Y2160070D01*
X1085180Y2181230D01*
X1094710Y2210870D01*
X1088360Y2240500D01*
X1072480Y2265900D01*
X1043900Y2282840D01*
X1005810Y2291300D01*
X983580Y2308230D01*
X974050Y2337870D01*
X980410Y2367500D01*
X996280Y2388660D01*
X1018500Y2401370D01*
X1040730D01*
X1062960Y2392910D01*
X1082010Y2371740D01*
G01X1307430Y2282840D02*
X1320130Y2295540D01*
X1329650Y2316700D01*
X1336010Y2346340D01*
X1329650Y2371740D01*
X1316960Y2388660D01*
X1294730Y2401370D01*
X1209010D01*
Y2147370D01*
X1313780D01*
X1336010Y2164300D01*
X1348710Y2189700D01*
X1355050Y2219340D01*
X1348710Y2248960D01*
X1329650Y2274370D01*
X1307430Y2282840D01*
X1209010D01*
G01X1726530Y2401370D02*
Y2147370D01*
X1853530D01*
G01X1964650D02*
X2044030Y2401370D01*
X2123410Y2147370D01*
G01X2094830Y2236270D02*
X1993230D01*
G01X2298030Y2147370D02*
Y2261670D01*
X2234530Y2401370D01*
G01X2361530D02*
X2298030Y2261670D01*
G01X2615530Y2147370D02*
X2488530D01*
Y2401370D01*
X2615530D01*
G01X2564730Y2278610D02*
X2488530D01*
G01X2742530Y2147370D02*
Y2401370D01*
X2821900D01*
X2847300Y2388660D01*
X2863180Y2371740D01*
X2869530Y2337870D01*
X2863180Y2304000D01*
X2844130Y2282840D01*
X2821900Y2270130D01*
X2742530D01*
G01X2821900D02*
X2869530Y2147370D01*
G01X2040890Y1832610D02*
X2353310D01*
Y1520190D01*
X2040890D01*
Y1832610D01*
M02*
