G04 ================== begin FILE IDENTIFICATION RECORD ==================*
G04 Layout Name:  Popcorn Popstick Rev1p1_Release.brd*
G04 Film Name:    TOP*
G04 File Format:  Gerber RS274X*
G04 File Origin:  Cadence Allegro 17.2-S053*
G04 Origin Date:  Thu Jun 30 17:26:53 2022*
G04 *
G04 Layer:  VIA CLASS/TOP*
G04 Layer:  PIN/TOP*
G04 Layer:  ETCH/TOP*
G04 Layer:  BOARD GEOMETRY/OUTLINE*
G04 *
G04 Offset:    (0.0000 0.0000)*
G04 Mirror:    No*
G04 Mode:      Positive*
G04 Rotation:  0*
G04 FullContactRelief:  No*
G04 UndefLineWidth:     0.1270*
G04 ================== end FILE IDENTIFICATION RECORD ====================*
%FSLAX55Y55*MOMM*%
%IR0*IPPOS*OFA0.00000B0.00000*MIA0B0*SFA1.00000B1.00000*%
%ADD11O,1.5X.8*%
%ADD20R,1.1X.47*%
%ADD30R,.47X1.1*%
%ADD21O,.95X2.1001*%
%ADD29R,.68X1.21*%
%ADD10C,.7*%
%ADD15C,.9*%
%ADD12C,.6096*%
%ADD13R,1.7X.8999*%
%ADD14R,1.8001X.8999*%
%ADD22C,.5999*%
%ADD25R,1.4X1.2*%
%ADD18R,4.3X3.4*%
%ADD23C,1.*%
%ADD24R,.86X.22*%
%ADD26R,.22X.86*%
%ADD17R,.44X.94*%
%ADD31C,1.508*%
%ADD32R,2.708X1.308*%
%ADD28R,1.27X1.27*%
%ADD33R,1.508X1.508*%
%ADD27R,6.74X6.74*%
%ADD19R,.8992X.8001*%
%ADD16R,.8001X.8992*%
%ADD34C,.2032*%
%ADD35C,.127*%
%ADD36C,.254*%
%ADD37C,.1524*%
%ADD38C,.381*%
%ADD39C,.508*%
%ADD40C,.3048*%
G75*
%LPD*%
G75*
G36*
G01X1494400Y1206480D02*
X1587500D01*
Y977900D01*
X1447800D01*
Y1017880D01*
X1448400Y1019000D01*
G03X1451380Y1030950I-22442J11943D01*
G01Y1163460D01*
X1494400Y1206480D01*
G37*
G36*
G01X1498600Y1358900D02*
X1860960D01*
Y1312000D01*
G03X1881300Y1291660I20340J0D01*
G01X1967300D01*
G03X1987640Y1312000I0J20340D01*
G01Y1333820D01*
G02X2001330Y1343350I10159J4D01*
G03X2010590Y1340880I17669J47650D01*
G01X2012190Y1340610D01*
X2057400Y1295400D01*
Y1117600D01*
X2044700Y1104900D01*
X1984470D01*
G03X1967300Y1114340I-17170J-10895D01*
G01X1882860D01*
X1879600Y1117600D01*
Y1131660D01*
X1967300D01*
G03X1987640Y1152000I0J20340D01*
G01Y1174000D01*
G03X1967300Y1194340I-20340J0D01*
G01X1881300D01*
X1881190D01*
X1879070Y1194330D01*
X1866900Y1206500D01*
X1756620D01*
X1755240Y1209400D01*
G03X1736880Y1221000I-18366J-8740D01*
G01X1672470D01*
X1643590Y1249870D01*
G03X1625620Y1257320I-17978J-17967D01*
G01X1485900D01*
Y1346200D01*
X1498600Y1358900D01*
G37*
G36*
G01X2705100Y749300D02*
X2779720D01*
X2781170Y746690D01*
G03X2785830Y740530I24416J13628D01*
G01X2823130Y703230D01*
G03X2842900Y695040I19770J19767D01*
G01X2857070D01*
G03X2857500Y694760I11314J16905D01*
G01Y533400D01*
X2753240D01*
X2705100Y581540D01*
Y594240D01*
X2705910Y595500D01*
G03X2709140Y606500I-17116J11000D01*
G01Y692500D01*
G03X2705910Y703500I-20346J0D01*
G01X2705100Y704760D01*
Y749300D01*
G37*
G36*
G01X3035300Y1397000D02*
X2794000D01*
Y1531000D01*
X3035300D01*
Y1397000D01*
G37*
G36*
G01X2667000Y1828800D02*
X2882900D01*
X2895600Y1816100D01*
Y1782190D01*
X2843730Y1730320D01*
X2816270D01*
G03X2805070Y1727720I0J-25423D01*
G01X2804010Y1727200D01*
X2730500D01*
Y1691760D01*
X2729690Y1690500D01*
G03X2726460Y1679500I17116J-11000D01*
G01Y1593500D01*
G03X2726470Y1592760I20341J-95D01*
G01X2726480Y1592670D01*
Y1587500D01*
X2669120D01*
Y1592670D01*
X2669130Y1592760D01*
G03X2669140Y1593500I-20331J645D01*
G01Y1679500D01*
G03X2667430Y1687670I-20341J6D01*
G01X2667000Y1688640D01*
Y1828800D01*
G37*
G36*
G01X3022600Y457200D02*
X3276600D01*
Y203200D01*
X3428980D01*
Y203180D01*
X3619500D01*
Y63500D01*
X3022600D01*
Y168120D01*
G03X3027700Y183390I-20310J15270D01*
G01Y350010D01*
G03X3022600Y365280I-25410J0D01*
G01Y457200D01*
G37*
G36*
G01X3187700Y1612900D02*
X3454400D01*
Y1384300D01*
X3594100D01*
Y1235040D01*
X3528600D01*
G03X3518810Y1232530I0J-20347D01*
G01X3517660Y1231900D01*
X3305400D01*
G02X3296370Y1246710I2J10159D01*
G03X3302020Y1270000I-45177J23290D01*
G03X3251200Y1320820I-50820J0D01*
G03X3212290Y1302690I0J-50819D01*
G02X3195360Y1304800I-7782J6533D01*
G03X3187700Y1316330I-45764J-22094D01*
G01Y1612900D01*
G37*
G36*
G01X3454400Y228600D02*
Y444500D01*
X3606800D01*
Y228600D01*
X3454400D01*
G37*
G36*
G01Y850900D02*
X3479800D01*
X3530600Y800100D01*
X3613580D01*
G03X3619500Y791870I44010J25413D01*
G01Y647700D01*
X3556000D01*
X3537450Y629150D01*
X3535360Y629140D01*
G03X3515110Y608890I90J-20340D01*
G01X3515100Y606800D01*
X3505200Y596900D01*
X3454400D01*
X3441700Y609600D01*
Y675620D01*
X3441710Y675750D01*
G03X3441770Y678290I-50762J2470D01*
G03X3441710Y680830I-50822J70D01*
G01X3441700Y680960D01*
Y773520D01*
X3441710Y773650D01*
G03X3441770Y776190I-50762J2470D01*
G03X3441710Y778730I-50822J70D01*
G01X3441700Y778860D01*
Y838200D01*
X3454400Y850900D01*
G37*
G36*
G01X3917680Y1562100D02*
X4013200D01*
X4025900Y1549400D01*
Y1295400D01*
X4013200Y1282700D01*
X3937000D01*
X3905250Y1250950D01*
Y1174750D01*
X3733800Y1003300D01*
X3644900D01*
X3625650Y984050D01*
X3623550Y984040D01*
G03X3603260Y963700I50J-20340D01*
G01Y838200D01*
X3530600D01*
X3505200Y863600D01*
Y1016000D01*
X3543300Y1054100D01*
X3581400D01*
X3601130Y1073830D01*
X3602370Y1074190D01*
G03X3616110Y1087930I-5770J19510D01*
G01X3616470Y1089170D01*
X3746500Y1219200D01*
X3810000D01*
X3848100Y1257300D01*
Y1488440D01*
G02X3858010Y1498600I10161J2D01*
G03X3907570Y1549400I-1256J50800D01*
G03X3907530Y1551520I-50822J101D01*
G02X3917680Y1562100I10150J422D01*
G37*
G36*
G01X3721100Y355600D02*
X3822700D01*
Y63500D01*
X3683000D01*
Y190500D01*
X3721100D01*
Y355600D01*
G37*
G36*
G01Y400050D02*
Y615950D01*
X3873500D01*
Y400050D01*
X3721100D01*
G37*
G36*
G01Y965200D02*
X3822700D01*
Y660400D01*
X3683000D01*
Y781480D01*
G03X3691230Y787400I-25413J44010D01*
G01X3721100D01*
Y965200D01*
G37*
G36*
G01X3708400Y1816100D02*
X3937000D01*
Y1663700D01*
X3777480D01*
G03X3752850Y1670070I-24634J-44449D01*
G03X3729290Y1664280I0J-50829D01*
G01X3728180Y1663700D01*
X3708400D01*
Y1816100D01*
G37*
G36*
G01X3930670Y1231900D02*
X4025900D01*
Y977900D01*
X3860800D01*
Y1066800D01*
X3924300D01*
Y1157850D01*
X3930670Y1164220D01*
Y1231900D01*
G37*
G54D10*
X107950Y696000D03*
Y823000D03*
Y950000D03*
Y1204000D03*
Y1077000D03*
G54D20*
X1133800Y1409700D03*
X1380800D03*
G54D11*
X223450Y759500D03*
Y1013500D03*
Y886500D03*
Y1140500D03*
G54D12*
Y584200D03*
X54700Y1422500D03*
X50800Y1308100D03*
X70010Y1716300D03*
X243400Y258680D03*
X361000Y709000D03*
X355600Y1140500D03*
X247500Y1263800D03*
X406400Y1805200D03*
X543400Y258680D03*
X662000Y790000D03*
X671680Y570080D03*
X571500Y939800D03*
X501500Y1257300D03*
X609600Y1244600D03*
X660400Y1676400D03*
X923270Y152400D03*
X812800Y711200D03*
X787400Y1035560D03*
X850900Y825500D03*
X723900Y1231900D03*
X736600Y1441870D03*
X828930Y1297870D03*
X736600Y1816100D03*
X1041400Y977900D03*
X980040Y1242370D03*
X1041400Y1828800D03*
X1308100Y165100D03*
Y254000D03*
X1409700D03*
X1219200Y963750D03*
X1370080Y1054100D03*
X1257300Y1371600D03*
X1452880Y330000D03*
X1556870Y496060D03*
X1485900Y774700D03*
X1474000Y999200D03*
X1483000Y1152000D03*
X1618920Y1631310D03*
X1689860Y411630D03*
X1866620Y489850D03*
X1834000Y688000D03*
X1788500Y574500D03*
X1788270Y1056530D03*
X1805000Y1646000D03*
X1930400Y546100D03*
X2027000Y805000D03*
X2019300Y1143000D03*
X2019000Y1391000D03*
X2110000Y1820470D03*
X2274220Y239260D03*
X2377520Y521360D03*
X2298700Y501480D03*
X2154000Y745000D03*
X2358000Y744000D03*
X2300000Y950000D03*
X2298700Y1092200D03*
X2204600Y1107000D03*
X2243000Y1531000D03*
X2519830Y273170D03*
X2514600Y101600D03*
X2466000Y518000D03*
X2542060Y546670D03*
X2477800Y744200D03*
X2562000Y744000D03*
X2600000Y950000D03*
X2450000D03*
X2449000Y1070000D03*
X2600000Y1100000D03*
X2542000Y1538000D03*
X2539000Y1786000D03*
X2781300Y292100D03*
X2824480Y210820D03*
X2763170Y414170D03*
X2781300Y571500D03*
X2755900Y723900D03*
X2797980Y944730D03*
X2805600Y818030D03*
X2828000Y1517000D03*
X2813580Y1760780D03*
X2863850Y1797050D03*
X2946400Y254000D03*
X2966000Y544870D03*
X3073900Y330700D03*
X2908300Y330200D03*
X2885780Y584200D03*
X3000000Y963000D03*
X3102000Y923000D03*
X3007000Y1208000D03*
X3066880Y1262970D03*
X3005100Y1094850D03*
X2997480Y1432900D03*
X3077870Y1356360D03*
X2983710Y1674500D03*
X2978950Y1765300D03*
X3213600Y330700D03*
X3251200Y876300D03*
X3149600Y1282700D03*
X3251200Y1270000D03*
X3263900Y1447800D03*
X3238500Y1784860D03*
X3492270Y266700D03*
X3403600Y152400D03*
X3492270Y355600D03*
X3353300Y329700D03*
X3390950Y776190D03*
Y678290D03*
X3485700Y625400D03*
X3368380Y929670D03*
X3473000Y822400D03*
X3454400Y1092200D03*
X3378200Y1460500D03*
X3533000Y1608000D03*
X3352800Y1816100D03*
X3759450Y457450D03*
X3664450Y400980D03*
X3657600Y825500D03*
X3752850Y1619250D03*
X3822700Y1778000D03*
X3848100Y457200D03*
X3908420Y1028700D03*
X3975140Y901780D03*
X3827500Y1704800D03*
X3937000Y1524000D03*
X4000500D03*
X4025900Y1631000D03*
X3856750Y1549400D03*
G54D21*
X1164310Y1769490D03*
X1731290D03*
G54D30*
X3949700Y803600D03*
Y1050600D03*
G54D40*
G01X1663700Y1302870D02*
X1537970D01*
X1536700Y1301600D01*
G01X1924300Y1243000D02*
X1850570D01*
X1790700Y1302870D01*
G01X1663700D02*
X1790700D01*
G54D31*
X4142050Y600000D03*
Y850000D03*
Y1050000D03*
G54D22*
X1247800Y1554500D03*
X1647800D03*
G54D13*
X190500Y1395200D03*
X584200D03*
G54D32*
X4357050Y370000D03*
Y1530000D03*
G54D23*
X1574600Y230000D03*
X2374600D03*
X4357050Y725000D03*
Y1175000D03*
G54D14*
X190500Y1805200D03*
X584200D03*
G54D33*
X4142050Y1300000D03*
G54D24*
X1924300Y763000D03*
Y723000D03*
Y1003000D03*
Y963000D03*
Y923000D03*
Y883000D03*
Y843000D03*
Y803000D03*
Y1243000D03*
Y1203000D03*
Y1163000D03*
Y1123000D03*
Y1083000D03*
Y1043000D03*
Y1483000D03*
Y1443000D03*
Y1403000D03*
Y1363000D03*
Y1323000D03*
Y1283000D03*
Y1563000D03*
Y1523000D03*
X2911300Y723000D03*
Y763000D03*
Y803000D03*
Y843000D03*
Y883000D03*
Y923000D03*
Y963000D03*
Y1003000D03*
Y1043000D03*
Y1083000D03*
Y1123000D03*
Y1163000D03*
Y1203000D03*
Y1243000D03*
Y1283000D03*
Y1323000D03*
Y1363000D03*
Y1403000D03*
Y1443000D03*
Y1483000D03*
Y1523000D03*
Y1563000D03*
G54D15*
X318400Y360500D03*
X618400D03*
G54D34*
G01X50800Y1308100D02*
X171260D01*
X190500Y1327340D01*
Y1395200D01*
G01X662000Y790000D02*
X367000D01*
X336500Y759500D01*
X223450D01*
G01D02*
Y584200D01*
G01Y1013500D02*
X258450D01*
X318100Y1073150D01*
X733530D01*
X924160Y1263780D01*
Y1265520D01*
X966740Y1308100D01*
X1202310D01*
X1308100Y1202310D01*
Y1132450D01*
G01X223450Y886500D02*
X331500D01*
X384800Y939800D01*
X571500D01*
G01X223450Y1140500D02*
X355600D01*
G01X1041400Y977900D02*
X1001850Y938350D01*
X862150D01*
X787400Y863600D01*
Y812800D01*
X505680Y531080D01*
Y296400D01*
X543400Y258680D01*
G01X671680Y570080D02*
X812800Y711200D01*
G01X1016000Y69700D02*
X857400D01*
X709400Y217700D01*
Y532360D01*
X671680Y570080D01*
G01X571500Y939800D02*
X803790D01*
X837900Y973910D01*
X961210D01*
X990600Y1003300D01*
Y1173900D01*
X1048600Y1231900D01*
X1151510D01*
X1181100Y1202310D01*
Y1132450D01*
G01X584200Y1395200D02*
Y1327340D01*
X609600Y1301940D01*
Y1244600D01*
G01D02*
X641500Y1212700D01*
Y1155700D01*
G01X660400Y1676400D02*
X713740D01*
X777240Y1612900D01*
X1041400D01*
X1066800Y1638300D01*
X1244880D01*
X1290450Y1683870D01*
X1295400D01*
G01X927100Y353450D02*
Y283590D01*
X923270Y279760D01*
Y152400D01*
G01X1805000Y1646000D02*
X1767280Y1608280D01*
X1720980D01*
X1642070Y1687190D01*
X1595770D01*
X1367180Y1458600D01*
X1242150D01*
X1241960Y1458790D01*
X1238370D01*
X1229760Y1460500D01*
X1070590D01*
X1068690Y1458600D01*
X1068270D01*
X953330Y1343660D01*
X952010D01*
X888600Y1280250D01*
Y1278510D01*
X852080Y1241990D01*
X851660D01*
X841570Y1231900D01*
X723900D01*
G01X965200Y1681330D02*
X840740D01*
X838200Y1683870D01*
G01Y1531770D02*
X1118280D01*
X1153990Y1496060D01*
X1233260D01*
X1241870Y1494350D01*
X1316550D01*
X1371600Y1549400D01*
Y1752620D01*
X1300350Y1823870D01*
X1295400D01*
G01X736600Y1816100D02*
X770420D01*
X778190Y1823870D01*
X838200D01*
G01X1016000Y209700D02*
X1054100Y247800D01*
Y353450D01*
G01Y1132450D02*
Y1043940D01*
X1041400Y1031240D01*
Y977900D01*
G01X1181100Y353450D02*
Y209700D01*
G01Y1132450D02*
Y1054100D01*
X1215570Y1019630D01*
X1261850D01*
X1358000Y923480D01*
Y375400D01*
X1358900Y374500D01*
Y304800D01*
X1409700Y254000D01*
G01X1452880Y330000D02*
X1393560Y389320D01*
Y938210D01*
X1308100Y1023670D01*
Y1132450D01*
G01X1696870Y774700D02*
Y769750D01*
X1600220Y673100D01*
X1485900D01*
X1460500Y647700D01*
Y469900D01*
X1672080Y258320D01*
Y206370D01*
X1799010Y79440D01*
X2388160D01*
X2425260Y116540D01*
X2425980D01*
X2474540Y165100D01*
X2740880D01*
X2765770Y140210D01*
Y140200D01*
X2786590Y119380D01*
X2887980D01*
X2946400Y177800D01*
Y254000D01*
G01X1696870Y584200D02*
Y497670D01*
X1633980Y434780D01*
Y346710D01*
X1707640Y273050D01*
Y221100D01*
X1813740Y115000D01*
X2373430D01*
X2410830Y152400D01*
X2411550D01*
X2459810Y200660D01*
X2755610D01*
X2801330Y154940D01*
X2860030D01*
X2890520Y185430D01*
Y277150D01*
X2908300Y294930D01*
Y330200D01*
G01X1556870Y901700D02*
X1480360D01*
X1417000Y965060D01*
Y1021990D01*
X1425960Y1030950D01*
Y1173990D01*
X1483870Y1231900D01*
X1625620D01*
X1696870Y1160650D01*
Y1155700D01*
G01X1778000Y271630D02*
X1824830Y224800D01*
X1960100D01*
G01X2157800Y649500D02*
Y578990D01*
X2069030Y490220D01*
X1920330D01*
X1919960Y489850D01*
X1866620D01*
G01X1924300Y763000D02*
X1874370D01*
X1834000Y722630D01*
Y688000D01*
G01X1924300Y963000D02*
X1874370D01*
X1855900Y944530D01*
Y794820D01*
X1776000Y714920D01*
X1759770D01*
X1696870Y652020D01*
Y584200D01*
G01X1924300Y1003000D02*
X1864060D01*
X1820340Y959280D01*
Y809550D01*
X1785490Y774700D01*
X1696870D01*
G01X2077800Y649500D02*
Y599570D01*
X2059330Y581100D01*
X1974430D01*
X1953550Y601980D01*
X1869320D01*
X1841840Y574500D01*
X1788500D01*
G01X1696870Y901700D02*
X1747810D01*
X1768130Y922020D01*
Y957340D01*
X1784780Y973990D01*
Y974010D01*
X1849330Y1038560D01*
X1849350D01*
X1853790Y1043000D01*
X1924300D01*
G01X1788270Y1056530D02*
X1793130D01*
X1819600Y1083000D01*
X1924300D01*
G01X1694330Y1028700D02*
X1760440D01*
X1788270Y1056530D01*
G01X1924300Y1163000D02*
X1858440D01*
X1851140Y1155700D01*
X1696870D01*
G01X2237800Y649500D02*
Y599570D01*
X2205230Y567000D01*
X2196100D01*
X2070000Y440900D01*
Y324700D01*
X1970100Y224800D01*
X1960100D01*
G01X2117800Y649500D02*
Y589280D01*
X2074060Y545540D01*
X1930960D01*
X1930400Y546100D01*
G01X2037800Y649500D02*
Y794200D01*
X2027000Y805000D01*
G01X1924300Y1123000D02*
X1990160D01*
X2010160Y1143000D01*
X2019300D01*
G01X1924300Y1243000D02*
Y1283000D01*
G01Y1203000D02*
Y1243000D01*
G01Y1283000D02*
X1998980D01*
X2019300Y1262680D01*
Y1143000D01*
G01X2077800Y1636500D02*
Y1570640D01*
G01X2102640Y1727200D02*
X2077800Y1702360D01*
Y1636500D01*
G01X1997800D02*
Y1764070D01*
X2023730Y1790000D01*
G01X2110000Y1820470D02*
X2094530D01*
X2090130Y1824870D01*
X2058600D01*
X2023730Y1790000D01*
G01X2379830Y368300D02*
X2289460D01*
X2272960Y384800D01*
X2180100D01*
G01X2277800Y649500D02*
Y583640D01*
X2180100Y485940D01*
Y384800D01*
G01X2317800Y649500D02*
Y520580D01*
X2298700Y501480D01*
G01X2197800Y649500D02*
Y715360D01*
X2168160Y745000D01*
X2154000D01*
G01X2437800Y649500D02*
Y705170D01*
X2398970Y744000D01*
X2358000D01*
G01X2357800Y649500D02*
Y575900D01*
X2377520Y556180D01*
Y521360D01*
G01X2677800Y649500D02*
Y572890D01*
X2745080Y505610D01*
X2846680D01*
X3002280Y350010D01*
Y183390D01*
X2902710Y83820D01*
X2771850D01*
X2754070Y101600D01*
X2514600D01*
G01X2597800Y649500D02*
Y569960D01*
X2597940Y569820D01*
Y538960D01*
X2654300Y482600D01*
Y414170D01*
G01X2397800Y649500D02*
Y599570D01*
X2466000Y531370D01*
Y518000D01*
G01X2477800Y649500D02*
Y744200D01*
G01X2517800Y649500D02*
Y699800D01*
X2562000Y744000D01*
G01X2557800Y649500D02*
Y566800D01*
X2542060Y551060D01*
Y546670D01*
G01X2637800Y649500D02*
Y562600D01*
X2730350Y470050D01*
X2831950D01*
X2852420Y449580D01*
Y307050D01*
X2854960Y304500D01*
Y241300D01*
X2824480Y210820D01*
G01X2763170Y414170D02*
X2654300D01*
G01X2911300Y1003000D02*
X2856250D01*
X2797980Y944730D01*
G01X2797800Y1636500D02*
Y1686430D01*
X2816270Y1704900D01*
X2854260D01*
X2914660Y1765300D01*
X2978950D01*
G01X2911300Y963000D02*
X3000000D01*
G01X2911300Y883000D02*
X3062000D01*
X3102000Y923000D01*
G01X2911300Y843000D02*
X2977160D01*
X2981580Y838580D01*
X3213480D01*
X3251200Y876300D01*
G01X2911300Y1243000D02*
X2962970D01*
X2999970Y1280000D01*
X3038000D01*
X3055030Y1262970D01*
X3066880D01*
G01X2911300Y1323000D02*
X2990060D01*
X3021030Y1353970D01*
X3022140D01*
X3024530Y1356360D01*
X3077870D01*
G54D16*
X501500Y1155700D03*
X641500D03*
X1556870Y584200D03*
Y774700D03*
Y901700D03*
X1554330Y1028700D03*
X1556870Y1155700D03*
X1696870Y584200D03*
Y774700D03*
Y901700D03*
X1694330Y1028700D03*
X1696870Y1155700D03*
X1883730Y1790000D03*
X2023730D03*
X2379830Y368300D03*
X2381270Y1795000D03*
X2241270D03*
X2519830Y368300D03*
X2595730Y1778000D03*
X2735730D03*
X3105000Y1549400D03*
Y1689100D03*
X3245000Y1549400D03*
Y1689100D03*
X4033670Y1752600D03*
X3893670D03*
G54D25*
X2180100Y224800D03*
X1960100D03*
X2180100Y384800D03*
X1960100D03*
G54D35*
G01X0Y0D02*
X4500000D01*
Y1900000D01*
X0D01*
Y0D01*
G01X756500Y2419150D02*
Y2165150D01*
G01X683480Y2419150D02*
X829520D01*
G01X1010500Y2165150D02*
X985100Y2169380D01*
X962880Y2186310D01*
X943820Y2211710D01*
X931120Y2241350D01*
X924770Y2275220D01*
Y2309080D01*
X931120Y2342950D01*
X943820Y2372590D01*
X962880Y2397980D01*
X985100Y2414920D01*
X1010500Y2419150D01*
X1035900Y2414920D01*
X1058120Y2397980D01*
X1077180Y2372590D01*
X1089880Y2342950D01*
X1096230Y2309080D01*
Y2275220D01*
X1089880Y2241350D01*
X1077180Y2211710D01*
X1058120Y2186310D01*
X1035900Y2169380D01*
X1010500Y2165150D01*
G01X1201000D02*
Y2419150D01*
X1277200D01*
X1302600Y2406440D01*
X1321650Y2376820D01*
X1328000Y2342950D01*
X1321650Y2309080D01*
X1305770Y2283680D01*
X1277200Y2270980D01*
X1201000D01*
G01X1709000Y2419150D02*
Y2165150D01*
X1836000D01*
G01X1947120D02*
X2026500Y2419150D01*
X2105880Y2165150D01*
G01X2077300Y2254050D02*
X1975700D01*
G01X2280500Y2165150D02*
Y2279450D01*
X2217000Y2419150D01*
G01X2344000D02*
X2280500Y2279450D01*
G01X2598000Y2165150D02*
X2471000D01*
Y2419150D01*
X2598000D01*
G01X2547200Y2296390D02*
X2471000D01*
G01X2725000Y2165150D02*
Y2419150D01*
X2804370D01*
X2829770Y2406440D01*
X2845650Y2389520D01*
X2852000Y2355650D01*
X2845650Y2321780D01*
X2826600Y2300620D01*
X2804370Y2287910D01*
X2725000D01*
G01X2804370D02*
X2852000Y2165150D01*
G54D17*
X927100Y353450D03*
Y1132450D03*
X1054100Y353450D03*
X1181100D03*
Y1132450D03*
X1054100D03*
X1308100Y353450D03*
Y1132450D03*
G54D26*
X1997800Y649500D03*
X2037800D03*
X2077800D03*
X2117800D03*
Y1636500D03*
X2077800D03*
X2037800D03*
X1997800D03*
X2157800Y649500D03*
X2197800D03*
X2237800D03*
X2277800D03*
X2317800D03*
X2357800D03*
Y1636500D03*
X2317800D03*
X2277800D03*
X2237800D03*
X2197800D03*
X2157800D03*
X2397800Y649500D03*
X2437800D03*
X2477800D03*
X2517800D03*
X2557800D03*
X2597800D03*
Y1636500D03*
X2557800D03*
X2517800D03*
X2477800D03*
X2437800D03*
X2397800D03*
X2637800Y649500D03*
X2677800D03*
X2717800D03*
X2757800D03*
X2797800D03*
X2837800D03*
Y1636500D03*
X2797800D03*
X2757800D03*
X2717800D03*
X2677800D03*
X2637800D03*
G54D36*
G01X2019300Y1143000D02*
Y1069600D01*
X1992700Y1043000D01*
X1924300D01*
G01X2911300Y723000D02*
X2842900D01*
X2805600Y760300D01*
Y818030D01*
G54D27*
X2417800Y1143000D03*
G54D18*
X1117600Y742950D03*
G54D37*
G01X2911300Y763000D02*
X2980640D01*
X2985400Y767760D01*
X3267240D01*
X3320780Y714220D01*
X3355020D01*
X3390950Y678290D01*
G01X2911300Y803000D02*
X2980640D01*
X2985400Y798240D01*
X3279870D01*
X3332110Y746000D01*
X3360990D01*
X3390950Y775960D01*
Y776190D01*
G54D19*
X838200Y1531770D03*
Y1391770D03*
Y1683870D03*
X965200Y1681330D03*
X838200Y1823870D03*
X965200Y1821330D03*
X1016000Y69700D03*
X1181100D03*
X1016000Y209700D03*
X1181100D03*
X1295400Y1683870D03*
Y1823870D03*
X1663700Y1442870D03*
Y1302870D03*
X1536700Y1301600D03*
Y1441600D03*
X1778000Y271630D03*
Y411630D03*
X1790700Y1442870D03*
Y1302870D03*
X2654300Y274170D03*
Y414170D03*
X3073900Y544870D03*
Y404870D03*
X3111500Y1022200D03*
Y1162200D03*
X3353300Y544870D03*
Y404870D03*
X3213600Y544870D03*
Y404870D03*
X3365500Y1022200D03*
X3238500D03*
X3365500Y1162200D03*
X3238500D03*
X3378200Y1696870D03*
Y1556870D03*
X3975100Y1187300D03*
Y1327300D03*
G54D28*
X3538220Y127000D03*
X3545840Y723900D03*
X3525520Y1320800D03*
X3751580Y127000D03*
X3759200Y723900D03*
X3738880Y1320800D03*
G54D38*
G01X190500Y1805200D02*
X158910D01*
X70010Y1716300D01*
G01X584200Y1805200D02*
X406400D01*
G01X965200Y1821330D02*
X972670Y1828800D01*
X1041400D01*
G01X1380800Y1409700D02*
Y1354440D01*
X1370080Y1343720D01*
Y1054100D01*
G01X1536700Y1441600D02*
Y1549090D01*
X1618920Y1631310D01*
G01X1536700Y1441600D02*
X1662430D01*
X1663700Y1442870D01*
G01D02*
X1790700D01*
G01X2077800Y1570640D02*
X2019000Y1511840D01*
Y1391000D01*
G01X2241270Y1795000D02*
X2176140D01*
X2136840Y1755700D01*
X2131140D01*
X2102640Y1727200D01*
G01X2595730Y1778000D02*
X2578100D01*
X2567100Y1789000D01*
X2540000D01*
X2539000Y1788000D01*
Y1786000D01*
G01X3213600Y544870D02*
X3353300D01*
G01X3238500Y1162200D02*
X3241990D01*
X3262460Y1141730D01*
X3316140D01*
X3336610Y1162200D01*
X3365500D01*
G01X3245000Y1689100D02*
X3370430D01*
X3378200Y1696870D01*
G01X3569450Y548300D02*
X3556380Y535230D01*
X3446160D01*
X3436520Y544870D01*
X3353300D01*
G01X3562600Y1154200D02*
X3496840D01*
X3488840Y1162200D01*
X3365500D01*
G01X3556250Y1751100D02*
X3432430D01*
X3378200Y1696870D01*
G01X3746250Y1500100D02*
Y1414530D01*
X3738880Y1407160D01*
Y1320800D01*
G54D29*
X3569450Y297300D03*
Y548300D03*
X3562600Y903200D03*
Y1154200D03*
X3556250Y1500100D03*
Y1751100D03*
X3759450Y297300D03*
X3664450D03*
X3759450Y548300D03*
X3752600Y903200D03*
X3657600D03*
X3752600Y1154200D03*
X3746250Y1500100D03*
X3651250D03*
X3746250Y1751100D03*
G54D39*
G01X501500Y1155700D02*
Y1257300D01*
G01X927100Y1132450D02*
Y1187940D01*
X980040Y1240880D01*
Y1242370D01*
G01X828930Y1297870D02*
Y1382500D01*
X838200Y1391770D01*
G01X1308100Y165100D02*
Y120500D01*
X1257300Y69700D01*
X1181100D01*
G01X1133800Y1409700D02*
X1219200D01*
X1257300Y1371600D01*
G01X1308100Y353450D02*
Y254000D01*
G01X1556870Y584200D02*
Y496060D01*
G01Y774700D02*
X1485900D01*
G01X1960100Y384800D02*
X1935020Y409880D01*
X1825530D01*
X1823780Y411630D01*
X1778000D01*
G01X1689860D02*
X1778000D01*
G01X1731290Y1769490D02*
X1854940D01*
X1883730Y1790000D01*
G01X2180100Y224800D02*
X2192800Y237500D01*
X2275980D01*
X2274220Y239260D01*
G01X2381270Y1795000D02*
X2530000D01*
X2539000Y1786000D01*
G01X2519830Y368300D02*
Y273170D01*
G01X2654300Y274170D02*
X2763370D01*
X2781300Y292100D01*
G01X3073900Y544870D02*
X2966000D01*
G01X3073900Y404870D02*
Y330700D01*
G01X3102000Y923000D02*
X3111500Y932500D01*
Y1022200D01*
G01D02*
X3077750D01*
X3005100Y1094850D01*
G01X3149600Y1282700D02*
Y1243050D01*
X3111500Y1204950D01*
Y1162200D01*
G01X3105000Y1689100D02*
X3164350Y1748450D01*
Y1750900D01*
X3188150Y1774700D01*
X3228340D01*
X3238500Y1784860D01*
G01X3213600Y404870D02*
Y330700D01*
G01X3238500Y1022200D02*
X3111500D01*
G01X3245000Y1549400D02*
X3251200Y1543200D01*
Y1460500D01*
X3263900Y1447800D01*
G01X3105000Y1689100D02*
Y1549400D01*
G01X3245000D02*
X3252470Y1556870D01*
X3378200D01*
G01X3569450Y297300D02*
X3507650Y341160D01*
X3493210Y355600D01*
X3492270D01*
G01X3538220Y127000D02*
X3429000D01*
X3403600Y152400D01*
G01X3353300Y404870D02*
Y329700D01*
G01X3365500Y1022200D02*
X3397100D01*
X3454400Y1079500D01*
Y1092200D01*
G01X3556250Y1500100D02*
Y1584750D01*
X3533000Y1608000D01*
G01X3378200Y1556870D02*
Y1460500D01*
G01Y1556870D02*
Y1562100D01*
G01X3664450Y297300D02*
Y400980D01*
G01X3759450Y548300D02*
Y457450D01*
G01X3657600Y903200D02*
Y825500D01*
G01X3651250Y1500100D02*
Y1574890D01*
X3695230Y1618870D01*
X3723590D01*
X3725500Y1619250D01*
X3752850D01*
G01X3949700Y803600D02*
Y876340D01*
X3975140Y901780D01*
G01X4033670Y1752600D02*
Y1658770D01*
X4025900Y1651000D01*
Y1631000D01*
M02*
