G04 ================== begin FILE IDENTIFICATION RECORD ==================*
G04 Layout Name:  Popcorn Popstick Rev1p1_Release.brd*
G04 Film Name:    VCC*
G04 File Format:  Gerber RS274X*
G04 File Origin:  Cadence Allegro 17.2-S053*
G04 Origin Date:  Thu Jun 30 17:26:53 2022*
G04 *
G04 Layer:  VIA CLASS/PWR*
G04 Layer:  PIN/PWR*
G04 Layer:  ETCH/PWR*
G04 Layer:  BOARD GEOMETRY/OUTLINE*
G04 *
G04 Offset:    (0.0000 0.0000)*
G04 Mirror:    No*
G04 Mode:      Positive*
G04 Rotation:  0*
G04 FullContactRelief:  No*
G04 UndefLineWidth:     0.1270*
G04 ================== end FILE IDENTIFICATION RECORD ====================*
%FSLAX55Y55*MOMM*%
%IR0*IPPOS*OFA0.00000B0.00000*MIA0B0*SFA1.00000B1.00000*%
%ADD10C,.6096*%
%ADD11C,.127*%
%ADD12C,.508*%
%ADD13C,1.0164*%
%ADD15C,1.0068*%
%ADD18C,1.1068*%
%ADD14C,1.3068*%
%ADD17C,1.4068*%
%ADD16C,1.9148*%
G75*
%LPD*%
G75*
G36*
G01X3407000Y1854200D02*
X4457700D01*
Y1615740D01*
X4221650D01*
G03X4201310Y1595400I0J-20340D01*
G01Y1464600D01*
G03X4221650Y1444260I20340J0D01*
G01X4457700D01*
Y455740D01*
X4221650D01*
G03X4201310Y435400I0J-20340D01*
G01Y304600D01*
G03X4221650Y284260I20340J0D01*
G01X4457700D01*
Y50800D01*
X3549120D01*
G02X3541940Y68140I3J10158D01*
G01X3560130Y86340D01*
X3898900D01*
G03X3927650Y98250I0J40655D01*
G01X4016550Y187150D01*
G03X4028460Y215900I-28745J28750D01*
G01Y635000D01*
G03X4016550Y663750I-40655J0D01*
G01X3939560Y740740D01*
Y846350D01*
G02X3953950Y855590I10160J2D01*
G03X3975140Y850960I21193J46189D01*
G03Y952600I0J50820D01*
G03X3955610Y948700I-6J-50821D01*
G02X3948640Y954140I-1947J4690D01*
G03X3949080Y960120I-40221J5966D01*
G01Y998210D01*
G03X3959240Y1028700I-40670J30490D01*
G03X3857600I-50820J0D01*
G03X3866840Y999490I50817J9D01*
G01X3867760Y998170D01*
Y976740D01*
G03X3858240Y950600I31128J-26140D01*
G01Y723900D01*
G03X3870150Y695150I40655J0D01*
G01X3947140Y618160D01*
Y232740D01*
X3882060Y167660D01*
X3543290D01*
G03X3514540Y155750I0J-40655D01*
G01X3480730Y121940D01*
X3461100D01*
G02X3451520Y135480I1J10160D01*
G03X3454420Y152400I-47910J16920D01*
G03X3352780I-50820J0D01*
G03X3355680Y135480I50810J0D01*
G02X3346100Y121940I-9581J-3380D01*
G01X2870270D01*
X2843590Y148620D01*
G02X2846400Y164970I7187J7181D01*
G03X2875300Y210820I-21921J45850D01*
G03X2824480Y261640I-50820J0D01*
G03X2774760Y221350I0J-50824D01*
G02X2764260Y213320I-9936J2112D01*
G03X2761990Y213380I-2209J-40602D01*
G01X2555260D01*
G02X2549360Y231810I1J10160D01*
G03X2570650Y273170I-29530J41360D01*
G03X2469010I-50820J0D01*
G03X2490300Y231810I50820J0D01*
G02X2484400Y213380I-5901J-8270D01*
G01X2452700D01*
G03X2449510Y213250I59J-40658D01*
G02X2444090Y219110I-400J5066D01*
G03X2444940Y230000I-69489J10902D01*
G03X2374600Y300340I-70340J0D01*
G03X2322730Y277520I-8J-70343D01*
G02X2308410Y276860I-7491J6859D01*
G03X2274220Y290080I-34190J-37602D01*
G03Y188440I0J-50820D01*
G03X2300950Y196040I0J50806D01*
G02X2314920Y192780I5349J-8640D01*
G03X2316220Y190770I59701J37187D01*
G02X2307790Y174940I-8432J-5669D01*
G01X1822540D01*
X1259860Y737620D01*
Y933260D01*
G03X1270020Y963750I-40670J30490D01*
G03X1168380I-50820J0D01*
G03X1178540Y933260I50830J0D01*
G01Y720780D01*
G03X1190450Y692030I40655J0D01*
G01X1566300Y316180D01*
G02X1561070Y299030I-7186J-7181D01*
G03X1504260Y230000I13534J-69030D01*
G03X1574600Y159660I70340J0D01*
G03X1643630Y216470I0J70344D01*
G02X1660780Y221700I9969J-1956D01*
G01X1776950Y105530D01*
G03X1805700Y93620I28750J28745D01*
G01X2019300D01*
Y50800D01*
X38100D01*
Y1247170D01*
G02X48680Y1257320I10158J0D01*
G03X50800Y1257280I2019J50782D01*
G03Y1358920I0J50820D01*
G03X43870Y1358450I-34J-50822D01*
G01X43530Y1358400D01*
X38100D01*
Y1372880D01*
X43710D01*
X44230Y1372770D01*
G03X54700Y1371680I10470J49740D01*
G03Y1473320I0J50820D01*
G03X49330Y1473040I-42J-50822D01*
G02X38100Y1483140I-1072J10101D01*
G01Y1659330D01*
G02X51880Y1668820I10158J-1D01*
G03X70010Y1665480I18120J47482D01*
G03Y1767120I0J50820D01*
G03X51880Y1763780I-10J-50822D01*
G02X38100Y1773270I-3622J9491D01*
G01Y1854200D01*
X359390D01*
G02X367220Y1837570I-1J-10159D01*
G03X355580Y1805200I39189J-32370D01*
G03X457220I50820J0D01*
G03X445580Y1837570I-50829J0D01*
G02X453410Y1854200I7831J6471D01*
G01X682400D01*
G02X691430Y1839390I-2J-10159D01*
G03X685780Y1816100I45177J-23290D01*
G03X787420I50820J0D01*
G03X781770Y1839390I-50827J0D01*
G02X790800Y1854200I9032J4651D01*
G01X1088200D01*
G02X1098110Y1841820I-4J-10160D01*
G03X1096470Y1827000I66200J-14827D01*
G01Y1711980D01*
G03X1232150I67840J5D01*
G01Y1827000D01*
G03X1230510Y1841820I-67840J-7D01*
G02X1240420Y1854200I9914J2220D01*
G01X1655180D01*
G02X1665090Y1841820I-4J-10160D01*
G03X1663450Y1827000I66200J-14827D01*
G01Y1727220D01*
X1562080D01*
Y941970D01*
X1727180Y776870D01*
Y609770D01*
X1741910Y595050D01*
X1740790Y592000D01*
G03X1737680Y574500I47709J-17505D01*
G03X1788500Y523680I50820J0D01*
G03X1806000Y526790I-5J50819D01*
G01X1809050Y527910D01*
X1822280Y514670D01*
G03X1815800Y489850I44337J-24831D01*
G03X1866620Y439030I50820J0D01*
G03X1889520Y444480I4J50821D01*
G01X2516770D01*
X2554870Y406380D01*
X2712790D01*
X2713720Y402470D01*
G03X2812620I49450J11694D01*
G01X2813550Y406380D01*
X3071230D01*
X3198230Y533380D01*
X3496530D01*
X3543320Y580170D01*
Y823330D01*
X3517920Y848730D01*
Y1356730D01*
X3458580Y1416070D01*
X3268080D01*
X3058530Y1625620D01*
X2758070D01*
X2656470Y1524020D01*
X2643770D01*
X2554870Y1435120D01*
X2135770D01*
X1955780Y1255130D01*
Y1119770D01*
X1996070Y1079480D01*
X2080630D01*
X2194930Y1193780D01*
X2882920D01*
Y1244580D01*
X2999370D01*
X3060680Y1183270D01*
Y1135540D01*
G02X3042950Y1128760I-10160J-3D01*
G03X3005100Y1145670I-37850J-33905D01*
G03Y1044030I0J-50820D01*
G03X3042950Y1060940I0J50815D01*
G02X3060680Y1054160I7570J-6777D01*
G01Y1018170D01*
X3070890Y1007960D01*
G02X3063700Y990620I-7187J-7180D01*
G01X3062870D01*
X2817160Y744910D01*
G02X2800960Y747390I-7191J7179D01*
G03X2755900Y774720I-45060J-23481D01*
G03X2705290Y728540I0J-50822D01*
G01X2704870Y723920D01*
X2622170D01*
G02X2612140Y735730I-4J10161D01*
G03X2612820Y744000I-50139J8286D01*
G03X2562000Y794820I-50820J0D01*
G03X2527000Y780850I0J-50829D01*
G02X2512970Y780880I-6999J7364D01*
G03X2477800Y795020I-35170J-36669D01*
G03X2426980Y744200I0J-50820D01*
G03X2427680Y735770I50822J-24D01*
G02X2417670Y723920I-10017J-1692D01*
G01X2406770D01*
Y729690D01*
X2406960Y730360D01*
G03X2408820Y744000I-48962J13623D01*
G03X2307180I-50820J0D01*
G03X2307860Y735730I50819J16D01*
G02X2297830Y723920I-10026J-1649D01*
G01X2095520D01*
Y836030D01*
X1765320Y1166230D01*
Y1361070D01*
X2191570Y1787320D01*
Y1854200D01*
X3298600D01*
G02X3307630Y1839390I-2J-10159D01*
G03X3301980Y1816100I45177J-23290D01*
G03X3403620I50820J0D01*
G03X3397970Y1839390I-50827J0D01*
G02X3407000Y1854200I9032J4651D01*
G37*
G36*
G01X1803400Y1866900D02*
X2166150D01*
Y1797850D01*
X1739900Y1371600D01*
Y1155700D01*
X2023400Y872200D01*
G02X2018010Y855020I-7186J-7181D01*
G03X1976180Y805000I8992J-50020D01*
G03X2027000Y754180I50820J0D01*
G03X2054450Y762230I0J50826D01*
G02X2070100Y753680I5491J-8548D01*
G01Y698500D01*
X2133470D01*
X2134410Y698110D01*
G03X2154000Y694180I19596J46889D01*
G03X2173590Y698110I-6J50819D01*
G01X2174530Y698500D01*
X2335360D01*
G03X2380640I22640J45514D01*
G01X2455570D01*
G03X2500030I22230J45699D01*
G01X2539360D01*
G03X2584640I22640J45514D01*
G01X2711880D01*
G03X2799920I44020J25405D01*
G01X2806700D01*
X3030700Y922500D01*
X3030960Y922700D01*
G03X3040500Y932300I-30957J40303D01*
G01X3073400Y965200D01*
X3111500D01*
X3200340Y876360D01*
X3200420Y874370D01*
G03X3251200Y825480I50780J1927D01*
G03X3252560Y825500I-67J50819D01*
G01X3344200D01*
G02X3351990Y808820I-2J-10160D01*
G03X3340130Y776190I38957J-32630D01*
G03X3360640Y735400I50816J0D01*
G02Y719080I-6055J-8160D01*
G03X3340130Y678290I30306J-40790D01*
G03X3441770I50820J0D01*
G03X3421260Y719080I-50816J0D01*
G02Y735400I6055J8160D01*
G03X3441770Y776190I-30306J40790D01*
G03X3429910Y808820I-50817J0D01*
G02X3437700Y825500I7792J6520D01*
G01X3505200D01*
X3517900Y812800D01*
Y590700D01*
X3486000Y558800D01*
X3187700D01*
X3060700Y431800D01*
X2810950D01*
X2809610Y434820D01*
G03X2716730I-46440J-20657D01*
G01X2715390Y431800D01*
X2565400D01*
X2527300Y469900D01*
X2513740D01*
G02X2505790Y486380I2J10158D01*
G03X2511060Y494490I-39787J31622D01*
G02X2523730Y499270I9008J-4695D01*
G03X2542060Y495850I18330J47411D01*
G03Y597490I0J50820D01*
G03X2497000Y570180I0J-50828D01*
G02X2484330Y565400I-9008J4695D01*
G03X2466000Y568820I-18330J-47411D01*
G03X2430460Y554320I5J-50818D01*
G02X2415720Y554880I-7105J7264D01*
G03X2377520Y572180I-38200J-33525D01*
G03X2335410Y549810I0J-50820D01*
G02X2322280Y546500I-8417J5690D01*
G03X2298700Y552300I-23580J-45032D01*
G03X2247880Y501480I0J-50820D01*
G03X2251120Y483630I50819J5D01*
G02X2241610Y469900I-9513J-3570D01*
G01X1926810D01*
G02X1916780Y481690I-2J10160D01*
G03X1917290Y485970I-50162J8148D01*
G02X1927920Y495340I10130J-778D01*
G03X1930400Y495280I2469J50760D01*
G03Y596920I0J50820D01*
G03X1879730Y549980I0J-50818D01*
G02X1869100Y540610I-10130J778D01*
G03X1866620Y540670I-2469J-50760D01*
G03X1843060Y534880I0J-50829D01*
G01X1839750Y533150D01*
X1829160Y543740D01*
X1831350Y547180D01*
G03X1839320Y574500I-42839J27320D01*
G03X1788500Y625320I-50820J0D01*
G03X1761180Y617350I0J-50809D01*
G01X1757740Y615160D01*
X1752600Y620300D01*
Y787400D01*
X1587500Y952500D01*
Y1520640D01*
G02X1606080Y1526330I10160J5D01*
G03X1647800Y1504160I41720J28170D01*
G03X1698140Y1554500I0J50340D01*
G03X1670770Y1599290I-50334J0D01*
G02X1665990Y1612160I4634J9044D01*
G03X1669740Y1631310I-47068J19159D01*
G03X1618920Y1682130I-50820J0D01*
G03X1601200Y1678940I0J-50811D01*
G02X1587500Y1688460I-3540J9523D01*
G01Y1701800D01*
X1664090D01*
X1664950Y1697780D01*
G03X1743200Y1645200I66337J14207D01*
G02X1754980Y1637000I1782J-10002D01*
G03X1805000Y1595180I50020J9004D01*
G03X1855820Y1646000I0J50820D01*
G03X1808430Y1696700I-50816J0D01*
G02X1798980Y1707510I690J10138D01*
G03X1799130Y1711980I-67689J4509D01*
G01Y1827000D01*
G03X1794000Y1852870I-67839J-9D01*
G02X1803400Y1866900I9394J3870D01*
G37*
G36*
G01X2768600Y1600200D02*
X3048000D01*
X3215300Y1432900D01*
X3215680Y1431760D01*
G03X3247860Y1399580I48220J16040D01*
G01X3249000Y1399200D01*
X3257550Y1390650D01*
X3448050D01*
X3492500Y1346200D01*
Y1146400D01*
G02X3477690Y1137370I-10159J2D01*
G03X3454400Y1143020I-23290J-45177D01*
G03Y1041380I0J-50820D01*
G03X3477690Y1047030I0J50827D01*
G02X3492500Y1038000I4651J-9032D01*
G01Y882660D01*
G02X3480780Y872620I-10160J0D01*
G03X3473000Y873220I-7786J-50220D01*
G03X3430940Y850920I0J-50815D01*
G01X3310250D01*
G02X3300410Y863620I-2J10161D01*
G03X3302020Y876300I-49209J12690D01*
G03X3251200Y927120I-50820J0D01*
G03X3215970Y912920I6J-50818D01*
G02X3201740Y913060I-7044J7324D01*
G01X3086100Y1028700D01*
Y1193800D01*
X3054910Y1224990D01*
X3054520Y1226010D01*
G03X3025010Y1255520I-47520J-18010D01*
G01X3023990Y1255910D01*
X3009900Y1270000D01*
X2857500D01*
Y1219200D01*
X2184400D01*
X2070100Y1104900D01*
X2006600D01*
X1981200Y1130300D01*
Y1244600D01*
X2146300Y1409700D01*
X2565400D01*
X2654300Y1498600D01*
X2667000D01*
X2768600Y1600200D01*
G37*
%LPC*%
G75*
G36*
G01X4046310Y1224600D02*
Y1375400D01*
G02X4066650Y1395740I20340J0D01*
G01X4217450D01*
G02X4237790Y1375400I0J-20340D01*
G01Y1224600D01*
G02X4217450Y1204260I-20340J0D01*
G01X4066650D01*
G02X4046310Y1224600I0J20340D01*
G37*
G36*
G01X1396880Y303180D02*
G03X1404070Y315840I-2565J9829D01*
G02X1402060Y330000I48811J14151D01*
G02X1503700I50820J0D01*
G02X1465700Y280820I-50825J0D01*
G03X1458510Y268160I2565J-9829D01*
G02X1460520Y254000I-48811J-14151D01*
G02X1358880I-50820J0D01*
G02X1396880Y303180I50825J0D01*
G37*
G36*
G01X2898000Y269490D02*
G03X2891650Y282180I-9677J3091D01*
G02X2857480Y330200I16657J48020D01*
G02X2959120I50820J0D01*
G02X2956700Y314710I-50819J5D01*
G03X2963050Y302020I9677J-3091D01*
G02X2997220Y254000I-16657J-48020D01*
G02X2895580I-50820J0D01*
G02X2898000Y269490I50819J-5D01*
G37*
G36*
G01X3457480Y303740D02*
G03Y318560I-6956J7410D01*
G02X3441450Y355600I34779J37040D01*
G02X3543090I50820J0D01*
G02X3527060Y318560I-50809J0D01*
G03Y303740I6956J-7410D01*
G02X3543090Y266700I-34779J-37040D01*
G02X3441450I-50820J0D01*
G02X3457480Y303740I50809J0D01*
G37*
G36*
G01X2254560Y1067020D02*
G03X2238880Y1069480I-8823J-5037D01*
G02X2204600Y1056180I-34280J37527D01*
G02Y1157820I0J50820D01*
G02X2248740Y1132180I0J-50814D01*
G03X2264420Y1129720I8823J5037D01*
G02X2298700Y1143020I34280J-37527D01*
G02Y1041380I0J-50820D01*
G02X2254560Y1067020I0J50814D01*
G37*
G36*
G01X3787050Y1735560D02*
G03X3786610Y1742220I-4043J3077D01*
G02X3771880Y1778000I36091J35780D01*
G02X3873520I50820J0D01*
G02X3863150Y1747240I-50806J0D01*
G03X3863590Y1740580I4043J-3077D01*
G02X3878320Y1704800I-36091J-35780D01*
G02X3776680I-50820J0D01*
G02X3787050Y1735560I50806J0D01*
G37*
G36*
G01X3708880Y452390D02*
G02X3708630Y457450I50571J5035D01*
G02X3759450Y508270I50820J0D01*
G02X3796490Y492250I0J-50830D01*
G03X3811260Y492210I7404J6955D01*
G02X3848100Y508020I36840J-35017D01*
G02Y406380I0J-50820D01*
G02X3811060Y422400I0J50830D01*
G03X3796290Y422440I-7404J-6955D01*
G02X3759450Y406630I-36840J35017D01*
G02X3730850Y415440I0J50827D01*
G03X3715020Y406040I-5722J-8394D01*
G02X3715270Y400980I-50571J-5035D01*
G02X3664450Y451800I-50820J0D01*
G02X3693050Y442990I0J-50827D01*
G03X3708880Y452390I5722J8394D01*
G37*
G36*
G01X4110540Y959590D02*
G02X4046310Y1050000I31515J90410D01*
G02X4237790I95740J0D01*
G02X4173560Y959590I-95745J0D01*
G03Y940410I3343J-9590D01*
G02X4237790Y850000I-31515J-90410D01*
G02X4046310I-95740J0D01*
G02X4110540Y940410I95745J0D01*
G03Y959590I-3343J9590D01*
G37*
G36*
G01X543870Y1229240D02*
G02X501500Y1206480I-42370J28058D01*
G02Y1308120I0J50820D01*
G02X549220Y1274780I0J-50821D01*
G03X567230Y1272660I9541J3492D01*
G02X609600Y1295420I42370J-28058D01*
G02Y1193780I0J-50820D01*
G02X561880Y1227120I0J50821D01*
G03X543870Y1229240I-9541J-3492D01*
G37*
G36*
G01X3993940Y1591490D02*
G02X3975080Y1631000I31955J39510D01*
G02X4076720I50820J0D01*
G02X4036690Y1581340I-50818J0D01*
G03X4032460Y1563510I2158J-9929D01*
G02X4051320Y1524000I-31955J-39510D01*
G02X4000500Y1473180I-50820J0D01*
G02X3968750Y1484320I0J50815D01*
G02X3937000Y1473180I-31750J39675D01*
G02Y1574820I0J50820D01*
G02X3968750Y1563680I0J-50815D01*
G02X3989710Y1573660I31750J-39681D01*
G03X3993940Y1591490I-2158J9929D01*
G37*
G36*
G01X2827930Y551300D02*
G02X2781300Y520680I-46630J20196D01*
G02Y622320I0J50820D01*
G02X2821740Y602280I0J-50823D01*
G03X2839150Y604400I8085J6153D01*
G02X2885780Y635020I46630J-20196D01*
G02X2934440Y598870I0J-50825D01*
G03X2947800Y592320I9725J2936D01*
G02X2966000Y595690I18200J-47460D01*
G02Y494050I0J-50820D01*
G02X2917340Y530200I0J50825D01*
G03X2903980Y536750I-9725J-2936D01*
G02X2885780Y533380I-18200J47460D01*
G02X2845340Y553420I0J50823D01*
G03X2827930Y551300I-8085J-6153D01*
G37*
G36*
G01X3016460Y1385760D02*
G02X2997480Y1382080I-18986J47139D01*
G02X3048300Y1432900I0J50820D01*
G02X3045500Y1416260I-50821J-4D01*
G03X3058890Y1403500I9597J-3334D01*
G02X3077870Y1407180I18986J-47139D01*
G02X3128690Y1356360I0J-50820D01*
G02X3127340Y1344740I-50818J16D01*
G03X3139290Y1332460I9892J-2329D01*
G02X3149600Y1333520I10325J-49758D01*
G02X3195360Y1304800I0J-50815D01*
G03X3212290Y1302690I9148J4423D01*
G02X3251200Y1320820I38910J-32689D01*
G02Y1219180I0J-50820D01*
G02X3205440Y1247900I0J50815D01*
G03X3188510Y1250010I-9148J-4423D01*
G02X3149600Y1231880I-38910J32689D01*
G02X3098780Y1282700I0J50820D01*
G02X3100130Y1294320I50818J-16D01*
G03X3088180Y1306600I-9892J2329D01*
G02X3077870Y1305540I-10325J49758D01*
G02X3027050Y1356360I0J50820D01*
G02X3029850Y1373000I50821J4D01*
G03X3016460Y1385760I-9597J3334D01*
G37*
G54D13*
X3073900Y330700D03*
X3657600Y825500D03*
X980040Y1242370D03*
X2797980Y944730D03*
X3213600Y330700D03*
X3353300Y329700D03*
X3533000Y1608000D03*
X1689860Y411630D03*
X1474000Y999200D03*
X2600000Y1100000D03*
X2449000Y1070000D03*
X2450000Y950000D03*
X2600000D03*
X2300000D03*
X1041400Y977900D03*
X3752850Y1619250D03*
X812800Y711200D03*
X2978950Y1765300D03*
X736600Y1441870D03*
X355600Y1140500D03*
X662000Y790000D03*
X923270Y152400D03*
X223450Y584200D03*
X361000Y709000D03*
X671680Y570080D03*
X1483000Y1152000D03*
X2539000Y1786000D03*
X3238500Y1784860D03*
X1257300Y1371600D03*
X1370080Y1054100D03*
X571500Y939800D03*
X243400Y258680D03*
X543400D03*
X660400Y1676400D03*
X723900Y1231900D03*
X1834000Y688000D03*
X2828000Y1517000D03*
G54D15*
X1247800Y1554500D03*
G54D18*
X107950Y1204000D03*
Y696000D03*
Y823000D03*
Y1077000D03*
Y950000D03*
G54D14*
X318400Y360500D03*
X618400D03*
G54D17*
X4357050Y1175000D03*
Y725000D03*
G54D16*
X4142050Y600000D03*
%LPD*%
G75*
G54D10*
X247500Y1263800D03*
X787400Y1035560D03*
X850900Y825500D03*
X828930Y1297870D03*
X1041400Y1828800D03*
X1308100Y165100D03*
Y254000D03*
X1219200Y963750D03*
X1556870Y496060D03*
X1485900Y774700D03*
X1788270Y1056530D03*
X2019300Y1143000D03*
X2019000Y1391000D03*
X2110000Y1820470D03*
X2154000Y745000D03*
X2243000Y1531000D03*
X2542000Y1538000D03*
X2781300Y292100D03*
X2805600Y818030D03*
X2813580Y1760780D03*
X2863850Y1797050D03*
X3000000Y963000D03*
X3102000Y923000D03*
X3007000Y1208000D03*
X3066880Y1262970D03*
X2983710Y1674500D03*
X3263900Y1447800D03*
X3485700Y625400D03*
X3368380Y929670D03*
X3473000Y822400D03*
X3378200Y1460500D03*
X3908420Y1028700D03*
X3856750Y1549400D03*
G54D11*
G01X0Y0D02*
X4500000D01*
Y1900000D01*
X0D01*
Y0D01*
G01X708020Y2425700D02*
X787400Y2171700D01*
X866780Y2425700D01*
G01X1111250Y2404530D02*
X1092200Y2417240D01*
X1069980Y2425700D01*
X1044580D01*
X1016000Y2412990D01*
X993780Y2391830D01*
X977900Y2366430D01*
X965200Y2324100D01*
X962020Y2286000D01*
X968380Y2247900D01*
X977900Y2222500D01*
X996950Y2197090D01*
X1019180Y2180160D01*
X1041400Y2171700D01*
X1063620D01*
X1085850Y2180160D01*
X1104900Y2192860D01*
X1120780Y2209790D01*
G01X1365250Y2404530D02*
X1346200Y2417240D01*
X1323980Y2425700D01*
X1298580D01*
X1270000Y2412990D01*
X1247780Y2391830D01*
X1231900Y2366430D01*
X1219200Y2324100D01*
X1216020Y2286000D01*
X1222380Y2247900D01*
X1231900Y2222500D01*
X1250950Y2197090D01*
X1273180Y2180160D01*
X1295400Y2171700D01*
X1317620D01*
X1339850Y2180160D01*
X1358900Y2192860D01*
X1374780Y2209790D01*
G01X1739900Y2425700D02*
Y2171700D01*
X1866900D01*
G01X1978020D02*
X2057400Y2425700D01*
X2136780Y2171700D01*
G01X2108200Y2260600D02*
X2006600D01*
G01X2311400Y2171700D02*
Y2286000D01*
X2247900Y2425700D01*
G01X2374900D02*
X2311400Y2286000D01*
G01X2628900Y2171700D02*
X2501900D01*
Y2425700D01*
X2628900D01*
G01X2578100Y2302940D02*
X2501900D01*
G01X2755900Y2171700D02*
Y2425700D01*
X2835270D01*
X2860670Y2412990D01*
X2876550Y2396070D01*
X2882900Y2362200D01*
X2876550Y2328330D01*
X2857500Y2307170D01*
X2835270Y2294460D01*
X2755900D01*
G01X2835270D02*
X2882900Y2171700D01*
G54D12*
G01X3908420Y1028700D02*
Y960120D01*
X3898900Y950600D01*
Y723900D01*
X3987800Y635000D01*
Y215900D01*
X3898900Y127000D01*
X3543290D01*
X3497570Y81280D01*
X2853430D01*
X2761990Y172720D01*
X2452700D01*
X2414260Y134280D01*
X1805700D01*
X1219200Y720780D01*
Y963750D01*
G01X3784600Y204640D02*
Y204620D01*
M02*
