G04 ================== begin FILE IDENTIFICATION RECORD ==================*
G04 Layout Name:  Popcorn Popstick Rev1p1_Release.brd*
G04 Film Name:    FAB*
G04 File Format:  Gerber RS274X*
G04 File Origin:  Cadence Allegro 17.2-S053*
G04 Origin Date:  Thu Jun 30 17:26:54 2022*
G04 *
G04 Layer:  MANUFACTURING/NCDRILL_LEGEND*
G04 Layer:  MANUFACTURING/NCDRILL_FIGURE*
G04 Layer:  MANUFACTURING/XSECTION_CHART*
G04 Layer:  MANUFACTURING/FAB SPEC*
G04 Layer:  MANUFACTURING/NCLEGEND-1-4*
G04 Layer:  DRAWING FORMAT/OUTLINE*
G04 Layer:  DRAWING FORMAT/TITLE_BLOCK*
G04 Layer:  DRAWING FORMAT/TITLE_DATA*
G04 Layer:  DRAWING FORMAT/REVISION_BLOCK*
G04 Layer:  DRAWING FORMAT/REVISION_DATA*
G04 Layer:  BOARD GEOMETRY/OUTLINE*
G04 Layer:  BOARD GEOMETRY/DIMENSION*
G04 Layer:  BOARD GEOMETRY/NCROUTE_PATH*
G04 *
G04 Offset:    (0.0000 0.0000)*
G04 Mirror:    No*
G04 Mode:      Positive*
G04 Rotation:  0*
G04 FullContactRelief:  No*
G04 UndefLineWidth:     0.1270*
G04 ================== end FILE IDENTIFICATION RECORD ====================*
%FSLAX55Y55*MOMM*%
%IR0*IPPOS*OFA0.00000B0.00000*MIA0B0*SFA1.00000B1.00000*%
%AMMACRO14*
1,1,.127,-.075,.22495*
20,1,.127,-.075,.22495,.075,.22495,0.0*
1,1,.127,.075,.22495*
20,1,.127,.075,.22495,.114062,.221533,0.0*
1,1,.127,.114062,.221533*
20,1,.127,.114062,.221533,.151937,.211384,0.0*
1,1,.127,.151937,.211384*
20,1,.127,.151937,.211384,.187475,.194812,0.0*
1,1,.127,.187475,.194812*
20,1,.127,.187475,.194812,.219595,.172322,0.0*
1,1,.127,.219595,.172322*
20,1,.127,.219595,.172322,.247322,.144595,0.0*
1,1,.127,.247322,.144595*
20,1,.127,.247322,.144595,.269812,.112475,0.0*
1,1,.127,.269812,.112475*
20,1,.127,.269812,.112475,.286384,.076937,0.0*
1,1,.127,.286384,.076937*
20,1,.127,.286384,.076937,.296533,.039062,0.0*
1,1,.127,.296533,.039062*
20,1,.127,.296533,.039062,.29995,0.0,0.0*
1,1,.127,.29995,0.0*
20,1,.127,.29995,0.0,.296533,-.039062,0.0*
1,1,.127,.296533,-.039062*
20,1,.127,.296533,-.039062,.286384,-.076937,0.0*
1,1,.127,.286384,-.076937*
20,1,.127,.286384,-.076937,.269812,-.112475,0.0*
1,1,.127,.269812,-.112475*
20,1,.127,.269812,-.112475,.247322,-.144595,0.0*
1,1,.127,.247322,-.144595*
20,1,.127,.247322,-.144595,.219595,-.172322,0.0*
1,1,.127,.219595,-.172322*
20,1,.127,.219595,-.172322,.187475,-.194812,0.0*
1,1,.127,.187475,-.194812*
20,1,.127,.187475,-.194812,.151937,-.211384,0.0*
1,1,.127,.151937,-.211384*
20,1,.127,.151937,-.211384,.114062,-.221533,0.0*
1,1,.127,.114062,-.221533*
20,1,.127,.114062,-.221533,.075,-.22495,0.0*
1,1,.127,.075,-.22495*
20,1,.127,.075,-.22495,-.075,-.22495,0.0*
1,1,.127,-.075,-.22495*
20,1,.127,-.075,-.22495,-.114062,-.221533,0.0*
1,1,.127,-.114062,-.221533*
20,1,.127,-.114062,-.221533,-.151937,-.211384,0.0*
1,1,.127,-.151937,-.211384*
20,1,.127,-.151937,-.211384,-.187475,-.194812,0.0*
1,1,.127,-.187475,-.194812*
20,1,.127,-.187475,-.194812,-.219595,-.172322,0.0*
1,1,.127,-.219595,-.172322*
20,1,.127,-.219595,-.172322,-.247322,-.144595,0.0*
1,1,.127,-.247322,-.144595*
20,1,.127,-.247322,-.144595,-.269812,-.112475,0.0*
1,1,.127,-.269812,-.112475*
20,1,.127,-.269812,-.112475,-.286384,-.076937,0.0*
1,1,.127,-.286384,-.076937*
20,1,.127,-.286384,-.076937,-.296533,-.039062,0.0*
1,1,.127,-.296533,-.039062*
20,1,.127,-.296533,-.039062,-.29995,0.0,0.0*
1,1,.127,-.29995,0.0*
20,1,.127,-.29995,0.0,-.296533,.039062,0.0*
1,1,.127,-.296533,.039062*
20,1,.127,-.296533,.039062,-.286384,.076937,0.0*
1,1,.127,-.286384,.076937*
20,1,.127,-.286384,.076937,-.269812,.112475,0.0*
1,1,.127,-.269812,.112475*
20,1,.127,-.269812,.112475,-.247322,.144595,0.0*
1,1,.127,-.247322,.144595*
20,1,.127,-.247322,.144595,-.219595,.172322,0.0*
1,1,.127,-.219595,.172322*
20,1,.127,-.219595,.172322,-.187475,.194812,0.0*
1,1,.127,-.187475,.194812*
20,1,.127,-.187475,.194812,-.151937,.211384,0.0*
1,1,.127,-.151937,.211384*
20,1,.127,-.151937,.211384,-.114062,.221533,0.0*
1,1,.127,-.114062,.221533*
20,1,.127,-.114062,.221533,-.075,.22495,0.0*
1,1,.127,-.075,.22495*
%
%ADD14MACRO14*%
%AMMACRO17*
1,1,.127,-1.1,.4*
20,1,.127,-1.1,.4,1.1,.4,0.0*
1,1,.127,1.1,.4*
20,1,.127,1.1,.4,1.1,-.4,0.0*
1,1,.127,1.1,-.4*
20,1,.127,1.1,-.4,-1.1,-.4,0.0*
1,1,.127,-1.1,-.4*
20,1,.127,-1.1,-.4,-1.1,.4,0.0*
1,1,.127,-1.1,.4*
1,1,.127,0.0,-.2*
20,1,.127,0.0,-.2,0.0,-.02,0.0*
1,1,.127,0.0,-.02*
20,1,.127,0.0,-.02,-.1333,.2,0.0*
1,1,.127,-.1333,.2*
1,1,.127,.1333,.2*
20,1,.127,.1333,.2,0.0,-.02,0.0*
1,1,.127,0.0,-.02*
%
%ADD17MACRO17*%
%AMMACRO19*
1,1,.127,1.1,.4*
20,1,.127,1.1,.4,1.1,-.4,0.0*
1,1,.127,1.1,-.4*
20,1,.127,1.1,-.4,-1.1,-.4,0.0*
1,1,.127,-1.1,-.4*
20,1,.127,-1.1,-.4,-1.1,.4,0.0*
1,1,.127,-1.1,.4*
20,1,.127,-1.1,.4,1.1,.4,0.0*
1,1,.127,1.1,.4*
1,1,.127,0.0,-.2*
20,1,.127,0.0,-.2,0.0,-.02,0.0*
1,1,.127,0.0,-.02*
20,1,.127,0.0,-.02,-.1333,.2,0.0*
1,1,.127,-.1333,.2*
1,1,.127,.1333,.2*
20,1,.127,.1333,.2,0.0,-.02,0.0*
1,1,.127,0.0,-.02*
%
%ADD19MACRO19*%
%AMMACRO11*
1,1,.127,.635,0.0*
20,1,.127,.635,0.0,.625353,-.110267,0.0*
1,1,.127,.625353,-.110267*
20,1,.127,.625353,-.110267,.596705,-.217183,0.0*
1,1,.127,.596705,-.217183*
20,1,.127,.596705,-.217183,.549926,-.3175,0.0*
1,1,.127,.549926,-.3175*
20,1,.127,.549926,-.3175,.486438,-.40817,0.0*
1,1,.127,.486438,-.40817*
20,1,.127,.486438,-.40817,.40817,-.486438,0.0*
1,1,.127,.40817,-.486438*
20,1,.127,.40817,-.486438,.3175,-.549926,0.0*
1,1,.127,.3175,-.549926*
20,1,.127,.3175,-.549926,.217183,-.596705,0.0*
1,1,.127,.217183,-.596705*
20,1,.127,.217183,-.596705,.110267,-.625353,0.0*
1,1,.127,.110267,-.625353*
20,1,.127,.110267,-.625353,0.0,-.635,0.0*
1,1,.127,0.0,-.635*
20,1,.127,0.0,-.635,-.110267,-.625353,0.0*
1,1,.127,-.110267,-.625353*
20,1,.127,-.110267,-.625353,-.217183,-.596705,0.0*
1,1,.127,-.217183,-.596705*
20,1,.127,-.217183,-.596705,-.3175,-.549926,0.0*
1,1,.127,-.3175,-.549926*
20,1,.127,-.3175,-.549926,-.40817,-.486438,0.0*
1,1,.127,-.40817,-.486438*
20,1,.127,-.40817,-.486438,-.486438,-.40817,0.0*
1,1,.127,-.486438,-.40817*
20,1,.127,-.486438,-.40817,-.549926,-.3175,0.0*
1,1,.127,-.549926,-.3175*
20,1,.127,-.549926,-.3175,-.596705,-.217183,0.0*
1,1,.127,-.596705,-.217183*
20,1,.127,-.596705,-.217183,-.625353,-.110267,0.0*
1,1,.127,-.625353,-.110267*
20,1,.127,-.625353,-.110267,-.635,0.0,0.0*
1,1,.127,-.635,0.0*
20,1,.127,-.635,0.0,-.625353,.110267,0.0*
1,1,.127,-.625353,.110267*
20,1,.127,-.625353,.110267,-.596705,.217183,0.0*
1,1,.127,-.596705,.217183*
20,1,.127,-.596705,.217183,-.549926,.3175,0.0*
1,1,.127,-.549926,.3175*
20,1,.127,-.549926,.3175,-.486438,.40817,0.0*
1,1,.127,-.486438,.40817*
20,1,.127,-.486438,.40817,-.40817,.486438,0.0*
1,1,.127,-.40817,.486438*
20,1,.127,-.40817,.486438,-.3175,.549926,0.0*
1,1,.127,-.3175,.549926*
20,1,.127,-.3175,.549926,-.217183,.596705,0.0*
1,1,.127,-.217183,.596705*
20,1,.127,-.217183,.596705,-.110267,.625353,0.0*
1,1,.127,-.110267,.625353*
20,1,.127,-.110267,.625353,0.0,.635,0.0*
1,1,.127,0.0,.635*
20,1,.127,0.0,.635,.110267,.625353,0.0*
1,1,.127,.110267,.625353*
20,1,.127,.110267,.625353,.217183,.596705,0.0*
1,1,.127,.217183,.596705*
20,1,.127,.217183,.596705,.3175,.549926,0.0*
1,1,.127,.3175,.549926*
20,1,.127,.3175,.549926,.40817,.486438,0.0*
1,1,.127,.40817,.486438*
20,1,.127,.40817,.486438,.486438,.40817,0.0*
1,1,.127,.486438,.40817*
20,1,.127,.486438,.40817,.549926,.3175,0.0*
1,1,.127,.549926,.3175*
20,1,.127,.549926,.3175,.596705,.217183,0.0*
1,1,.127,.596705,.217183*
20,1,.127,.596705,.217183,.625353,.110267,0.0*
1,1,.127,.625353,.110267*
20,1,.127,.625353,.110267,.635,0.0,0.0*
1,1,.127,.635,0.0*
1,1,.127,.3175,0.0*
20,1,.127,.3175,0.0,-.3175,0.0,0.0*
1,1,.127,-.3175,0.0*
1,1,.127,0.0,.3175*
20,1,.127,0.0,.3175,0.0,-.3175,0.0*
1,1,.127,0.0,-.3175*
%
%ADD11MACRO11*%
%AMMACRO13*
1,1,.127,-.225,-.5499*
20,1,.127,-.225,-.5499,-.225,.5499,0.0*
1,1,.127,-.225,.5499*
20,1,.127,-.225,.5499,-.221631,.58898,0.0*
1,1,.127,-.221631,.58898*
20,1,.127,-.221631,.58898,-.211478,.626872,0.0*
1,1,.127,-.211478,.626872*
20,1,.127,-.211478,.626872,-.194899,.662425,0.0*
1,1,.127,-.194899,.662425*
20,1,.127,-.194899,.662425,-.172398,.694559,0.0*
1,1,.127,-.172398,.694559*
20,1,.127,-.172398,.694559,-.144659,.722298,0.0*
1,1,.127,-.144659,.722298*
20,1,.127,-.144659,.722298,-.112525,.744799,0.0*
1,1,.127,-.112525,.744799*
20,1,.127,-.112525,.744799,-.076972,.761378,0.0*
1,1,.127,-.076972,.761378*
20,1,.127,-.076972,.761378,-.03908,.771531,0.0*
1,1,.127,-.03908,.771531*
20,1,.127,-.03908,.771531,0.0,.77495,0.0*
1,1,.127,0.0,.77495*
20,1,.127,0.0,.77495,.03908,.771531,0.0*
1,1,.127,.03908,.771531*
20,1,.127,.03908,.771531,.076972,.761378,0.0*
1,1,.127,.076972,.761378*
20,1,.127,.076972,.761378,.112525,.744799,0.0*
1,1,.127,.112525,.744799*
20,1,.127,.112525,.744799,.144659,.722298,0.0*
1,1,.127,.144659,.722298*
20,1,.127,.144659,.722298,.172398,.694559,0.0*
1,1,.127,.172398,.694559*
20,1,.127,.172398,.694559,.194899,.662425,0.0*
1,1,.127,.194899,.662425*
20,1,.127,.194899,.662425,.211478,.626872,0.0*
1,1,.127,.211478,.626872*
20,1,.127,.211478,.626872,.221631,.58898,0.0*
1,1,.127,.221631,.58898*
20,1,.127,.221631,.58898,.225,.5499,0.0*
1,1,.127,.225,.5499*
20,1,.127,.225,.5499,.225,-.5499,0.0*
1,1,.127,.225,-.5499*
20,1,.127,.225,-.5499,.221631,-.58898,0.0*
1,1,.127,.221631,-.58898*
20,1,.127,.221631,-.58898,.211478,-.626872,0.0*
1,1,.127,.211478,-.626872*
20,1,.127,.211478,-.626872,.194899,-.662425,0.0*
1,1,.127,.194899,-.662425*
20,1,.127,.194899,-.662425,.172398,-.694559,0.0*
1,1,.127,.172398,-.694559*
20,1,.127,.172398,-.694559,.144659,-.722298,0.0*
1,1,.127,.144659,-.722298*
20,1,.127,.144659,-.722298,.112525,-.744799,0.0*
1,1,.127,.112525,-.744799*
20,1,.127,.112525,-.744799,.076972,-.761378,0.0*
1,1,.127,.076972,-.761378*
20,1,.127,.076972,-.761378,.03908,-.771531,0.0*
1,1,.127,.03908,-.771531*
20,1,.127,.03908,-.771531,0.0,-.77495,0.0*
1,1,.127,0.0,-.77495*
20,1,.127,0.0,-.77495,-.03908,-.771531,0.0*
1,1,.127,-.03908,-.771531*
20,1,.127,-.03908,-.771531,-.076972,-.761378,0.0*
1,1,.127,-.076972,-.761378*
20,1,.127,-.076972,-.761378,-.112525,-.744799,0.0*
1,1,.127,-.112525,-.744799*
20,1,.127,-.112525,-.744799,-.144659,-.722298,0.0*
1,1,.127,-.144659,-.722298*
20,1,.127,-.144659,-.722298,-.172398,-.694559,0.0*
1,1,.127,-.172398,-.694559*
20,1,.127,-.172398,-.694559,-.194899,-.662425,0.0*
1,1,.127,-.194899,-.662425*
20,1,.127,-.194899,-.662425,-.211478,-.626872,0.0*
1,1,.127,-.211478,-.626872*
20,1,.127,-.211478,-.626872,-.221631,-.58898,0.0*
1,1,.127,-.221631,-.58898*
20,1,.127,-.221631,-.58898,-.225,-.5499,0.0*
1,1,.127,-.225,-.5499*
1,1,.127,-.1125,-.1125*
20,1,.127,-.1125,-.1125,-.1425,-.1088,0.0*
1,1,.127,-.1425,-.1088*
20,1,.127,-.1425,-.1088,-.1687,-.0938,0.0*
1,1,.127,-.1687,-.0938*
20,1,.127,-.1687,-.0938,-.1913,-.0713,0.0*
1,1,.127,-.1913,-.0713*
20,1,.127,-.1913,-.0713,-.2063,-.045,0.0*
1,1,.127,-.2063,-.045*
20,1,.127,-.2063,-.045,-.2138,-.015,0.0*
1,1,.127,-.2138,-.015*
20,1,.127,-.2138,-.015,-.2138,.015,0.0*
1,1,.127,-.2138,.015*
20,1,.127,-.2138,.015,-.2063,.045,0.0*
1,1,.127,-.2063,.045*
20,1,.127,-.2063,.045,-.1913,.0713,0.0*
1,1,.127,-.1913,.0713*
20,1,.127,-.1913,.0713,-.1687,.0937,0.0*
1,1,.127,-.1687,.0937*
20,1,.127,-.1687,.0937,-.1425,.1088,0.0*
1,1,.127,-.1425,.1088*
20,1,.127,-.1425,.1088,-.1125,.1125,0.0*
1,1,.127,-.1125,.1125*
20,1,.127,-.1125,.1125,-.0825,.1088,0.0*
1,1,.127,-.0825,.1088*
20,1,.127,-.0825,.1088,-.0563,.0937,0.0*
1,1,.127,-.0563,.0937*
20,1,.127,-.0563,.0937,-.0337,.0713,0.0*
1,1,.127,-.0337,.0713*
20,1,.127,-.0337,.0713,-.0187,.045,0.0*
1,1,.127,-.0187,.045*
20,1,.127,-.0187,.045,-.0112,.015,0.0*
1,1,.127,-.0112,.015*
20,1,.127,-.0112,.015,-.0112,-.015,0.0*
1,1,.127,-.0112,-.015*
20,1,.127,-.0112,-.015,-.0187,-.045,0.0*
1,1,.127,-.0187,-.045*
20,1,.127,-.0187,-.045,-.0337,-.0713,0.0*
1,1,.127,-.0337,-.0713*
20,1,.127,-.0337,-.0713,-.0563,-.0938,0.0*
1,1,.127,-.0563,-.0938*
20,1,.127,-.0563,-.0938,-.0825,-.1088,0.0*
1,1,.127,-.0825,-.1088*
20,1,.127,-.0825,-.1088,-.1125,-.1125,0.0*
1,1,.127,-.1125,-.1125*
1,1,.127,.0188,-.1125*
20,1,.127,.0188,-.1125,.1126,.1125,0.0*
1,1,.127,.1126,.1125*
20,1,.127,.1126,.1125,.2064,-.1125,0.0*
1,1,.127,.2064,-.1125*
1,1,.127,.1726,-.0338*
20,1,.127,.1726,-.0338,.0526,-.0338,0.0*
1,1,.127,.0526,-.0338*
%
%ADD13MACRO13*%
%AMMACRO10*
1,1,.127,.22,0.0*
20,1,.127,.22,0.0,.216658,-.038203,0.0*
1,1,.127,.216658,-.038203*
20,1,.127,.216658,-.038203,.206732,-.075244,0.0*
1,1,.127,.206732,-.075244*
20,1,.127,.206732,-.075244,.190526,-.11,0.0*
1,1,.127,.190526,-.11*
20,1,.127,.190526,-.11,.16853,-.141413,0.0*
1,1,.127,.16853,-.141413*
20,1,.127,.16853,-.141413,.141413,-.16853,0.0*
1,1,.127,.141413,-.16853*
20,1,.127,.141413,-.16853,.11,-.190526,0.0*
1,1,.127,.11,-.190526*
20,1,.127,.11,-.190526,.075244,-.206732,0.0*
1,1,.127,.075244,-.206732*
20,1,.127,.075244,-.206732,.038203,-.216658,0.0*
1,1,.127,.038203,-.216658*
20,1,.127,.038203,-.216658,0.0,-.22,0.0*
1,1,.127,0.0,-.22*
20,1,.127,0.0,-.22,-.038203,-.216658,0.0*
1,1,.127,-.038203,-.216658*
20,1,.127,-.038203,-.216658,-.075244,-.206732,0.0*
1,1,.127,-.075244,-.206732*
20,1,.127,-.075244,-.206732,-.11,-.190526,0.0*
1,1,.127,-.11,-.190526*
20,1,.127,-.11,-.190526,-.141413,-.16853,0.0*
1,1,.127,-.141413,-.16853*
20,1,.127,-.141413,-.16853,-.16853,-.141413,0.0*
1,1,.127,-.16853,-.141413*
20,1,.127,-.16853,-.141413,-.190526,-.11,0.0*
1,1,.127,-.190526,-.11*
20,1,.127,-.190526,-.11,-.206732,-.075244,0.0*
1,1,.127,-.206732,-.075244*
20,1,.127,-.206732,-.075244,-.216658,-.038203,0.0*
1,1,.127,-.216658,-.038203*
20,1,.127,-.216658,-.038203,-.22,0.0,0.0*
1,1,.127,-.22,0.0*
20,1,.127,-.22,0.0,-.216658,.038203,0.0*
1,1,.127,-.216658,.038203*
20,1,.127,-.216658,.038203,-.206732,.075244,0.0*
1,1,.127,-.206732,.075244*
20,1,.127,-.206732,.075244,-.190526,.11,0.0*
1,1,.127,-.190526,.11*
20,1,.127,-.190526,.11,-.16853,.141413,0.0*
1,1,.127,-.16853,.141413*
20,1,.127,-.16853,.141413,-.141413,.16853,0.0*
1,1,.127,-.141413,.16853*
20,1,.127,-.141413,.16853,-.11,.190526,0.0*
1,1,.127,-.11,.190526*
20,1,.127,-.11,.190526,-.075244,.206732,0.0*
1,1,.127,-.075244,.206732*
20,1,.127,-.075244,.206732,-.038203,.216658,0.0*
1,1,.127,-.038203,.216658*
20,1,.127,-.038203,.216658,0.0,.22,0.0*
1,1,.127,0.0,.22*
20,1,.127,0.0,.22,.038203,.216658,0.0*
1,1,.127,.038203,.216658*
20,1,.127,.038203,.216658,.075244,.206732,0.0*
1,1,.127,.075244,.206732*
20,1,.127,.075244,.206732,.11,.190526,0.0*
1,1,.127,.11,.190526*
20,1,.127,.11,.190526,.141413,.16853,0.0*
1,1,.127,.141413,.16853*
20,1,.127,.141413,.16853,.16853,.141413,0.0*
1,1,.127,.16853,.141413*
20,1,.127,.16853,.141413,.190526,.11,0.0*
1,1,.127,.190526,.11*
20,1,.127,.190526,.11,.206732,.075244,0.0*
1,1,.127,.206732,.075244*
20,1,.127,.206732,.075244,.216658,.038203,0.0*
1,1,.127,.216658,.038203*
20,1,.127,.216658,.038203,.22,0.0,0.0*
1,1,.127,.22,0.0*
1,1,.127,-.0917,-.11*
20,1,.127,-.0917,-.11,0.0,.11,0.0*
1,1,.127,0.0,.11*
20,1,.127,0.0,.11,.0917,-.11,0.0*
1,1,.127,.0917,-.11*
1,1,.127,.0587,-.033*
20,1,.127,.0587,-.033,-.0587,-.033,0.0*
1,1,.127,-.0587,-.033*
%
%ADD10MACRO10*%
%AMMACRO18*
1,1,.127,.22,0.0*
20,1,.127,.22,0.0,.216658,-.038203,0.0*
1,1,.127,.216658,-.038203*
20,1,.127,.216658,-.038203,.206732,-.075244,0.0*
1,1,.127,.206732,-.075244*
20,1,.127,.206732,-.075244,.190526,-.11,0.0*
1,1,.127,.190526,-.11*
20,1,.127,.190526,-.11,.16853,-.141413,0.0*
1,1,.127,.16853,-.141413*
20,1,.127,.16853,-.141413,.141413,-.16853,0.0*
1,1,.127,.141413,-.16853*
20,1,.127,.141413,-.16853,.11,-.190526,0.0*
1,1,.127,.11,-.190526*
20,1,.127,.11,-.190526,.075244,-.206732,0.0*
1,1,.127,.075244,-.206732*
20,1,.127,.075244,-.206732,.038203,-.216658,0.0*
1,1,.127,.038203,-.216658*
20,1,.127,.038203,-.216658,0.0,-.22,0.0*
1,1,.127,0.0,-.22*
20,1,.127,0.0,-.22,-.038203,-.216658,0.0*
1,1,.127,-.038203,-.216658*
20,1,.127,-.038203,-.216658,-.075244,-.206732,0.0*
1,1,.127,-.075244,-.206732*
20,1,.127,-.075244,-.206732,-.11,-.190526,0.0*
1,1,.127,-.11,-.190526*
20,1,.127,-.11,-.190526,-.141413,-.16853,0.0*
1,1,.127,-.141413,-.16853*
20,1,.127,-.141413,-.16853,-.16853,-.141413,0.0*
1,1,.127,-.16853,-.141413*
20,1,.127,-.16853,-.141413,-.190526,-.11,0.0*
1,1,.127,-.190526,-.11*
20,1,.127,-.190526,-.11,-.206732,-.075244,0.0*
1,1,.127,-.206732,-.075244*
20,1,.127,-.206732,-.075244,-.216658,-.038203,0.0*
1,1,.127,-.216658,-.038203*
20,1,.127,-.216658,-.038203,-.22,0.0,0.0*
1,1,.127,-.22,0.0*
20,1,.127,-.22,0.0,-.216658,.038203,0.0*
1,1,.127,-.216658,.038203*
20,1,.127,-.216658,.038203,-.206732,.075244,0.0*
1,1,.127,-.206732,.075244*
20,1,.127,-.206732,.075244,-.190526,.11,0.0*
1,1,.127,-.190526,.11*
20,1,.127,-.190526,.11,-.16853,.141413,0.0*
1,1,.127,-.16853,.141413*
20,1,.127,-.16853,.141413,-.141413,.16853,0.0*
1,1,.127,-.141413,.16853*
20,1,.127,-.141413,.16853,-.11,.190526,0.0*
1,1,.127,-.11,.190526*
20,1,.127,-.11,.190526,-.075244,.206732,0.0*
1,1,.127,-.075244,.206732*
20,1,.127,-.075244,.206732,-.038203,.216658,0.0*
1,1,.127,-.038203,.216658*
20,1,.127,-.038203,.216658,0.0,.22,0.0*
1,1,.127,0.0,.22*
20,1,.127,0.0,.22,.038203,.216658,0.0*
1,1,.127,.038203,.216658*
20,1,.127,.038203,.216658,.075244,.206732,0.0*
1,1,.127,.075244,.206732*
20,1,.127,.075244,.206732,.11,.190526,0.0*
1,1,.127,.11,.190526*
20,1,.127,.11,.190526,.141413,.16853,0.0*
1,1,.127,.141413,.16853*
20,1,.127,.141413,.16853,.16853,.141413,0.0*
1,1,.127,.16853,.141413*
20,1,.127,.16853,.141413,.190526,.11,0.0*
1,1,.127,.190526,.11*
20,1,.127,.190526,.11,.206732,.075244,0.0*
1,1,.127,.206732,.075244*
20,1,.127,.206732,.075244,.216658,.038203,0.0*
1,1,.127,.216658,.038203*
20,1,.127,.216658,.038203,.22,0.0,0.0*
1,1,.127,.22,0.0*
1,1,.127,.0293,.0073*
20,1,.127,.0293,.0073,.044,.0183,0.0*
1,1,.127,.044,.0183*
20,1,.127,.044,.0183,.055,.0367,0.0*
1,1,.127,.055,.0367*
20,1,.127,.055,.0367,.0623,.0623,0.0*
1,1,.127,.0623,.0623*
20,1,.127,.0623,.0623,.055,.0843,0.0*
1,1,.127,.055,.0843*
20,1,.127,.055,.0843,.0403,.099,0.0*
1,1,.127,.0403,.099*
20,1,.127,.0403,.099,.0147,.11,0.0*
1,1,.127,.0147,.11*
20,1,.127,.0147,.11,-.0843,.11,0.0*
1,1,.127,-.0843,.11*
20,1,.127,-.0843,.11,-.0843,-.11,0.0*
1,1,.127,-.0843,-.11*
20,1,.127,-.0843,-.11,.0367,-.11,0.0*
1,1,.127,.0367,-.11*
20,1,.127,.0367,-.11,.0623,-.0953,0.0*
1,1,.127,.0623,-.0953*
20,1,.127,.0623,-.0953,.077,-.0733,0.0*
1,1,.127,.077,-.0733*
20,1,.127,.077,-.0733,.0843,-.0477,0.0*
1,1,.127,.0843,-.0477*
20,1,.127,.0843,-.0477,.077,-.022,0.0*
1,1,.127,.077,-.022*
20,1,.127,.077,-.022,.055,0.0,0.0*
1,1,.127,.055,0.0*
20,1,.127,.055,0.0,.0293,.0073,0.0*
1,1,.127,.0293,.0073*
20,1,.127,.0293,.0073,-.0843,.0073,0.0*
1,1,.127,-.0843,.0073*
%
%ADD18MACRO18*%
%AMMACRO12*
1,1,.127,0.0,.32*
20,1,.127,0.0,.32,-.277128,.16,0.0*
1,1,.127,-.277128,.16*
20,1,.127,-.277128,.16,-.277128,-.16,0.0*
1,1,.127,-.277128,-.16*
20,1,.127,-.277128,-.16,0.0,-.32,0.0*
1,1,.127,0.0,-.32*
20,1,.127,0.0,-.32,.277128,-.16,0.0*
1,1,.127,.277128,-.16*
20,1,.127,.277128,-.16,.277128,.16,0.0*
1,1,.127,.277128,.16*
20,1,.127,.277128,.16,0.0,.32,0.0*
1,1,.127,0.0,.32*
%
%ADD12MACRO12*%
%AMMACRO16*
1,1,.127,.22,0.0*
20,1,.127,.22,0.0,.216658,-.038203,0.0*
1,1,.127,.216658,-.038203*
20,1,.127,.216658,-.038203,.206732,-.075244,0.0*
1,1,.127,.206732,-.075244*
20,1,.127,.206732,-.075244,.190526,-.11,0.0*
1,1,.127,.190526,-.11*
20,1,.127,.190526,-.11,.16853,-.141413,0.0*
1,1,.127,.16853,-.141413*
20,1,.127,.16853,-.141413,.141413,-.16853,0.0*
1,1,.127,.141413,-.16853*
20,1,.127,.141413,-.16853,.11,-.190526,0.0*
1,1,.127,.11,-.190526*
20,1,.127,.11,-.190526,.075244,-.206732,0.0*
1,1,.127,.075244,-.206732*
20,1,.127,.075244,-.206732,.038203,-.216658,0.0*
1,1,.127,.038203,-.216658*
20,1,.127,.038203,-.216658,0.0,-.22,0.0*
1,1,.127,0.0,-.22*
20,1,.127,0.0,-.22,-.038203,-.216658,0.0*
1,1,.127,-.038203,-.216658*
20,1,.127,-.038203,-.216658,-.075244,-.206732,0.0*
1,1,.127,-.075244,-.206732*
20,1,.127,-.075244,-.206732,-.11,-.190526,0.0*
1,1,.127,-.11,-.190526*
20,1,.127,-.11,-.190526,-.141413,-.16853,0.0*
1,1,.127,-.141413,-.16853*
20,1,.127,-.141413,-.16853,-.16853,-.141413,0.0*
1,1,.127,-.16853,-.141413*
20,1,.127,-.16853,-.141413,-.190526,-.11,0.0*
1,1,.127,-.190526,-.11*
20,1,.127,-.190526,-.11,-.206732,-.075244,0.0*
1,1,.127,-.206732,-.075244*
20,1,.127,-.206732,-.075244,-.216658,-.038203,0.0*
1,1,.127,-.216658,-.038203*
20,1,.127,-.216658,-.038203,-.22,0.0,0.0*
1,1,.127,-.22,0.0*
20,1,.127,-.22,0.0,-.216658,.038203,0.0*
1,1,.127,-.216658,.038203*
20,1,.127,-.216658,.038203,-.206732,.075244,0.0*
1,1,.127,-.206732,.075244*
20,1,.127,-.206732,.075244,-.190526,.11,0.0*
1,1,.127,-.190526,.11*
20,1,.127,-.190526,.11,-.16853,.141413,0.0*
1,1,.127,-.16853,.141413*
20,1,.127,-.16853,.141413,-.141413,.16853,0.0*
1,1,.127,-.141413,.16853*
20,1,.127,-.141413,.16853,-.11,.190526,0.0*
1,1,.127,-.11,.190526*
20,1,.127,-.11,.190526,-.075244,.206732,0.0*
1,1,.127,-.075244,.206732*
20,1,.127,-.075244,.206732,-.038203,.216658,0.0*
1,1,.127,-.038203,.216658*
20,1,.127,-.038203,.216658,0.0,.22,0.0*
1,1,.127,0.0,.22*
20,1,.127,0.0,.22,.038203,.216658,0.0*
1,1,.127,.038203,.216658*
20,1,.127,.038203,.216658,.075244,.206732,0.0*
1,1,.127,.075244,.206732*
20,1,.127,.075244,.206732,.11,.190526,0.0*
1,1,.127,.11,.190526*
20,1,.127,.11,.190526,.141413,.16853,0.0*
1,1,.127,.141413,.16853*
20,1,.127,.141413,.16853,.16853,.141413,0.0*
1,1,.127,.16853,.141413*
20,1,.127,.16853,.141413,.190526,.11,0.0*
1,1,.127,.190526,.11*
20,1,.127,.190526,.11,.206732,.075244,0.0*
1,1,.127,.206732,.075244*
20,1,.127,.206732,.075244,.216658,.038203,0.0*
1,1,.127,.216658,.038203*
20,1,.127,.216658,.038203,.22,0.0,0.0*
1,1,.127,.22,0.0*
1,1,.127,-.0697,.11*
20,1,.127,-.0697,.11,.0697,.11,0.0*
1,1,.127,.0697,.11*
20,1,.127,.0697,.11,-.0697,-.11,0.0*
1,1,.127,-.0697,-.11*
20,1,.127,-.0697,-.11,.0697,-.11,0.0*
1,1,.127,.0697,-.11*
%
%ADD16MACRO16*%
%AMMACRO15*
1,1,.127,.5,.5*
20,1,.127,.5,.5,.5,-.5,0.0*
1,1,.127,.5,-.5*
20,1,.127,.5,-.5,-.5,-.5,0.0*
1,1,.127,-.5,-.5*
20,1,.127,-.5,-.5,-.5,.5,0.0*
1,1,.127,-.5,.5*
20,1,.127,-.5,.5,.5,.5,0.0*
1,1,.127,.5,.5*
1,1,.127,-.15,.0833*
20,1,.127,-.15,.0833,0.0,-.25,0.0*
1,1,.127,0.0,-.25*
20,1,.127,0.0,-.25,.15,.0833,0.0*
1,1,.127,.15,.0833*
%
%ADD15MACRO15*%
%ADD20C,.127*%
G75*
%LPD*%
G75*
G54D10*
X107950Y696000D03*
Y823000D03*
Y950000D03*
Y1204000D03*
Y1077000D03*
X6183630Y-980200D03*
G54D20*
G01X0Y0D02*
X4500000D01*
Y1900000D01*
X0D01*
Y0D01*
G01X-2171700Y-4248150D02*
Y-3930650D01*
X-2218940Y-3994150D01*
G01Y-4248150D02*
X-2124460D01*
G01X-1856740Y-4258730D02*
X-1864620Y-4253440D01*
Y-4242860D01*
X-1856740Y-4237570D01*
X-1848860Y-4242860D01*
Y-4253440D01*
X-1856740Y-4258730D01*
G01X-1616590Y-4115870D02*
X-1589020Y-4078810D01*
X-1565400Y-4057650D01*
X-1533900Y-4047070D01*
X-1506340Y-4057650D01*
X-1486660Y-4078810D01*
X-1470910Y-4110570D01*
X-1466970Y-4147610D01*
X-1470910Y-4179360D01*
X-1486660Y-4211120D01*
X-1510290Y-4237570D01*
X-1537840Y-4248150D01*
X-1569340Y-4237570D01*
X-1596900Y-4205830D01*
X-1612650Y-4158190D01*
X-1616590Y-4105280D01*
X-1608710Y-4036490D01*
X-1596900Y-3999440D01*
X-1577220Y-3962400D01*
X-1549660Y-3935940D01*
X-1522100Y-3930650D01*
X-1494540Y-3941230D01*
X-1474850Y-3967690D01*
G01X-1226820Y-3930650D02*
X-1258320Y-3941230D01*
X-1281940Y-3967690D01*
X-1297690Y-3999440D01*
X-1309500Y-4041780D01*
X-1313430Y-4089400D01*
X-1309500Y-4137030D01*
X-1297690Y-4179360D01*
X-1281940Y-4211120D01*
X-1258320Y-4237570D01*
X-1226820Y-4248150D01*
X-1195330Y-4237570D01*
X-1171700Y-4211120D01*
X-1155950Y-4179360D01*
X-1144140Y-4137030D01*
X-1140210Y-4089400D01*
X-1144140Y-4041780D01*
X-1155950Y-3999440D01*
X-1171700Y-3967690D01*
X-1195330Y-3941230D01*
X-1226820Y-3930650D01*
G01X-1029970Y-4248150D02*
Y-4036490D01*
G01Y-4094700D02*
X-1018160Y-4068230D01*
X-998470Y-4047070D01*
X-970910Y-4036490D01*
X-943360Y-4047070D01*
X-923670Y-4068230D01*
X-911860Y-4094700D01*
Y-4248150D01*
G01Y-4094700D02*
X-900050Y-4068230D01*
X-880370Y-4047070D01*
X-852810Y-4036490D01*
X-825250Y-4047070D01*
X-805560Y-4068230D01*
X-793750Y-4099990D01*
Y-4248150D01*
G01X-715010D02*
Y-4036490D01*
G01Y-4094700D02*
X-703200Y-4068230D01*
X-683510Y-4047070D01*
X-655950Y-4036490D01*
X-628400Y-4047070D01*
X-608710Y-4068230D01*
X-596900Y-4094700D01*
Y-4248150D01*
G01Y-4094700D02*
X-585090Y-4068230D01*
X-565410Y-4047070D01*
X-537850Y-4036490D01*
X-510290Y-4047070D01*
X-490600Y-4068230D01*
X-478790Y-4099990D01*
Y-4248150D01*
G01X3166300Y-6718300D02*
X-1634300D01*
G01X3191700Y-2209800D02*
X-1634300D01*
G01X-1384300Y-4486270D02*
Y-6718300D01*
G01X-1446800Y-6318300D02*
X-1384300Y-6718300D01*
X-1321800Y-6318300D01*
X-1446800D01*
G01X-1384300Y-3692530D02*
Y-2209800D01*
G01X-1321800Y-2609800D02*
X-1384300Y-2209800D01*
X-1446800Y-2609800D01*
X-1321800D01*
G01X-657480Y741250D02*
Y1058750D01*
X-704720Y995250D01*
G01Y741250D02*
X-610240D01*
G01X-409450Y778280D02*
X-381890Y751830D01*
X-350400Y741250D01*
X-318900Y751830D01*
X-291340Y783570D01*
X-271650Y831210D01*
X-263780Y878830D01*
Y937040D01*
X-271650Y984660D01*
X-291340Y1027000D01*
X-314960Y1048170D01*
X-342520Y1058750D01*
X-374020Y1048170D01*
X-397640Y1027000D01*
X-413390Y995250D01*
X-421260Y952910D01*
X-413390Y915880D01*
X-393700Y878830D01*
X-370080Y857660D01*
X-342520Y852370D01*
X-311030Y862950D01*
X-287400Y889410D01*
X-263780Y937040D01*
G01X4250000Y0D02*
X-750000D01*
G01X-562500Y400000D02*
X-500000Y0D01*
X-437500Y400000D01*
X-562500D01*
G01X-437500Y1500000D02*
X-500000Y1900000D01*
X-562500Y1500000D01*
X-437500D01*
G01X4250000Y1900000D02*
X-750000D01*
G01X-500000Y503130D02*
Y0D01*
G01Y1296870D02*
Y1900000D01*
G01X-238000Y-6719540D02*
Y-6288430D01*
X4144370D01*
Y-6719540D01*
X-238000D01*
G01Y-6288280D02*
Y-5362190D01*
X4144260D01*
Y-6288280D01*
X-238000D01*
G01Y-5361990D02*
Y-4930880D01*
X4144370D01*
Y-5361990D01*
X-238000D01*
G01Y-4929380D02*
Y-4003290D01*
X4144260D01*
Y-4929380D01*
X-238000D01*
G01Y-4001740D02*
Y-3570630D01*
X4144370D01*
Y-4001740D01*
X-238000D01*
G01Y-3570480D02*
Y-2644390D01*
X4144260D01*
Y-3570480D01*
X-238000D01*
G01Y-2644190D02*
Y-2213080D01*
X4144370D01*
Y-2644190D01*
X-238000D01*
G01X-214760Y-1574810D02*
X-183260Y-1601260D01*
X-147830Y-1617130D01*
X-116330D01*
X-84840Y-1601260D01*
X-61210Y-1574810D01*
X-49400Y-1537750D01*
X-57270Y-1500720D01*
X-76960Y-1468970D01*
X-112400Y-1447790D01*
X-159640Y-1437210D01*
X-187200Y-1416050D01*
X-199010Y-1379010D01*
X-191130Y-1341960D01*
X-171450Y-1315510D01*
X-143890Y-1299630D01*
X-116330D01*
X-88770Y-1310210D01*
X-65150Y-1336670D01*
G01X182880Y-1299630D02*
Y-1617130D01*
G01X92330Y-1299630D02*
X273430D01*
G01X399410Y-1617130D02*
X497840Y-1299630D01*
X596270Y-1617130D01*
G01X560830Y-1506010D02*
X434840D01*
G01X899410Y-1326090D02*
X875790Y-1310210D01*
X848240Y-1299630D01*
X816740D01*
X781300Y-1315510D01*
X753750Y-1341960D01*
X734060Y-1373720D01*
X718310Y-1426630D01*
X714370Y-1474260D01*
X722250Y-1521880D01*
X734060Y-1553630D01*
X757680Y-1585390D01*
X785240Y-1606550D01*
X812800Y-1617130D01*
X840360D01*
X867920Y-1606550D01*
X891540Y-1590680D01*
X911230Y-1569520D01*
G01X1041150Y-1617130D02*
Y-1299630D01*
G01X1190750D02*
X1041150Y-1495430D01*
G01X1214370Y-1617130D02*
X1108080Y-1405470D01*
G01X1356110Y-1299630D02*
Y-1527170D01*
X1371850Y-1574810D01*
X1403350Y-1606550D01*
X1442720Y-1617130D01*
X1482090Y-1606550D01*
X1513590Y-1574810D01*
X1529330Y-1527170D01*
Y-1299630D01*
G01X1678940Y-1617130D02*
Y-1299630D01*
X1773430D01*
X1804920Y-1315510D01*
X1828550Y-1352550D01*
X1836420Y-1394880D01*
X1828550Y-1437210D01*
X1808860Y-1468970D01*
X1773430Y-1484850D01*
X1678940D01*
G01X0Y-250000D02*
Y-986600D01*
G01X1748440Y-736600D02*
X0D01*
G01X400000Y-674100D02*
X0Y-736600D01*
X400000Y-799100D01*
Y-674100D01*
G01X766530Y2182680D02*
Y2436680D01*
X887190D01*
G01X842730Y2313920D02*
X766530D01*
G01X1001480Y2182680D02*
X1080860Y2436680D01*
X1160240Y2182680D01*
G01X1131660Y2271580D02*
X1030060D01*
G01X1360260Y2318150D02*
X1372960Y2330850D01*
X1382480Y2352010D01*
X1388840Y2381650D01*
X1382480Y2407050D01*
X1369790Y2423970D01*
X1347560Y2436680D01*
X1261840D01*
Y2182680D01*
X1366610D01*
X1388840Y2199610D01*
X1401540Y2225010D01*
X1407880Y2254650D01*
X1401540Y2284270D01*
X1382480Y2309680D01*
X1360260Y2318150D01*
X1261840D01*
G01X1779360Y2436680D02*
Y2182680D01*
X1906360D01*
G01X2017480D02*
X2096860Y2436680D01*
X2176240Y2182680D01*
G01X2147660Y2271580D02*
X2046060D01*
G01X2350860Y2182680D02*
Y2296980D01*
X2287360Y2436680D01*
G01X2414360D02*
X2350860Y2296980D01*
G01X2668360Y2182680D02*
X2541360D01*
Y2436680D01*
X2668360D01*
G01X2617560Y2313920D02*
X2541360D01*
G01X2795360Y2182680D02*
Y2436680D01*
X2874730D01*
X2900130Y2423970D01*
X2916010Y2407050D01*
X2922360Y2373180D01*
X2916010Y2339310D01*
X2896960Y2318150D01*
X2874730Y2305440D01*
X2795360D01*
G01X2874730D02*
X2922360Y2182680D01*
G01X1279740Y-6400800D02*
Y-6591300D01*
X1374560D01*
G01X1458380D02*
X1517650Y-6400800D01*
X1576920Y-6591300D01*
G01X1555580Y-6524630D02*
X1479720D01*
G01X1708150Y-6591300D02*
Y-6505580D01*
X1660740Y-6400800D01*
G01X1755560D02*
X1708150Y-6505580D01*
G01X1946060Y-6591300D02*
X1851240D01*
Y-6400800D01*
X1946060D01*
G01X1908130Y-6492870D02*
X1851240D01*
G01X2041740Y-6591300D02*
Y-6400800D01*
X2101000D01*
X2119970Y-6410330D01*
X2131820Y-6423030D01*
X2136560Y-6448430D01*
X2131820Y-6473830D01*
X2117600Y-6489700D01*
X2101000Y-6499230D01*
X2041740D01*
G01X2101000D02*
X2136560Y-6591300D01*
G01X2498600D02*
Y-6400800D01*
X2410880Y-6537320D01*
X2529420D01*
G01X2870110Y-6489700D02*
X2879600Y-6480180D01*
X2886710Y-6464300D01*
X2891450Y-6442070D01*
X2886710Y-6423030D01*
X2877230Y-6410330D01*
X2860630Y-6400800D01*
X2796630D01*
Y-6591300D01*
X2874860D01*
X2891450Y-6578600D01*
X2900930Y-6559550D01*
X2905670Y-6537320D01*
X2900930Y-6515100D01*
X2886710Y-6496050D01*
X2870110Y-6489700D01*
X2796630D01*
G01X3041650Y-6591300D02*
X3022680Y-6588130D01*
X3006090Y-6575430D01*
X2991870Y-6556380D01*
X2982380Y-6534150D01*
X2977640Y-6508750D01*
Y-6483350D01*
X2982380Y-6457950D01*
X2991870Y-6435720D01*
X3006090Y-6416680D01*
X3022680Y-6403970D01*
X3041650Y-6400800D01*
X3060610Y-6403970D01*
X3077210Y-6416680D01*
X3091430Y-6435720D01*
X3100920Y-6457950D01*
X3105660Y-6483350D01*
Y-6508750D01*
X3100920Y-6534150D01*
X3091430Y-6556380D01*
X3077210Y-6575430D01*
X3060610Y-6588130D01*
X3041650Y-6591300D01*
G01X3232150Y-6400800D02*
Y-6591300D01*
G01X3177630Y-6400800D02*
X3286670D01*
G01X1292440Y-5054600D02*
Y-5245100D01*
X1387260D01*
G01X1471080D02*
X1530350Y-5054600D01*
X1589620Y-5245100D01*
G01X1568280Y-5178430D02*
X1492420D01*
G01X1720850Y-5245100D02*
Y-5159380D01*
X1673440Y-5054600D01*
G01X1768260D02*
X1720850Y-5159380D01*
G01X1958760Y-5245100D02*
X1863940D01*
Y-5054600D01*
X1958760D01*
G01X1920830Y-5146670D02*
X1863940D01*
G01X2054440Y-5245100D02*
Y-5054600D01*
X2113700D01*
X2132670Y-5064130D01*
X2144520Y-5076830D01*
X2149260Y-5102230D01*
X2144520Y-5127630D01*
X2130300Y-5143500D01*
X2113700Y-5153030D01*
X2054440D01*
G01X2113700D02*
X2149260Y-5245100D01*
G01X2240200Y-5207000D02*
X2254420Y-5229230D01*
X2273380Y-5241930D01*
X2294720Y-5245100D01*
X2313690Y-5241930D01*
X2332650Y-5226050D01*
X2344500Y-5207000D01*
X2346870Y-5187950D01*
X2342130Y-5165730D01*
X2325540Y-5149850D01*
X2308940Y-5143500D01*
X2287610D01*
G01X2308940D02*
X2323170Y-5133980D01*
X2335020Y-5118100D01*
X2339760Y-5099050D01*
X2335020Y-5080000D01*
X2323170Y-5064130D01*
X2301830Y-5054600D01*
X2280500Y-5057770D01*
X2259160Y-5070480D01*
G01X2614080Y-5054600D02*
X2673350Y-5245100D01*
X2732620Y-5054600D01*
G01X2916000Y-5070480D02*
X2901780Y-5060950D01*
X2885190Y-5054600D01*
X2866220D01*
X2844880Y-5064130D01*
X2828290Y-5080000D01*
X2816440Y-5099050D01*
X2806950Y-5130800D01*
X2804580Y-5159380D01*
X2809330Y-5187950D01*
X2816440Y-5207000D01*
X2830660Y-5226050D01*
X2847260Y-5238750D01*
X2863850Y-5245100D01*
X2880440D01*
X2897040Y-5238750D01*
X2911260Y-5229230D01*
X2923120Y-5216530D01*
G01X3106500Y-5070480D02*
X3092280Y-5060950D01*
X3075690Y-5054600D01*
X3056720D01*
X3035380Y-5064130D01*
X3018790Y-5080000D01*
X3006940Y-5099050D01*
X2997450Y-5130800D01*
X2995080Y-5159380D01*
X2999830Y-5187950D01*
X3006940Y-5207000D01*
X3021160Y-5226050D01*
X3037760Y-5238750D01*
X3054350Y-5245100D01*
X3070940D01*
X3087540Y-5238750D01*
X3101760Y-5229230D01*
X3113620Y-5216530D01*
G01X1520270Y-4397380D02*
X1506050Y-4387850D01*
X1489460Y-4381500D01*
X1470490D01*
X1449150Y-4391030D01*
X1432560Y-4406900D01*
X1420710Y-4425950D01*
X1411220Y-4457700D01*
X1408850Y-4486280D01*
X1413600Y-4514850D01*
X1420710Y-4533900D01*
X1434930Y-4552950D01*
X1451530Y-4565650D01*
X1468120Y-4572000D01*
X1484710D01*
X1501310Y-4565650D01*
X1515530Y-4556130D01*
X1527390Y-4543430D01*
G01X1658620Y-4572000D02*
X1639650Y-4568830D01*
X1623060Y-4556130D01*
X1608840Y-4537080D01*
X1599350Y-4514850D01*
X1594610Y-4489450D01*
Y-4464050D01*
X1599350Y-4438650D01*
X1608840Y-4416420D01*
X1623060Y-4397380D01*
X1639650Y-4384670D01*
X1658620Y-4381500D01*
X1677580Y-4384670D01*
X1694180Y-4397380D01*
X1708400Y-4416420D01*
X1717890Y-4438650D01*
X1722630Y-4464050D01*
Y-4489450D01*
X1717890Y-4514850D01*
X1708400Y-4537080D01*
X1694180Y-4556130D01*
X1677580Y-4568830D01*
X1658620Y-4572000D01*
G01X1801710D02*
Y-4381500D01*
X1860970D01*
X1879940Y-4391030D01*
X1891790Y-4403730D01*
X1896530Y-4429130D01*
X1891790Y-4454530D01*
X1877570Y-4470400D01*
X1860970Y-4479930D01*
X1801710D01*
G01X1860970D02*
X1896530Y-4572000D01*
G01X2087030D02*
X1992210D01*
Y-4381500D01*
X2087030D01*
G01X2049100Y-4473570D02*
X1992210D01*
G01X1279740Y-3683000D02*
Y-3873500D01*
X1374560D01*
G01X1458380D02*
X1517650Y-3683000D01*
X1576920Y-3873500D01*
G01X1555580Y-3806830D02*
X1479720D01*
G01X1708150Y-3873500D02*
Y-3787780D01*
X1660740Y-3683000D01*
G01X1755560D02*
X1708150Y-3787780D01*
G01X1946060Y-3873500D02*
X1851240D01*
Y-3683000D01*
X1946060D01*
G01X1908130Y-3775070D02*
X1851240D01*
G01X2041740Y-3873500D02*
Y-3683000D01*
X2101000D01*
X2119970Y-3692530D01*
X2131820Y-3705230D01*
X2136560Y-3730630D01*
X2131820Y-3756030D01*
X2117600Y-3771900D01*
X2101000Y-3781430D01*
X2041740D01*
G01X2101000D02*
X2136560Y-3873500D01*
G01X2234610Y-3714750D02*
X2248830Y-3695700D01*
X2265430Y-3686170D01*
X2284390Y-3683000D01*
X2308100Y-3689350D01*
X2324690Y-3705230D01*
X2329430Y-3724270D01*
X2327060Y-3743330D01*
X2317580Y-3759200D01*
X2270170Y-3790950D01*
X2248830Y-3813180D01*
X2234610Y-3844930D01*
X2229870Y-3873500D01*
X2329430D01*
G01X2674870Y-3778250D02*
X2722290D01*
Y-3835400D01*
X2708060Y-3854450D01*
X2691470Y-3867150D01*
X2667760Y-3873500D01*
X2644060Y-3867150D01*
X2627460Y-3854450D01*
X2613240Y-3835400D01*
X2603750Y-3813180D01*
X2599010Y-3787780D01*
Y-3765550D01*
X2603750Y-3746500D01*
X2613240Y-3724270D01*
X2627460Y-3705230D01*
X2641680Y-3692530D01*
X2660650Y-3683000D01*
X2677240D01*
X2696210Y-3689350D01*
X2710430Y-3702050D01*
G01X2796630Y-3873500D02*
Y-3683000D01*
X2905670Y-3873500D01*
Y-3683000D01*
G01X2989500Y-3873500D02*
Y-3683000D01*
X3036910D01*
X3055870Y-3692530D01*
X3070100Y-3705230D01*
X3081950Y-3724270D01*
X3091430Y-3746500D01*
X3093800Y-3778250D01*
X3091430Y-3810000D01*
X3081950Y-3832230D01*
X3070100Y-3851280D01*
X3055870Y-3863980D01*
X3036910Y-3873500D01*
X2989500D01*
G01X1292440Y-2336800D02*
Y-2527300D01*
X1387260D01*
G01X1471080D02*
X1530350Y-2336800D01*
X1589620Y-2527300D01*
G01X1568280Y-2460630D02*
X1492420D01*
G01X1720850Y-2527300D02*
Y-2441580D01*
X1673440Y-2336800D01*
G01X1768260D02*
X1720850Y-2441580D01*
G01X1958760Y-2527300D02*
X1863940D01*
Y-2336800D01*
X1958760D01*
G01X1920830Y-2428870D02*
X1863940D01*
G01X2054440Y-2527300D02*
Y-2336800D01*
X2113700D01*
X2132670Y-2346330D01*
X2144520Y-2359030D01*
X2149260Y-2384430D01*
X2144520Y-2409830D01*
X2130300Y-2425700D01*
X2113700Y-2435230D01*
X2054440D01*
G01X2113700D02*
X2149260Y-2527300D01*
G01X2292350D02*
Y-2336800D01*
X2263900Y-2374900D01*
G01Y-2527300D02*
X2320790D01*
G01X2673350Y-2336800D02*
Y-2527300D01*
G01X2618830Y-2336800D02*
X2727870D01*
G01X2863850Y-2527300D02*
X2844880Y-2524130D01*
X2828290Y-2511430D01*
X2814070Y-2492380D01*
X2804580Y-2470150D01*
X2799840Y-2444750D01*
Y-2419350D01*
X2804580Y-2393950D01*
X2814070Y-2371720D01*
X2828290Y-2352680D01*
X2844880Y-2339970D01*
X2863850Y-2336800D01*
X2882810Y-2339970D01*
X2899410Y-2352680D01*
X2913630Y-2371720D01*
X2923120Y-2393950D01*
X2927860Y-2419350D01*
Y-2444750D01*
X2923120Y-2470150D01*
X2913630Y-2492380D01*
X2899410Y-2511430D01*
X2882810Y-2524130D01*
X2863850Y-2527300D01*
G01X3006940D02*
Y-2336800D01*
X3063830D01*
X3082800Y-2346330D01*
X3097020Y-2368550D01*
X3101760Y-2393950D01*
X3097020Y-2419350D01*
X3085170Y-2438400D01*
X3063830Y-2447930D01*
X3006940D01*
G01X1470240Y-5930900D02*
Y-5740400D01*
X1527130D01*
X1546100Y-5749930D01*
X1560320Y-5772150D01*
X1565060Y-5797550D01*
X1560320Y-5822950D01*
X1548470Y-5842000D01*
X1527130Y-5851530D01*
X1470240D01*
G01X1660740Y-5930900D02*
Y-5740400D01*
X1720000D01*
X1738970Y-5749930D01*
X1750820Y-5762630D01*
X1755560Y-5788030D01*
X1750820Y-5813430D01*
X1736600Y-5829300D01*
X1720000Y-5838830D01*
X1660740D01*
G01X1720000D02*
X1755560Y-5930900D01*
G01X1946060D02*
X1851240D01*
Y-5740400D01*
X1946060D01*
G01X1908130Y-5832470D02*
X1851240D01*
G01X2041740Y-5930900D02*
Y-5740400D01*
X2098630D01*
X2117600Y-5749930D01*
X2131820Y-5772150D01*
X2136560Y-5797550D01*
X2131820Y-5822950D01*
X2119970Y-5842000D01*
X2098630Y-5851530D01*
X2041740D01*
G01X2327060Y-5930900D02*
X2232240D01*
Y-5740400D01*
X2327060D01*
G01X2289130Y-5832470D02*
X2232240D01*
G01X2484370Y-5835650D02*
X2531790D01*
Y-5892800D01*
X2517560Y-5911850D01*
X2500970Y-5924550D01*
X2477260Y-5930900D01*
X2453560Y-5924550D01*
X2436960Y-5911850D01*
X2422740Y-5892800D01*
X2413250Y-5870580D01*
X2408510Y-5845180D01*
Y-5822950D01*
X2413250Y-5803900D01*
X2422740Y-5781670D01*
X2436960Y-5762630D01*
X2451180Y-5749930D01*
X2470150Y-5740400D01*
X2486740D01*
X2505710Y-5746750D01*
X2519930Y-5759450D01*
G01X1470240Y-3213100D02*
Y-3022600D01*
X1527130D01*
X1546100Y-3032130D01*
X1560320Y-3054350D01*
X1565060Y-3079750D01*
X1560320Y-3105150D01*
X1548470Y-3124200D01*
X1527130Y-3133730D01*
X1470240D01*
G01X1660740Y-3213100D02*
Y-3022600D01*
X1720000D01*
X1738970Y-3032130D01*
X1750820Y-3044830D01*
X1755560Y-3070230D01*
X1750820Y-3095630D01*
X1736600Y-3111500D01*
X1720000Y-3121030D01*
X1660740D01*
G01X1720000D02*
X1755560Y-3213100D01*
G01X1946060D02*
X1851240D01*
Y-3022600D01*
X1946060D01*
G01X1908130Y-3114670D02*
X1851240D01*
G01X2041740Y-3213100D02*
Y-3022600D01*
X2098630D01*
X2117600Y-3032130D01*
X2131820Y-3054350D01*
X2136560Y-3079750D01*
X2131820Y-3105150D01*
X2119970Y-3124200D01*
X2098630Y-3133730D01*
X2041740D01*
G01X2327060Y-3213100D02*
X2232240D01*
Y-3022600D01*
X2327060D01*
G01X2289130Y-3114670D02*
X2232240D01*
G01X2484370Y-3117850D02*
X2531790D01*
Y-3175000D01*
X2517560Y-3194050D01*
X2500970Y-3206750D01*
X2477260Y-3213100D01*
X2453560Y-3206750D01*
X2436960Y-3194050D01*
X2422740Y-3175000D01*
X2413250Y-3152780D01*
X2408510Y-3127380D01*
Y-3105150D01*
X2413250Y-3086100D01*
X2422740Y-3063870D01*
X2436960Y-3044830D01*
X2451180Y-3032130D01*
X2470150Y-3022600D01*
X2486740D01*
X2505710Y-3028950D01*
X2519930Y-3041650D01*
G01X2151910Y-895350D02*
Y-577850D01*
X2006240Y-805390D01*
X2203100D01*
G01X2333020Y-847740D02*
X2356630Y-874190D01*
X2384190Y-890060D01*
X2419630Y-895350D01*
X2455070Y-884770D01*
X2482620Y-863610D01*
X2502310Y-826560D01*
X2506240Y-784230D01*
X2498370Y-741900D01*
X2478680Y-715430D01*
X2451120Y-694270D01*
X2423570Y-688980D01*
X2396010Y-694270D01*
X2360580Y-715430D01*
X2372390Y-577850D01*
X2478680D01*
G01X2775860Y-736600D02*
X4500000D01*
G01X4100000Y-799100D02*
X4500000Y-736600D01*
X4100000Y-674100D01*
Y-799100D01*
G01X4500000Y-250000D02*
Y-986600D01*
G01X5121710Y-7027080D02*
X18421710D01*
G01X5121710Y-5927080D02*
Y-7027080D01*
G01Y-5927080D02*
Y-5027080D01*
G01X18421710Y-5927080D02*
X5121710D01*
G01Y-5027080D02*
X18421710D01*
G01X5041900Y-3837700D02*
Y3797300D01*
X17640300D01*
Y-3837700D01*
X5041900D01*
G01Y-3202700D02*
X17640300D01*
G01X5041900Y-2567700D02*
X17640300D01*
G01X5041900Y-1932700D02*
X17640300D01*
G01X5041900Y-1297700D02*
X17640300D01*
G01X5041900Y-662700D02*
X17640300D01*
G01X5041900Y-27700D02*
X17640300D01*
G01X5041900Y607300D02*
X17640300D01*
G01X5041900Y1242300D02*
X17640300D01*
G01X5041900Y1877300D02*
X17640300D01*
G01X5041900Y2512300D02*
X17640300D01*
G01X5041900Y3147300D02*
X17640300D01*
G01X5492830Y-6436580D02*
Y-6627080D01*
G01X5438310Y-6436580D02*
X5547350D01*
G01X5683330Y-6627080D02*
X5669110Y-6623910D01*
X5654880Y-6611210D01*
X5645400Y-6588980D01*
X5640660Y-6563580D01*
X5645400Y-6538180D01*
X5654880Y-6515960D01*
X5669110Y-6503260D01*
X5683330Y-6500080D01*
X5697550Y-6503260D01*
X5711780Y-6515960D01*
X5721260Y-6538180D01*
X5723630Y-6563580D01*
X5721260Y-6588980D01*
X5711780Y-6611210D01*
X5697550Y-6623910D01*
X5683330Y-6627080D01*
G01X5831160Y-6690580D02*
Y-6500080D01*
G01Y-6528650D02*
X5843010Y-6512780D01*
X5854860Y-6503260D01*
X5873830Y-6500080D01*
X5890420Y-6503260D01*
X5907020Y-6519130D01*
X5914130Y-6541360D01*
X5916500Y-6563580D01*
X5914130Y-6585810D01*
X5907020Y-6608030D01*
X5892790Y-6620730D01*
X5873830Y-6627080D01*
X5857240Y-6623910D01*
X5840640Y-6614380D01*
X5831160Y-6601690D01*
G01X6021660Y-6633430D02*
X6107000Y-6436580D01*
G01X6273790Y-6525480D02*
X6283280Y-6515960D01*
X6290390Y-6500080D01*
X6295130Y-6477850D01*
X6290390Y-6458810D01*
X6280910Y-6446110D01*
X6264310Y-6436580D01*
X6200310D01*
Y-6627080D01*
X6278540D01*
X6295130Y-6614380D01*
X6304610Y-6595330D01*
X6309350Y-6573100D01*
X6304610Y-6550880D01*
X6290390Y-6531830D01*
X6273790Y-6525480D01*
X6200310D01*
G01X6445330Y-6627080D02*
X6431110Y-6623910D01*
X6416880Y-6611210D01*
X6407400Y-6588980D01*
X6402660Y-6563580D01*
X6407400Y-6538180D01*
X6416880Y-6515960D01*
X6431110Y-6503260D01*
X6445330Y-6500080D01*
X6459550Y-6503260D01*
X6473780Y-6515960D01*
X6483260Y-6538180D01*
X6485630Y-6563580D01*
X6483260Y-6588980D01*
X6473780Y-6611210D01*
X6459550Y-6623910D01*
X6445330Y-6627080D01*
G01X6635830Y-6436580D02*
Y-6627080D01*
G01X6602640Y-6500080D02*
X6669020D01*
G01X5395420Y-5366580D02*
Y-5557080D01*
X5490240D01*
G01X5574060D02*
X5633330Y-5366580D01*
X5692600Y-5557080D01*
G01X5671260Y-5490410D02*
X5595400D01*
G01X5823830Y-5557080D02*
Y-5471360D01*
X5776420Y-5366580D01*
G01X5871240D02*
X5823830Y-5471360D01*
G01X6061740Y-5557080D02*
X5966920D01*
Y-5366580D01*
X6061740D01*
G01X6023810Y-5458650D02*
X5966920D01*
G01X6157420Y-5557080D02*
Y-5366580D01*
X6216680D01*
X6235650Y-5376110D01*
X6247500Y-5388810D01*
X6252240Y-5414210D01*
X6247500Y-5439610D01*
X6233280Y-5455480D01*
X6216680Y-5465010D01*
X6157420D01*
G01X6216680D02*
X6252240Y-5557080D01*
G01X5321420Y2036050D02*
Y2353550D01*
X5471040D01*
G01X5415910Y2200100D02*
X5321420D01*
G01X5663950Y2353550D02*
X5758430D01*
G01X5711190D02*
Y2036050D01*
G01X5663950D02*
X5758430D01*
G01X6049770Y2194800D02*
X6128520D01*
Y2099550D01*
X6104890Y2067790D01*
X6077330Y2046630D01*
X6037960Y2036050D01*
X5998590Y2046630D01*
X5971030Y2067790D01*
X5947410Y2099550D01*
X5931660Y2136590D01*
X5923780Y2178920D01*
Y2215970D01*
X5931660Y2247710D01*
X5947410Y2284760D01*
X5971030Y2316510D01*
X5994650Y2337670D01*
X6026150Y2353550D01*
X6053710D01*
X6085200Y2342970D01*
X6108830Y2321800D01*
G01X6254500Y2353550D02*
Y2126010D01*
X6270240Y2078370D01*
X6301740Y2046630D01*
X6341110Y2036050D01*
X6380480Y2046630D01*
X6411980Y2078370D01*
X6427720Y2126010D01*
Y2353550D01*
G01X6577330Y2036050D02*
Y2353550D01*
X6675750D01*
X6707250Y2337670D01*
X6726940Y2316510D01*
X6734810Y2274170D01*
X6726940Y2231840D01*
X6703310Y2205390D01*
X6675750Y2189500D01*
X6577330D01*
G01X6675750D02*
X6734810Y2036050D01*
G01X7049770D02*
X6892290D01*
Y2353550D01*
X7049770D01*
G01X6986780Y2200100D02*
X6892290D01*
G01X6721710Y-7027080D02*
X20021710D01*
G01X6721710Y-5927080D02*
Y-7027080D01*
G01Y-5027080D02*
Y-7027080D01*
G01X20021710Y-5927080D02*
X6721710D01*
G01D02*
Y-5027080D01*
G01D02*
X20021710D01*
G01X7172830Y-5336580D02*
Y-5527080D01*
G01X7118310Y-5336580D02*
X7227350D01*
G01X7315920Y-5527080D02*
Y-5336580D01*
X7375180D01*
X7394150Y-5346110D01*
X7406000Y-5358810D01*
X7410740Y-5384210D01*
X7406000Y-5409610D01*
X7391780Y-5425480D01*
X7375180Y-5435010D01*
X7315920D01*
G01X7375180D02*
X7410740Y-5527080D01*
G01X7494560D02*
X7553830Y-5336580D01*
X7613100Y-5527080D01*
G01X7591760Y-5460410D02*
X7515900D01*
G01X7796480Y-5352460D02*
X7782260Y-5342930D01*
X7765670Y-5336580D01*
X7746700D01*
X7725360Y-5346110D01*
X7708770Y-5361980D01*
X7696920Y-5381030D01*
X7687430Y-5412780D01*
X7685060Y-5441360D01*
X7689810Y-5469930D01*
X7696920Y-5488980D01*
X7711140Y-5508030D01*
X7727740Y-5520730D01*
X7744330Y-5527080D01*
X7760920D01*
X7777520Y-5520730D01*
X7791740Y-5511210D01*
X7803600Y-5498510D01*
G01X7882680Y-5527080D02*
Y-5336580D01*
G01X7972760D02*
X7882680Y-5454060D01*
G01X7986980Y-5527080D02*
X7922980Y-5400080D01*
G01X8244710Y-5336580D02*
X8277900Y-5527080D01*
X8315830Y-5336580D01*
X8353760Y-5527080D01*
X8386950Y-5336580D01*
G01X8477880D02*
X8534770D01*
G01X8506330D02*
Y-5527080D01*
G01X8477880D02*
X8534770D01*
G01X8644680D02*
Y-5336580D01*
X8692090D01*
X8711050Y-5346110D01*
X8725280Y-5358810D01*
X8737130Y-5377850D01*
X8746610Y-5400080D01*
X8748980Y-5431830D01*
X8746610Y-5463580D01*
X8737130Y-5485810D01*
X8725280Y-5504860D01*
X8711050Y-5517560D01*
X8692090Y-5527080D01*
X8644680D01*
G01X8887330Y-5336580D02*
Y-5527080D01*
G01X8832810Y-5336580D02*
X8941850D01*
G01X9028050Y-5527080D02*
Y-5336580D01*
G01X9127610D02*
Y-5527080D01*
G01Y-5431830D02*
X9028050D01*
G01X6990710Y2671050D02*
X7089140Y2988550D01*
X7187570Y2671050D01*
G01X7152130Y2782170D02*
X7026140D01*
G01X7325360Y2988550D02*
Y2671050D01*
X7482840D01*
G01X7640320Y2988550D02*
Y2671050D01*
X7797800D01*
G01X8262370Y2988550D02*
Y2761010D01*
X8278110Y2713370D01*
X8309610Y2681630D01*
X8348980Y2671050D01*
X8388350Y2681630D01*
X8419850Y2713370D01*
X8435590Y2761010D01*
Y2988550D01*
G01X8573390Y2671050D02*
Y2988550D01*
X8754490Y2671050D01*
Y2988550D01*
G01X8931660D02*
X9026140D01*
G01X8978900D02*
Y2671050D01*
G01X8931660D02*
X9026140D01*
G01X9293860Y2988550D02*
Y2671050D01*
G01X9203310Y2988550D02*
X9384410D01*
G01X9526140Y2713370D02*
X9557640Y2686920D01*
X9593070Y2671050D01*
X9624570D01*
X9656060Y2686920D01*
X9679690Y2713370D01*
X9691500Y2750430D01*
X9683630Y2787460D01*
X9663940Y2819210D01*
X9628500Y2840390D01*
X9581260Y2850970D01*
X9553700Y2872130D01*
X9541890Y2909170D01*
X9549770Y2946220D01*
X9569450Y2972670D01*
X9597010Y2988550D01*
X9624570D01*
X9652130Y2977970D01*
X9675750Y2951510D01*
G01X10140310Y2671050D02*
X10238740Y2988550D01*
X10337170Y2671050D01*
G01X10301730Y2782170D02*
X10175740D01*
G01X10474960Y2671050D02*
Y2988550D01*
X10573380D01*
X10604880Y2972670D01*
X10624570Y2951510D01*
X10632440Y2909170D01*
X10624570Y2866840D01*
X10600940Y2840390D01*
X10573380Y2824500D01*
X10474960D01*
G01X10573380D02*
X10632440Y2671050D01*
G01X10947400D02*
X10789920D01*
Y2988550D01*
X10947400D01*
G01X10884410Y2835100D02*
X10789920D01*
G01X11451340Y2988550D02*
X11545820D01*
G01X11498580D02*
Y2671050D01*
G01X11451340D02*
X11545820D01*
G01X11722990D02*
Y2988550D01*
X11904090Y2671050D01*
Y2988550D01*
G01X12341090Y2671050D02*
Y2988550D01*
X12443460Y2723970D01*
X12545830Y2988550D01*
Y2671050D01*
G01X12711180Y2988550D02*
X12805660D01*
G01X12758420D02*
Y2671050D01*
G01X12711180D02*
X12805660D01*
G01X12994640Y2988550D02*
Y2671050D01*
X13152120D01*
G01X13309600Y2988550D02*
Y2671050D01*
X13467080D01*
G01X13656060Y2988550D02*
X13750540D01*
G01X13703300D02*
Y2671050D01*
G01X13656060D02*
X13750540D01*
G01X13915890D02*
Y2988550D01*
X14018260Y2723970D01*
X14120630Y2988550D01*
Y2671050D01*
G01X14411960D02*
X14254480D01*
Y2988550D01*
X14411960D01*
G01X14348970Y2835100D02*
X14254480D01*
G01X14648180Y2988550D02*
Y2671050D01*
G01X14557630Y2988550D02*
X14738730D01*
G01X15041880Y2671050D02*
X14884400D01*
Y2988550D01*
X15041880D01*
G01X14978890Y2835100D02*
X14884400D01*
G01X15199360Y2671050D02*
Y2988550D01*
X15297780D01*
X15329280Y2972670D01*
X15348970Y2951510D01*
X15356840Y2909170D01*
X15348970Y2866840D01*
X15325340Y2840390D01*
X15297780Y2824500D01*
X15199360D01*
G01X15297780D02*
X15356840Y2671050D01*
G01X15510380Y2713370D02*
X15541880Y2686920D01*
X15577310Y2671050D01*
X15608810D01*
X15640300Y2686920D01*
X15663930Y2713370D01*
X15675740Y2750430D01*
X15667870Y2787460D01*
X15648180Y2819210D01*
X15612740Y2840390D01*
X15565500Y2850970D01*
X15537940Y2872130D01*
X15526130Y2909170D01*
X15534010Y2946220D01*
X15553690Y2972670D01*
X15581250Y2988550D01*
X15608810D01*
X15636370Y2977970D01*
X15659990Y2951510D01*
G01X7325360Y2512300D02*
Y-3837700D01*
G01X7317490Y3321050D02*
Y3638550D01*
X7396220D01*
X7427720Y3622670D01*
X7451340Y3601510D01*
X7471030Y3569760D01*
X7486780Y3532710D01*
X7490710Y3479800D01*
X7486780Y3426880D01*
X7471030Y3389840D01*
X7451340Y3358080D01*
X7427720Y3336920D01*
X7396220Y3321050D01*
X7317490D01*
G01X7640320D02*
Y3638550D01*
X7738740D01*
X7770240Y3622670D01*
X7789930Y3601510D01*
X7797800Y3559170D01*
X7789930Y3516840D01*
X7766300Y3490390D01*
X7738740Y3474500D01*
X7640320D01*
G01X7738740D02*
X7797800Y3321050D01*
G01X7986780Y3638550D02*
X8081260D01*
G01X8034020D02*
Y3321050D01*
G01X7986780D02*
X8081260D01*
G01X8270240Y3638550D02*
Y3321050D01*
X8427720D01*
G01X8585200Y3638550D02*
Y3321050D01*
X8742680D01*
G01X9380470Y3612090D02*
X9356850Y3627970D01*
X9329300Y3638550D01*
X9297800D01*
X9262360Y3622670D01*
X9234810Y3596220D01*
X9215120Y3564460D01*
X9199370Y3511550D01*
X9195430Y3463920D01*
X9203310Y3416300D01*
X9215120Y3384550D01*
X9238740Y3352790D01*
X9266300Y3331630D01*
X9293860Y3321050D01*
X9321420D01*
X9348980Y3331630D01*
X9372600Y3347500D01*
X9392290Y3368660D01*
G01X9526140Y3321050D02*
Y3638550D01*
G01X9691500D02*
Y3321050D01*
G01Y3479800D02*
X9526140D01*
G01X9825350Y3321050D02*
X9923780Y3638550D01*
X10022210Y3321050D01*
G01X9986770Y3432170D02*
X9860780D01*
G01X10160000Y3321050D02*
Y3638550D01*
X10258420D01*
X10289920Y3622670D01*
X10309610Y3601510D01*
X10317480Y3559170D01*
X10309610Y3516840D01*
X10285980Y3490390D01*
X10258420Y3474500D01*
X10160000D01*
G01X10258420D02*
X10317480Y3321050D01*
G01X10553700Y3638550D02*
Y3321050D01*
G01X10463150Y3638550D02*
X10644250D01*
G01X10868660Y3310470D02*
X10860780Y3315760D01*
Y3326340D01*
X10868660Y3331630D01*
X10876540Y3326340D01*
Y3315760D01*
X10868660Y3310470D01*
G01Y3453330D02*
X10860780Y3458630D01*
Y3469210D01*
X10868660Y3474500D01*
X10876540Y3469210D01*
Y3458630D01*
X10868660Y3453330D01*
G01X11498580Y3638550D02*
Y3321050D01*
G01X11408030Y3638550D02*
X11589130D01*
G01X11813540Y3321050D02*
X11782040Y3326340D01*
X11754490Y3347500D01*
X11730860Y3379260D01*
X11715110Y3416300D01*
X11707240Y3458630D01*
Y3500970D01*
X11715110Y3543300D01*
X11730860Y3580340D01*
X11754490Y3612090D01*
X11782040Y3633260D01*
X11813540Y3638550D01*
X11845030Y3633260D01*
X11872590Y3612090D01*
X11896220Y3580340D01*
X11911970Y3543300D01*
X11919840Y3500970D01*
Y3458630D01*
X11911970Y3416300D01*
X11896220Y3379260D01*
X11872590Y3347500D01*
X11845030Y3326340D01*
X11813540Y3321050D01*
G01X12049760D02*
Y3638550D01*
X12144250D01*
X12175740Y3622670D01*
X12199370Y3585630D01*
X12207240Y3543300D01*
X12199370Y3500970D01*
X12179680Y3469210D01*
X12144250Y3453330D01*
X12049760D01*
G01X12758420Y3638550D02*
Y3321050D01*
G01X12703300Y3532710D02*
X12813540D01*
G01X13073380Y3321050D02*
X13049760Y3326340D01*
X13026140Y3347500D01*
X13010380Y3384550D01*
X13002510Y3426880D01*
X13010380Y3469210D01*
X13026140Y3506260D01*
X13049760Y3527420D01*
X13073380Y3532710D01*
X13097000Y3527420D01*
X13120620Y3506260D01*
X13136370Y3469210D01*
X13140310Y3426880D01*
X13136370Y3384550D01*
X13120620Y3347500D01*
X13097000Y3326340D01*
X13073380Y3321050D01*
G01X13734790Y3490390D02*
X13750540Y3506260D01*
X13762350Y3532710D01*
X13770230Y3569760D01*
X13762350Y3601510D01*
X13746610Y3622670D01*
X13719050Y3638550D01*
X13612750D01*
Y3321050D01*
X13742670D01*
X13770230Y3342210D01*
X13785980Y3373970D01*
X13793850Y3411010D01*
X13785980Y3448040D01*
X13762350Y3479800D01*
X13734790Y3490390D01*
X13612750D01*
G01X14018260Y3321050D02*
X13986760Y3326340D01*
X13959210Y3347500D01*
X13935580Y3379260D01*
X13919830Y3416300D01*
X13911960Y3458630D01*
Y3500970D01*
X13919830Y3543300D01*
X13935580Y3580340D01*
X13959210Y3612090D01*
X13986760Y3633260D01*
X14018260Y3638550D01*
X14049750Y3633260D01*
X14077310Y3612090D01*
X14100940Y3580340D01*
X14116690Y3543300D01*
X14124560Y3500970D01*
Y3458630D01*
X14116690Y3416300D01*
X14100940Y3379260D01*
X14077310Y3347500D01*
X14049750Y3326340D01*
X14018260Y3321050D01*
G01X14333220Y3638550D02*
Y3321050D01*
G01X14242670Y3638550D02*
X14423770D01*
G01X14648180D02*
Y3321050D01*
G01X14557630Y3638550D02*
X14738730D01*
G01X14963140Y3321050D02*
X14931640Y3326340D01*
X14904090Y3347500D01*
X14880460Y3379260D01*
X14864710Y3416300D01*
X14856840Y3458630D01*
Y3500970D01*
X14864710Y3543300D01*
X14880460Y3580340D01*
X14904090Y3612090D01*
X14931640Y3633260D01*
X14963140Y3638550D01*
X14994630Y3633260D01*
X15022190Y3612090D01*
X15045820Y3580340D01*
X15061570Y3543300D01*
X15069440Y3500970D01*
Y3458630D01*
X15061570Y3416300D01*
X15045820Y3379260D01*
X15022190Y3347500D01*
X14994630Y3326340D01*
X14963140Y3321050D01*
G01X15175730D02*
Y3638550D01*
X15278100Y3373970D01*
X15380470Y3638550D01*
Y3321050D01*
G01X7447790Y-6547710D02*
X7464380Y-6525480D01*
X7478610Y-6512780D01*
X7497570Y-6506430D01*
X7514170Y-6512780D01*
X7526020Y-6525480D01*
X7535500Y-6544530D01*
X7537870Y-6566760D01*
X7535500Y-6585810D01*
X7526020Y-6604860D01*
X7511790Y-6620730D01*
X7495200Y-6627080D01*
X7476240Y-6620730D01*
X7459640Y-6601690D01*
X7450160Y-6573100D01*
X7447790Y-6541360D01*
X7452530Y-6500080D01*
X7459640Y-6477850D01*
X7471490Y-6455630D01*
X7488090Y-6439750D01*
X7504680Y-6436580D01*
X7521280Y-6442930D01*
X7533130Y-6458810D01*
G01X7683330Y-6633430D02*
X7678590Y-6630250D01*
Y-6623910D01*
X7683330Y-6620730D01*
X7688070Y-6623910D01*
Y-6630250D01*
X7683330Y-6633430D01*
G01X7873830Y-6436580D02*
X7854860Y-6442930D01*
X7840640Y-6458810D01*
X7831160Y-6477850D01*
X7824050Y-6503260D01*
X7821680Y-6531830D01*
X7824050Y-6560410D01*
X7831160Y-6585810D01*
X7840640Y-6604860D01*
X7854860Y-6620730D01*
X7873830Y-6627080D01*
X7892790Y-6620730D01*
X7907020Y-6604860D01*
X7916500Y-6585810D01*
X7923610Y-6560410D01*
X7925980Y-6531830D01*
X7923610Y-6503260D01*
X7916500Y-6477850D01*
X7907020Y-6458810D01*
X7892790Y-6442930D01*
X7873830Y-6436580D01*
G01X8193190Y-6627080D02*
Y-6436580D01*
X8254830Y-6595330D01*
X8316470Y-6436580D01*
Y-6627080D01*
G01X8416880Y-6436580D02*
X8473770D01*
G01X8445330D02*
Y-6627080D01*
G01X8416880D02*
X8473770D01*
G01X8588420Y-6436580D02*
Y-6627080D01*
X8683240D01*
G01X7994650Y-3043950D02*
Y-2726450D01*
X7947410Y-2789950D01*
G01Y-3043950D02*
X8041890D01*
G01X8309610Y-3054530D02*
X8301730Y-3049240D01*
Y-3038660D01*
X8309610Y-3033370D01*
X8317490Y-3038660D01*
Y-3049240D01*
X8309610Y-3054530D01*
G01X8537960Y-2996340D02*
X8561570Y-3022790D01*
X8589130Y-3038660D01*
X8624570Y-3043950D01*
X8660010Y-3033370D01*
X8687560Y-3012210D01*
X8707250Y-2975160D01*
X8711180Y-2932830D01*
X8703310Y-2890500D01*
X8683620Y-2864030D01*
X8656060Y-2842870D01*
X8628510Y-2837580D01*
X8600950Y-2842870D01*
X8565520Y-2864030D01*
X8577330Y-2726450D01*
X8683620D01*
G01X8986770Y-3043950D02*
Y-2726450D01*
X8841100Y-2953990D01*
X9037960D01*
G01X9187560Y-3006920D02*
X9215120Y-3033370D01*
X9246610Y-3043950D01*
X9278110Y-3033370D01*
X9305670Y-3001630D01*
X9325360Y-2953990D01*
X9333230Y-2906370D01*
Y-2848160D01*
X9325360Y-2800540D01*
X9305670Y-2758200D01*
X9282050Y-2737030D01*
X9254490Y-2726450D01*
X9222990Y-2737030D01*
X9199370Y-2758200D01*
X9183620Y-2789950D01*
X9175750Y-2832290D01*
X9183620Y-2869320D01*
X9203310Y-2906370D01*
X9226930Y-2927540D01*
X9254490Y-2932830D01*
X9285980Y-2922250D01*
X9309610Y-2895790D01*
X9333230Y-2848160D01*
G01X9502520Y-3006920D02*
X9530080Y-3033370D01*
X9561570Y-3043950D01*
X9593070Y-3033370D01*
X9620630Y-3001630D01*
X9640320Y-2953990D01*
X9648190Y-2906370D01*
Y-2848160D01*
X9640320Y-2800540D01*
X9620630Y-2758200D01*
X9597010Y-2737030D01*
X9569450Y-2726450D01*
X9537950Y-2737030D01*
X9514330Y-2758200D01*
X9498580Y-2789950D01*
X9490710Y-2832290D01*
X9498580Y-2869320D01*
X9518270Y-2906370D01*
X9541890Y-2927540D01*
X9569450Y-2932830D01*
X9600940Y-2922250D01*
X9624570Y-2895790D01*
X9648190Y-2848160D01*
G01X9825360Y-2832290D02*
X9943460Y-3043950D01*
G01Y-2832290D02*
X9825360Y-3043950D01*
G01X10199370Y-2726450D02*
X10167870Y-2737030D01*
X10144250Y-2763490D01*
X10128500Y-2795240D01*
X10116690Y-2837580D01*
X10112760Y-2885200D01*
X10116690Y-2932830D01*
X10128500Y-2975160D01*
X10144250Y-3006920D01*
X10167870Y-3033370D01*
X10199370Y-3043950D01*
X10230860Y-3033370D01*
X10254490Y-3006920D01*
X10270240Y-2975160D01*
X10282050Y-2932830D01*
X10285980Y-2885200D01*
X10282050Y-2837580D01*
X10270240Y-2795240D01*
X10254490Y-2763490D01*
X10230860Y-2737030D01*
X10199370Y-2726450D01*
G01X10514330Y-3054530D02*
X10506450Y-3049240D01*
Y-3038660D01*
X10514330Y-3033370D01*
X10522210Y-3038660D01*
Y-3049240D01*
X10514330Y-3054530D01*
G01X10876530Y-3043950D02*
Y-2726450D01*
X10730860Y-2953990D01*
X10927720D01*
G01X11057640Y-2996340D02*
X11081250Y-3022790D01*
X11108810Y-3038660D01*
X11144250Y-3043950D01*
X11179690Y-3033370D01*
X11207240Y-3012210D01*
X11226930Y-2975160D01*
X11230860Y-2932830D01*
X11222990Y-2890500D01*
X11203300Y-2864030D01*
X11175740Y-2842870D01*
X11148190Y-2837580D01*
X11120630Y-2842870D01*
X11085200Y-2864030D01*
X11097010Y-2726450D01*
X11203300D01*
G01X11459210D02*
X11427710Y-2737030D01*
X11404090Y-2763490D01*
X11388340Y-2795240D01*
X11376530Y-2837580D01*
X11372600Y-2885200D01*
X11376530Y-2932830D01*
X11388340Y-2975160D01*
X11404090Y-3006920D01*
X11427710Y-3033370D01*
X11459210Y-3043950D01*
X11490700Y-3033370D01*
X11514330Y-3006920D01*
X11530080Y-2975160D01*
X11541890Y-2932830D01*
X11545820Y-2885200D01*
X11541890Y-2837580D01*
X11530080Y-2795240D01*
X11514330Y-2763490D01*
X11490700Y-2737030D01*
X11459210Y-2726450D01*
G01X11774170Y-3043950D02*
Y-2726450D01*
X11726930Y-2789950D01*
G01Y-3043950D02*
X11821410D01*
G01X7919840Y2036050D02*
Y2353550D01*
X8069460D01*
G01X8014330Y2200100D02*
X7919840D01*
G01X8262370Y2353550D02*
X8356850D01*
G01X8309610D02*
Y2036050D01*
G01X8262370D02*
X8356850D01*
G01X8534020D02*
Y2353550D01*
X8715120Y2036050D01*
Y2353550D01*
G01X8892290D02*
X8986770D01*
G01X8939530D02*
Y2036050D01*
G01X8892290D02*
X8986770D01*
G01X9171810Y2078370D02*
X9203310Y2051920D01*
X9238740Y2036050D01*
X9270240D01*
X9301730Y2051920D01*
X9325360Y2078370D01*
X9337170Y2115430D01*
X9329300Y2152460D01*
X9309610Y2184210D01*
X9274170Y2205390D01*
X9226930Y2215970D01*
X9199370Y2237130D01*
X9187560Y2274170D01*
X9195440Y2311220D01*
X9215120Y2337670D01*
X9242680Y2353550D01*
X9270240D01*
X9297800Y2342970D01*
X9321420Y2316510D01*
G01X9486770Y2036050D02*
Y2353550D01*
G01X9652130D02*
Y2036050D01*
G01Y2194800D02*
X9486770D01*
G01X9963150Y2036050D02*
X9805670D01*
Y2353550D01*
X9963150D01*
G01X9900160Y2200100D02*
X9805670D01*
G01X10112760Y2036050D02*
Y2353550D01*
X10191490D01*
X10222990Y2337670D01*
X10246610Y2316510D01*
X10266300Y2284760D01*
X10282050Y2247710D01*
X10285980Y2194800D01*
X10282050Y2141880D01*
X10266300Y2104840D01*
X10246610Y2073080D01*
X10222990Y2051920D01*
X10191490Y2036050D01*
X10112760D01*
G01X10396220Y1930220D02*
X10632440D01*
G01X10746610Y2078370D02*
X10778110Y2051920D01*
X10813540Y2036050D01*
X10845040D01*
X10876530Y2051920D01*
X10900160Y2078370D01*
X10911970Y2115430D01*
X10904100Y2152460D01*
X10884410Y2184210D01*
X10848970Y2205390D01*
X10801730Y2215970D01*
X10774170Y2237130D01*
X10762360Y2274170D01*
X10770240Y2311220D01*
X10789920Y2337670D01*
X10817480Y2353550D01*
X10845040D01*
X10872600Y2342970D01*
X10896220Y2316510D01*
G01X11097010Y2353550D02*
X11191490D01*
G01X11144250D02*
Y2036050D01*
G01X11097010D02*
X11191490D01*
G01X11384400Y2353550D02*
X11534020D01*
X11384400Y2036050D01*
X11534020D01*
G01X11852910D02*
X11695430D01*
Y2353550D01*
X11852910D01*
G01X11789920Y2200100D02*
X11695430D01*
G01X8864720Y-3414370D02*
X8888350Y-3382620D01*
X8915910Y-3366740D01*
X8947410Y-3361450D01*
X8986770Y-3372030D01*
X9014340Y-3398490D01*
X9022210Y-3430240D01*
X9018270Y-3462000D01*
X9002520Y-3488450D01*
X8923780Y-3541370D01*
X8888350Y-3578410D01*
X8864720Y-3631340D01*
X8856850Y-3678950D01*
X9022210D01*
G01X9254490Y-3689530D02*
X9246610Y-3684240D01*
Y-3673660D01*
X9254490Y-3668370D01*
X9262370Y-3673660D01*
Y-3684240D01*
X9254490Y-3689530D01*
G01X9494640Y-3414370D02*
X9518270Y-3382620D01*
X9545830Y-3366740D01*
X9577330Y-3361450D01*
X9616690Y-3372030D01*
X9644260Y-3398490D01*
X9652130Y-3430240D01*
X9648190Y-3462000D01*
X9632440Y-3488450D01*
X9553700Y-3541370D01*
X9518270Y-3578410D01*
X9494640Y-3631340D01*
X9486770Y-3678950D01*
X9652130D01*
G01X9825360Y-3467290D02*
X9943460Y-3678950D01*
G01Y-3467290D02*
X9825360Y-3678950D01*
G01X10199370Y-3361450D02*
X10167870Y-3372030D01*
X10144250Y-3398490D01*
X10128500Y-3430240D01*
X10116690Y-3472580D01*
X10112760Y-3520200D01*
X10116690Y-3567830D01*
X10128500Y-3610160D01*
X10144250Y-3641920D01*
X10167870Y-3668370D01*
X10199370Y-3678950D01*
X10230860Y-3668370D01*
X10254490Y-3641920D01*
X10270240Y-3610160D01*
X10282050Y-3567830D01*
X10285980Y-3520200D01*
X10282050Y-3472580D01*
X10270240Y-3430240D01*
X10254490Y-3398490D01*
X10230860Y-3372030D01*
X10199370Y-3361450D01*
G01X10514330Y-3689530D02*
X10506450Y-3684240D01*
Y-3673660D01*
X10514330Y-3668370D01*
X10522210Y-3673660D01*
Y-3684240D01*
X10514330Y-3689530D01*
G01X10829290Y-3678950D02*
X10856850Y-3673660D01*
X10888340Y-3657790D01*
X10908030Y-3631340D01*
X10915900Y-3594280D01*
X10908030Y-3557250D01*
X10884410Y-3525500D01*
X10848970Y-3509610D01*
X10809610D01*
X10785980Y-3499030D01*
X10766290Y-3472580D01*
X10758420Y-3435540D01*
X10770240Y-3398490D01*
X10797790Y-3372030D01*
X10829290Y-3361450D01*
X10860780Y-3372030D01*
X10888340Y-3398490D01*
X10900160Y-3435540D01*
X10892280Y-3472580D01*
X10872600Y-3499030D01*
X10848970Y-3509610D01*
X10809610D01*
X10774170Y-3525500D01*
X10750550Y-3557250D01*
X10742680Y-3594280D01*
X10750550Y-3631340D01*
X10770240Y-3657790D01*
X10801730Y-3673660D01*
X10829290Y-3678950D01*
G01X9097010Y-186450D02*
X9065510Y-197030D01*
X9041890Y-223490D01*
X9026140Y-255240D01*
X9014330Y-297580D01*
X9010400Y-345200D01*
X9014330Y-392830D01*
X9026140Y-435160D01*
X9041890Y-466920D01*
X9065510Y-493370D01*
X9097010Y-503950D01*
X9128500Y-493370D01*
X9152130Y-466920D01*
X9167880Y-435160D01*
X9179690Y-392830D01*
X9183620Y-345200D01*
X9179690Y-297580D01*
X9167880Y-255240D01*
X9152130Y-223490D01*
X9128500Y-197030D01*
X9097010Y-186450D01*
G01X9411970Y-514530D02*
X9404090Y-509240D01*
Y-498660D01*
X9411970Y-493370D01*
X9419850Y-498660D01*
Y-509240D01*
X9411970Y-514530D01*
G01X9640320Y-456340D02*
X9663930Y-482790D01*
X9691490Y-498660D01*
X9726930Y-503950D01*
X9762370Y-493370D01*
X9789920Y-472210D01*
X9809610Y-435160D01*
X9813540Y-392830D01*
X9805670Y-350500D01*
X9785980Y-324030D01*
X9758420Y-302870D01*
X9730870Y-297580D01*
X9703310Y-302870D01*
X9667880Y-324030D01*
X9679690Y-186450D01*
X9785980D01*
G01X9974960Y-466920D02*
X10002520Y-493370D01*
X10034010Y-503950D01*
X10065510Y-493370D01*
X10093070Y-461630D01*
X10112760Y-413990D01*
X10120630Y-366370D01*
Y-308160D01*
X10112760Y-260540D01*
X10093070Y-218200D01*
X10069450Y-197030D01*
X10041890Y-186450D01*
X10010390Y-197030D01*
X9986770Y-218200D01*
X9971020Y-249950D01*
X9963150Y-292290D01*
X9971020Y-329320D01*
X9990710Y-366370D01*
X10014330Y-387540D01*
X10041890Y-392830D01*
X10073380Y-382250D01*
X10097010Y-355790D01*
X10120630Y-308160D01*
G01X10289920Y-466920D02*
X10317480Y-493370D01*
X10348970Y-503950D01*
X10380470Y-493370D01*
X10408030Y-461630D01*
X10427720Y-413990D01*
X10435590Y-366370D01*
Y-308160D01*
X10427720Y-260540D01*
X10408030Y-218200D01*
X10384410Y-197030D01*
X10356850Y-186450D01*
X10325350Y-197030D01*
X10301730Y-218200D01*
X10285980Y-249950D01*
X10278110Y-292290D01*
X10285980Y-329320D01*
X10305670Y-366370D01*
X10329290Y-387540D01*
X10356850Y-392830D01*
X10388340Y-382250D01*
X10411970Y-355790D01*
X10435590Y-308160D01*
G01X10604880Y-466920D02*
X10632440Y-493370D01*
X10663930Y-503950D01*
X10695430Y-493370D01*
X10722990Y-461630D01*
X10742680Y-413990D01*
X10750550Y-366370D01*
Y-308160D01*
X10742680Y-260540D01*
X10722990Y-218200D01*
X10699370Y-197030D01*
X10671810Y-186450D01*
X10640310Y-197030D01*
X10616690Y-218200D01*
X10600940Y-249950D01*
X10593070Y-292290D01*
X10600940Y-329320D01*
X10620630Y-366370D01*
X10644250Y-387540D01*
X10671810Y-392830D01*
X10703300Y-382250D01*
X10726930Y-355790D01*
X10750550Y-308160D01*
G01X9097010Y1718550D02*
X9065510Y1707970D01*
X9041890Y1681510D01*
X9026140Y1649760D01*
X9014330Y1607420D01*
X9010400Y1559800D01*
X9014330Y1512170D01*
X9026140Y1469840D01*
X9041890Y1438080D01*
X9065510Y1411630D01*
X9097010Y1401050D01*
X9128500Y1411630D01*
X9152130Y1438080D01*
X9167880Y1469840D01*
X9179690Y1512170D01*
X9183620Y1559800D01*
X9179690Y1607420D01*
X9167880Y1649760D01*
X9152130Y1681510D01*
X9128500Y1707970D01*
X9097010Y1718550D01*
G01X9411970Y1390470D02*
X9404090Y1395760D01*
Y1406340D01*
X9411970Y1411630D01*
X9419850Y1406340D01*
Y1395760D01*
X9411970Y1390470D01*
G01X9640320Y1464550D02*
X9663930Y1427500D01*
X9695430Y1406340D01*
X9730870Y1401050D01*
X9762370Y1406340D01*
X9793860Y1432790D01*
X9813540Y1464550D01*
X9817480Y1496300D01*
X9809610Y1533330D01*
X9782050Y1559800D01*
X9754490Y1570390D01*
X9719050D01*
G01X9754490D02*
X9778110Y1586260D01*
X9797800Y1612710D01*
X9805670Y1644460D01*
X9797800Y1676220D01*
X9778110Y1702670D01*
X9742680Y1718550D01*
X9707250Y1713260D01*
X9671810Y1692090D01*
G01X10041890Y1718550D02*
X10010390Y1707970D01*
X9986770Y1681510D01*
X9971020Y1649760D01*
X9959210Y1607420D01*
X9955280Y1559800D01*
X9959210Y1512170D01*
X9971020Y1469840D01*
X9986770Y1438080D01*
X10010390Y1411630D01*
X10041890Y1401050D01*
X10073380Y1411630D01*
X10097010Y1438080D01*
X10112760Y1469840D01*
X10124570Y1512170D01*
X10128500Y1559800D01*
X10124570Y1607420D01*
X10112760Y1649760D01*
X10097010Y1681510D01*
X10073380Y1707970D01*
X10041890Y1718550D01*
G01X10404090Y1401050D02*
Y1718550D01*
X10258420Y1491010D01*
X10455280D01*
G01X10671810Y1401050D02*
X10699370Y1406340D01*
X10730860Y1422210D01*
X10750550Y1448660D01*
X10758420Y1485720D01*
X10750550Y1522750D01*
X10726930Y1554500D01*
X10691490Y1570390D01*
X10652130D01*
X10628500Y1580970D01*
X10608810Y1607420D01*
X10600940Y1644460D01*
X10612760Y1681510D01*
X10640310Y1707970D01*
X10671810Y1718550D01*
X10703300Y1707970D01*
X10730860Y1681510D01*
X10742680Y1644460D01*
X10734800Y1607420D01*
X10715120Y1580970D01*
X10691490Y1570390D01*
X10652130D01*
X10616690Y1554500D01*
X10593070Y1522750D01*
X10585200Y1485720D01*
X10593070Y1448660D01*
X10612760Y1422210D01*
X10644250Y1406340D01*
X10671810Y1401050D01*
G01X9421710Y-5027080D02*
Y-7027080D01*
G01X9569450Y-2408950D02*
Y-2091450D01*
X9522210Y-2154950D01*
G01Y-2408950D02*
X9616690D01*
G01X9884410Y-2419530D02*
X9876530Y-2414240D01*
Y-2403660D01*
X9884410Y-2398370D01*
X9892290Y-2403660D01*
Y-2414240D01*
X9884410Y-2419530D01*
G01X10199370Y-2091450D02*
X10167870Y-2102030D01*
X10144250Y-2128490D01*
X10128500Y-2160240D01*
X10116690Y-2202580D01*
X10112760Y-2250200D01*
X10116690Y-2297830D01*
X10128500Y-2340160D01*
X10144250Y-2371920D01*
X10167870Y-2398370D01*
X10199370Y-2408950D01*
X10230860Y-2398370D01*
X10254490Y-2371920D01*
X10270240Y-2340160D01*
X10282050Y-2297830D01*
X10285980Y-2250200D01*
X10282050Y-2202580D01*
X10270240Y-2160240D01*
X10254490Y-2128490D01*
X10230860Y-2102030D01*
X10199370Y-2091450D01*
G01X9569450Y-1456450D02*
X9537950Y-1467030D01*
X9514330Y-1493490D01*
X9498580Y-1525240D01*
X9486770Y-1567580D01*
X9482840Y-1615200D01*
X9486770Y-1662830D01*
X9498580Y-1705160D01*
X9514330Y-1736920D01*
X9537950Y-1763370D01*
X9569450Y-1773950D01*
X9600940Y-1763370D01*
X9624570Y-1736920D01*
X9640320Y-1705160D01*
X9652130Y-1662830D01*
X9656060Y-1615200D01*
X9652130Y-1567580D01*
X9640320Y-1525240D01*
X9624570Y-1493490D01*
X9600940Y-1467030D01*
X9569450Y-1456450D01*
G01X9884410Y-1784530D02*
X9876530Y-1779240D01*
Y-1768660D01*
X9884410Y-1763370D01*
X9892290Y-1768660D01*
Y-1779240D01*
X9884410Y-1784530D01*
G01X10132440Y-1736920D02*
X10160000Y-1763370D01*
X10191490Y-1773950D01*
X10222990Y-1763370D01*
X10250550Y-1731630D01*
X10270240Y-1683990D01*
X10278110Y-1636370D01*
Y-1578160D01*
X10270240Y-1530540D01*
X10250550Y-1488200D01*
X10226930Y-1467030D01*
X10199370Y-1456450D01*
X10167870Y-1467030D01*
X10144250Y-1488200D01*
X10128500Y-1519950D01*
X10120630Y-1562290D01*
X10128500Y-1599320D01*
X10148190Y-1636370D01*
X10171810Y-1657540D01*
X10199370Y-1662830D01*
X10230860Y-1652250D01*
X10254490Y-1625790D01*
X10278110Y-1578160D01*
G01X9569450Y-821450D02*
X9537950Y-832030D01*
X9514330Y-858490D01*
X9498580Y-890240D01*
X9486770Y-932580D01*
X9482840Y-980200D01*
X9486770Y-1027830D01*
X9498580Y-1070160D01*
X9514330Y-1101920D01*
X9537950Y-1128370D01*
X9569450Y-1138950D01*
X9600940Y-1128370D01*
X9624570Y-1101920D01*
X9640320Y-1070160D01*
X9652130Y-1027830D01*
X9656060Y-980200D01*
X9652130Y-932580D01*
X9640320Y-890240D01*
X9624570Y-858490D01*
X9600940Y-832030D01*
X9569450Y-821450D01*
G01X9884410Y-1149530D02*
X9876530Y-1144240D01*
Y-1133660D01*
X9884410Y-1128370D01*
X9892290Y-1133660D01*
Y-1144240D01*
X9884410Y-1149530D01*
G01X10191490Y-1138950D02*
X10199370Y-1070160D01*
X10211180Y-1011960D01*
X10226930Y-959030D01*
X10246610Y-900830D01*
X10278110Y-821450D01*
X10120630D01*
G01X9569450Y131050D02*
Y448550D01*
X9522210Y385050D01*
G01Y131050D02*
X9616690D01*
G01X9884410Y120470D02*
X9876530Y125760D01*
Y136340D01*
X9884410Y141630D01*
X9892290Y136340D01*
Y125760D01*
X9884410Y120470D01*
G01X10199370Y448550D02*
X10167870Y437970D01*
X10144250Y411510D01*
X10128500Y379760D01*
X10116690Y337420D01*
X10112760Y289800D01*
X10116690Y242170D01*
X10128500Y199840D01*
X10144250Y168080D01*
X10167870Y141630D01*
X10199370Y131050D01*
X10230860Y141630D01*
X10254490Y168080D01*
X10270240Y199840D01*
X10282050Y242170D01*
X10285980Y289800D01*
X10282050Y337420D01*
X10270240Y379760D01*
X10254490Y411510D01*
X10230860Y437970D01*
X10199370Y448550D01*
G01X9569450Y766050D02*
Y1083550D01*
X9522210Y1020050D01*
G01Y766050D02*
X9616690D01*
G01X9884410Y755470D02*
X9876530Y760760D01*
Y771340D01*
X9884410Y776630D01*
X9892290Y771340D01*
Y760760D01*
X9884410Y755470D01*
G01X10199370Y1083550D02*
X10167870Y1072970D01*
X10144250Y1046510D01*
X10128500Y1014760D01*
X10116690Y972420D01*
X10112760Y924800D01*
X10116690Y877170D01*
X10128500Y834840D01*
X10144250Y803080D01*
X10167870Y776630D01*
X10199370Y766050D01*
X10230860Y776630D01*
X10254490Y803080D01*
X10270240Y834840D01*
X10282050Y877170D01*
X10285980Y924800D01*
X10282050Y972420D01*
X10270240Y1014760D01*
X10254490Y1046510D01*
X10230860Y1072970D01*
X10199370Y1083550D01*
G01X9646780Y-6505830D02*
X9663370Y-6483600D01*
X9677600Y-6470900D01*
X9696560Y-6464550D01*
X9713160Y-6470900D01*
X9725010Y-6483600D01*
X9734490Y-6502650D01*
X9736860Y-6524880D01*
X9734490Y-6543930D01*
X9725010Y-6562980D01*
X9710780Y-6578850D01*
X9694190Y-6585200D01*
X9675230Y-6578850D01*
X9658630Y-6559810D01*
X9649150Y-6531220D01*
X9646780Y-6499480D01*
X9651520Y-6458200D01*
X9658630Y-6435970D01*
X9670480Y-6413750D01*
X9687080Y-6397870D01*
X9703670Y-6394700D01*
X9720270Y-6401050D01*
X9732120Y-6416930D01*
G01X9882320Y-6591550D02*
X9877580Y-6588370D01*
Y-6582030D01*
X9882320Y-6578850D01*
X9887060Y-6582030D01*
Y-6588370D01*
X9882320Y-6591550D01*
G01X10072820Y-6394700D02*
X10053850Y-6401050D01*
X10039630Y-6416930D01*
X10030150Y-6435970D01*
X10023040Y-6461380D01*
X10020670Y-6489950D01*
X10023040Y-6518530D01*
X10030150Y-6543930D01*
X10039630Y-6562980D01*
X10053850Y-6578850D01*
X10072820Y-6585200D01*
X10091780Y-6578850D01*
X10106010Y-6562980D01*
X10115490Y-6543930D01*
X10122600Y-6518530D01*
X10124970Y-6489950D01*
X10122600Y-6461380D01*
X10115490Y-6435970D01*
X10106010Y-6416930D01*
X10091780Y-6401050D01*
X10072820Y-6394700D01*
G01X10392180Y-6585200D02*
Y-6394700D01*
X10453820Y-6553450D01*
X10515460Y-6394700D01*
Y-6585200D01*
G01X10615870Y-6394700D02*
X10672760D01*
G01X10644320D02*
Y-6585200D01*
G01X10615870D02*
X10672760D01*
G01X10787410Y-6394700D02*
Y-6585200D01*
X10882230D01*
G01X9742040Y-5559810D02*
X9761000Y-5575680D01*
X9782340Y-5585200D01*
X9801300D01*
X9820270Y-5575680D01*
X9834490Y-5559810D01*
X9841600Y-5537570D01*
X9836860Y-5515350D01*
X9825010Y-5496300D01*
X9803670Y-5483600D01*
X9775230Y-5477250D01*
X9758630Y-5464550D01*
X9751520Y-5442330D01*
X9756260Y-5420100D01*
X9768110Y-5404230D01*
X9784710Y-5394700D01*
X9801300D01*
X9817900Y-5401050D01*
X9832120Y-5416930D01*
G01X9934910Y-5585200D02*
Y-5394700D01*
X9991800D01*
X10010770Y-5404230D01*
X10024990Y-5426450D01*
X10029730Y-5451850D01*
X10024990Y-5477250D01*
X10013140Y-5496300D01*
X9991800Y-5505830D01*
X9934910D01*
G01X10113550Y-5585200D02*
X10172820Y-5394700D01*
X10232090Y-5585200D01*
G01X10210750Y-5518530D02*
X10134890D01*
G01X10415470Y-5410580D02*
X10401250Y-5401050D01*
X10384660Y-5394700D01*
X10365690D01*
X10344350Y-5404230D01*
X10327760Y-5420100D01*
X10315910Y-5439150D01*
X10306420Y-5470900D01*
X10304050Y-5499480D01*
X10308800Y-5528050D01*
X10315910Y-5547100D01*
X10330130Y-5566150D01*
X10346730Y-5578850D01*
X10363320Y-5585200D01*
X10379910D01*
X10396510Y-5578850D01*
X10410730Y-5569330D01*
X10422590Y-5556630D01*
G01X10525370Y-5394700D02*
X10582260D01*
G01X10553820D02*
Y-5585200D01*
G01X10525370D02*
X10582260D01*
G01X10689800D02*
Y-5394700D01*
X10798840Y-5585200D01*
Y-5394700D01*
G01X10949040Y-5489950D02*
X10996460D01*
Y-5547100D01*
X10982230Y-5566150D01*
X10965640Y-5578850D01*
X10941930Y-5585200D01*
X10918230Y-5578850D01*
X10901630Y-5566150D01*
X10887410Y-5547100D01*
X10877920Y-5524880D01*
X10873180Y-5499480D01*
Y-5477250D01*
X10877920Y-5458200D01*
X10887410Y-5435970D01*
X10901630Y-5416930D01*
X10915850Y-5404230D01*
X10934820Y-5394700D01*
X10951410D01*
X10970380Y-5401050D01*
X10984600Y-5413750D01*
G01X11621710Y-5027080D02*
Y-7027080D01*
G01X11832530Y-6594860D02*
X11849120Y-6610730D01*
X11868090Y-6617080D01*
X11887050Y-6610730D01*
X11903650Y-6591690D01*
X11915500Y-6563100D01*
X11920240Y-6534530D01*
Y-6499610D01*
X11915500Y-6471030D01*
X11903650Y-6445630D01*
X11889420Y-6432930D01*
X11872830Y-6426580D01*
X11853860Y-6432930D01*
X11839640Y-6445630D01*
X11830160Y-6464680D01*
X11825420Y-6490080D01*
X11830160Y-6512300D01*
X11842010Y-6534530D01*
X11856240Y-6547230D01*
X11872830Y-6550410D01*
X11891790Y-6544060D01*
X11906020Y-6528180D01*
X11920240Y-6499610D01*
G01X12063330Y-6426580D02*
X12044360Y-6432930D01*
X12030140Y-6448810D01*
X12020660Y-6467850D01*
X12013550Y-6493260D01*
X12011180Y-6521830D01*
X12013550Y-6550410D01*
X12020660Y-6575810D01*
X12030140Y-6594860D01*
X12044360Y-6610730D01*
X12063330Y-6617080D01*
X12082290Y-6610730D01*
X12096520Y-6594860D01*
X12106000Y-6575810D01*
X12113110Y-6550410D01*
X12115480Y-6521830D01*
X12113110Y-6493260D01*
X12106000Y-6467850D01*
X12096520Y-6448810D01*
X12082290Y-6432930D01*
X12063330Y-6426580D01*
G01X12444330Y-6617080D02*
X12425360Y-6613910D01*
X12408770Y-6601210D01*
X12394550Y-6582160D01*
X12385060Y-6559930D01*
X12380320Y-6534530D01*
Y-6509130D01*
X12385060Y-6483730D01*
X12394550Y-6461500D01*
X12408770Y-6442460D01*
X12425360Y-6429750D01*
X12444330Y-6426580D01*
X12463290Y-6429750D01*
X12479890Y-6442460D01*
X12494110Y-6461500D01*
X12503600Y-6483730D01*
X12508340Y-6509130D01*
Y-6534530D01*
X12503600Y-6559930D01*
X12494110Y-6582160D01*
X12479890Y-6601210D01*
X12463290Y-6613910D01*
X12444330Y-6617080D01*
G01X12585050D02*
Y-6426580D01*
G01X12684610D02*
Y-6617080D01*
G01Y-6521830D02*
X12585050D01*
G01X12763690Y-6617080D02*
Y-6426580D01*
X12825330Y-6585330D01*
X12886970Y-6426580D01*
Y-6617080D01*
G01X13154180D02*
Y-6426580D01*
X13201590D01*
X13220550Y-6436110D01*
X13234780Y-6448810D01*
X13246630Y-6467850D01*
X13256110Y-6490080D01*
X13258480Y-6521830D01*
X13256110Y-6553580D01*
X13246630Y-6575810D01*
X13234780Y-6594860D01*
X13220550Y-6607560D01*
X13201590Y-6617080D01*
X13154180D01*
G01X13368380Y-6426580D02*
X13425270D01*
G01X13396830D02*
Y-6617080D01*
G01X13368380D02*
X13425270D01*
G01X13542290D02*
Y-6426580D01*
X13632370D01*
G01X13599180Y-6518650D02*
X13542290D01*
G01X13732790Y-6617080D02*
Y-6426580D01*
X13822870D01*
G01X13789680Y-6518650D02*
X13732790D01*
G01X14015740Y-6617080D02*
X13920920D01*
Y-6426580D01*
X14015740D01*
G01X13977810Y-6518650D02*
X13920920D01*
G01X14111420Y-6617080D02*
Y-6426580D01*
X14170680D01*
X14189650Y-6436110D01*
X14201500Y-6448810D01*
X14206240Y-6474210D01*
X14201500Y-6499610D01*
X14187280Y-6515480D01*
X14170680Y-6525010D01*
X14111420D01*
G01X14170680D02*
X14206240Y-6617080D01*
G01X14396740D02*
X14301920D01*
Y-6426580D01*
X14396740D01*
G01X14358810Y-6518650D02*
X14301920D01*
G01X14485310Y-6617080D02*
Y-6426580D01*
X14594350Y-6617080D01*
Y-6426580D01*
G01X14730330D02*
Y-6617080D01*
G01X14675810Y-6426580D02*
X14784850D01*
G01X14892380D02*
X14949270D01*
G01X14920830D02*
Y-6617080D01*
G01X14892380D02*
X14949270D01*
G01X15052060D02*
X15111330Y-6426580D01*
X15170600Y-6617080D01*
G01X15149260Y-6550410D02*
X15073400D01*
G01X15254420Y-6426580D02*
Y-6617080D01*
X15349240D01*
G01X12704380Y-5376580D02*
X12761270D01*
G01X12732830D02*
Y-5567080D01*
G01X12704380D02*
X12761270D01*
G01X12861690D02*
Y-5376580D01*
X12923330Y-5535330D01*
X12984970Y-5376580D01*
Y-5567080D01*
G01X13066420D02*
Y-5376580D01*
X13123310D01*
X13142280Y-5386110D01*
X13156500Y-5408330D01*
X13161240Y-5433730D01*
X13156500Y-5459130D01*
X13144650Y-5478180D01*
X13123310Y-5487710D01*
X13066420D01*
G01X13351740Y-5567080D02*
X13256920D01*
Y-5376580D01*
X13351740D01*
G01X13313810Y-5468650D02*
X13256920D01*
G01X13442680Y-5567080D02*
Y-5376580D01*
X13490090D01*
X13509050Y-5386110D01*
X13523280Y-5398810D01*
X13535130Y-5417850D01*
X13544610Y-5440080D01*
X13546980Y-5471830D01*
X13544610Y-5503580D01*
X13535130Y-5525810D01*
X13523280Y-5544860D01*
X13509050Y-5557560D01*
X13490090Y-5567080D01*
X13442680D01*
G01X13626060D02*
X13685330Y-5376580D01*
X13744600Y-5567080D01*
G01X13723260Y-5500410D02*
X13647400D01*
G01X13821310Y-5567080D02*
Y-5376580D01*
X13930350Y-5567080D01*
Y-5376580D01*
G01X14118480Y-5392460D02*
X14104260Y-5382930D01*
X14087670Y-5376580D01*
X14068700D01*
X14047360Y-5386110D01*
X14030770Y-5401980D01*
X14018920Y-5421030D01*
X14009430Y-5452780D01*
X14007060Y-5481360D01*
X14011810Y-5509930D01*
X14018920Y-5528980D01*
X14033140Y-5548030D01*
X14049740Y-5560730D01*
X14066330Y-5567080D01*
X14082920D01*
X14099520Y-5560730D01*
X14113740Y-5551210D01*
X14125600Y-5538510D01*
G01X14304240Y-5567080D02*
X14209420D01*
Y-5376580D01*
X14304240D01*
G01X14266310Y-5468650D02*
X14209420D01*
G01X12443460Y2512300D02*
Y-3837700D01*
G01X12549760Y-2408950D02*
Y-2091450D01*
X12730860Y-2408950D01*
Y-2091450D01*
G01X12955270Y-2408950D02*
X12923770Y-2403660D01*
X12896220Y-2382500D01*
X12872590Y-2350740D01*
X12856840Y-2313700D01*
X12848970Y-2271370D01*
Y-2229030D01*
X12856840Y-2186700D01*
X12872590Y-2149660D01*
X12896220Y-2117910D01*
X12923770Y-2096740D01*
X12955270Y-2091450D01*
X12986760Y-2096740D01*
X13014320Y-2117910D01*
X13037950Y-2149660D01*
X13053700Y-2186700D01*
X13061570Y-2229030D01*
Y-2271370D01*
X13053700Y-2313700D01*
X13037950Y-2350740D01*
X13014320Y-2382500D01*
X12986760Y-2403660D01*
X12955270Y-2408950D01*
G01X13179680D02*
Y-2091450D01*
X13360780Y-2408950D01*
Y-2091450D01*
G01X13534010Y-2303120D02*
X13636370D01*
G01X13821410Y-2408950D02*
Y-2091450D01*
X13915900D01*
X13947390Y-2107330D01*
X13971020Y-2144370D01*
X13978890Y-2186700D01*
X13971020Y-2229030D01*
X13951330Y-2260790D01*
X13915900Y-2276670D01*
X13821410D01*
G01X14136370Y-2091450D02*
Y-2408950D01*
X14293850D01*
G01X14431640D02*
X14530070Y-2091450D01*
X14628500Y-2408950D01*
G01X14593060Y-2297830D02*
X14467070D01*
G01X14845030Y-2091450D02*
Y-2408950D01*
G01X14754480Y-2091450D02*
X14935580D01*
G01X15238730Y-2408950D02*
X15081250D01*
Y-2091450D01*
X15238730D01*
G01X15175740Y-2244900D02*
X15081250D01*
G01X15388340Y-2408950D02*
Y-2091450D01*
X15467070D01*
X15498570Y-2107330D01*
X15522190Y-2128490D01*
X15541880Y-2160240D01*
X15557630Y-2197290D01*
X15561560Y-2250200D01*
X15557630Y-2303120D01*
X15541880Y-2340160D01*
X15522190Y-2371920D01*
X15498570Y-2393080D01*
X15467070Y-2408950D01*
X15388340D01*
G01X12549760Y-1773950D02*
Y-1456450D01*
X12730860Y-1773950D01*
Y-1456450D01*
G01X12955270Y-1773950D02*
X12923770Y-1768660D01*
X12896220Y-1747500D01*
X12872590Y-1715740D01*
X12856840Y-1678700D01*
X12848970Y-1636370D01*
Y-1594030D01*
X12856840Y-1551700D01*
X12872590Y-1514660D01*
X12896220Y-1482910D01*
X12923770Y-1461740D01*
X12955270Y-1456450D01*
X12986760Y-1461740D01*
X13014320Y-1482910D01*
X13037950Y-1514660D01*
X13053700Y-1551700D01*
X13061570Y-1594030D01*
Y-1636370D01*
X13053700Y-1678700D01*
X13037950Y-1715740D01*
X13014320Y-1747500D01*
X12986760Y-1768660D01*
X12955270Y-1773950D01*
G01X13179680D02*
Y-1456450D01*
X13360780Y-1773950D01*
Y-1456450D01*
G01X13534010Y-1668120D02*
X13636370D01*
G01X13821410Y-1773950D02*
Y-1456450D01*
X13915900D01*
X13947390Y-1472330D01*
X13971020Y-1509370D01*
X13978890Y-1551700D01*
X13971020Y-1594030D01*
X13951330Y-1625790D01*
X13915900Y-1641670D01*
X13821410D01*
G01X14136370Y-1456450D02*
Y-1773950D01*
X14293850D01*
G01X14431640D02*
X14530070Y-1456450D01*
X14628500Y-1773950D01*
G01X14593060Y-1662830D02*
X14467070D01*
G01X14845030Y-1456450D02*
Y-1773950D01*
G01X14754480Y-1456450D02*
X14935580D01*
G01X15238730Y-1773950D02*
X15081250D01*
Y-1456450D01*
X15238730D01*
G01X15175740Y-1609900D02*
X15081250D01*
G01X15388340Y-1773950D02*
Y-1456450D01*
X15467070D01*
X15498570Y-1472330D01*
X15522190Y-1493490D01*
X15541880Y-1525240D01*
X15557630Y-1562290D01*
X15561560Y-1615200D01*
X15557630Y-1668120D01*
X15541880Y-1705160D01*
X15522190Y-1736920D01*
X15498570Y-1758080D01*
X15467070Y-1773950D01*
X15388340D01*
G01X12549760Y-1138950D02*
Y-821450D01*
X12730860Y-1138950D01*
Y-821450D01*
G01X12955270Y-1138950D02*
X12923770Y-1133660D01*
X12896220Y-1112500D01*
X12872590Y-1080740D01*
X12856840Y-1043700D01*
X12848970Y-1001370D01*
Y-959030D01*
X12856840Y-916700D01*
X12872590Y-879660D01*
X12896220Y-847910D01*
X12923770Y-826740D01*
X12955270Y-821450D01*
X12986760Y-826740D01*
X13014320Y-847910D01*
X13037950Y-879660D01*
X13053700Y-916700D01*
X13061570Y-959030D01*
Y-1001370D01*
X13053700Y-1043700D01*
X13037950Y-1080740D01*
X13014320Y-1112500D01*
X12986760Y-1133660D01*
X12955270Y-1138950D01*
G01X13179680D02*
Y-821450D01*
X13360780Y-1138950D01*
Y-821450D01*
G01X13534010Y-1033120D02*
X13636370D01*
G01X13821410Y-1138950D02*
Y-821450D01*
X13915900D01*
X13947390Y-837330D01*
X13971020Y-874370D01*
X13978890Y-916700D01*
X13971020Y-959030D01*
X13951330Y-990790D01*
X13915900Y-1006670D01*
X13821410D01*
G01X14136370Y-821450D02*
Y-1138950D01*
X14293850D01*
G01X14431640D02*
X14530070Y-821450D01*
X14628500Y-1138950D01*
G01X14593060Y-1027830D02*
X14467070D01*
G01X14845030Y-821450D02*
Y-1138950D01*
G01X14754480Y-821450D02*
X14935580D01*
G01X15238730Y-1138950D02*
X15081250D01*
Y-821450D01*
X15238730D01*
G01X15175740Y-974900D02*
X15081250D01*
G01X15388340Y-1138950D02*
Y-821450D01*
X15467070D01*
X15498570Y-837330D01*
X15522190Y-858490D01*
X15541880Y-890240D01*
X15557630Y-927290D01*
X15561560Y-980200D01*
X15557630Y-1033120D01*
X15541880Y-1070160D01*
X15522190Y-1101920D01*
X15498570Y-1123080D01*
X15467070Y-1138950D01*
X15388340D01*
G01X12549760Y-503950D02*
Y-186450D01*
X12730860Y-503950D01*
Y-186450D01*
G01X12955270Y-503950D02*
X12923770Y-498660D01*
X12896220Y-477500D01*
X12872590Y-445740D01*
X12856840Y-408700D01*
X12848970Y-366370D01*
Y-324030D01*
X12856840Y-281700D01*
X12872590Y-244660D01*
X12896220Y-212910D01*
X12923770Y-191740D01*
X12955270Y-186450D01*
X12986760Y-191740D01*
X13014320Y-212910D01*
X13037950Y-244660D01*
X13053700Y-281700D01*
X13061570Y-324030D01*
Y-366370D01*
X13053700Y-408700D01*
X13037950Y-445740D01*
X13014320Y-477500D01*
X12986760Y-498660D01*
X12955270Y-503950D01*
G01X13179680D02*
Y-186450D01*
X13360780Y-503950D01*
Y-186450D01*
G01X13534010Y-398120D02*
X13636370D01*
G01X13821410Y-503950D02*
Y-186450D01*
X13915900D01*
X13947390Y-202330D01*
X13971020Y-239370D01*
X13978890Y-281700D01*
X13971020Y-324030D01*
X13951330Y-355790D01*
X13915900Y-371670D01*
X13821410D01*
G01X14136370Y-186450D02*
Y-503950D01*
X14293850D01*
G01X14431640D02*
X14530070Y-186450D01*
X14628500Y-503950D01*
G01X14593060Y-392830D02*
X14467070D01*
G01X14845030Y-186450D02*
Y-503950D01*
G01X14754480Y-186450D02*
X14935580D01*
G01X15238730Y-503950D02*
X15081250D01*
Y-186450D01*
X15238730D01*
G01X15175740Y-339900D02*
X15081250D01*
G01X15388340Y-503950D02*
Y-186450D01*
X15467070D01*
X15498570Y-202330D01*
X15522190Y-223490D01*
X15541880Y-255240D01*
X15557630Y-292290D01*
X15561560Y-345200D01*
X15557630Y-398120D01*
X15541880Y-435160D01*
X15522190Y-466920D01*
X15498570Y-488080D01*
X15467070Y-503950D01*
X15388340D01*
G01X13191490Y-3678950D02*
Y-3361450D01*
X13285980D01*
X13317470Y-3377330D01*
X13341100Y-3414370D01*
X13348970Y-3456700D01*
X13341100Y-3499030D01*
X13321410Y-3530790D01*
X13285980Y-3546670D01*
X13191490D01*
G01X13506450Y-3361450D02*
Y-3678950D01*
X13663930D01*
G01X13801720D02*
X13900150Y-3361450D01*
X13998580Y-3678950D01*
G01X13963140Y-3567830D02*
X13837150D01*
G01X14215110Y-3361450D02*
Y-3678950D01*
G01X14124560Y-3361450D02*
X14305660D01*
G01X14608810Y-3678950D02*
X14451330D01*
Y-3361450D01*
X14608810D01*
G01X14545820Y-3514900D02*
X14451330D01*
G01X14758420Y-3678950D02*
Y-3361450D01*
X14837150D01*
X14868650Y-3377330D01*
X14892270Y-3398490D01*
X14911960Y-3430240D01*
X14927710Y-3467290D01*
X14931640Y-3520200D01*
X14927710Y-3573120D01*
X14911960Y-3610160D01*
X14892270Y-3641920D01*
X14868650Y-3663080D01*
X14837150Y-3678950D01*
X14758420D01*
G01X13191490Y-3043950D02*
Y-2726450D01*
X13285980D01*
X13317470Y-2742330D01*
X13341100Y-2779370D01*
X13348970Y-2821700D01*
X13341100Y-2864030D01*
X13321410Y-2895790D01*
X13285980Y-2911670D01*
X13191490D01*
G01X13506450Y-2726450D02*
Y-3043950D01*
X13663930D01*
G01X13801720D02*
X13900150Y-2726450D01*
X13998580Y-3043950D01*
G01X13963140Y-2932830D02*
X13837150D01*
G01X14215110Y-2726450D02*
Y-3043950D01*
G01X14124560Y-2726450D02*
X14305660D01*
G01X14608810Y-3043950D02*
X14451330D01*
Y-2726450D01*
X14608810D01*
G01X14545820Y-2879900D02*
X14451330D01*
G01X14758420Y-3043950D02*
Y-2726450D01*
X14837150D01*
X14868650Y-2742330D01*
X14892270Y-2763490D01*
X14911960Y-2795240D01*
X14927710Y-2832290D01*
X14931640Y-2885200D01*
X14927710Y-2938120D01*
X14911960Y-2975160D01*
X14892270Y-3006920D01*
X14868650Y-3028080D01*
X14837150Y-3043950D01*
X14758420D01*
G01X13191490Y131050D02*
Y448550D01*
X13285980D01*
X13317470Y432670D01*
X13341100Y395630D01*
X13348970Y353300D01*
X13341100Y310970D01*
X13321410Y279210D01*
X13285980Y263330D01*
X13191490D01*
G01X13506450Y448550D02*
Y131050D01*
X13663930D01*
G01X13801720D02*
X13900150Y448550D01*
X13998580Y131050D01*
G01X13963140Y242170D02*
X13837150D01*
G01X14215110Y448550D02*
Y131050D01*
G01X14124560Y448550D02*
X14305660D01*
G01X14608810Y131050D02*
X14451330D01*
Y448550D01*
X14608810D01*
G01X14545820Y295100D02*
X14451330D01*
G01X14758420Y131050D02*
Y448550D01*
X14837150D01*
X14868650Y432670D01*
X14892270Y411510D01*
X14911960Y379760D01*
X14927710Y342710D01*
X14931640Y289800D01*
X14927710Y236880D01*
X14911960Y199840D01*
X14892270Y168080D01*
X14868650Y146920D01*
X14837150Y131050D01*
X14758420D01*
G01X13191490Y766050D02*
Y1083550D01*
X13285980D01*
X13317470Y1067670D01*
X13341100Y1030630D01*
X13348970Y988300D01*
X13341100Y945970D01*
X13321410Y914210D01*
X13285980Y898330D01*
X13191490D01*
G01X13506450Y1083550D02*
Y766050D01*
X13663930D01*
G01X13801720D02*
X13900150Y1083550D01*
X13998580Y766050D01*
G01X13963140Y877170D02*
X13837150D01*
G01X14215110Y1083550D02*
Y766050D01*
G01X14124560Y1083550D02*
X14305660D01*
G01X14608810Y766050D02*
X14451330D01*
Y1083550D01*
X14608810D01*
G01X14545820Y930100D02*
X14451330D01*
G01X14758420Y766050D02*
Y1083550D01*
X14837150D01*
X14868650Y1067670D01*
X14892270Y1046510D01*
X14911960Y1014760D01*
X14927710Y977710D01*
X14931640Y924800D01*
X14927710Y871880D01*
X14911960Y834840D01*
X14892270Y803080D01*
X14868650Y781920D01*
X14837150Y766050D01*
X14758420D01*
G01X13191490Y1401050D02*
Y1718550D01*
X13285980D01*
X13317470Y1702670D01*
X13341100Y1665630D01*
X13348970Y1623300D01*
X13341100Y1580970D01*
X13321410Y1549210D01*
X13285980Y1533330D01*
X13191490D01*
G01X13506450Y1718550D02*
Y1401050D01*
X13663930D01*
G01X13801720D02*
X13900150Y1718550D01*
X13998580Y1401050D01*
G01X13963140Y1512170D02*
X13837150D01*
G01X14215110Y1718550D02*
Y1401050D01*
G01X14124560Y1718550D02*
X14305660D01*
G01X14608810Y1401050D02*
X14451330D01*
Y1718550D01*
X14608810D01*
G01X14545820Y1565100D02*
X14451330D01*
G01X14758420Y1401050D02*
Y1718550D01*
X14837150D01*
X14868650Y1702670D01*
X14892270Y1681510D01*
X14911960Y1649760D01*
X14927710Y1612710D01*
X14931640Y1559800D01*
X14927710Y1506880D01*
X14911960Y1469840D01*
X14892270Y1438080D01*
X14868650Y1416920D01*
X14837150Y1401050D01*
X14758420D01*
G01X13191490Y2036050D02*
Y2353550D01*
X13285980D01*
X13317470Y2337670D01*
X13341100Y2300630D01*
X13348970Y2258300D01*
X13341100Y2215970D01*
X13321410Y2184210D01*
X13285980Y2168330D01*
X13191490D01*
G01X13506450Y2353550D02*
Y2036050D01*
X13663930D01*
G01X13801720D02*
X13900150Y2353550D01*
X13998580Y2036050D01*
G01X13963140Y2147170D02*
X13837150D01*
G01X14215110Y2353550D02*
Y2036050D01*
G01X14124560Y2353550D02*
X14305660D01*
G01X14608810Y2036050D02*
X14451330D01*
Y2353550D01*
X14608810D01*
G01X14545820Y2200100D02*
X14451330D01*
G01X14758420Y2036050D02*
Y2353550D01*
X14837150D01*
X14868650Y2337670D01*
X14892270Y2316510D01*
X14911960Y2284760D01*
X14927710Y2247710D01*
X14931640Y2194800D01*
X14927710Y2141880D01*
X14911960Y2104840D01*
X14892270Y2073080D01*
X14868650Y2051920D01*
X14837150Y2036050D01*
X14758420D01*
G01X15671800Y2512300D02*
Y-3837700D01*
G01X15921710Y-5027080D02*
Y-7027080D01*
G01X16265420Y-5457080D02*
Y-5266580D01*
X16324680D01*
X16343650Y-5276110D01*
X16355500Y-5288810D01*
X16360240Y-5314210D01*
X16355500Y-5339610D01*
X16341280Y-5355480D01*
X16324680Y-5365010D01*
X16265420D01*
G01X16324680D02*
X16360240Y-5457080D01*
G01X16550740D02*
X16455920D01*
Y-5266580D01*
X16550740D01*
G01X16512810Y-5358650D02*
X16455920D01*
G01X16648790Y-5457080D02*
Y-5266580D01*
X16738870D01*
G01X16705680Y-5358650D02*
X16648790D01*
G01X16931740Y-5457080D02*
X16836920D01*
Y-5266580D01*
X16931740D01*
G01X16893810Y-5358650D02*
X16836920D01*
G01X17027420Y-5457080D02*
Y-5266580D01*
X17086680D01*
X17105650Y-5276110D01*
X17117500Y-5288810D01*
X17122240Y-5314210D01*
X17117500Y-5339610D01*
X17103280Y-5355480D01*
X17086680Y-5365010D01*
X17027420D01*
G01X17086680D02*
X17122240Y-5457080D01*
G01X17312740D02*
X17217920D01*
Y-5266580D01*
X17312740D01*
G01X17274810Y-5358650D02*
X17217920D01*
G01X17401310Y-5457080D02*
Y-5266580D01*
X17510350Y-5457080D01*
Y-5266580D01*
G01X17698480Y-5282460D02*
X17684260Y-5272930D01*
X17667670Y-5266580D01*
X17648700D01*
X17627360Y-5276110D01*
X17610770Y-5291980D01*
X17598920Y-5311030D01*
X17589430Y-5342780D01*
X17587060Y-5371360D01*
X17591810Y-5399930D01*
X17598920Y-5418980D01*
X17613140Y-5438030D01*
X17629740Y-5450730D01*
X17646330Y-5457080D01*
X17662920D01*
X17679520Y-5450730D01*
X17693740Y-5441210D01*
X17705600Y-5428510D01*
G01X17884240Y-5457080D02*
X17789420D01*
Y-5266580D01*
X17884240D01*
G01X17846310Y-5358650D02*
X17789420D01*
G01X16341090Y1401050D02*
Y1718550D01*
X16293850Y1655050D01*
G01Y1401050D02*
X16388330D01*
G01X16581240Y1665630D02*
X16604870Y1697380D01*
X16632430Y1713260D01*
X16663930Y1718550D01*
X16703290Y1707970D01*
X16730860Y1681510D01*
X16738730Y1649760D01*
X16734790Y1618000D01*
X16719040Y1591550D01*
X16640300Y1538630D01*
X16604870Y1501590D01*
X16581240Y1448660D01*
X16573370Y1401050D01*
X16738730D01*
G01X16963130D02*
X16971010Y1469840D01*
X16982820Y1528040D01*
X16998570Y1580970D01*
X17018250Y1639170D01*
X17049750Y1718550D01*
X16892270D01*
G01X16341090Y2036050D02*
X16309590Y2041340D01*
X16282040Y2062500D01*
X16258410Y2094260D01*
X16242660Y2131300D01*
X16234790Y2173630D01*
Y2215970D01*
X16242660Y2258300D01*
X16258410Y2295340D01*
X16282040Y2327090D01*
X16309590Y2348260D01*
X16341090Y2353550D01*
X16372580Y2348260D01*
X16400140Y2327090D01*
X16423770Y2295340D01*
X16439520Y2258300D01*
X16447390Y2215970D01*
Y2173630D01*
X16439520Y2131300D01*
X16423770Y2094260D01*
X16400140Y2062500D01*
X16372580Y2041340D01*
X16341090Y2036050D01*
G01X16372580Y2120720D02*
X16419830Y2036050D01*
G01X16656050Y2353550D02*
Y2036050D01*
G01X16565500Y2353550D02*
X16746600D01*
G01X16971010Y2036050D02*
Y2178920D01*
X16892270Y2353550D01*
G01X17049750D02*
X16971010Y2178920D01*
G01X16730200Y-6548700D02*
Y-6358200D01*
X16701750Y-6396300D01*
G01Y-6548700D02*
X16758640D01*
G01X16878030Y-6555050D02*
X16963370Y-6358200D01*
G01X17066160Y-6389950D02*
X17080380Y-6370900D01*
X17096980Y-6361370D01*
X17115940Y-6358200D01*
X17139650Y-6364550D01*
X17156240Y-6380430D01*
X17160980Y-6399470D01*
X17158610Y-6418530D01*
X17149130Y-6434400D01*
X17101720Y-6466150D01*
X17080380Y-6488380D01*
X17066160Y-6520130D01*
X17061420Y-6548700D01*
X17160980D01*
G01X16575420Y-5616580D02*
Y-5807080D01*
X16670240D01*
G01X16754060D02*
X16813330Y-5616580D01*
X16872600Y-5807080D01*
G01X16851260Y-5740410D02*
X16775400D01*
G01X17003830Y-5807080D02*
Y-5721360D01*
X16956420Y-5616580D01*
G01X17051240D02*
X17003830Y-5721360D01*
G01X17241740Y-5807080D02*
X17146920D01*
Y-5616580D01*
X17241740D01*
G01X17203810Y-5708650D02*
X17146920D01*
G01X17337420Y-5807080D02*
Y-5616580D01*
X17396680D01*
X17415650Y-5626110D01*
X17427500Y-5638810D01*
X17432240Y-5664210D01*
X17427500Y-5689610D01*
X17413280Y-5705480D01*
X17396680Y-5715010D01*
X17337420D01*
G01X17396680D02*
X17432240Y-5807080D01*
G01X16581240Y-3414370D02*
X16604870Y-3382620D01*
X16632430Y-3366740D01*
X16663930Y-3361450D01*
X16703290Y-3372030D01*
X16730860Y-3398490D01*
X16738730Y-3430240D01*
X16734790Y-3462000D01*
X16719040Y-3488450D01*
X16640300Y-3541370D01*
X16604870Y-3578410D01*
X16581240Y-3631340D01*
X16573370Y-3678950D01*
X16738730D01*
G01X16581240Y-2779370D02*
X16604870Y-2747620D01*
X16632430Y-2731740D01*
X16663930Y-2726450D01*
X16703290Y-2737030D01*
X16730860Y-2763490D01*
X16738730Y-2795240D01*
X16734790Y-2827000D01*
X16719040Y-2853450D01*
X16640300Y-2906370D01*
X16604870Y-2943410D01*
X16581240Y-2996340D01*
X16573370Y-3043950D01*
X16738730D01*
G01X16581240Y-2144370D02*
X16604870Y-2112620D01*
X16632430Y-2096740D01*
X16663930Y-2091450D01*
X16703290Y-2102030D01*
X16730860Y-2128490D01*
X16738730Y-2160240D01*
X16734790Y-2192000D01*
X16719040Y-2218450D01*
X16640300Y-2271370D01*
X16604870Y-2308410D01*
X16581240Y-2361340D01*
X16573370Y-2408950D01*
X16738730D01*
G01X16581240Y-1509370D02*
X16604870Y-1477620D01*
X16632430Y-1461740D01*
X16663930Y-1456450D01*
X16703290Y-1467030D01*
X16730860Y-1493490D01*
X16738730Y-1525240D01*
X16734790Y-1557000D01*
X16719040Y-1583450D01*
X16640300Y-1636370D01*
X16604870Y-1673410D01*
X16581240Y-1726340D01*
X16573370Y-1773950D01*
X16738730D01*
G01X16569440Y-1091340D02*
X16593050Y-1117790D01*
X16620610Y-1133660D01*
X16656050Y-1138950D01*
X16691490Y-1128370D01*
X16719040Y-1107210D01*
X16738730Y-1070160D01*
X16742660Y-1027830D01*
X16734790Y-985500D01*
X16715100Y-959030D01*
X16687540Y-937870D01*
X16659990Y-932580D01*
X16632430Y-937870D01*
X16597000Y-959030D01*
X16608810Y-821450D01*
X16715100D01*
G01X16581240Y-239370D02*
X16604870Y-207620D01*
X16632430Y-191740D01*
X16663930Y-186450D01*
X16703290Y-197030D01*
X16730860Y-223490D01*
X16738730Y-255240D01*
X16734790Y-287000D01*
X16719040Y-313450D01*
X16640300Y-366370D01*
X16604870Y-403410D01*
X16581240Y-456340D01*
X16573370Y-503950D01*
X16738730D01*
G01X16581240Y395630D02*
X16604870Y427380D01*
X16632430Y443260D01*
X16663930Y448550D01*
X16703290Y437970D01*
X16730860Y411510D01*
X16738730Y379760D01*
X16734790Y348000D01*
X16719040Y321550D01*
X16640300Y268630D01*
X16604870Y231590D01*
X16581240Y178660D01*
X16573370Y131050D01*
X16738730D01*
G01X16703290Y766050D02*
Y1083550D01*
X16557620Y856010D01*
X16754480D01*
G01X18220700Y-7035200D02*
Y-5935200D01*
G01Y-5035200D02*
Y-5935200D01*
G01X18358700Y-5289950D02*
Y-5480450D01*
G01X18304180Y-5289950D02*
X18413220D01*
G01X18549200Y-5480450D02*
X18530230Y-5477280D01*
X18513640Y-5464580D01*
X18499420Y-5445530D01*
X18489930Y-5423300D01*
X18485190Y-5397900D01*
Y-5372500D01*
X18489930Y-5347100D01*
X18499420Y-5324870D01*
X18513640Y-5305830D01*
X18530230Y-5293120D01*
X18549200Y-5289950D01*
X18568160Y-5293120D01*
X18584760Y-5305830D01*
X18598980Y-5324870D01*
X18608470Y-5347100D01*
X18613210Y-5372500D01*
Y-5397900D01*
X18608470Y-5423300D01*
X18598980Y-5445530D01*
X18584760Y-5464580D01*
X18568160Y-5477280D01*
X18549200Y-5480450D01*
G01X18692290Y-5289950D02*
Y-5480450D01*
X18787110D01*
G01X18977610D02*
X18882790D01*
Y-5289950D01*
X18977610D01*
G01X18939680Y-5382020D02*
X18882790D01*
G01X19073290Y-5480450D02*
Y-5289950D01*
X19132550D01*
X19151520Y-5299480D01*
X19163370Y-5312180D01*
X19168110Y-5337580D01*
X19163370Y-5362980D01*
X19149150Y-5378850D01*
X19132550Y-5388380D01*
X19073290D01*
G01X19132550D02*
X19168110Y-5480450D01*
G01X19251930D02*
X19311200Y-5289950D01*
X19370470Y-5480450D01*
G01X19349130Y-5413780D02*
X19273270D01*
G01X19447180Y-5480450D02*
Y-5289950D01*
X19556220Y-5480450D01*
Y-5289950D01*
G01X19744350Y-5305830D02*
X19730130Y-5296300D01*
X19713540Y-5289950D01*
X19694570D01*
X19673230Y-5299480D01*
X19656640Y-5315350D01*
X19644790Y-5334400D01*
X19635300Y-5366150D01*
X19632930Y-5394730D01*
X19637680Y-5423300D01*
X19644790Y-5442350D01*
X19659010Y-5461400D01*
X19675610Y-5474100D01*
X19692200Y-5480450D01*
X19708790D01*
X19725390Y-5474100D01*
X19739610Y-5464580D01*
X19751470Y-5451880D01*
G01X19930110Y-5480450D02*
X19835290D01*
Y-5289950D01*
X19930110D01*
G01X19892180Y-5382020D02*
X19835290D01*
G01X18718370Y-6485200D02*
X18775270D01*
G01X18744450Y-6443920D02*
Y-6526480D01*
G01X18892280Y-6555050D02*
X18977620Y-6358200D01*
G01X19094630Y-6485200D02*
X19156270D01*
G01X19315950Y-6548700D02*
Y-6358200D01*
X19287500Y-6396300D01*
G01Y-6548700D02*
X19344390D01*
G01X19506450Y-6358200D02*
X19487480Y-6364550D01*
X19473260Y-6380430D01*
X19463780Y-6399470D01*
X19456670Y-6424880D01*
X19454300Y-6453450D01*
X19456670Y-6482030D01*
X19463780Y-6507430D01*
X19473260Y-6526480D01*
X19487480Y-6542350D01*
X19506450Y-6548700D01*
X19525410Y-6542350D01*
X19539640Y-6526480D01*
X19549120Y-6507430D01*
X19556230Y-6482030D01*
X19558600Y-6453450D01*
X19556230Y-6424880D01*
X19549120Y-6399470D01*
X19539640Y-6380430D01*
X19525410Y-6364550D01*
X19506450Y-6358200D01*
G01X19654280Y-6555050D02*
X19739620Y-6358200D01*
G01X19654280D02*
X19640050Y-6364550D01*
X19632940Y-6374080D01*
X19628200Y-6393120D01*
X19632940Y-6412180D01*
X19640050Y-6421700D01*
X19654280Y-6428050D01*
X19668500Y-6421700D01*
X19675610Y-6412180D01*
X19680360Y-6393120D01*
X19675610Y-6374080D01*
X19668500Y-6364550D01*
X19654280Y-6358200D01*
G01X19739620Y-6485200D02*
X19725400Y-6491550D01*
X19718290Y-6501070D01*
X19713540Y-6520130D01*
X19718290Y-6539180D01*
X19725400Y-6548700D01*
X19739620Y-6555050D01*
X19753840Y-6548700D01*
X19760960Y-6539180D01*
X19765700Y-6520130D01*
X19760960Y-6501070D01*
X19753840Y-6491550D01*
X19739620Y-6485200D01*
G01X20021710Y-7027080D02*
Y-5927080D01*
G01Y-5027080D02*
Y-5927080D01*
G54D11*
X223450Y584200D03*
X54700Y1422500D03*
X50800Y1308100D03*
X70010Y1716300D03*
X243400Y258680D03*
X361000Y709000D03*
X355600Y1140500D03*
X247500Y1263800D03*
X406400Y1805200D03*
X543400Y258680D03*
X662000Y790000D03*
X671680Y570080D03*
X571500Y939800D03*
X501500Y1257300D03*
X609600Y1244600D03*
X660400Y1676400D03*
X923270Y152400D03*
X812800Y711200D03*
X787400Y1035560D03*
X850900Y825500D03*
X723900Y1231900D03*
X736600Y1441870D03*
X828930Y1297870D03*
X736600Y1816100D03*
X1041400Y977900D03*
X980040Y1242370D03*
X1041400Y1828800D03*
X1308100Y165100D03*
Y254000D03*
X1409700D03*
X1219200Y963750D03*
X1370080Y1054100D03*
X1257300Y1371600D03*
X1452880Y330000D03*
X1556870Y496060D03*
X1485900Y774700D03*
X1474000Y999200D03*
X1483000Y1152000D03*
X1618920Y1631310D03*
X1689860Y411630D03*
X1866620Y489850D03*
X1834000Y688000D03*
X1788500Y574500D03*
X1788270Y1056530D03*
X1805000Y1646000D03*
X1930400Y546100D03*
X2027000Y805000D03*
X2019300Y1143000D03*
X2019000Y1391000D03*
X2110000Y1820470D03*
X2274220Y239260D03*
X2377520Y521360D03*
X2298700Y501480D03*
X2154000Y745000D03*
X2358000Y744000D03*
X2300000Y950000D03*
X2298700Y1092200D03*
X2204600Y1107000D03*
X2243000Y1531000D03*
X2519830Y273170D03*
X2514600Y101600D03*
X2466000Y518000D03*
X2542060Y546670D03*
X2477800Y744200D03*
X2562000Y744000D03*
X2600000Y950000D03*
X2450000D03*
X2449000Y1070000D03*
X2600000Y1100000D03*
X2542000Y1538000D03*
X2539000Y1786000D03*
X2781300Y292100D03*
X2824480Y210820D03*
X2763170Y414170D03*
X2781300Y571500D03*
X2755900Y723900D03*
X2797980Y944730D03*
X2805600Y818030D03*
X2828000Y1517000D03*
X2813580Y1760780D03*
X2863850Y1797050D03*
X2946400Y254000D03*
X2966000Y544870D03*
X3073900Y330700D03*
X2908300Y330200D03*
X2885780Y584200D03*
X3000000Y963000D03*
X3102000Y923000D03*
X3007000Y1208000D03*
X3066880Y1262970D03*
X3005100Y1094850D03*
X2997480Y1432900D03*
X3077870Y1356360D03*
X2983710Y1674500D03*
X2978950Y1765300D03*
X3213600Y330700D03*
X3251200Y876300D03*
X3149600Y1282700D03*
X3251200Y1270000D03*
X3263900Y1447800D03*
X3238500Y1784860D03*
X3492270Y266700D03*
X3403600Y152400D03*
X3492270Y355600D03*
X3353300Y329700D03*
X3390950Y776190D03*
Y678290D03*
X3485700Y625400D03*
X3368380Y929670D03*
X3473000Y822400D03*
X3454400Y1092200D03*
X3378200Y1460500D03*
X3533000Y1608000D03*
X3352800Y1816100D03*
X3759450Y457450D03*
X3664450Y400980D03*
X3657600Y825500D03*
X3752850Y1619250D03*
X3822700Y1778000D03*
X3848100Y457200D03*
X3908420Y1028700D03*
X3975140Y901780D03*
X3827500Y1704800D03*
X3937000Y1524000D03*
X4000500D03*
X4025900Y1631000D03*
X3856750Y1549400D03*
X6183630Y1559800D03*
G54D12*
X318400Y360500D03*
X618400D03*
X6183630Y-1615200D03*
G54D13*
X1164310Y1769490D03*
X1731290D03*
X6183630Y-2885200D03*
G54D14*
X1247800Y1554500D03*
X1647800D03*
X6183630Y-345200D03*
G54D15*
X1574600Y230000D03*
X2374600D03*
X6183630Y289800D03*
G54D16*
X4142050Y600000D03*
Y850000D03*
Y1050000D03*
Y1300000D03*
X6183630Y924800D03*
G54D17*
X4357050Y370000D03*
Y1530000D03*
G54D18*
Y725000D03*
Y1175000D03*
X6183630Y-2250200D03*
G54D19*
Y-3520200D03*
M02*
